  0
SECTION
  2
HEADER
  9
$ACADVER
  1
AC1009
  9
$INSBASE
 10
0.0
 20
0.0
 30
0.0
  9
$EXTMIN
 10
0.0
 20
0.0
 30
0.0
  9
$EXTMAX
 10
5102.68798729676
 20
1346.90960040414
 30
0.0
  9
$LIMMIN
 10
0.0
 20
0.0
  9
$LIMMAX
 10
12.0
 20
9.0
  9
$ORTHOMODE
 70
     0
  9
$REGENMODE
 70
     1
  9
$FILLMODE
 70
     1
  9
$QTEXTMODE
 70
     0
  9
$MIRRTEXT
 70
     0
  9
$DRAGMODE
 70
     2
  9
$LTSCALE
 40
1.0
  9
$OSMODE
 70
    37
  9
$ATTMODE
 70
     1
  9
$TEXTSIZE
 40
0.2
  9
$TRACEWID
 40
0.05
  9
$TEXTSTYLE
  7
STANDARD
  9
$CLAYER
  8
0
  9
$CELTYPE
  6
BYLAYER
  9
$CECOLOR
 62
   256
  9
$DIMSCALE
 40
1.0
  9
$DIMASZ
 40
0.18
  9
$DIMEXO
 40
0.0625
  9
$DIMDLI
 40
0.38
  9
$DIMRND
 40
0.0
  9
$DIMDLE
 40
0.0
  9
$DIMEXE
 40
0.18
  9
$DIMTP
 40
0.0
  9
$DIMTM
 40
0.0
  9
$DIMTXT
 40
0.18
  9
$DIMCEN
 40
0.09
  9
$DIMTSZ
 40
0.0
  9
$DIMTOL
 70
     0
  9
$DIMLIM
 70
     0
  9
$DIMTIH
 70
     1
  9
$DIMTOH
 70
     1
  9
$DIMSE1
 70
     0
  9
$DIMSE2
 70
     0
  9
$DIMTAD
 70
     0
  9
$DIMZIN
 70
     0
  9
$DIMBLK
  1

  9
$DIMASO
 70
     1
  9
$DIMSHO
 70
     1
  9
$DIMPOST
  1

  9
$DIMAPOST
  1

  9
$DIMALT
 70
     0
  9
$DIMALTD
 70
     2
  9
$DIMALTF
 40
25.4
  9
$DIMLFAC
 40
1.0
  9
$DIMTOFL
 70
     0
  9
$DIMTVP
 40
0.0
  9
$DIMTIX
 70
     0
  9
$DIMSOXD
 70
     0
  9
$DIMSAH
 70
     0
  9
$DIMBLK1
  1

  9
$DIMBLK2
  1

  9
$DIMSTYLE
  2
STANDARD
  9
$DIMCLRD
 70
     0
  9
$DIMCLRE
 70
     0
  9
$DIMCLRT
 70
     0
  9
$DIMTFAC
 40
1.0
  9
$DIMGAP
 40
0.09
  9
$LUNITS
 70
     2
  9
$LUPREC
 70
     4
  9
$SKETCHINC
 40
0.1
  9
$FILLETRAD
 40
0.0
  9
$AUNITS
 70
     0
  9
$AUPREC
 70
     0
  9
$MENU
  1
.
  9
$ELEVATION
 40
0.0
  9
$PELEVATION
 40
0.0
  9
$THICKNESS
 40
0.0
  9
$LIMCHECK
 70
     0
  9
$BLIPMODE
 70
     0
  9
$CHAMFERA
 40
0.0
  9
$CHAMFERB
 40
0.0
  9
$SKPOLY
 70
     0
  9
$TDCREATE
 40
2461050.65214985
  9
$TDUPDATE
 40
2461050.65215067
  9
$TDINDWG
 40
0.000000850835648
  9
$TDUSRTIMER
 40
0.000000850835648
  9
$USRTIMER
 70
     1
  9
$ANGBASE
 50
0.0
  9
$ANGDIR
 70
     0
  9
$PDMODE
 70
     0
  9
$PDSIZE
 40
0.0
  9
$PLINEWID
 40
0.0
  9
$COORDS
 70
     1
  9
$SPLFRAME
 70
     0
  9
$SPLINETYPE
 70
     6
  9
$SPLINESEGS
 70
     8
  9
$ATTDIA
 70
     1
  9
$ATTREQ
 70
     1
  9
$HANDLING
 70
     1
  9
$HANDSEED
  5
3ED
  9
$SURFTAB1
 70
     6
  9
$SURFTAB2
 70
     6
  9
$SURFTYPE
 70
     6
  9
$SURFU
 70
     6
  9
$SURFV
 70
     6
  9
$UCSNAME
  2

  9
$UCSORG
 10
0.0
 20
0.0
 30
0.0
  9
$UCSXDIR
 10
1.0
 20
0.0
 30
0.0
  9
$UCSYDIR
 10
0.0
 20
1.0
 30
0.0
  9
$PUCSNAME
  2

  9
$PUCSORG
 10
0.0
 20
0.0
 30
0.0
  9
$PUCSXDIR
 10
1.0
 20
0.0
 30
0.0
  9
$PUCSYDIR
 10
0.0
 20
1.0
 30
0.0
  9
$USERI1
 70
     0
  9
$USERI2
 70
     0
  9
$USERI3
 70
     0
  9
$USERI4
 70
     0
  9
$USERI5
 70
     0
  9
$USERR1
 40
0.0
  9
$USERR2
 40
0.0
  9
$USERR3
 40
0.0
  9
$USERR4
 40
0.0
  9
$USERR5
 40
0.0
  9
$WORLDVIEW
 70
     1
  9
$SHADEDGE
 70
     3
  9
$SHADEDIF
 70
    70
  9
$TILEMODE
 70
     1
  9
$MAXACTVP
 70
    64
  9
$PLIMCHECK
 70
     0
  9
$PEXTMIN
 10
100000000000000000000.0
 20
100000000000000000000.0
 30
100000000000000000000.0
  9
$PEXTMAX
 10
-100000000000000000000.0
 20
-100000000000000000000.0
 30
-100000000000000000000.0
  9
$PLIMMIN
 10
0.0
 20
0.0
  9
$PLIMMAX
 10
12.0
 20
9.0
  9
$UNITMODE
 70
     0
  9
$VISRETAIN
 70
     1
  9
$PLINEGEN
 70
     0
  9
$PSLTSCALE
 70
     1
  0
ENDSEC
  0
SECTION
  2
TABLES
  0
TABLE
  2
VPORT
  5
1
 70
     1
  0
VPORT
  5
2
100
AcDbSymbolTableRecord
  2
*ACTIVE
 70
     0
 10
0.0
 20
0.0
 11
1.0
 21
1.0
 12
0.0
 22
0.0
 13
0.0
 23
0.0
 14
1.0
 24
1.0
 15
1.0
 25
1.0
 16
0.0
 26
0.0
 36
1.0
 17
0.0
 27
0.0
 37
0.0
 40
1.0
 41
1.0
 42
50.0
 43
0.0
 44
0.0
 50
0.0
 51
0.0
 71
     0
 72
  1000
 73
     1
 74
     3
 75
     0
 76
     0
 77
     0
 78
     0
  0
ENDTAB
  0
TABLE
  2
LTYPE
  5
3
 70
     3
  0
LTYPE
  5
6
100
AcDbSymbolTableRecord
  2
BYBLOCK
 70
     0
  3

 72
    65
 73
     0
 40
0.0
  0
LTYPE
  5
4
100
AcDbSymbolTableRecord
  2
BYLAYER
 70
     0
  3

 72
    65
 73
     0
 40
0.0
  0
LTYPE
  5
5
100
AcDbSymbolTableRecord
  2
CONTINUOUS
 70
     0
  3

 72
    65
 73
     0
 40
0.0
  0
ENDTAB
  0
TABLE
  2
LAYER
  5
7
 70
     5
  0
LAYER
  5
8
100
AcDbSymbolTableRecord
  2
0
 70
     0
 62
     7
  6
CONTINUOUS
  0
LAYER
  5
9
100
AcDbSymbolTableRecord
  2
1
 70
     0
 62
     7
  6
CONTINUOUS
  0
LAYER
  5
C
100
AcDbSymbolTableRecord
  2
11
 70
     0
 62
     7
  6
CONTINUOUS
  0
LAYER
  5
A
100
AcDbSymbolTableRecord
  2
2
 70
     0
 62
     7
  6
CONTINUOUS
  0
LAYER
  5
B
100
AcDbSymbolTableRecord
  2
3
 70
     0
 62
     7
  6
CONTINUOUS
  0
ENDTAB
  0
TABLE
  2
STYLE
  5
D
 70
     2
  0
STYLE
  5
F
100
AcDbSymbolTableRecord
  2
ANNOTATIVE
 70
     0
 40
0.0
 41
1.0
 50
0.0
 71
     0
 42
0.2
  3
txt
  4

  0
STYLE
  5
E
100
AcDbSymbolTableRecord
  2
STANDARD
 70
     0
 40
0.0
 41
1.0
 50
0.0
 71
     0
 42
0.2
  3
txt
  4

  0
ENDTAB
  0
TABLE
  2
VIEW
  5
10
 70
     0
  0
ENDTAB
  0
TABLE
  2
UCS
  5
11
 70
     0
  0
ENDTAB
  0
TABLE
  2
APPID
  5
12
 70
     4
  0
APPID
  5
13
100
AcDbSymbolTableRecord
  2
ACAD
 70
     0
  0
APPID
  5
16
100
AcDbSymbolTableRecord
  2
ACAD_MLEADERVER
 70
     0
  0
APPID
  5
15
100
AcDbSymbolTableRecord
  2
ACAD_NAV_VCDISPLAY
 70
     0
  0
APPID
  5
14
100
AcDbSymbolTableRecord
  2
ACADANNOTATIVE
 70
     0
  0
ENDTAB
  0
TABLE
  2
DIMSTYLE
  5
17
 70
     2
  0
DIMSTYLE
105
19
100
AcDbSymbolTableRecord
  2
ANNOTATIVE
 70
     0
  3

  4

  5

  6

  7

 40
1.0
 41
0.18
 42
0.0625
 43
0.38
 44
0.18
 45
0.0
 46
0.0
 47
0.0
 48
0.0
 71
     0
 72
     0
 73
     1
 74
     1
 75
     0
 76
     0
 77
     0
 78
     0
140
0.18
141
0.09
142
0.0
143
25.4
144
1.0
145
0.0
146
1.0
147
0.09
170
     0
171
     2
172
     0
173
     0
174
     0
175
     0
176
     0
177
     0
178
     0
  0
DIMSTYLE
105
18
100
AcDbSymbolTableRecord
  2
STANDARD
 70
     0
  3

  4

  5

  6

  7

 40
1.0
 41
0.18
 42
0.0625
 43
0.38
 44
0.18
 45
0.0
 46
0.0
 47
0.0
 48
0.0
 71
     0
 72
     0
 73
     1
 74
     1
 75
     0
 76
     0
 77
     0
 78
     0
140
0.18
141
0.09
142
0.0
143
25.4
144
1.0
145
0.0
146
1.0
147
0.09
170
     0
171
     2
172
     0
173
     0
174
     0
175
     0
176
     0
177
     0
178
     0
  0
ENDTAB
  0
ENDSEC
  0
SECTION
  2
BLOCKS
  0
BLOCK
  8
1
  2
0
 70
    64
 10
0.0
 20
0.0
 30
0.0
  3
0
  1

  0
TEXT
  5
1E
  8
1
100
AcDbText
 10
3683.84263950665
 20
1114.49298672824
 30
0.0
 40
7.0
  1
Size: 34
100
AcDbText
  0
TEXT
  5
1F
  8
1
100
AcDbText
 10
3683.84263950665
 20
1121.49298672824
 30
0.0
 40
7.0
  1
Model: JEAN
100
AcDbText
  0
TEXT
  5
20
  8
1
100
AcDbText
 10
3683.84263950665
 20
1128.49298672824
 30
0.0
 40
7.0
  1
Piece Name: CN-PKT
100
AcDbText
  0
TEXT
  5
21
  8
1
100
AcDbText
 10
3683.84263950665
 20
1142.49298672824
 30
0.0
 40
7.0
  1
Quantity: 1,0
100
AcDbText
  0
TEXT
  5
22
  8
1
100
AcDbText
 10
3683.84263950665
 20
1149.49298672824
 30
0.0
 40
7.0
  1
Material: SHEL
100
AcDbText
  0
POLYLINE
  5
23
  8
1
100
AcDb2dPolyline
 66
     1
 10
0.0
 20
0.0
 30
0.0
 70
     1
  0
VERTEX
  5
24
  8
1
100
AcDbVertex
100
AcDb2dVertex
 10
3614.406094
 20
1194.73031270184
 30
0.0
 70
     0
 50
0.0
  0
VERTEX
  5
25
  8
1
100
AcDbVertex
100
AcDb2dVertex
 10
3731.05415286255
 20
1198.04351245648
 30
0.0
 70
     0
 50
0.0
  0
VERTEX
  5
26
  8
1
100
AcDbVertex
100
AcDb2dVertex
 10
3753.27918501329
 20
1182.0403252491
 30
0.0
 70
     0
 50
0.0
  0
VERTEX
  5
27
  8
1
100
AcDbVertex
100
AcDb2dVertex
 10
3753.27916955074
 20
1074.94498903391
 30
0.0
 70
     0
 50
0.0
  0
VERTEX
  5
28
  8
1
100
AcDbVertex
100
AcDb2dVertex
 10
3731.05424346161
 20
1058.942461
 30
0.0
 70
     0
 50
0.0
  0
VERTEX
  5
29
  8
1
100
AcDbVertex
100
AcDb2dVertex
 10
3636.57303255005
 20
1062.10068516058
 30
0.0
 70
     0
 50
0.0
  0
VERTEX
  5
2A
  8
1
100
AcDbVertex
100
AcDb2dVertex
 10
3632.35277114943
 20
1074.94172512468
 30
0.0
 70
     0
 50
0.0
  0
VERTEX
  5
2B
  8
1
100
AcDbVertex
100
AcDb2dVertex
 10
3628.15048609521
 20
1089.28227777024
 30
0.0
 70
     0
 50
0.0
  0
VERTEX
  5
2C
  8
1
100
AcDbVertex
100
AcDb2dVertex
 10
3625.04717082655
 20
1099.73133020718
 30
0.0
 70
     0
 50
0.0
  0
VERTEX
  5
2D
  8
1
100
AcDbVertex
100
AcDb2dVertex
 10
3622.84848217281
 20
1107.31207355197
 30
0.0
 70
     0
 50
0.0
  0
VERTEX
  5
2E
  8
1
100
AcDbVertex
100
AcDb2dVertex
 10
3621.36007696338
 20
1113.04769892108
 30
0.0
 70
     0
 50
0.0
  0
VERTEX
  5
2F
  8
1
100
AcDbVertex
100
AcDb2dVertex
 10
3620.38761202765
 20
1117.96139743098
 30
0.0
 70
     0
 50
0.0
  0
VERTEX
  5
30
  8
1
100
AcDbVertex
100
AcDb2dVertex
 10
3619.736744195
 20
1123.07636019815
 30
0.0
 70
     0
 50
0.0
  0
VERTEX
  5
31
  8
1
100
AcDbVertex
100
AcDb2dVertex
 10
3619.2131302948
 20
1129.41577833905
 30
0.0
 70
     0
 50
0.0
  0
VERTEX
  5
32
  8
1
100
AcDbVertex
100
AcDb2dVertex
 10
3618.62242715645
 20
1138.00284297016
 30
0.0
 70
     0
 50
0.0
  0
VERTEX
  5
33
  8
1
100
AcDbVertex
100
AcDb2dVertex
 10
3618.07155282882
 20
1145.80855664115
 30
0.0
 70
     0
 50
0.0
  0
VERTEX
  5
34
  8
1
100
AcDbVertex
100
AcDb2dVertex
 10
3617.3305713447
 20
1155.52444534063
 30
0.0
 70
     0
 50
0.0
  0
VERTEX
  5
35
  8
1
100
AcDbVertex
100
AcDb2dVertex
 10
3616.33485748989
 20
1167.49075228307
 30
0.0
 70
     0
 50
0.0
  0
VERTEX
  5
36
  8
1
100
AcDbVertex
100
AcDb2dVertex
 10
3615.01978605017
 20
1182.04772068292
 30
0.0
 70
     0
 50
0.0
  0
SEQEND
  5
37
  8
0
  0
POINT
  5
38
  8
2
 10
3614.406094
 20
1194.73031270184
 30
0.0
  0
POINT
  5
39
  8
2
 10
3731.05415286255
 20
1198.04351245648
 30
0.0
  0
POINT
  5
3A
  8
2
 10
3753.27918501329
 20
1182.0403252491
 30
0.0
  0
POINT
  5
3B
  8
2
 10
3753.27916955074
 20
1074.94498903391
 30
0.0
  0
POINT
  5
3C
  8
2
 10
3731.05424346161
 20
1058.942461
 30
0.0
  0
POINT
  5
3D
  8
2
 10
3636.57303255005
 20
1062.10068516058
 30
0.0
  0
POINT
  5
3E
  8
2
 10
3632.35277114943
 20
1074.94172512468
 30
0.0
  0
POINT
  5
3F
  8
3
 10
3628.15048609521
 20
1089.28227777024
 30
0.0
  0
POINT
  5
40
  8
3
 10
3625.04717082655
 20
1099.73133020718
 30
0.0
  0
POINT
  5
41
  8
3
 10
3622.84848217281
 20
1107.31207355197
 30
0.0
  0
POINT
  5
42
  8
3
 10
3621.36007696338
 20
1113.04769892108
 30
0.0
  0
POINT
  5
43
  8
3
 10
3620.38761202765
 20
1117.96139743098
 30
0.0
  0
POINT
  5
44
  8
3
 10
3619.736744195
 20
1123.07636019815
 30
0.0
  0
POINT
  5
45
  8
3
 10
3619.2131302948
 20
1129.41577833905
 30
0.0
  0
POINT
  5
46
  8
2
 10
3618.62242715645
 20
1138.00284297016
 30
0.0
  0
POINT
  5
47
  8
3
 10
3618.07155282882
 20
1145.80855664115
 30
0.0
  0
POINT
  5
48
  8
3
 10
3617.3305713447
 20
1155.52444534063
 30
0.0
  0
POINT
  5
49
  8
3
 10
3616.33485748989
 20
1167.49075228307
 30
0.0
  0
POINT
  5
4A
  8
2
 10
3615.01978605017
 20
1182.04772068292
 30
0.0
  0
LINE
  5
4B
  8
11
 10
3731.05415286255
 20
1198.04351245648
 30
0.0
 11
3731.46826333471
 21
1199.58899377854
 31
0.0
  0
LINE
  5
4C
  8
11
 10
3731.05424346161
 20
1058.942461
 30
0.0
 11
3731.05424407319
 21
1057.342461
 31
0.0
  0
ENDBLK
  5
1D
  8
1
  0
BLOCK
  8
1
  2
1
 70
    64
 10
0.0
 20
0.0
 30
0.0
  3
1
  1

  0
TEXT
  5
4F
  8
1
100
AcDbText
 10
4755.88143140058
 20
158.922831538235
 30
0.0
 40
7.0
  1
Size: 34
100
AcDbText
  0
TEXT
  5
50
  8
1
100
AcDbText
 10
4755.88143140058
 20
165.922831538235
 30
0.0
 40
7.0
  1
Model: JEAN
100
AcDbText
  0
TEXT
  5
51
  8
1
100
AcDbText
 10
4755.88143140058
 20
172.922831538235
 30
0.0
 40
7.0
  1
Piece Name: BK-YK
100
AcDbText
  0
TEXT
  5
52
  8
1
100
AcDbText
 10
4755.88143140058
 20
186.922831538235
 30
0.0
 40
7.0
  1
Quantity: 1,1
100
AcDbText
  0
TEXT
  5
53
  8
1
100
AcDbText
 10
4755.88143140058
 20
193.922831538235
 30
0.0
 40
7.0
  1
Material: SHEL
100
AcDbText
  0
POLYLINE
  5
54
  8
1
100
AcDb2dPolyline
 66
     1
 10
0.0
 20
0.0
 30
0.0
 70
     1
  0
VERTEX
  5
55
  8
1
100
AcDbVertex
100
AcDb2dVertex
 10
4697.087903
 20
12.7333826409231
 30
0.0
 70
     0
 50
0.0
  0
VERTEX
  5
56
  8
1
100
AcDbVertex
100
AcDb2dVertex
 10
4725.35497030566
 20
344.16905807647
 30
0.0
 70
     0
 50
0.0
  0
VERTEX
  5
57
  8
1
100
AcDbVertex
100
AcDb2dVertex
 10
4745.56405088277
 20
335.265286034746
 30
0.0
 70
     0
 50
0.0
  0
VERTEX
  5
58
  8
1
100
AcDbVertex
100
AcDb2dVertex
 10
4759.0082852867
 20
329.378879111412
 30
0.0
 70
     0
 50
0.0
  0
VERTEX
  5
59
  8
1
100
AcDbVertex
100
AcDb2dVertex
 10
4767.77808490545
 20
325.536427674004
 30
0.0
 70
     0
 50
0.0
  0
VERTEX
  5
5A
  8
1
100
AcDbVertex
100
AcDb2dVertex
 10
4773.963861127
 20
322.764522090056
 30
0.0
 70
     0
 50
0.0
  0
VERTEX
  5
5B
  8
1
100
AcDbVertex
100
AcDb2dVertex
 10
4779.65602533936
 20
320.089752727105
 30
0.0
 70
     0
 50
0.0
  0
VERTEX
  5
5C
  8
1
100
AcDbVertex
100
AcDb2dVertex
 10
4786.94498893051
 20
316.538709952684
 30
0.0
 70
     0
 50
0.0
  0
VERTEX
  5
5D
  8
1
100
AcDbVertex
100
AcDb2dVertex
 10
4814.67495980115
 20
302.914165639577
 30
0.0
 70
     0
 50
0.0
  0
VERTEX
  5
5E
  8
1
100
AcDbVertex
100
AcDb2dVertex
 10
4812.31876998955
 20
294.400805101093
 30
0.0
 70
     0
 50
0.0
  0
VERTEX
  5
5F
  8
1
100
AcDbVertex
100
AcDb2dVertex
 10
4809.92692391175
 20
285.896439297489
 30
0.0
 70
     0
 50
0.0
  0
VERTEX
  5
60
  8
1
100
AcDbVertex
100
AcDb2dVertex
 10
4805.06917643403
 20
268.906389062723
 30
0.0
 70
     0
 50
0.0
  0
VERTEX
  5
61
  8
1
100
AcDbVertex
100
AcDb2dVertex
 10
4795.28785452563
 20
234.942894257584
 30
0.0
 70
     0
 50
0.0
  0
VERTEX
  5
62
  8
1
100
AcDbVertex
100
AcDb2dVertex
 10
4790.4959340009
 20
217.936238358425
 30
0.0
 70
     0
 50
0.0
  0
VERTEX
  5
63
  8
1
100
AcDbVertex
100
AcDb2dVertex
 10
4788.15345813783
 20
209.419418306526
 30
0.0
 70
     0
 50
0.0
  0
VERTEX
  5
64
  8
1
100
AcDbVertex
100
AcDb2dVertex
 10
4785.8576096998
 20
200.890835909015
 30
0.0
 70
     0
 50
0.0
  0
VERTEX
  5
65
  8
1
100
AcDbVertex
100
AcDb2dVertex
 10
4783.61661705592
 20
192.348415457843
 30
0.0
 70
     0
 50
0.0
  0
VERTEX
  5
66
  8
1
100
AcDbVertex
100
AcDb2dVertex
 10
4781.43870857532
 20
183.790081244961
 30
0.0
 70
     0
 50
0.0
  0
VERTEX
  5
67
  8
1
100
AcDbVertex
100
AcDb2dVertex
 10
4779.33211262711
 20
175.21375756232
 30
0.0
 70
     0
 50
0.0
  0
VERTEX
  5
68
  8
1
100
AcDbVertex
100
AcDb2dVertex
 10
4777.30505758043
 20
166.617368701871
 30
0.0
 70
     0
 50
0.0
  0
VERTEX
  5
69
  8
1
100
AcDbVertex
100
AcDb2dVertex
 10
4776.33277016067
 20
162.146690435083
 30
0.0
 70
     0
 50
0.0
  0
VERTEX
  5
6A
  8
1
100
AcDbVertex
100
AcDb2dVertex
 10
4775.08070643154
 20
155.988535567796
 30
0.0
 70
     0
 50
0.0
  0
VERTEX
  5
6B
  8
1
100
AcDbVertex
100
AcDb2dVertex
 10
4773.58216677537
 20
148.337702815415
 30
0.0
 70
     0
 50
0.0
  0
VERTEX
  5
6C
  8
1
100
AcDbVertex
100
AcDb2dVertex
 10
4771.87045157452
 20
139.388990893343
 30
0.0
 70
     0
 50
0.0
  0
VERTEX
  5
6D
  8
1
100
AcDbVertex
100
AcDb2dVertex
 10
4767.94069606811
 20
118.37712440175
 30
0.0
 70
     0
 50
0.0
  0
VERTEX
  5
6E
  8
1
100
AcDbVertex
100
AcDb2dVertex
 10
4763.55784297104
 20
94.5113258162536
 30
0.0
 70
     0
 50
0.0
  0
VERTEX
  5
6F
  8
1
100
AcDbVertex
100
AcDb2dVertex
 10
4758.98829534206
 20
69.3499848600927
 30
0.0
 70
     0
 50
0.0
  0
VERTEX
  5
70
  8
1
100
AcDbVertex
100
AcDb2dVertex
 10
4754.49845623988
 20
44.4514912565049
 30
0.0
 70
     0
 50
0.0
  0
VERTEX
  5
71
  8
1
100
AcDbVertex
100
AcDb2dVertex
 10
4746.82351585089
 20
1.676605
 30
0.0
 70
     0
 50
0.0
  0
VERTEX
  5
72
  8
1
100
AcDbVertex
100
AcDb2dVertex
 10
4702.78080461133
 20
5.12023872002486
 30
0.0
 70
     0
 50
0.0
  0
SEQEND
  5
73
  8
0
  0
POINT
  5
74
  8
2
 10
4697.087903
 20
12.7333826409231
 30
0.0
  0
POINT
  5
75
  8
2
 10
4725.35497030566
 20
344.16905807647
 30
0.0
  0
POINT
  5
76
  8
3
 10
4745.56405088277
 20
335.265286034746
 30
0.0
  0
POINT
  5
77
  8
3
 10
4759.0082852867
 20
329.378879111412
 30
0.0
  0
POINT
  5
78
  8
3
 10
4767.77808490545
 20
325.536427674004
 30
0.0
  0
POINT
  5
79
  8
3
 10
4773.963861127
 20
322.764522090056
 30
0.0
  0
POINT
  5
7A
  8
3
 10
4779.65602533936
 20
320.089752727105
 30
0.0
  0
POINT
  5
7B
  8
3
 10
4786.94498893051
 20
316.538709952684
 30
0.0
  0
POINT
  5
7C
  8
2
 10
4814.67495980115
 20
302.914165639577
 30
0.0
  0
POINT
  5
7D
  8
3
 10
4812.31876998955
 20
294.400805101093
 30
0.0
  0
POINT
  5
7E
  8
3
 10
4809.92692391175
 20
285.896439297489
 30
0.0
  0
POINT
  5
7F
  8
3
 10
4805.06917643403
 20
268.906389062723
 30
0.0
  0
POINT
  5
80
  8
3
 10
4795.28785452563
 20
234.942894257584
 30
0.0
  0
POINT
  5
81
  8
3
 10
4790.4959340009
 20
217.936238358425
 30
0.0
  0
POINT
  5
82
  8
3
 10
4788.15345813783
 20
209.419418306526
 30
0.0
  0
POINT
  5
83
  8
3
 10
4785.8576096998
 20
200.890835909015
 30
0.0
  0
POINT
  5
84
  8
3
 10
4783.61661705592
 20
192.348415457843
 30
0.0
  0
POINT
  5
85
  8
3
 10
4781.43870857532
 20
183.790081244961
 30
0.0
  0
POINT
  5
86
  8
3
 10
4779.33211262711
 20
175.21375756232
 30
0.0
  0
POINT
  5
87
  8
2
 10
4777.30505758043
 20
166.617368701871
 30
0.0
  0
POINT
  5
88
  8
3
 10
4776.33277016067
 20
162.146690435083
 30
0.0
  0
POINT
  5
89
  8
3
 10
4775.08070643154
 20
155.988535567796
 30
0.0
  0
POINT
  5
8A
  8
3
 10
4773.58216677537
 20
148.337702815415
 30
0.0
  0
POINT
  5
8B
  8
3
 10
4771.87045157452
 20
139.388990893343
 30
0.0
  0
POINT
  5
8C
  8
3
 10
4767.94069606811
 20
118.37712440175
 30
0.0
  0
POINT
  5
8D
  8
3
 10
4763.55784297104
 20
94.5113258162536
 30
0.0
  0
POINT
  5
8E
  8
3
 10
4758.98829534206
 20
69.3499848600927
 30
0.0
  0
POINT
  5
8F
  8
3
 10
4754.49845623988
 20
44.4514912565049
 30
0.0
  0
POINT
  5
90
  8
2
 10
4746.82351585089
 20
1.676605
 30
0.0
  0
POINT
  5
91
  8
2
 10
4702.78080461133
 20
5.12023872002486
 30
0.0
  0
ENDBLK
  5
4E
  8
1
  0
BLOCK
  8
1
  2
2
 70
    64
 10
0.0
 20
0.0
 30
0.0
  3
2
  1

  0
TEXT
  5
94
  8
1
100
AcDbText
 10
4126.15450917422
 20
688.456377206055
 30
0.0
 40
7.0
  1
Size: 34
100
AcDbText
  0
TEXT
  5
95
  8
1
100
AcDbText
 10
4126.15450917422
 20
695.456377206055
 30
0.0
 40
7.0
  1
Model: JEAN
100
AcDbText
  0
TEXT
  5
96
  8
1
100
AcDbText
 10
4126.15450917422
 20
702.456377206055
 30
0.0
 40
7.0
  1
Piece Name: FT-30INSM
100
AcDbText
  0
TEXT
  5
97
  8
1
100
AcDbText
 10
4126.15450917422
 20
716.456377206055
 30
0.0
 40
7.0
  1
Quantity: 1,1
100
AcDbText
  0
TEXT
  5
98
  8
1
100
AcDbText
 10
4126.15450917422
 20
723.456377206055
 30
0.0
 40
7.0
  1
Material: SHEL
100
AcDbText
  0
POLYLINE
  5
99
  8
1
100
AcDb2dPolyline
 66
     1
 10
0.0
 20
0.0
 30
0.0
 70
     1
  0
VERTEX
  5
9A
  8
1
100
AcDbVertex
100
AcDb2dVertex
 10
3581.113
 20
775.85418384375
 30
0.0
 70
     0
 50
0.0
  0
VERTEX
  5
9B
  8
1
100
AcDbVertex
100
AcDb2dVertex
 10
3606.51308544922
 20
773.940060625
 30
0.0
 70
     0
 50
0.0
  0
VERTEX
  5
9C
  8
1
100
AcDbVertex
100
AcDb2dVertex
 10
3891.49580296155
 20
795.417026359375
 30
0.0
 70
     0
 50
0.0
  0
VERTEX
  5
9D
  8
1
100
AcDbVertex
100
AcDb2dVertex
 10
4045.06504294446
 20
807.071980044433
 30
0.0
 70
     0
 50
0.0
  0
VERTEX
  5
9E
  8
1
100
AcDbVertex
100
AcDb2dVertex
 10
4080.55195624555
 20
814.34696364856
 30
0.0
 70
     0
 50
0.0
  0
VERTEX
  5
9F
  8
1
100
AcDbVertex
100
AcDb2dVertex
 10
4103.89324081953
 20
819.115324716168
 30
0.0
 70
     0
 50
0.0
  0
VERTEX
  5
A0
  8
1
100
AcDbVertex
100
AcDb2dVertex
 10
4119.29977265415
 20
822.288894120872
 30
0.0
 70
     0
 50
0.0
  0
VERTEX
  5
A1
  8
1
100
AcDbVertex
100
AcDb2dVertex
 10
4130.98242773717
 20
824.779502736285
 30
0.0
 70
     0
 50
0.0
  0
VERTEX
  5
A2
  8
1
100
AcDbVertex
100
AcDb2dVertex
 10
4143.15208205633
 20
827.498981436025
 30
0.0
 70
     0
 50
0.0
  0
VERTEX
  5
A3
  8
1
100
AcDbVertex
100
AcDb2dVertex
 10
4160.01961159939
 20
831.359161093704
 30
0.0
 70
     0
 50
0.0
  0
VERTEX
  5
A4
  8
1
100
AcDbVertex
100
AcDb2dVertex
 10
4185.7958923541
 20
837.271872582939
 30
0.0
 70
     0
 50
0.0
  0
VERTEX
  5
A5
  8
1
100
AcDbVertex
100
AcDb2dVertex
 10
4224.69180030823
 20
846.148946777343
 30
0.0
 70
     0
 50
0.0
  0
VERTEX
  5
A6
  8
1
100
AcDbVertex
100
AcDb2dVertex
 10
4247.15794156118
 20
852.393508510922
 30
0.0
 70
     0
 50
0.0
  0
VERTEX
  5
A7
  8
1
100
AcDbVertex
100
AcDb2dVertex
 10
4262.07371342583
 20
856.500642898125
 30
0.0
 70
     0
 50
0.0
  0
VERTEX
  5
A8
  8
1
100
AcDbVertex
100
AcDb2dVertex
 10
4271.82103290933
 20
859.193007379823
 30
0.0
 70
     0
 50
0.0
  0
VERTEX
  5
A9
  8
1
100
AcDbVertex
100
AcDb2dVertex
 10
4278.78181701885
 20
861.193259396887
 30
0.0
 70
     0
 50
0.0
  0
VERTEX
  5
AA
  8
1
100
AcDbVertex
100
AcDb2dVertex
 10
4285.33798276157
 20
863.224056390188
 30
0.0
 70
     0
 50
0.0
  0
VERTEX
  5
AB
  8
1
100
AcDbVertex
100
AcDb2dVertex
 10
4293.87144714463
 20
866.008055800599
 30
0.0
 70
     0
 50
0.0
  0
VERTEX
  5
AC
  8
1
100
AcDbVertex
100
AcDb2dVertex
 10
4326.39793986047
 20
876.72629163623
 30
0.0
 70
     0
 50
0.0
  0
VERTEX
  5
AD
  8
1
100
AcDbVertex
100
AcDb2dVertex
 10
4389.78022242639
 20
895.799754412109
 30
0.0
 70
     0
 50
0.0
  0
VERTEX
  5
AE
  8
1
100
AcDbVertex
100
AcDb2dVertex
 10
4392.50965591879
 20
888.948322200709
 30
0.0
 70
     0
 50
0.0
  0
VERTEX
  5
AF
  8
1
100
AcDbVertex
100
AcDb2dVertex
 10
4395.23765094883
 20
882.097676793221
 30
0.0
 70
     0
 50
0.0
  0
VERTEX
  5
B0
  8
1
100
AcDbVertex
100
AcDb2dVertex
 10
4398.08053605382
 20
875.318746788492
 30
0.0
 70
     0
 50
0.0
  0
VERTEX
  5
B1
  8
1
100
AcDbVertex
100
AcDb2dVertex
 10
4401.15463977104
 20
868.682460785369
 30
0.0
 70
     0
 50
0.0
  0
VERTEX
  5
B2
  8
1
100
AcDbVertex
100
AcDb2dVertex
 10
4402.81475127715
 20
865.43997447155
 30
0.0
 70
     0
 50
0.0
  0
VERTEX
  5
B3
  8
1
100
AcDbVertex
100
AcDb2dVertex
 10
4404.5762906378
 20
862.259747382699
 30
0.0
 70
     0
 50
0.0
  0
VERTEX
  5
B4
  8
1
100
AcDbVertex
100
AcDb2dVertex
 10
4406.45379892015
 20
859.150645593674
 30
0.0
 70
     0
 50
0.0
  0
VERTEX
  5
B5
  8
1
100
AcDbVertex
100
AcDb2dVertex
 10
4408.46181719138
 20
856.121535179328
 30
0.0
 70
     0
 50
0.0
  0
VERTEX
  5
B6
  8
1
100
AcDbVertex
100
AcDb2dVertex
 10
4410.61488651863
 20
853.181282214519
 30
0.0
 70
     0
 50
0.0
  0
VERTEX
  5
B7
  8
1
100
AcDbVertex
100
AcDb2dVertex
 10
4412.92754796907
 20
850.338752774103
 30
0.0
 70
     0
 50
0.0
  0
VERTEX
  5
B8
  8
1
100
AcDbVertex
100
AcDb2dVertex
 10
4415.41434260987
 20
847.602812932934
 30
0.0
 70
     0
 50
0.0
  0
VERTEX
  5
B9
  8
1
100
AcDbVertex
100
AcDb2dVertex
 10
4418.08981150818
 20
844.982328765869
 30
0.0
 70
     0
 50
0.0
  0
VERTEX
  5
BA
  8
1
100
AcDbVertex
100
AcDb2dVertex
 10
4427.91583292749
 20
842.105349268202
 30
0.0
 70
     0
 50
0.0
  0
VERTEX
  5
BB
  8
1
100
AcDbVertex
100
AcDb2dVertex
 10
4430.50410767333
 20
841.389077523223
 30
0.0
 70
     0
 50
0.0
  0
VERTEX
  5
BC
  8
1
100
AcDbVertex
100
AcDb2dVertex
 10
4432.55010645501
 20
840.949150838873
 30
0.0
 70
     0
 50
0.0
  0
VERTEX
  5
BD
  8
1
100
AcDbVertex
100
AcDb2dVertex
 10
4438.03792016091
 20
840.282931826229
 30
0.0
 70
     0
 50
0.0
  0
VERTEX
  5
BE
  8
1
100
AcDbVertex
100
AcDb2dVertex
 10
4450.42456211536
 20
838.875890578613
 30
0.0
 70
     0
 50
0.0
  0
VERTEX
  5
BF
  8
1
100
AcDbVertex
100
AcDb2dVertex
 10
4671.19601834845
 20
820.908122431457
 30
0.0
 70
     0
 50
0.0
  0
VERTEX
  5
C0
  8
1
100
AcDbVertex
100
AcDb2dVertex
 10
4670.19664434828
 20
805.967227870078
 30
0.0
 70
     0
 50
0.0
  0
VERTEX
  5
C1
  8
1
100
AcDbVertex
100
AcDb2dVertex
 10
4669.3077664452
 20
793.03701113033
 30
0.0
 70
     0
 50
0.0
  0
VERTEX
  5
C2
  8
1
100
AcDbVertex
100
AcDb2dVertex
 10
4667.83729904831
 20
772.424084258498
 30
0.0
 70
     0
 50
0.0
  0
VERTEX
  5
C3
  8
1
100
AcDbVertex
100
AcDb2dVertex
 10
4665.95611871778
 20
746.696568944885
 30
0.0
 70
     0
 50
0.0
  0
VERTEX
  5
C4
  8
1
100
AcDbVertex
100
AcDb2dVertex
 10
4665.4486062562
 20
738.443873074187
 30
0.0
 70
     0
 50
0.0
  0
VERTEX
  5
C5
  8
1
100
AcDbVertex
100
AcDb2dVertex
 10
4665.1652792451
 20
731.173146774947
 30
0.0
 70
     0
 50
0.0
  0
VERTEX
  5
C6
  8
1
100
AcDbVertex
100
AcDb2dVertex
 10
4665.05773792054
 20
723.315336332708
 30
0.0
 70
     0
 50
0.0
  0
VERTEX
  5
C7
  8
1
100
AcDbVertex
100
AcDb2dVertex
 10
4665.07758251852
 20
713.30138803301
 30
0.0
 70
     0
 50
0.0
  0
VERTEX
  5
C8
  8
1
100
AcDbVertex
100
AcDb2dVertex
 10
4665.21162677507
 20
694.837027221775
 30
0.0
 70
     0
 50
0.0
  0
VERTEX
  5
C9
  8
1
100
AcDbVertex
100
AcDb2dVertex
 10
4665.37358631897
 20
666.981682373046
 30
0.0
 70
     0
 50
0.0
  0
VERTEX
  5
CA
  8
1
100
AcDbVertex
100
AcDb2dVertex
 10
4650.3980286702
 20
666.680201588754
 30
0.0
 70
     0
 50
0.0
  0
VERTEX
  5
CB
  8
1
100
AcDbVertex
100
AcDb2dVertex
 10
4640.20031259924
 20
666.281120574065
 30
0.0
 70
     0
 50
0.0
  0
VERTEX
  5
CC
  8
1
100
AcDbVertex
100
AcDb2dVertex
 10
4635.79611021976
 20
665.984783357607
 30
0.0
 70
     0
 50
0.0
  0
VERTEX
  5
CD
  8
1
100
AcDbVertex
100
AcDb2dVertex
 10
4632.37773159861
 20
665.610691552795
 30
0.0
 70
     0
 50
0.0
  0
VERTEX
  5
CE
  8
1
100
AcDbVertex
100
AcDb2dVertex
 10
4628.4022091343
 20
665.137618348395
 30
0.0
 70
     0
 50
0.0
  0
VERTEX
  5
CF
  8
1
100
AcDbVertex
100
AcDb2dVertex
 10
4624.62646745216
 20
664.169883386585
 30
0.0
 70
     0
 50
0.0
  0
VERTEX
  5
D0
  8
1
100
AcDbVertex
100
AcDb2dVertex
 10
4621.03002558079
 20
662.733362773826
 30
0.0
 70
     0
 50
0.0
  0
VERTEX
  5
D1
  8
1
100
AcDbVertex
100
AcDb2dVertex
 10
4617.59240254874
 20
660.853932616577
 30
0.0
 70
     0
 50
0.0
  0
VERTEX
  5
D2
  8
1
100
AcDbVertex
100
AcDb2dVertex
 10
4614.2931173846
 20
658.557469021298
 30
0.0
 70
     0
 50
0.0
  0
VERTEX
  5
D3
  8
1
100
AcDbVertex
100
AcDb2dVertex
 10
4611.11168911695
 20
655.869848094448
 30
0.0
 70
     0
 50
0.0
  0
VERTEX
  5
D4
  8
1
100
AcDbVertex
100
AcDb2dVertex
 10
4608.02763677435
 20
652.816945942487
 30
0.0
 70
     0
 50
0.0
  0
VERTEX
  5
D5
  8
1
100
AcDbVertex
100
AcDb2dVertex
 10
4605.02047938538
 20
649.424638671875
 30
0.0
 70
     0
 50
0.0
  0
VERTEX
  5
D6
  8
1
100
AcDbVertex
100
AcDb2dVertex
 10
4603.64874163601
 20
646.246105381214
 30
0.0
 70
     0
 50
0.0
  0
VERTEX
  5
D7
  8
1
100
AcDbVertex
100
AcDb2dVertex
 10
4602.36799349001
 20
643.050878746439
 30
0.0
 70
     0
 50
0.0
  0
VERTEX
  5
D8
  8
1
100
AcDbVertex
100
AcDb2dVertex
 10
4600.05977484815
 20
636.607178017694
 30
0.0
 70
     0
 50
0.0
  0
VERTEX
  5
D9
  8
1
100
AcDbVertex
100
AcDb2dVertex
 10
4598.05644113987
 20
630.087201631925
 30
0.0
 70
     0
 50
0.0
  0
VERTEX
  5
DA
  8
1
100
AcDbVertex
100
AcDb2dVertex
 10
4596.31861004529
 20
623.484614735419
 30
0.0
 70
     0
 50
0.0
  0
VERTEX
  5
DB
  8
1
100
AcDbVertex
100
AcDb2dVertex
 10
4594.75487920842
 20
616.496371963271
 30
0.0
 70
     0
 50
0.0
  0
VERTEX
  5
DC
  8
1
100
AcDbVertex
100
AcDb2dVertex
 10
4593.43981828814
 20
609.467612461903
 30
0.0
 70
     0
 50
0.0
  0
VERTEX
  5
DD
  8
1
100
AcDbVertex
100
AcDb2dVertex
 10
4592.34881091417
 20
602.402447440468
 30
0.0
 70
     0
 50
0.0
  0
VERTEX
  5
DE
  8
1
100
AcDbVertex
100
AcDb2dVertex
 10
4591.45724071625
 20
595.304988108118
 30
0.0
 70
     0
 50
0.0
  0
VERTEX
  5
DF
  8
1
100
AcDbVertex
100
AcDb2dVertex
 10
4590.74049132412
 20
588.179345674005
 30
0.0
 70
     0
 50
0.0
  0
VERTEX
  5
E0
  8
1
100
AcDbVertex
100
AcDb2dVertex
 10
4590.17394636751
 20
581.029631347282
 30
0.0
 70
     0
 50
0.0
  0
VERTEX
  5
E1
  8
1
100
AcDbVertex
100
AcDb2dVertex
 10
4589.73298947617
 20
573.8599563371
 30
0.0
 70
     0
 50
0.0
  0
VERTEX
  5
E2
  8
1
100
AcDbVertex
100
AcDb2dVertex
 10
4589.39300427983
 20
566.674431852613
 30
0.0
 70
     0
 50
0.0
  0
VERTEX
  5
E3
  8
1
100
AcDbVertex
100
AcDb2dVertex
 10
4589.12937440822
 20
559.477169102973
 30
0.0
 70
     0
 50
0.0
  0
VERTEX
  5
E4
  8
1
100
AcDbVertex
100
AcDb2dVertex
 10
4588.91748349109
 20
552.272279297332
 30
0.0
 70
     0
 50
0.0
  0
VERTEX
  5
E5
  8
1
100
AcDbVertex
100
AcDb2dVertex
 10
4588.55045303918
 20
537.856063354657
 30
0.0
 70
     0
 50
0.0
  0
VERTEX
  5
E6
  8
1
100
AcDbVertex
100
AcDb2dVertex
 10
4588.09498196202
 20
523.458673697806
 30
0.0
 70
     0
 50
0.0
  0
VERTEX
  5
E7
  8
1
100
AcDbVertex
100
AcDb2dVertex
 10
4587.77254026331
 20
516.277316749447
 30
0.0
 70
     0
 50
0.0
  0
VERTEX
  5
E8
  8
1
100
AcDbVertex
100
AcDb2dVertex
 10
4587.35413929749
 20
509.113
 30
0.0
 70
     0
 50
0.0
  0
VERTEX
  5
E9
  8
1
100
AcDbVertex
100
AcDb2dVertex
 10
4571.15423401844
 20
509.216463531736
 30
0.0
 70
     0
 50
0.0
  0
VERTEX
  5
EA
  8
1
100
AcDbVertex
100
AcDb2dVertex
 10
4554.94769816
 20
509.294637545718
 30
0.0
 70
     0
 50
0.0
  0
VERTEX
  5
EB
  8
1
100
AcDbVertex
100
AcDb2dVertex
 10
4538.73694048656
 20
509.376959661058
 30
0.0
 70
     0
 50
0.0
  0
VERTEX
  5
EC
  8
1
100
AcDbVertex
100
AcDb2dVertex
 10
4522.5243697625
 20
509.492867496868
 30
0.0
 70
     0
 50
0.0
  0
VERTEX
  5
ED
  8
1
100
AcDbVertex
100
AcDb2dVertex
 10
4506.31239475221
 20
509.671798672261
 30
0.0
 70
     0
 50
0.0
  0
VERTEX
  5
EE
  8
1
100
AcDbVertex
100
AcDb2dVertex
 10
4490.10342422006
 20
509.94319080635
 30
0.0
 70
     0
 50
0.0
  0
VERTEX
  5
EF
  8
1
100
AcDbVertex
100
AcDb2dVertex
 10
4473.89986693045
 20
510.336481518246
 30
0.0
 70
     0
 50
0.0
  0
VERTEX
  5
F0
  8
1
100
AcDbVertex
100
AcDb2dVertex
 10
4465.80087099047
 20
510.588038096845
 30
0.0
 70
     0
 50
0.0
  0
VERTEX
  5
F1
  8
1
100
AcDbVertex
100
AcDb2dVertex
 10
4457.70413164777
 20
510.881108427062
 30
0.0
 70
     0
 50
0.0
  0
VERTEX
  5
F2
  8
1
100
AcDbVertex
100
AcDb2dVertex
 10
4328.56086300012
 20
521.013245273925
 30
0.0
 70
     0
 50
0.0
  0
VERTEX
  5
F3
  8
1
100
AcDbVertex
100
AcDb2dVertex
 10
4225.61351348938
 20
539.623475903808
 30
0.0
 70
     0
 50
0.0
  0
VERTEX
  5
F4
  8
1
100
AcDbVertex
100
AcDb2dVertex
 10
4185.74673707923
 20
546.832203952428
 30
0.0
 70
     0
 50
0.0
  0
VERTEX
  5
F5
  8
1
100
AcDbVertex
100
AcDb2dVertex
 10
4159.28272927248
 20
551.60909297365
 30
0.0
 70
     0
 50
0.0
  0
VERTEX
  5
F6
  8
1
100
AcDbVertex
100
AcDb2dVertex
 10
4129.65656997088
 20
556.975049817009
 30
0.0
 70
     0
 50
0.0
  0
VERTEX
  5
F7
  8
1
100
AcDbVertex
100
AcDb2dVertex
 10
4118.04119372687
 20
559.117965580701
 30
0.0
 70
     0
 50
0.0
  0
VERTEX
  5
F8
  8
1
100
AcDbVertex
100
AcDb2dVertex
 10
4102.92213658795
 20
561.936738200106
 30
0.0
 70
     0
 50
0.0
  0
VERTEX
  5
F9
  8
1
100
AcDbVertex
100
AcDb2dVertex
 10
4045.26653012708
 20
572.70954988916
 30
0.0
 70
     0
 50
0.0
  0
VERTEX
  5
FA
  8
1
100
AcDbVertex
100
AcDb2dVertex
 10
3891.85671435168
 20
582.233854961425
 30
0.0
 70
     0
 50
0.0
  0
VERTEX
  5
FB
  8
1
100
AcDbVertex
100
AcDb2dVertex
 10
3606.51334962689
 20
600.129607766301
 30
0.0
 70
     0
 50
0.0
  0
VERTEX
  5
FC
  8
1
100
AcDbVertex
100
AcDb2dVertex
 10
3581.1133528595
 20
598.536040023925
 30
0.0
 70
     0
 50
0.0
  0
SEQEND
  5
FD
  8
0
  0
POINT
  5
FE
  8
2
 10
3581.113
 20
775.85418384375
 30
0.0
  0
POINT
  5
FF
  8
2
 10
3606.51308544922
 20
773.940060625
 30
0.0
  0
POINT
  5
100
  8
2
 10
3891.49580296155
 20
795.417026359375
 30
0.0
  0
POINT
  5
101
  8
2
 10
4045.06504294446
 20
807.071980044433
 30
0.0
  0
POINT
  5
102
  8
3
 10
4080.55195624555
 20
814.34696364856
 30
0.0
  0
POINT
  5
103
  8
3
 10
4103.89324081953
 20
819.115324716168
 30
0.0
  0
POINT
  5
104
  8
3
 10
4119.29977265415
 20
822.288894120872
 30
0.0
  0
POINT
  5
105
  8
3
 10
4130.98242773717
 20
824.779502736285
 30
0.0
  0
POINT
  5
106
  8
3
 10
4143.15208205633
 20
827.498981436025
 30
0.0
  0
POINT
  5
107
  8
3
 10
4160.01961159939
 20
831.359161093704
 30
0.0
  0
POINT
  5
108
  8
3
 10
4185.7958923541
 20
837.271872582939
 30
0.0
  0
POINT
  5
109
  8
2
 10
4224.69180030823
 20
846.148946777343
 30
0.0
  0
POINT
  5
10A
  8
3
 10
4247.15794156118
 20
852.393508510922
 30
0.0
  0
POINT
  5
10B
  8
3
 10
4262.07371342583
 20
856.500642898125
 30
0.0
  0
POINT
  5
10C
  8
3
 10
4271.82103290933
 20
859.193007379823
 30
0.0
  0
POINT
  5
10D
  8
3
 10
4278.78181701885
 20
861.193259396887
 30
0.0
  0
POINT
  5
10E
  8
3
 10
4285.33798276157
 20
863.224056390188
 30
0.0
  0
POINT
  5
10F
  8
3
 10
4293.87144714463
 20
866.008055800599
 30
0.0
  0
POINT
  5
110
  8
2
 10
4326.39793986047
 20
876.72629163623
 30
0.0
  0
POINT
  5
111
  8
2
 10
4389.78022242639
 20
895.799754412109
 30
0.0
  0
POINT
  5
112
  8
3
 10
4392.50965591879
 20
888.948322200709
 30
0.0
  0
POINT
  5
113
  8
3
 10
4395.23765094883
 20
882.097676793221
 30
0.0
  0
POINT
  5
114
  8
3
 10
4398.08053605382
 20
875.318746788492
 30
0.0
  0
POINT
  5
115
  8
3
 10
4401.15463977104
 20
868.682460785369
 30
0.0
  0
POINT
  5
116
  8
3
 10
4402.81475127715
 20
865.43997447155
 30
0.0
  0
POINT
  5
117
  8
3
 10
4404.5762906378
 20
862.259747382699
 30
0.0
  0
POINT
  5
118
  8
3
 10
4406.45379892015
 20
859.150645593674
 30
0.0
  0
POINT
  5
119
  8
3
 10
4408.46181719138
 20
856.121535179328
 30
0.0
  0
POINT
  5
11A
  8
3
 10
4410.61488651863
 20
853.181282214519
 30
0.0
  0
POINT
  5
11B
  8
3
 10
4412.92754796907
 20
850.338752774103
 30
0.0
  0
POINT
  5
11C
  8
3
 10
4415.41434260987
 20
847.602812932934
 30
0.0
  0
POINT
  5
11D
  8
2
 10
4418.08981150818
 20
844.982328765869
 30
0.0
  0
POINT
  5
11E
  8
3
 10
4427.91583292749
 20
842.105349268202
 30
0.0
  0
POINT
  5
11F
  8
3
 10
4430.50410767333
 20
841.389077523223
 30
0.0
  0
POINT
  5
120
  8
3
 10
4432.55010645501
 20
840.949150838873
 30
0.0
  0
POINT
  5
121
  8
3
 10
4438.03792016091
 20
840.282931826229
 30
0.0
  0
POINT
  5
122
  8
2
 10
4450.42456211536
 20
838.875890578613
 30
0.0
  0
POINT
  5
123
  8
2
 10
4671.19601834845
 20
820.908122431457
 30
0.0
  0
POINT
  5
124
  8
3
 10
4670.19664434828
 20
805.967227870078
 30
0.0
  0
POINT
  5
125
  8
3
 10
4669.3077664452
 20
793.03701113033
 30
0.0
  0
POINT
  5
126
  8
3
 10
4667.83729904831
 20
772.424084258498
 30
0.0
  0
POINT
  5
127
  8
3
 10
4665.95611871778
 20
746.696568944885
 30
0.0
  0
POINT
  5
128
  8
3
 10
4665.4486062562
 20
738.443873074187
 30
0.0
  0
POINT
  5
129
  8
3
 10
4665.1652792451
 20
731.173146774947
 30
0.0
  0
POINT
  5
12A
  8
3
 10
4665.05773792054
 20
723.315336332708
 30
0.0
  0
POINT
  5
12B
  8
2
 10
4665.07758251852
 20
713.30138803301
 30
0.0
  0
POINT
  5
12C
  8
3
 10
4665.21162677507
 20
694.837027221775
 30
0.0
  0
POINT
  5
12D
  8
2
 10
4665.37358631897
 20
666.981682373046
 30
0.0
  0
POINT
  5
12E
  8
3
 10
4650.3980286702
 20
666.680201588754
 30
0.0
  0
POINT
  5
12F
  8
3
 10
4640.20031259924
 20
666.281120574065
 30
0.0
  0
POINT
  5
130
  8
3
 10
4635.79611021976
 20
665.984783357607
 30
0.0
  0
POINT
  5
131
  8
2
 10
4632.37773159861
 20
665.610691552795
 30
0.0
  0
POINT
  5
132
  8
3
 10
4628.4022091343
 20
665.137618348395
 30
0.0
  0
POINT
  5
133
  8
3
 10
4624.62646745216
 20
664.169883386585
 30
0.0
  0
POINT
  5
134
  8
3
 10
4621.03002558079
 20
662.733362773826
 30
0.0
  0
POINT
  5
135
  8
3
 10
4617.59240254874
 20
660.853932616577
 30
0.0
  0
POINT
  5
136
  8
3
 10
4614.2931173846
 20
658.557469021298
 30
0.0
  0
POINT
  5
137
  8
3
 10
4611.11168911695
 20
655.869848094448
 30
0.0
  0
POINT
  5
138
  8
3
 10
4608.02763677435
 20
652.816945942487
 30
0.0
  0
POINT
  5
139
  8
2
 10
4605.02047938538
 20
649.424638671875
 30
0.0
  0
POINT
  5
13A
  8
3
 10
4603.64874163601
 20
646.246105381214
 30
0.0
  0
POINT
  5
13B
  8
3
 10
4602.36799349001
 20
643.050878746439
 30
0.0
  0
POINT
  5
13C
  8
3
 10
4600.05977484815
 20
636.607178017694
 30
0.0
  0
POINT
  5
13D
  8
3
 10
4598.05644113987
 20
630.087201631925
 30
0.0
  0
POINT
  5
13E
  8
2
 10
4596.31861004529
 20
623.484614735419
 30
0.0
  0
POINT
  5
13F
  8
3
 10
4594.75487920842
 20
616.496371963271
 30
0.0
  0
POINT
  5
140
  8
3
 10
4593.43981828814
 20
609.467612461903
 30
0.0
  0
POINT
  5
141
  8
3
 10
4592.34881091417
 20
602.402447440468
 30
0.0
  0
POINT
  5
142
  8
3
 10
4591.45724071625
 20
595.304988108118
 30
0.0
  0
POINT
  5
143
  8
3
 10
4590.74049132412
 20
588.179345674005
 30
0.0
  0
POINT
  5
144
  8
3
 10
4590.17394636751
 20
581.029631347282
 30
0.0
  0
POINT
  5
145
  8
3
 10
4589.73298947617
 20
573.8599563371
 30
0.0
  0
POINT
  5
146
  8
3
 10
4589.39300427983
 20
566.674431852613
 30
0.0
  0
POINT
  5
147
  8
3
 10
4589.12937440822
 20
559.477169102973
 30
0.0
  0
POINT
  5
148
  8
3
 10
4588.91748349109
 20
552.272279297332
 30
0.0
  0
POINT
  5
149
  8
3
 10
4588.55045303918
 20
537.856063354657
 30
0.0
  0
POINT
  5
14A
  8
3
 10
4588.09498196202
 20
523.458673697806
 30
0.0
  0
POINT
  5
14B
  8
3
 10
4587.77254026331
 20
516.277316749447
 30
0.0
  0
POINT
  5
14C
  8
2
 10
4587.35413929749
 20
509.113
 30
0.0
  0
POINT
  5
14D
  8
3
 10
4571.15423401844
 20
509.216463531736
 30
0.0
  0
POINT
  5
14E
  8
3
 10
4554.94769816
 20
509.294637545718
 30
0.0
  0
POINT
  5
14F
  8
3
 10
4538.73694048656
 20
509.376959661058
 30
0.0
  0
POINT
  5
150
  8
3
 10
4522.5243697625
 20
509.492867496868
 30
0.0
  0
POINT
  5
151
  8
3
 10
4506.31239475221
 20
509.671798672261
 30
0.0
  0
POINT
  5
152
  8
3
 10
4490.10342422006
 20
509.94319080635
 30
0.0
  0
POINT
  5
153
  8
3
 10
4473.89986693045
 20
510.336481518246
 30
0.0
  0
POINT
  5
154
  8
3
 10
4465.80087099047
 20
510.588038096845
 30
0.0
  0
POINT
  5
155
  8
2
 10
4457.70413164777
 20
510.881108427062
 30
0.0
  0
POINT
  5
156
  8
2
 10
4328.56086300012
 20
521.013245273925
 30
0.0
  0
POINT
  5
157
  8
2
 10
4225.61351348938
 20
539.623475903808
 30
0.0
  0
POINT
  5
158
  8
3
 10
4185.74673707923
 20
546.832203952428
 30
0.0
  0
POINT
  5
159
  8
3
 10
4159.28272927248
 20
551.60909297365
 30
0.0
  0
POINT
  5
15A
  8
3
 10
4129.65656997088
 20
556.975049817009
 30
0.0
  0
POINT
  5
15B
  8
3
 10
4118.04119372687
 20
559.117965580701
 30
0.0
  0
POINT
  5
15C
  8
3
 10
4102.92213658795
 20
561.936738200106
 30
0.0
  0
POINT
  5
15D
  8
2
 10
4045.26653012708
 20
572.70954988916
 30
0.0
  0
POINT
  5
15E
  8
2
 10
3891.85671435168
 20
582.233854961425
 30
0.0
  0
POINT
  5
15F
  8
2
 10
3606.51334962689
 20
600.129607766301
 30
0.0
  0
POINT
  5
160
  8
2
 10
3581.1133528595
 20
598.536040023925
 30
0.0
  0
LINE
  5
161
  8
11
 10
3891.49580296155
 20
795.417026359375
 30
0.0
 11
3891.49580234996
 21
797.017026359375
 31
0.0
  0
LINE
  5
162
  8
11
 10
4224.69180030823
 20
846.148946777343
 30
0.0
 11
4224.55235111983
 21
847.74285829429
 31
0.0
  0
LINE
  5
163
  8
11
 10
4450.42456211536
 20
838.875890578613
 30
0.0
 11
4450.42456272694
 21
837.275890578613
 31
0.0
  0
LINE
  5
164
  8
11
 10
4225.61351348938
 20
539.623475903808
 30
0.0
 11
4225.61351410096
 21
538.023475903808
 31
0.0
  0
LINE
  5
165
  8
11
 10
3891.85671435168
 20
582.233854961425
 30
0.0
 11
3891.85671496327
 21
580.633854961425
 31
0.0
  0
ENDBLK
  5
93
  8
1
  0
BLOCK
  8
1
  2
3
 70
    64
 10
0.0
 20
0.0
 30
0.0
  3
3
  1

  0
TEXT
  5
168
  8
1
100
AcDbText
 10
3894.18211225714
 20
1034.91352600897
 30
0.0
 40
7.0
  1
Size: 34
100
AcDbText
  0
TEXT
  5
169
  8
1
100
AcDbText
 10
3894.18211225714
 20
1041.91352600897
 30
0.0
 40
7.0
  1
Model: JEAN
100
AcDbText
  0
TEXT
  5
16A
  8
1
100
AcDbText
 10
3894.18211225714
 20
1048.91352600897
 30
0.0
 40
7.0
  1
Piece Name: FT-PKT-FC-RT
100
AcDbText
  0
TEXT
  5
16B
  8
1
100
AcDbText
 10
3894.18211225714
 20
1062.91352600897
 30
0.0
 40
7.0
  1
Quantity: 1,0
100
AcDbText
  0
TEXT
  5
16C
  8
1
100
AcDbText
 10
3894.18211225714
 20
1069.91352600897
 30
0.0
 40
7.0
  1
Material: SHEL
100
AcDbText
  0
POLYLINE
  5
16D
  8
1
100
AcDb2dPolyline
 66
     1
 10
0.0
 20
0.0
 30
0.0
 70
     1
  0
VERTEX
  5
16E
  8
1
100
AcDbVertex
100
AcDb2dVertex
 10
3968.66568492351
 20
1126.23994862141
 30
0.0
 70
     0
 50
0.0
  0
VERTEX
  5
16F
  8
1
100
AcDbVertex
100
AcDb2dVertex
 10
3966.84777096611
 20
1103.83875777864
 30
0.0
 70
     0
 50
0.0
  0
VERTEX
  5
170
  8
1
100
AcDbVertex
100
AcDb2dVertex
 10
3965.27982093888
 20
1085.19062713127
 30
0.0
 70
     0
 50
0.0
  0
VERTEX
  5
171
  8
1
100
AcDbVertex
100
AcDb2dVertex
 10
3963.94206047927
 20
1069.8757977046
 30
0.0
 70
     0
 50
0.0
  0
VERTEX
  5
172
  8
1
100
AcDbVertex
100
AcDb2dVertex
 10
3962.81471522472
 20
1057.47451052392
 30
0.0
 70
     0
 50
0.0
  0
VERTEX
  5
173
  8
1
100
AcDbVertex
100
AcDb2dVertex
 10
3961.87801081266
 20
1047.56700661454
 30
0.0
 70
     0
 50
0.0
  0
VERTEX
  5
174
  8
1
100
AcDbVertex
100
AcDb2dVertex
 10
3961.11217288053
 20
1039.73352700175
 30
0.0
 70
     0
 50
0.0
  0
VERTEX
  5
175
  8
1
100
AcDbVertex
100
AcDb2dVertex
 10
3960.01399900581
 20
1028.60960476713
 30
0.0
 70
     0
 50
0.0
  0
VERTEX
  5
176
  8
1
100
AcDbVertex
100
AcDb2dVertex
 10
3959.36199870006
 20
1020.74467202243
 30
0.0
 70
     0
 50
0.0
  0
VERTEX
  5
177
  8
1
100
AcDbVertex
100
AcDb2dVertex
 10
3958.9979770628
 20
1012.78065697003
 30
0.0
 70
     0
 50
0.0
  0
VERTEX
  5
178
  8
1
100
AcDbVertex
100
AcDb2dVertex
 10
3958.76373919351
 20
1001.35948781231
 30
0.0
 70
     0
 50
0.0
  0
VERTEX
  5
179
  8
1
100
AcDbVertex
100
AcDb2dVertex
 10
3958.50109019171
 20
983.123092751646
 30
0.0
 70
     0
 50
0.0
  0
VERTEX
  5
17A
  8
1
100
AcDbVertex
100
AcDb2dVertex
 10
3958.88874196609
 20
951.629639625707
 30
0.0
 70
     0
 50
0.0
  0
VERTEX
  5
17B
  8
1
100
AcDbVertex
100
AcDb2dVertex
 10
3946.19238076401
 20
951.25745834732
 30
0.0
 70
     0
 50
0.0
  0
VERTEX
  5
17C
  8
1
100
AcDbVertex
100
AcDb2dVertex
 10
3932.09375401151
 20
950.762565041403
 30
0.0
 70
     0
 50
0.0
  0
VERTEX
  5
17D
  8
1
100
AcDbVertex
100
AcDb2dVertex
 10
3923.91824503299
 20
950.53190089551
 30
0.0
 70
     0
 50
0.0
  0
VERTEX
  5
17E
  8
1
100
AcDbVertex
100
AcDb2dVertex
 10
3915.43963457908
 20
950.430281832639
 30
0.0
 70
     0
 50
0.0
  0
VERTEX
  5
17F
  8
1
100
AcDbVertex
100
AcDb2dVertex
 10
3906.99369434438
 20
950.546100411525
 30
0.0
 70
     0
 50
0.0
  0
VERTEX
  5
180
  8
1
100
AcDbVertex
100
AcDb2dVertex
 10
3902.88790421379
 20
950.71317149123
 30
0.0
 70
     0
 50
0.0
  0
VERTEX
  5
181
  8
1
100
AcDbVertex
100
AcDb2dVertex
 10
3898.91619602347
 20
950.967749190899
 30
0.0
 70
     0
 50
0.0
  0
VERTEX
  5
182
  8
1
100
AcDbVertex
100
AcDb2dVertex
 10
3895.12054123525
 20
951.320882580374
 30
0.0
 70
     0
 50
0.0
  0
VERTEX
  5
183
  8
1
100
AcDbVertex
100
AcDb2dVertex
 10
3891.54291131095
 20
951.783620729497
 30
0.0
 70
     0
 50
0.0
  0
VERTEX
  5
184
  8
1
100
AcDbVertex
100
AcDb2dVertex
 10
3888.22527771239
 20
952.367012708109
 30
0.0
 70
     0
 50
0.0
  0
VERTEX
  5
185
  8
1
100
AcDbVertex
100
AcDb2dVertex
 10
3885.2096119014
 20
953.082107586052
 30
0.0
 70
     0
 50
0.0
  0
VERTEX
  5
186
  8
1
100
AcDbVertex
100
AcDb2dVertex
 10
3880.76670208025
 20
954.372284459011
 30
0.0
 70
     0
 50
0.0
  0
VERTEX
  5
187
  8
1
100
AcDbVertex
100
AcDb2dVertex
 10
3876.56799251755
 20
955.747111170791
 30
0.0
 70
     0
 50
0.0
  0
VERTEX
  5
188
  8
1
100
AcDbVertex
100
AcDb2dVertex
 10
3872.50555294096
 20
957.262251175082
 30
0.0
 70
     0
 50
0.0
  0
VERTEX
  5
189
  8
1
100
AcDbVertex
100
AcDb2dVertex
 10
3868.47145307814
 20
958.97336792557
 30
0.0
 70
     0
 50
0.0
  0
VERTEX
  5
18A
  8
1
100
AcDbVertex
100
AcDb2dVertex
 10
3864.35776265677
 20
960.936124875944
 30
0.0
 70
     0
 50
0.0
  0
VERTEX
  5
18B
  8
1
100
AcDbVertex
100
AcDb2dVertex
 10
3860.05655140451
 20
963.206185479891
 30
0.0
 70
     0
 50
0.0
  0
VERTEX
  5
18C
  8
1
100
AcDbVertex
100
AcDb2dVertex
 10
3855.45988904903
 20
965.839213191099
 30
0.0
 70
     0
 50
0.0
  0
VERTEX
  5
18D
  8
1
100
AcDbVertex
100
AcDb2dVertex
 10
3850.45984531799
 20
968.890871463257
 30
0.0
 70
     0
 50
0.0
  0
VERTEX
  5
18E
  8
1
100
AcDbVertex
100
AcDb2dVertex
 10
3848.17903506588
 20
971.642015557137
 30
0.0
 70
     0
 50
0.0
  0
VERTEX
  5
18F
  8
1
100
AcDbVertex
100
AcDb2dVertex
 10
3845.63355268866
 20
975.056607511092
 30
0.0
 70
     0
 50
0.0
  0
VERTEX
  5
190
  8
1
100
AcDbVertex
100
AcDb2dVertex
 10
3842.9314148649
 20
978.99488715411
 30
0.0
 70
     0
 50
0.0
  0
VERTEX
  5
191
  8
1
100
AcDbVertex
100
AcDb2dVertex
 10
3840.18063827321
 20
983.317094315178
 30
0.0
 70
     0
 50
0.0
  0
VERTEX
  5
192
  8
1
100
AcDbVertex
100
AcDb2dVertex
 10
3837.48923959216
 20
987.883468823285
 30
0.0
 70
     0
 50
0.0
  0
VERTEX
  5
193
  8
1
100
AcDbVertex
100
AcDb2dVertex
 10
3834.96523550036
 20
992.55425050742
 30
0.0
 70
     0
 50
0.0
  0
VERTEX
  5
194
  8
1
100
AcDbVertex
100
AcDb2dVertex
 10
3832.71664267638
 20
997.189679196571
 30
0.0
 70
     0
 50
0.0
  0
VERTEX
  5
195
  8
1
100
AcDbVertex
100
AcDb2dVertex
 10
3830.85147779883
 20
1001.64999471973
 30
0.0
 70
     0
 50
0.0
  0
VERTEX
  5
196
  8
1
100
AcDbVertex
100
AcDb2dVertex
 10
3829.64192423636
 20
1006.90521938676
 30
0.0
 70
     0
 50
0.0
  0
VERTEX
  5
197
  8
1
100
AcDbVertex
100
AcDb2dVertex
 10
3828.36386881171
 20
1012.14826990578
 30
0.0
 70
     0
 50
0.0
  0
VERTEX
  5
198
  8
1
100
AcDbVertex
100
AcDb2dVertex
 10
3825.76665684512
 20
1022.62706645501
 30
0.0
 70
     0
 50
0.0
  0
VERTEX
  5
199
  8
1
100
AcDbVertex
100
AcDb2dVertex
 10
3824.52970253778
 20
1027.87742146284
 30
0.0
 70
     0
 50
0.0
  0
VERTEX
  5
19A
  8
1
100
AcDbVertex
100
AcDb2dVertex
 10
3823.38865083748
 20
1033.14482027788
 30
0.0
 70
     0
 50
0.0
  0
VERTEX
  5
19B
  8
1
100
AcDbVertex
100
AcDb2dVertex
 10
3822.38460286152
 20
1038.43656738894
 30
0.0
 70
     0
 50
0.0
  0
VERTEX
  5
19C
  8
1
100
AcDbVertex
100
AcDb2dVertex
 10
3821.55865972722
 20
1043.75996728483
 30
0.0
 70
     0
 50
0.0
  0
VERTEX
  5
19D
  8
1
100
AcDbVertex
100
AcDb2dVertex
 10
3821.08121291533
 20
1047.65888102056
 30
0.0
 70
     0
 50
0.0
  0
VERTEX
  5
19E
  8
1
100
AcDbVertex
100
AcDb2dVertex
 10
3820.68683277125
 20
1051.64886373975
 30
0.0
 70
     0
 50
0.0
  0
VERTEX
  5
19F
  8
1
100
AcDbVertex
100
AcDb2dVertex
 10
3820.36897621747
 20
1055.71790718745
 30
0.0
 70
     0
 50
0.0
  0
VERTEX
  5
1A0
  8
1
100
AcDbVertex
100
AcDb2dVertex
 10
3820.12110017651
 20
1059.8540031087
 30
0.0
 70
     0
 50
0.0
  0
VERTEX
  5
1A1
  8
1
100
AcDbVertex
100
AcDb2dVertex
 10
3819.80911732301
 20
1068.27931935203
 30
0.0
 70
     0
 50
0.0
  0
VERTEX
  5
1A2
  8
1
100
AcDbVertex
100
AcDb2dVertex
 10
3819.69853959078
 20
1076.8287464301
 30
0.0
 70
     0
 50
0.0
  0
VERTEX
  5
1A3
  8
1
100
AcDbVertex
100
AcDb2dVertex
 10
3819.73702235983
 20
1085.40621830324
 30
0.0
 70
     0
 50
0.0
  0
VERTEX
  5
1A4
  8
1
100
AcDbVertex
100
AcDb2dVertex
 10
3819.87222101018
 20
1093.91566893181
 30
0.0
 70
     0
 50
0.0
  0
VERTEX
  5
1A5
  8
1
100
AcDbVertex
100
AcDb2dVertex
 10
3820.22338747485
 20
1110.34624229663
 30
0.0
 70
     0
 50
0.0
  0
VERTEX
  5
1A6
  8
1
100
AcDbVertex
100
AcDb2dVertex
 10
3821.21454198828
 20
1134.70685648535
 30
0.0
 70
     0
 50
0.0
  0
VERTEX
  5
1A7
  8
1
100
AcDbVertex
100
AcDb2dVertex
 10
3821.80824204321
 20
1147.3967701853
 30
0.0
 70
     0
 50
0.0
  0
VERTEX
  5
1A8
  8
1
100
AcDbVertex
100
AcDb2dVertex
 10
3874.8203430752
 20
1143.62039111621
 30
0.0
 70
     0
 50
0.0
  0
VERTEX
  5
1A9
  8
1
100
AcDbVertex
100
AcDb2dVertex
 10
3912.42471598377
 20
1138.44418143336
 30
0.0
 70
     0
 50
0.0
  0
SEQEND
  5
1AA
  8
0
  0
POINT
  5
1AB
  8
2
 10
3968.66568492351
 20
1126.23994862141
 30
0.0
  0
POINT
  5
1AC
  8
3
 10
3966.84777096611
 20
1103.83875777864
 30
0.0
  0
POINT
  5
1AD
  8
3
 10
3965.27982093888
 20
1085.19062713127
 30
0.0
  0
POINT
  5
1AE
  8
3
 10
3963.94206047927
 20
1069.8757977046
 30
0.0
  0
POINT
  5
1AF
  8
3
 10
3962.81471522472
 20
1057.47451052392
 30
0.0
  0
POINT
  5
1B0
  8
3
 10
3961.87801081266
 20
1047.56700661454
 30
0.0
  0
POINT
  5
1B1
  8
3
 10
3961.11217288053
 20
1039.73352700175
 30
0.0
  0
POINT
  5
1B2
  8
3
 10
3960.01399900581
 20
1028.60960476713
 30
0.0
  0
POINT
  5
1B3
  8
3
 10
3959.36199870006
 20
1020.74467202243
 30
0.0
  0
POINT
  5
1B4
  8
3
 10
3958.9979770628
 20
1012.78065697003
 30
0.0
  0
POINT
  5
1B5
  8
3
 10
3958.76373919351
 20
1001.35948781231
 30
0.0
  0
POINT
  5
1B6
  8
2
 10
3958.50109019171
 20
983.123092751646
 30
0.0
  0
POINT
  5
1B7
  8
2
 10
3958.88874196609
 20
951.629639625707
 30
0.0
  0
POINT
  5
1B8
  8
2
 10
3946.19238076401
 20
951.25745834732
 30
0.0
  0
POINT
  5
1B9
  8
3
 10
3932.09375401151
 20
950.762565041403
 30
0.0
  0
POINT
  5
1BA
  8
3
 10
3923.91824503299
 20
950.53190089551
 30
0.0
  0
POINT
  5
1BB
  8
3
 10
3915.43963457908
 20
950.430281832639
 30
0.0
  0
POINT
  5
1BC
  8
3
 10
3906.99369434438
 20
950.546100411525
 30
0.0
  0
POINT
  5
1BD
  8
3
 10
3902.88790421379
 20
950.71317149123
 30
0.0
  0
POINT
  5
1BE
  8
3
 10
3898.91619602347
 20
950.967749190899
 30
0.0
  0
POINT
  5
1BF
  8
3
 10
3895.12054123525
 20
951.320882580374
 30
0.0
  0
POINT
  5
1C0
  8
3
 10
3891.54291131095
 20
951.783620729497
 30
0.0
  0
POINT
  5
1C1
  8
3
 10
3888.22527771239
 20
952.367012708109
 30
0.0
  0
POINT
  5
1C2
  8
2
 10
3885.2096119014
 20
953.082107586052
 30
0.0
  0
POINT
  5
1C3
  8
3
 10
3880.76670208025
 20
954.372284459011
 30
0.0
  0
POINT
  5
1C4
  8
3
 10
3876.56799251755
 20
955.747111170791
 30
0.0
  0
POINT
  5
1C5
  8
3
 10
3872.50555294096
 20
957.262251175082
 30
0.0
  0
POINT
  5
1C6
  8
3
 10
3868.47145307814
 20
958.97336792557
 30
0.0
  0
POINT
  5
1C7
  8
3
 10
3864.35776265677
 20
960.936124875944
 30
0.0
  0
POINT
  5
1C8
  8
3
 10
3860.05655140451
 20
963.206185479891
 30
0.0
  0
POINT
  5
1C9
  8
3
 10
3855.45988904903
 20
965.839213191099
 30
0.0
  0
POINT
  5
1CA
  8
2
 10
3850.45984531799
 20
968.890871463257
 30
0.0
  0
POINT
  5
1CB
  8
3
 10
3848.17903506588
 20
971.642015557137
 30
0.0
  0
POINT
  5
1CC
  8
3
 10
3845.63355268866
 20
975.056607511092
 30
0.0
  0
POINT
  5
1CD
  8
3
 10
3842.9314148649
 20
978.99488715411
 30
0.0
  0
POINT
  5
1CE
  8
3
 10
3840.18063827321
 20
983.317094315178
 30
0.0
  0
POINT
  5
1CF
  8
3
 10
3837.48923959216
 20
987.883468823285
 30
0.0
  0
POINT
  5
1D0
  8
3
 10
3834.96523550036
 20
992.55425050742
 30
0.0
  0
POINT
  5
1D1
  8
3
 10
3832.71664267638
 20
997.189679196571
 30
0.0
  0
POINT
  5
1D2
  8
2
 10
3830.85147779883
 20
1001.64999471973
 30
0.0
  0
POINT
  5
1D3
  8
3
 10
3829.64192423636
 20
1006.90521938676
 30
0.0
  0
POINT
  5
1D4
  8
3
 10
3828.36386881171
 20
1012.14826990578
 30
0.0
  0
POINT
  5
1D5
  8
3
 10
3825.76665684512
 20
1022.62706645501
 30
0.0
  0
POINT
  5
1D6
  8
3
 10
3824.52970253778
 20
1027.87742146284
 30
0.0
  0
POINT
  5
1D7
  8
3
 10
3823.38865083748
 20
1033.14482027788
 30
0.0
  0
POINT
  5
1D8
  8
3
 10
3822.38460286152
 20
1038.43656738894
 30
0.0
  0
POINT
  5
1D9
  8
2
 10
3821.55865972722
 20
1043.75996728483
 30
0.0
  0
POINT
  5
1DA
  8
3
 10
3821.08121291533
 20
1047.65888102056
 30
0.0
  0
POINT
  5
1DB
  8
3
 10
3820.68683277125
 20
1051.64886373975
 30
0.0
  0
POINT
  5
1DC
  8
3
 10
3820.36897621747
 20
1055.71790718745
 30
0.0
  0
POINT
  5
1DD
  8
3
 10
3820.12110017651
 20
1059.8540031087
 30
0.0
  0
POINT
  5
1DE
  8
3
 10
3819.80911732301
 20
1068.27931935203
 30
0.0
  0
POINT
  5
1DF
  8
3
 10
3819.69853959078
 20
1076.8287464301
 30
0.0
  0
POINT
  5
1E0
  8
3
 10
3819.73702235983
 20
1085.40621830324
 30
0.0
  0
POINT
  5
1E1
  8
3
 10
3819.87222101018
 20
1093.91566893181
 30
0.0
  0
POINT
  5
1E2
  8
2
 10
3820.22338747485
 20
1110.34624229663
 30
0.0
  0
POINT
  5
1E3
  8
2
 10
3821.21454198828
 20
1134.70685648535
 30
0.0
  0
POINT
  5
1E4
  8
2
 10
3821.80824204321
 20
1147.3967701853
 30
0.0
  0
POINT
  5
1E5
  8
2
 10
3874.8203430752
 20
1143.62039111621
 30
0.0
  0
POINT
  5
1E6
  8
2
 10
3912.42471598377
 20
1138.44418143336
 30
0.0
  0
LINE
  5
1E7
  8
11
 10
3958.50109019171
 20
983.123092751646
 30
0.0
 11
3960.10109019171
 21
983.123092751646
 31
0.0
  0
LINE
  5
1E8
  8
11
 10
3830.85147779883
 20
1001.64999471973
 30
0.0
 11
3830.85147718725
 21
1003.24999471973
 31
0.0
  0
LINE
  5
1E9
  8
11
 10
3820.22338747485
 20
1110.34624229663
 30
0.0
 11
3820.22338686327
 21
1111.94624229663
 31
0.0
  0
LINE
  5
1EA
  8
11
 10
3874.8203430752
 20
1143.62039111621
 30
0.0
 11
3874.82034246361
 21
1145.22039111621
 31
0.0
  0
LINE
  5
1EB
  8
11
 10
3830.85147779883
 20
1001.64999471973
 30
0.0
 11
3830.85147718725
 21
1003.24999471973
 31
0.0
  0
LINE
  5
1EC
  8
11
 10
3820.22338747485
 20
1110.34624229663
 30
0.0
 11
3820.22338686327
 21
1111.94624229663
 31
0.0
  0
ENDBLK
  5
167
  8
1
  0
BLOCK
  8
1
  2
4
 70
    64
 10
0.0
 20
0.0
 30
0.0
  3
4
  1

  0
TEXT
  5
1EF
  8
1
100
AcDbText
 10
4785.18799364838
 20
861.831597164303
 30
0.0
 40
7.0
  1
Size: 34
100
AcDbText
  0
TEXT
  5
1F0
  8
1
100
AcDbText
 10
4785.18799364838
 20
868.831597164303
 30
0.0
 40
7.0
  1
Model: JEAN
100
AcDbText
  0
TEXT
  5
1F1
  8
1
100
AcDbText
 10
4785.18799364838
 20
875.831597164303
 30
0.0
 40
7.0
  1
Piece Name: LOOP
100
AcDbText
  0
TEXT
  5
1F2
  8
1
100
AcDbText
 10
4785.18799364838
 20
889.831597164303
 30
0.0
 40
7.0
  1
Quantity: 1,0
100
AcDbText
  0
TEXT
  5
1F3
  8
1
100
AcDbText
 10
4785.18799364838
 20
896.831597164303
 30
0.0
 40
7.0
  1
Material: SHEL
100
AcDbText
  0
POLYLINE
  5
1F4
  8
1
100
AcDb2dPolyline
 66
     1
 10
0.0
 20
0.0
 30
0.0
 70
     1
  0
VERTEX
  5
1F5
  8
1
100
AcDbVertex
100
AcDb2dVertex
 10
4467.688
 20
863.068
 30
0.0
 70
     0
 50
0.0
  0
VERTEX
  5
1F6
  8
1
100
AcDbVertex
100
AcDb2dVertex
 10
4467.68830200928
 20
888.595194328606
 30
0.0
 70
     0
 50
0.0
  0
VERTEX
  5
1F7
  8
1
100
AcDbVertex
100
AcDb2dVertex
 10
5064.58811978149
 20
888.595057647705
 30
0.0
 70
     0
 50
0.0
  0
VERTEX
  5
1F8
  8
1
100
AcDbVertex
100
AcDb2dVertex
 10
5102.68798729676
 20
882.245010841668
 30
0.0
 70
     0
 50
0.0
  0
VERTEX
  5
1F9
  8
1
100
AcDbVertex
100
AcDb2dVertex
 10
5102.68784428287
 20
869.418482255221
 30
0.0
 70
     0
 50
0.0
  0
VERTEX
  5
1FA
  8
1
100
AcDbVertex
100
AcDb2dVertex
 10
5064.58811665225
 20
863.068327378512
 30
0.0
 70
     0
 50
0.0
  0
SEQEND
  5
1FB
  8
0
  0
POINT
  5
1FC
  8
2
 10
4467.688
 20
863.068
 30
0.0
  0
POINT
  5
1FD
  8
2
 10
4467.68830200928
 20
888.595194328606
 30
0.0
  0
POINT
  5
1FE
  8
2
 10
5064.58811978149
 20
888.595057647705
 30
0.0
  0
POINT
  5
1FF
  8
2
 10
5102.68798729676
 20
882.245010841668
 30
0.0
  0
POINT
  5
200
  8
2
 10
5102.68784428287
 20
869.418482255221
 30
0.0
  0
POINT
  5
201
  8
2
 10
5064.58811665225
 20
863.068327378512
 30
0.0
  0
ENDBLK
  5
1EE
  8
1
  0
BLOCK
  8
1
  2
5
 70
    64
 10
0.0
 20
0.0
 30
0.0
  3
5
  1

  0
TEXT
  5
204
  8
1
100
AcDbText
 10
3368.4260308094
 20
640.543985198975
 30
0.0
 40
7.0
  1
Size: 34
100
AcDbText
  0
TEXT
  5
205
  8
1
100
AcDbText
 10
3368.4260308094
 20
647.543985198975
 30
0.0
 40
7.0
  1
Model: JEAN
100
AcDbText
  0
TEXT
  5
206
  8
1
100
AcDbText
 10
3368.4260308094
 20
654.543985198975
 30
0.0
 40
7.0
  1
Piece Name: WBD
100
AcDbText
  0
TEXT
  5
207
  8
1
100
AcDbText
 10
3368.4260308094
 20
668.543985198975
 30
0.0
 40
7.0
  1
Quantity: 1,0
100
AcDbText
  0
TEXT
  5
208
  8
1
100
AcDbText
 10
3368.4260308094
 20
675.543985198975
 30
0.0
 40
7.0
  1
Material: SHEL
100
AcDbText
  0
POLYLINE
  5
209
  8
1
100
AcDb2dPolyline
 66
     1
 10
0.0
 20
0.0
 30
0.0
 70
     1
  0
VERTEX
  5
20A
  8
1
100
AcDbVertex
100
AcDb2dVertex
 10
3313.65721219254
 20
683.118795227051
 30
0.0
 70
     0
 50
0.0
  0
VERTEX
  5
20B
  8
1
100
AcDbVertex
100
AcDb2dVertex
 10
3313.65713589859
 20
965.825425632324
 30
0.0
 70
     0
 50
0.0
  0
VERTEX
  5
20C
  8
1
100
AcDbVertex
100
AcDb2dVertex
 10
3313.657
 20
1249.85688170865
 30
0.0
 70
     0
 50
0.0
  0
VERTEX
  5
20D
  8
1
100
AcDbVertex
100
AcDb2dVertex
 10
3423.1946420021
 20
1249.85689839795
 30
0.0
 70
     0
 50
0.0
  0
VERTEX
  5
20E
  8
1
100
AcDbVertex
100
AcDb2dVertex
 10
3423.19454588962
 20
397.349809697939
 30
0.0
 70
     0
 50
0.0
  0
VERTEX
  5
20F
  8
1
100
AcDbVertex
100
AcDb2dVertex
 10
3423.19506161881
 20
59.231072
 30
0.0
 70
     0
 50
0.0
  0
VERTEX
  5
210
  8
1
100
AcDbVertex
100
AcDb2dVertex
 10
3313.65736478043
 20
59.2314153227539
 30
0.0
 70
     0
 50
0.0
  0
SEQEND
  5
211
  8
0
  0
POINT
  5
212
  8
2
 10
3313.65721219254
 20
683.118795227051
 30
0.0
  0
POINT
  5
213
  8
2
 10
3313.65713589859
 20
965.825425632324
 30
0.0
  0
POINT
  5
214
  8
2
 10
3313.657
 20
1249.85688170865
 30
0.0
  0
POINT
  5
215
  8
2
 10
3423.1946420021
 20
1249.85689839795
 30
0.0
  0
POINT
  5
216
  8
2
 10
3423.19454588962
 20
397.349809697939
 30
0.0
  0
POINT
  5
217
  8
2
 10
3423.19506161881
 20
59.231072
 30
0.0
  0
POINT
  5
218
  8
2
 10
3313.65736478043
 20
59.2314153227539
 30
0.0
  0
ENDBLK
  5
203
  8
1
  0
BLOCK
  8
1
  2
6
 70
    64
 10
0.0
 20
0.0
 30
0.0
  3
6
  1

  0
TEXT
  5
21B
  8
1
100
AcDbText
 10
4143.82366913501
 20
251.737417964111
 30
0.0
 40
7.0
  1
Size: 34
100
AcDbText
  0
TEXT
  5
21C
  8
1
100
AcDbText
 10
4143.82366913501
 20
258.737417964111
 30
0.0
 40
7.0
  1
Model: JEAN
100
AcDbText
  0
TEXT
  5
21D
  8
1
100
AcDbText
 10
4143.82366913501
 20
265.737417964111
 30
0.0
 40
7.0
  1
Piece Name: BK-30INSM
100
AcDbText
  0
TEXT
  5
21E
  8
1
100
AcDbText
 10
4143.82366913501
 20
279.737417964111
 30
0.0
 40
7.0
  1
Quantity: 1,1
100
AcDbText
  0
TEXT
  5
21F
  8
1
100
AcDbText
 10
4143.82366913501
 20
286.737417964111
 30
0.0
 40
7.0
  1
Material: SHEL
100
AcDbText
  0
POLYLINE
  5
220
  8
1
100
AcDb2dPolyline
 66
     1
 10
0.0
 20
0.0
 30
0.0
 70
     1
  0
VERTEX
  5
221
  8
1
100
AcDbVertex
100
AcDb2dVertex
 10
4661.93473025147
 20
15.313261
 30
0.0
 70
     0
 50
0.0
  0
VERTEX
  5
222
  8
1
100
AcDbVertex
100
AcDb2dVertex
 10
4586.97857391602
 20
21.7451381479501
 30
0.0
 70
     0
 50
0.0
  0
VERTEX
  5
223
  8
1
100
AcDbVertex
100
AcDb2dVertex
 10
4466.49650790039
 20
34.265026730957
 30
0.0
 70
     0
 50
0.0
  0
VERTEX
  5
224
  8
1
100
AcDbVertex
100
AcDb2dVertex
 10
4338.30802913965
 20
56.8056662211921
 30
0.0
 70
     0
 50
0.0
  0
VERTEX
  5
225
  8
1
100
AcDbVertex
100
AcDb2dVertex
 10
4236.59285170286
 20
80.5807424841501
 30
0.0
 70
     0
 50
0.0
  0
VERTEX
  5
226
  8
1
100
AcDbVertex
100
AcDb2dVertex
 10
4214.25045509512
 20
85.6910811079982
 30
0.0
 70
     0
 50
0.0
  0
VERTEX
  5
227
  8
1
100
AcDbVertex
100
AcDb2dVertex
 10
4191.89654427002
 20
90.7663678990747
 30
0.0
 70
     0
 50
0.0
  0
VERTEX
  5
228
  8
1
100
AcDbVertex
100
AcDb2dVertex
 10
4147.18201406763
 20
100.912298909924
 30
0.0
 70
     0
 50
0.0
  0
VERTEX
  5
229
  8
1
100
AcDbVertex
100
AcDb2dVertex
 10
4124.83531174027
 20
106.033199593201
 30
0.0
 70
     0
 50
0.0
  0
VERTEX
  5
22A
  8
1
100
AcDbVertex
100
AcDb2dVertex
 10
4102.50492929541
 20
111.219561370719
 30
0.0
 70
     0
 50
0.0
  0
VERTEX
  5
22B
  8
1
100
AcDbVertex
100
AcDb2dVertex
 10
4080.19782525803
 20
116.496512474228
 30
0.0
 70
     0
 50
0.0
  0
VERTEX
  5
22C
  8
1
100
AcDbVertex
100
AcDb2dVertex
 10
4069.0551771812
 20
119.176811595652
 30
0.0
 70
     0
 50
0.0
  0
VERTEX
  5
22D
  8
1
100
AcDbVertex
100
AcDb2dVertex
 10
4057.92095815309
 20
121.889181135482
 30
0.0
 70
     0
 50
0.0
  0
VERTEX
  5
22E
  8
1
100
AcDbVertex
100
AcDb2dVertex
 10
3904.86820072559
 20
131.388529230957
 30
0.0
 70
     0
 50
0.0
  0
VERTEX
  5
22F
  8
1
100
AcDbVertex
100
AcDb2dVertex
 10
3619.52400915527
 20
149.284500529786
 30
0.0
 70
     0
 50
0.0
  0
VERTEX
  5
230
  8
1
100
AcDbVertex
100
AcDb2dVertex
 10
3594.124
 20
147.691193351075
 30
0.0
 70
     0
 50
0.0
  0
VERTEX
  5
231
  8
1
100
AcDbVertex
100
AcDb2dVertex
 10
3594.12476293945
 20
374.046140258301
 30
0.0
 70
     0
 50
0.0
  0
VERTEX
  5
232
  8
1
100
AcDbVertex
100
AcDb2dVertex
 10
3619.52477209473
 20
372.142602604004
 30
0.0
 70
     0
 50
0.0
  0
VERTEX
  5
233
  8
1
100
AcDbVertex
100
AcDb2dVertex
 10
3904.50851184289
 20
393.499624305062
 30
0.0
 70
     0
 50
0.0
  0
VERTEX
  5
234
  8
1
100
AcDbVertex
100
AcDb2dVertex
 10
4058.09796120801
 20
405.159363312989
 30
0.0
 70
     0
 50
0.0
  0
VERTEX
  5
235
  8
1
100
AcDbVertex
100
AcDb2dVertex
 10
4069.39671499687
 20
407.536955432605
 30
0.0
 70
     0
 50
0.0
  0
VERTEX
  5
236
  8
1
100
AcDbVertex
100
AcDb2dVertex
 10
4080.62604911976
 20
410.08198631985
 30
0.0
 70
     0
 50
0.0
  0
VERTEX
  5
237
  8
1
100
AcDbVertex
100
AcDb2dVertex
 10
4091.79245769885
 20
412.783058662372
 30
0.0
 70
     0
 50
0.0
  0
VERTEX
  5
238
  8
1
100
AcDbVertex
100
AcDb2dVertex
 10
4102.90243485632
 20
415.628775147817
 30
0.0
 70
     0
 50
0.0
  0
VERTEX
  5
239
  8
1
100
AcDbVertex
100
AcDb2dVertex
 10
4113.96247471434
 20
418.607738463833
 30
0.0
 70
     0
 50
0.0
  0
VERTEX
  5
23A
  8
1
100
AcDbVertex
100
AcDb2dVertex
 10
4124.97907139508
 20
421.708551298067
 30
0.0
 70
     0
 50
0.0
  0
VERTEX
  5
23B
  8
1
100
AcDbVertex
100
AcDb2dVertex
 10
4135.95871902072
 20
424.919816338166
 30
0.0
 70
     0
 50
0.0
  0
VERTEX
  5
23C
  8
1
100
AcDbVertex
100
AcDb2dVertex
 10
4146.90791171344
 20
428.230136271778
 30
0.0
 70
     0
 50
0.0
  0
VERTEX
  5
23D
  8
1
100
AcDbVertex
100
AcDb2dVertex
 10
4157.8331435954
 20
431.62811378655
 30
0.0
 70
     0
 50
0.0
  0
VERTEX
  5
23E
  8
1
100
AcDbVertex
100
AcDb2dVertex
 10
4168.74090878877
 20
435.10235157013
 30
0.0
 70
     0
 50
0.0
  0
VERTEX
  5
23F
  8
1
100
AcDbVertex
100
AcDb2dVertex
 10
4179.63770141575
 20
438.641452310164
 30
0.0
 70
     0
 50
0.0
  0
VERTEX
  5
240
  8
1
100
AcDbVertex
100
AcDb2dVertex
 10
4190.53001559848
 20
442.234018694299
 30
0.0
 70
     0
 50
0.0
  0
VERTEX
  5
241
  8
1
100
AcDbVertex
100
AcDb2dVertex
 10
4201.42434545916
 20
445.868653410184
 30
0.0
 70
     0
 50
0.0
  0
VERTEX
  5
242
  8
1
100
AcDbVertex
100
AcDb2dVertex
 10
4212.32718511995
 20
449.533959145465
 30
0.0
 70
     0
 50
0.0
  0
VERTEX
  5
243
  8
1
100
AcDbVertex
100
AcDb2dVertex
 10
4234.18437033057
 20
456.910994424805
 30
0.0
 70
     0
 50
0.0
  0
VERTEX
  5
244
  8
1
100
AcDbVertex
100
AcDb2dVertex
 10
4334.48059653552
 20
494.746981321415
 30
0.0
 70
     0
 50
0.0
  0
VERTEX
  5
245
  8
1
100
AcDbVertex
100
AcDb2dVertex
 10
4397.6962501748
 20
516.161574928223
 30
0.0
 70
     0
 50
0.0
  0
VERTEX
  5
246
  8
1
100
AcDbVertex
100
AcDb2dVertex
 10
4401.09782842494
 20
506.173715607187
 30
0.0
 70
     0
 50
0.0
  0
VERTEX
  5
247
  8
1
100
AcDbVertex
100
AcDb2dVertex
 10
4404.39872696493
 20
496.344072702615
 30
0.0
 70
     0
 50
0.0
  0
VERTEX
  5
248
  8
1
100
AcDbVertex
100
AcDb2dVertex
 10
4407.72052297061
 20
486.665787115054
 30
0.0
 70
     0
 50
0.0
  0
VERTEX
  5
249
  8
1
100
AcDbVertex
100
AcDb2dVertex
 10
4411.18479361778
 20
477.131999745055
 30
0.0
 70
     0
 50
0.0
  0
VERTEX
  5
24A
  8
1
100
AcDbVertex
100
AcDb2dVertex
 10
4413.00834979937
 20
472.417149423063
 30
0.0
 70
     0
 50
0.0
  0
VERTEX
  5
24B
  8
1
100
AcDbVertex
100
AcDb2dVertex
 10
4414.91311608226
 20
467.735851493167
 30
0.0
 70
     0
 50
0.0
  0
VERTEX
  5
24C
  8
1
100
AcDbVertex
100
AcDb2dVertex
 10
4416.91428961343
 20
463.087248567936
 30
0.0
 70
     0
 50
0.0
  0
VERTEX
  5
24D
  8
1
100
AcDbVertex
100
AcDb2dVertex
 10
4419.02706753986
 20
458.470483259939
 30
0.0
 70
     0
 50
0.0
  0
VERTEX
  5
24E
  8
1
100
AcDbVertex
100
AcDb2dVertex
 10
4421.26664700853
 20
453.884698181744
 30
0.0
 70
     0
 50
0.0
  0
VERTEX
  5
24F
  8
1
100
AcDbVertex
100
AcDb2dVertex
 10
4423.6482251664
 20
449.32903594592
 30
0.0
 70
     0
 50
0.0
  0
VERTEX
  5
250
  8
1
100
AcDbVertex
100
AcDb2dVertex
 10
4426.18699916047
 20
444.802639165036
 30
0.0
 70
     0
 50
0.0
  0
VERTEX
  5
251
  8
1
100
AcDbVertex
100
AcDb2dVertex
 10
4428.89816613769
 20
440.304650451661
 30
0.0
 70
     0
 50
0.0
  0
VERTEX
  5
252
  8
1
100
AcDbVertex
100
AcDb2dVertex
 10
4432.58495180528
 20
437.279968015278
 30
0.0
 70
     0
 50
0.0
  0
VERTEX
  5
253
  8
1
100
AcDbVertex
100
AcDb2dVertex
 10
4436.37539547071
 20
434.39812407724
 30
0.0
 70
     0
 50
0.0
  0
VERTEX
  5
254
  8
1
100
AcDbVertex
100
AcDb2dVertex
 10
4440.26431319043
 20
431.653460869488
 30
0.0
 70
     0
 50
0.0
  0
VERTEX
  5
255
  8
1
100
AcDbVertex
100
AcDb2dVertex
 10
4444.24652102088
 20
429.040320623961
 30
0.0
 70
     0
 50
0.0
  0
VERTEX
  5
256
  8
1
100
AcDbVertex
100
AcDb2dVertex
 10
4448.3168350185
 20
426.5530455726
 30
0.0
 70
     0
 50
0.0
  0
VERTEX
  5
257
  8
1
100
AcDbVertex
100
AcDb2dVertex
 10
4452.47007123976
 20
424.185977947344
 30
0.0
 70
     0
 50
0.0
  0
VERTEX
  5
258
  8
1
100
AcDbVertex
100
AcDb2dVertex
 10
4456.70104574108
 20
421.933459980135
 30
0.0
 70
     0
 50
0.0
  0
VERTEX
  5
259
  8
1
100
AcDbVertex
100
AcDb2dVertex
 10
4461.00457457891
 20
419.789833902911
 30
0.0
 70
     0
 50
0.0
  0
VERTEX
  5
25A
  8
1
100
AcDbVertex
100
AcDb2dVertex
 10
4465.37547380969
 20
417.749441947612
 30
0.0
 70
     0
 50
0.0
  0
VERTEX
  5
25B
  8
1
100
AcDbVertex
100
AcDb2dVertex
 10
4469.80855948988
 20
415.80662634618
 30
0.0
 70
     0
 50
0.0
  0
VERTEX
  5
25C
  8
1
100
AcDbVertex
100
AcDb2dVertex
 10
4474.29864767592
 20
413.955729330553
 30
0.0
 70
     0
 50
0.0
  0
VERTEX
  5
25D
  8
1
100
AcDbVertex
100
AcDb2dVertex
 10
4478.84055442424
 20
412.191093132673
 30
0.0
 70
     0
 50
0.0
  0
VERTEX
  5
25E
  8
1
100
AcDbVertex
100
AcDb2dVertex
 10
4483.4290957913
 20
410.507059984478
 30
0.0
 70
     0
 50
0.0
  0
VERTEX
  5
25F
  8
1
100
AcDbVertex
100
AcDb2dVertex
 10
4488.05908783354
 20
408.897972117909
 30
0.0
 70
     0
 50
0.0
  0
VERTEX
  5
260
  8
1
100
AcDbVertex
100
AcDb2dVertex
 10
4492.72534660741
 20
407.358171764906
 30
0.0
 70
     0
 50
0.0
  0
VERTEX
  5
261
  8
1
100
AcDbVertex
100
AcDb2dVertex
 10
4497.42268816934
 20
405.882001157409
 30
0.0
 70
     0
 50
0.0
  0
VERTEX
  5
262
  8
1
100
AcDbVertex
100
AcDb2dVertex
 10
4506.88988388319
 20
403.097918106694
 30
0.0
 70
     0
 50
0.0
  0
VERTEX
  5
263
  8
1
100
AcDbVertex
100
AcDb2dVertex
 10
4516.41920342666
 20
400.500460821284
 30
0.0
 70
     0
 50
0.0
  0
VERTEX
  5
264
  8
1
100
AcDbVertex
100
AcDb2dVertex
 10
4525.96917525129
 20
398.044367156698
 30
0.0
 70
     0
 50
0.0
  0
VERTEX
  5
265
  8
1
100
AcDbVertex
100
AcDb2dVertex
 10
4535.49832780865
 20
395.684374968458
 30
0.0
 70
     0
 50
0.0
  0
VERTEX
  5
266
  8
1
100
AcDbVertex
100
AcDb2dVertex
 10
4554.32828892777
 20
391.071646443094
 30
0.0
 70
     0
 50
0.0
  0
VERTEX
  5
267
  8
1
100
AcDbVertex
100
AcDb2dVertex
 10
4563.54615439265
 20
388.728385817012
 30
0.0
 70
     0
 50
0.0
  0
VERTEX
  5
268
  8
1
100
AcDbVertex
100
AcDb2dVertex
 10
4572.57731439648
 20
386.300178089356
 30
0.0
 70
     0
 50
0.0
  0
VERTEX
  5
269
  8
1
100
AcDbVertex
100
AcDb2dVertex
 10
4693.52333827001
 20
343.138038301766
 30
0.0
 70
     0
 50
0.0
  0
SEQEND
  5
26A
  8
0
  0
POINT
  5
26B
  8
2
 10
4661.93473025147
 20
15.313261
 30
0.0
  0
POINT
  5
26C
  8
2
 10
4586.97857391602
 20
21.7451381479501
 30
0.0
  0
POINT
  5
26D
  8
2
 10
4466.49650790039
 20
34.265026730957
 30
0.0
  0
POINT
  5
26E
  8
2
 10
4338.30802913965
 20
56.8056662211921
 30
0.0
  0
POINT
  5
26F
  8
2
 10
4236.59285170286
 20
80.5807424841501
 30
0.0
  0
POINT
  5
270
  8
3
 10
4214.25045509512
 20
85.6910811079982
 30
0.0
  0
POINT
  5
271
  8
3
 10
4191.89654427002
 20
90.7663678990747
 30
0.0
  0
POINT
  5
272
  8
3
 10
4147.18201406763
 20
100.912298909924
 30
0.0
  0
POINT
  5
273
  8
3
 10
4124.83531174027
 20
106.033199593201
 30
0.0
  0
POINT
  5
274
  8
3
 10
4102.50492929541
 20
111.219561370719
 30
0.0
  0
POINT
  5
275
  8
3
 10
4080.19782525803
 20
116.496512474228
 30
0.0
  0
POINT
  5
276
  8
3
 10
4069.0551771812
 20
119.176811595652
 30
0.0
  0
POINT
  5
277
  8
2
 10
4057.92095815309
 20
121.889181135482
 30
0.0
  0
POINT
  5
278
  8
2
 10
3904.86820072559
 20
131.388529230957
 30
0.0
  0
POINT
  5
279
  8
2
 10
3619.52400915527
 20
149.284500529786
 30
0.0
  0
POINT
  5
27A
  8
2
 10
3594.124
 20
147.691193351075
 30
0.0
  0
POINT
  5
27B
  8
2
 10
3594.12476293945
 20
374.046140258301
 30
0.0
  0
POINT
  5
27C
  8
2
 10
3619.52477209473
 20
372.142602604004
 30
0.0
  0
POINT
  5
27D
  8
2
 10
3904.50851184289
 20
393.499624305062
 30
0.0
  0
POINT
  5
27E
  8
2
 10
4058.09796120801
 20
405.159363312989
 30
0.0
  0
POINT
  5
27F
  8
3
 10
4069.39671499687
 20
407.536955432605
 30
0.0
  0
POINT
  5
280
  8
3
 10
4080.62604911976
 20
410.08198631985
 30
0.0
  0
POINT
  5
281
  8
3
 10
4091.79245769885
 20
412.783058662372
 30
0.0
  0
POINT
  5
282
  8
3
 10
4102.90243485632
 20
415.628775147817
 30
0.0
  0
POINT
  5
283
  8
3
 10
4113.96247471434
 20
418.607738463833
 30
0.0
  0
POINT
  5
284
  8
3
 10
4124.97907139508
 20
421.708551298067
 30
0.0
  0
POINT
  5
285
  8
3
 10
4135.95871902072
 20
424.919816338166
 30
0.0
  0
POINT
  5
286
  8
3
 10
4146.90791171344
 20
428.230136271778
 30
0.0
  0
POINT
  5
287
  8
3
 10
4157.8331435954
 20
431.62811378655
 30
0.0
  0
POINT
  5
288
  8
3
 10
4168.74090878877
 20
435.10235157013
 30
0.0
  0
POINT
  5
289
  8
3
 10
4179.63770141575
 20
438.641452310164
 30
0.0
  0
POINT
  5
28A
  8
3
 10
4190.53001559848
 20
442.234018694299
 30
0.0
  0
POINT
  5
28B
  8
3
 10
4201.42434545916
 20
445.868653410184
 30
0.0
  0
POINT
  5
28C
  8
3
 10
4212.32718511995
 20
449.533959145465
 30
0.0
  0
POINT
  5
28D
  8
2
 10
4234.18437033057
 20
456.910994424805
 30
0.0
  0
POINT
  5
28E
  8
2
 10
4334.48059653552
 20
494.746981321415
 30
0.0
  0
POINT
  5
28F
  8
2
 10
4397.6962501748
 20
516.161574928223
 30
0.0
  0
POINT
  5
290
  8
3
 10
4401.09782842494
 20
506.173715607187
 30
0.0
  0
POINT
  5
291
  8
3
 10
4404.39872696493
 20
496.344072702615
 30
0.0
  0
POINT
  5
292
  8
3
 10
4407.72052297061
 20
486.665787115054
 30
0.0
  0
POINT
  5
293
  8
3
 10
4411.18479361778
 20
477.131999745055
 30
0.0
  0
POINT
  5
294
  8
3
 10
4413.00834979937
 20
472.417149423063
 30
0.0
  0
POINT
  5
295
  8
3
 10
4414.91311608226
 20
467.735851493167
 30
0.0
  0
POINT
  5
296
  8
3
 10
4416.91428961343
 20
463.087248567936
 30
0.0
  0
POINT
  5
297
  8
3
 10
4419.02706753986
 20
458.470483259939
 30
0.0
  0
POINT
  5
298
  8
3
 10
4421.26664700853
 20
453.884698181744
 30
0.0
  0
POINT
  5
299
  8
3
 10
4423.6482251664
 20
449.32903594592
 30
0.0
  0
POINT
  5
29A
  8
3
 10
4426.18699916047
 20
444.802639165036
 30
0.0
  0
POINT
  5
29B
  8
2
 10
4428.89816613769
 20
440.304650451661
 30
0.0
  0
POINT
  5
29C
  8
3
 10
4432.58495180528
 20
437.279968015278
 30
0.0
  0
POINT
  5
29D
  8
3
 10
4436.37539547071
 20
434.39812407724
 30
0.0
  0
POINT
  5
29E
  8
3
 10
4440.26431319043
 20
431.653460869488
 30
0.0
  0
POINT
  5
29F
  8
3
 10
4444.24652102088
 20
429.040320623961
 30
0.0
  0
POINT
  5
2A0
  8
3
 10
4448.3168350185
 20
426.5530455726
 30
0.0
  0
POINT
  5
2A1
  8
3
 10
4452.47007123976
 20
424.185977947344
 30
0.0
  0
POINT
  5
2A2
  8
3
 10
4456.70104574108
 20
421.933459980135
 30
0.0
  0
POINT
  5
2A3
  8
3
 10
4461.00457457891
 20
419.789833902911
 30
0.0
  0
POINT
  5
2A4
  8
3
 10
4465.37547380969
 20
417.749441947612
 30
0.0
  0
POINT
  5
2A5
  8
3
 10
4469.80855948988
 20
415.80662634618
 30
0.0
  0
POINT
  5
2A6
  8
3
 10
4474.29864767592
 20
413.955729330553
 30
0.0
  0
POINT
  5
2A7
  8
3
 10
4478.84055442424
 20
412.191093132673
 30
0.0
  0
POINT
  5
2A8
  8
3
 10
4483.4290957913
 20
410.507059984478
 30
0.0
  0
POINT
  5
2A9
  8
3
 10
4488.05908783354
 20
408.897972117909
 30
0.0
  0
POINT
  5
2AA
  8
3
 10
4492.72534660741
 20
407.358171764906
 30
0.0
  0
POINT
  5
2AB
  8
3
 10
4497.42268816934
 20
405.882001157409
 30
0.0
  0
POINT
  5
2AC
  8
3
 10
4506.88988388319
 20
403.097918106694
 30
0.0
  0
POINT
  5
2AD
  8
3
 10
4516.41920342666
 20
400.500460821284
 30
0.0
  0
POINT
  5
2AE
  8
3
 10
4525.96917525129
 20
398.044367156698
 30
0.0
  0
POINT
  5
2AF
  8
3
 10
4535.49832780865
 20
395.684374968458
 30
0.0
  0
POINT
  5
2B0
  8
3
 10
4554.32828892777
 20
391.071646443094
 30
0.0
  0
POINT
  5
2B1
  8
3
 10
4563.54615439265
 20
388.728385817012
 30
0.0
  0
POINT
  5
2B2
  8
2
 10
4572.57731439648
 20
386.300178089356
 30
0.0
  0
POINT
  5
2B3
  8
2
 10
4693.52333827001
 20
343.138038301766
 30
0.0
  0
LINE
  5
2B4
  8
11
 10
4236.59285170286
 20
80.5807424841501
 30
0.0
 11
4236.59285231444
 21
78.9807424841502
 31
0.0
  0
LINE
  5
2B5
  8
11
 10
3904.86820072559
 20
131.388529230957
 30
0.0
 11
3904.86820133717
 21
129.788529230957
 31
0.0
  0
LINE
  5
2B6
  8
11
 10
3904.50851184289
 20
393.499624305062
 30
0.0
 11
3904.5085112313
 21
395.099624305062
 31
0.0
  0
LINE
  5
2B7
  8
11
 10
4234.18437033057
 20
456.910994424805
 30
0.0
 11
4234.04492114217
 21
458.504905941752
 31
0.0
  0
ENDBLK
  5
21A
  8
1
  0
BLOCK
  8
1
  2
7
 70
    64
 10
0.0
 20
0.0
 30
0.0
  3
7
  1

  0
TEXT
  5
2BA
  8
1
100
AcDbText
 10
3801.07901525879
 20
864.647671875
 30
0.0
 40
7.0
  1
Size: 34
100
AcDbText
  0
TEXT
  5
2BB
  8
1
100
AcDbText
 10
3801.07901525879
 20
871.647671875
 30
0.0
 40
7.0
  1
Model: JEAN
100
AcDbText
  0
TEXT
  5
2BC
  8
1
100
AcDbText
 10
3801.07901525879
 20
878.647671875
 30
0.0
 40
7.0
  1
Piece Name: LOOP-1
100
AcDbText
  0
TEXT
  5
2BD
  8
1
100
AcDbText
 10
3801.07901525879
 20
892.647671875
 30
0.0
 40
7.0
  1
Quantity: 1,0
100
AcDbText
  0
TEXT
  5
2BE
  8
1
100
AcDbText
 10
3801.07901525879
 20
899.647671875
 30
0.0
 40
7.0
  1
Material: SHEL
100
AcDbText
  0
POLYLINE
  5
2BF
  8
1
100
AcDb2dPolyline
 66
     1
 10
0.0
 20
0.0
 30
0.0
 70
     1
  0
VERTEX
  5
2C0
  8
1
100
AcDbVertex
100
AcDb2dVertex
 10
3547.07915258789
 20
865.884
 30
0.0
 70
     0
 50
0.0
  0
VERTEX
  5
2C1
  8
1
100
AcDbVertex
100
AcDb2dVertex
 10
3547.079
 20
891.411267456055
 30
0.0
 70
     0
 50
0.0
  0
VERTEX
  5
2C2
  8
1
100
AcDbVertex
100
AcDb2dVertex
 10
4016.97913122559
 20
891.41134375
 30
0.0
 70
     0
 50
0.0
  0
VERTEX
  5
2C3
  8
1
100
AcDbVertex
100
AcDb2dVertex
 10
4055.07903051758
 20
885.061322387696
 30
0.0
 70
     0
 50
0.0
  0
VERTEX
  5
2C4
  8
1
100
AcDbVertex
100
AcDb2dVertex
 10
4055.07895422363
 20
872.23409765625
 30
0.0
 70
     0
 50
0.0
  0
VERTEX
  5
2C5
  8
1
100
AcDbVertex
100
AcDb2dVertex
 10
4016.97890234375
 20
865.884076293946
 30
0.0
 70
     0
 50
0.0
  0
SEQEND
  5
2C6
  8
0
  0
POINT
  5
2C7
  8
2
 10
3547.07915258789
 20
865.884
 30
0.0
  0
POINT
  5
2C8
  8
2
 10
3547.079
 20
891.411267456055
 30
0.0
  0
POINT
  5
2C9
  8
2
 10
4016.97913122559
 20
891.41134375
 30
0.0
  0
POINT
  5
2CA
  8
2
 10
4055.07903051758
 20
885.061322387696
 30
0.0
  0
POINT
  5
2CB
  8
2
 10
4055.07895422363
 20
872.23409765625
 30
0.0
  0
POINT
  5
2CC
  8
2
 10
4016.97890234375
 20
865.884076293946
 30
0.0
  0
ENDBLK
  5
2B9
  8
1
  0
BLOCK
  8
1
  2
8
 70
    64
 10
0.0
 20
0.0
 30
0.0
  3
8
  1

  0
TEXT
  5
2CF
  8
1
100
AcDbText
 10
3919.47571154978
 20
1234.53921470207
 30
0.0
 40
7.0
  1
Size: 34
100
AcDbText
  0
TEXT
  5
2D0
  8
1
100
AcDbText
 10
3919.47571154978
 20
1241.53921470207
 30
0.0
 40
7.0
  1
Model: JEAN
100
AcDbText
  0
TEXT
  5
2D1
  8
1
100
AcDbText
 10
3919.47571154978
 20
1248.53921470207
 30
0.0
 40
7.0
  1
Piece Name: FT-PKT-FC-LT
100
AcDbText
  0
TEXT
  5
2D2
  8
1
100
AcDbText
 10
3919.47571154978
 20
1262.53921470207
 30
0.0
 40
7.0
  1
Quantity: 1,0
100
AcDbText
  0
TEXT
  5
2D3
  8
1
100
AcDbText
 10
3919.47571154978
 20
1269.53921470207
 30
0.0
 40
7.0
  1
Material: SHEL
100
AcDbText
  0
POLYLINE
  5
2D4
  8
1
100
AcDb2dPolyline
 66
     1
 10
0.0
 20
0.0
 30
0.0
 70
     1
  0
VERTEX
  5
2D5
  8
1
100
AcDbVertex
100
AcDb2dVertex
 10
3993.96071863067
 20
1171.32086101913
 30
0.0
 70
     0
 50
0.0
  0
VERTEX
  5
2D6
  8
1
100
AcDbVertex
100
AcDb2dVertex
 10
3982.22713250527
 20
1168.73079898584
 30
0.0
 70
     0
 50
0.0
  0
VERTEX
  5
2D7
  8
1
100
AcDbVertex
100
AcDb2dVertex
 10
3972.56098167274
 20
1166.56798339947
 30
0.0
 70
     0
 50
0.0
  0
VERTEX
  5
2D8
  8
1
100
AcDbVertex
100
AcDb2dVertex
 10
3958.32949957378
 20
1163.32975668304
 30
0.0
 70
     0
 50
0.0
  0
VERTEX
  5
2D9
  8
1
100
AcDbVertex
100
AcDb2dVertex
 10
3949.06329970881
 20
1161.21751110084
 30
0.0
 70
     0
 50
0.0
  0
VERTEX
  5
2DA
  8
1
100
AcDbVertex
100
AcDb2dVertex
 10
3942.55940945284
 20
1159.84257688388
 30
0.0
 70
     0
 50
0.0
  0
VERTEX
  5
2DB
  8
1
100
AcDbVertex
100
AcDb2dVertex
 10
3936.6148561809
 20
1158.81628426318
 30
0.0
 70
     0
 50
0.0
  0
VERTEX
  5
2DC
  8
1
100
AcDbVertex
100
AcDb2dVertex
 10
3929.02666726799
 20
1157.74996346974
 30
0.0
 70
     0
 50
0.0
  0
VERTEX
  5
2DD
  8
1
100
AcDbVertex
100
AcDb2dVertex
 10
3900.10749201934
 20
1153.94255828867
 30
0.0
 70
     0
 50
0.0
  0
VERTEX
  5
2DE
  8
1
100
AcDbVertex
100
AcDb2dVertex
 10
3847.13267757559
 20
1150.168829
 30
0.0
 70
     0
 50
0.0
  0
VERTEX
  5
2DF
  8
1
100
AcDbVertex
100
AcDb2dVertex
 10
3846.50135995433
 20
1162.8560444279
 30
0.0
 70
     0
 50
0.0
  0
VERTEX
  5
2E0
  8
1
100
AcDbVertex
100
AcDb2dVertex
 10
3845.543581
 20
1184.57866573574
 30
0.0
 70
     0
 50
0.0
  0
VERTEX
  5
2E1
  8
1
100
AcDbVertex
100
AcDb2dVertex
 10
3845.17380289028
 20
1202.03910149541
 30
0.0
 70
     0
 50
0.0
  0
VERTEX
  5
2E2
  8
1
100
AcDbVertex
100
AcDb2dVertex
 10
3845.03124176844
 20
1210.84162330609
 30
0.0
 70
     0
 50
0.0
  0
VERTEX
  5
2E3
  8
1
100
AcDbVertex
100
AcDb2dVertex
 10
3844.99070446889
 20
1219.66087924851
 30
0.0
 70
     0
 50
0.0
  0
VERTEX
  5
2E4
  8
1
100
AcDbVertex
100
AcDb2dVertex
 10
3845.10754489184
 20
1228.47326795605
 30
0.0
 70
     0
 50
0.0
  0
VERTEX
  5
2E5
  8
1
100
AcDbVertex
100
AcDb2dVertex
 10
3845.4371169375
 20
1237.25518806207
 30
0.0
 70
     0
 50
0.0
  0
VERTEX
  5
2E6
  8
1
100
AcDbVertex
100
AcDb2dVertex
 10
3845.69897541266
 20
1241.62734696245
 30
0.0
 70
     0
 50
0.0
  0
VERTEX
  5
2E7
  8
1
100
AcDbVertex
100
AcDb2dVertex
 10
3846.03477450608
 20
1245.98303819996
 30
0.0
 70
     0
 50
0.0
  0
VERTEX
  5
2E8
  8
1
100
AcDbVertex
100
AcDb2dVertex
 10
3846.45143345528
 20
1250.31931160379
 30
0.0
 70
     0
 50
0.0
  0
VERTEX
  5
2E9
  8
1
100
AcDbVertex
100
AcDb2dVertex
 10
3846.95587149779
 20
1254.6332170031
 30
0.0
 70
     0
 50
0.0
  0
VERTEX
  5
2EA
  8
1
100
AcDbVertex
100
AcDb2dVertex
 10
3847.66561467813
 20
1259.44919780714
 30
0.0
 70
     0
 50
0.0
  0
VERTEX
  5
2EB
  8
1
100
AcDbVertex
100
AcDb2dVertex
 10
3848.53366825674
 20
1264.23834768198
 30
0.0
 70
     0
 50
0.0
  0
VERTEX
  5
2EC
  8
1
100
AcDbVertex
100
AcDb2dVertex
 10
3849.52349906479
 20
1269.0068583805
 30
0.0
 70
     0
 50
0.0
  0
VERTEX
  5
2ED
  8
1
100
AcDbVertex
100
AcDb2dVertex
 10
3850.59857393344
 20
1273.7609216556
 30
0.0
 70
     0
 50
0.0
  0
VERTEX
  5
2EE
  8
1
100
AcDbVertex
100
AcDb2dVertex
 10
3852.85832317725
 20
1283.25047294711
 30
0.0
 70
     0
 50
0.0
  0
VERTEX
  5
2EF
  8
1
100
AcDbVertex
100
AcDb2dVertex
 10
3855.02065063751
 20
1292.75653557968
 30
0.0
 70
     0
 50
0.0
  0
VERTEX
  5
2F0
  8
1
100
AcDbVertex
100
AcDb2dVertex
 10
3857.63933450203
 20
1299.09411876841
 30
0.0
 70
     0
 50
0.0
  0
VERTEX
  5
2F1
  8
1
100
AcDbVertex
100
AcDb2dVertex
 10
3859.52489115229
 20
1303.79434894534
 30
0.0
 70
     0
 50
0.0
  0
VERTEX
  5
2F2
  8
1
100
AcDbVertex
100
AcDb2dVertex
 10
3861.91789391124
 20
1309.69686527027
 30
0.0
 70
     0
 50
0.0
  0
VERTEX
  5
2F3
  8
1
100
AcDbVertex
100
AcDb2dVertex
 10
3862.83597557055
 20
1311.60620892148
 30
0.0
 70
     0
 50
0.0
  0
VERTEX
  5
2F4
  8
1
100
AcDbVertex
100
AcDb2dVertex
 10
3863.8422011168
 20
1313.29231456733
 30
0.0
 70
     0
 50
0.0
  0
VERTEX
  5
2F5
  8
1
100
AcDbVertex
100
AcDb2dVertex
 10
3865.14188832531
 20
1315.10871095944
 30
0.0
 70
     0
 50
0.0
  0
VERTEX
  5
2F6
  8
1
100
AcDbVertex
100
AcDb2dVertex
 10
3866.94035497138
 20
1317.40892684942
 30
0.0
 70
     0
 50
0.0
  0
VERTEX
  5
2F7
  8
1
100
AcDbVertex
100
AcDb2dVertex
 10
3875.79546238001
 20
1328.67393953542
 30
0.0
 70
     0
 50
0.0
  0
VERTEX
  5
2F8
  8
1
100
AcDbVertex
100
AcDb2dVertex
 10
3883.30916596402
 20
1332.3464845868
 30
0.0
 70
     0
 50
0.0
  0
VERTEX
  5
2F9
  8
1
100
AcDbVertex
100
AcDb2dVertex
 10
3889.87520085911
 20
1335.60776731569
 30
0.0
 70
     0
 50
0.0
  0
VERTEX
  5
2FA
  8
1
100
AcDbVertex
100
AcDb2dVertex
 10
3895.8784042447
 20
1338.45733218254
 30
0.0
 70
     0
 50
0.0
  0
VERTEX
  5
2FB
  8
1
100
AcDbVertex
100
AcDb2dVertex
 10
3901.70361330021
 20
1340.89472364776
 30
0.0
 70
     0
 50
0.0
  0
VERTEX
  5
2FC
  8
1
100
AcDbVertex
100
AcDb2dVertex
 10
3904.66973157276
 20
1341.95871199865
 30
0.0
 70
     0
 50
0.0
  0
VERTEX
  5
2FD
  8
1
100
AcDbVertex
100
AcDb2dVertex
 10
3907.73566520507
 20
1342.9194861718
 30
0.0
 70
     0
 50
0.0
  0
VERTEX
  5
2FE
  8
1
100
AcDbVertex
100
AcDb2dVertex
 10
3910.94951884458
 20
1343.77698922475
 30
0.0
 70
     0
 50
0.0
  0
VERTEX
  5
2FF
  8
1
100
AcDbVertex
100
AcDb2dVertex
 10
3914.35939713872
 20
1344.53116421507
 30
0.0
 70
     0
 50
0.0
  0
VERTEX
  5
300
  8
1
100
AcDbVertex
100
AcDb2dVertex
 10
3918.0134047349
 20
1345.1819542003
 30
0.0
 70
     0
 50
0.0
  0
VERTEX
  5
301
  8
1
100
AcDbVertex
100
AcDb2dVertex
 10
3921.95964628056
 20
1345.729302238
 30
0.0
 70
     0
 50
0.0
  0
VERTEX
  5
302
  8
1
100
AcDbVertex
100
AcDb2dVertex
 10
3926.24622642312
 20
1346.17315138573
 30
0.0
 70
     0
 50
0.0
  0
VERTEX
  5
303
  8
1
100
AcDbVertex
100
AcDb2dVertex
 10
3930.92124981003
 20
1346.51344470103
 30
0.0
 70
     0
 50
0.0
  0
VERTEX
  5
304
  8
1
100
AcDbVertex
100
AcDb2dVertex
 10
3939.05118645068
 20
1346.83619340933
 30
0.0
 70
     0
 50
0.0
  0
VERTEX
  5
305
  8
1
100
AcDbVertex
100
AcDb2dVertex
 10
3943.56581997788
 20
1346.90407788979
 30
0.0
 70
     0
 50
0.0
  0
VERTEX
  5
306
  8
1
100
AcDbVertex
100
AcDb2dVertex
 10
3948.41012219668
 20
1346.90960040414
 30
0.0
 70
     0
 50
0.0
  0
VERTEX
  5
307
  8
1
100
AcDbVertex
100
AcDb2dVertex
 10
3953.60651202235
 20
1346.85273441467
 30
0.0
 70
     0
 50
0.0
  0
VERTEX
  5
308
  8
1
100
AcDbVertex
100
AcDb2dVertex
 10
3959.17740837014
 20
1346.73345338365
 30
0.0
 70
     0
 50
0.0
  0
VERTEX
  5
309
  8
1
100
AcDbVertex
100
AcDb2dVertex
 10
3971.53239629319
 20
1346.30754004607
 30
0.0
 70
     0
 50
0.0
  0
VERTEX
  5
30A
  8
1
100
AcDbVertex
100
AcDb2dVertex
 10
3984.22883472493
 20
1345.94462822566
 30
0.0
 70
     0
 50
0.0
  0
VERTEX
  5
30B
  8
1
100
AcDbVertex
100
AcDb2dVertex
 10
3983.83188780105
 20
1314.4382167179
 30
0.0
 70
     0
 50
0.0
  0
VERTEX
  5
30C
  8
1
100
AcDbVertex
100
AcDb2dVertex
 10
3984.28072096458
 20
1295.12834188402
 30
0.0
 70
     0
 50
0.0
  0
SEQEND
  5
30D
  8
0
  0
POINT
  5
30E
  8
2
 10
3993.96071863067
 20
1171.32086101913
 30
0.0
  0
POINT
  5
30F
  8
3
 10
3982.22713250527
 20
1168.73079898584
 30
0.0
  0
POINT
  5
310
  8
3
 10
3972.56098167274
 20
1166.56798339947
 30
0.0
  0
POINT
  5
311
  8
3
 10
3958.32949957378
 20
1163.32975668304
 30
0.0
  0
POINT
  5
312
  8
3
 10
3949.06329970881
 20
1161.21751110084
 30
0.0
  0
POINT
  5
313
  8
3
 10
3942.55940945284
 20
1159.84257688388
 30
0.0
  0
POINT
  5
314
  8
3
 10
3936.6148561809
 20
1158.81628426318
 30
0.0
  0
POINT
  5
315
  8
3
 10
3929.02666726799
 20
1157.74996346974
 30
0.0
  0
POINT
  5
316
  8
2
 10
3900.10749201934
 20
1153.94255828867
 30
0.0
  0
POINT
  5
317
  8
2
 10
3847.13267757559
 20
1150.168829
 30
0.0
  0
POINT
  5
318
  8
2
 10
3846.50135995433
 20
1162.8560444279
 30
0.0
  0
POINT
  5
319
  8
2
 10
3845.543581
 20
1184.57866573574
 30
0.0
  0
POINT
  5
31A
  8
3
 10
3845.17380289028
 20
1202.03910149541
 30
0.0
  0
POINT
  5
31B
  8
3
 10
3845.03124176844
 20
1210.84162330609
 30
0.0
  0
POINT
  5
31C
  8
3
 10
3844.99070446889
 20
1219.66087924851
 30
0.0
  0
POINT
  5
31D
  8
3
 10
3845.10754489184
 20
1228.47326795605
 30
0.0
  0
POINT
  5
31E
  8
3
 10
3845.4371169375
 20
1237.25518806207
 30
0.0
  0
POINT
  5
31F
  8
3
 10
3845.69897541266
 20
1241.62734696245
 30
0.0
  0
POINT
  5
320
  8
3
 10
3846.03477450608
 20
1245.98303819996
 30
0.0
  0
POINT
  5
321
  8
3
 10
3846.45143345528
 20
1250.31931160379
 30
0.0
  0
POINT
  5
322
  8
2
 10
3846.95587149779
 20
1254.6332170031
 30
0.0
  0
POINT
  5
323
  8
3
 10
3847.66561467813
 20
1259.44919780714
 30
0.0
  0
POINT
  5
324
  8
3
 10
3848.53366825674
 20
1264.23834768198
 30
0.0
  0
POINT
  5
325
  8
3
 10
3849.52349906479
 20
1269.0068583805
 30
0.0
  0
POINT
  5
326
  8
3
 10
3850.59857393344
 20
1273.7609216556
 30
0.0
  0
POINT
  5
327
  8
3
 10
3852.85832317725
 20
1283.25047294711
 30
0.0
  0
POINT
  5
328
  8
2
 10
3855.02065063751
 20
1292.75653557968
 30
0.0
  0
POINT
  5
329
  8
3
 10
3857.63933450203
 20
1299.09411876841
 30
0.0
  0
POINT
  5
32A
  8
3
 10
3859.52489115229
 20
1303.79434894534
 30
0.0
  0
POINT
  5
32B
  8
3
 10
3861.91789391124
 20
1309.69686527027
 30
0.0
  0
POINT
  5
32C
  8
3
 10
3862.83597557055
 20
1311.60620892148
 30
0.0
  0
POINT
  5
32D
  8
3
 10
3863.8422011168
 20
1313.29231456733
 30
0.0
  0
POINT
  5
32E
  8
3
 10
3865.14188832531
 20
1315.10871095944
 30
0.0
  0
POINT
  5
32F
  8
2
 10
3866.94035497138
 20
1317.40892684942
 30
0.0
  0
POINT
  5
330
  8
2
 10
3875.79546238001
 20
1328.67393953542
 30
0.0
  0
POINT
  5
331
  8
3
 10
3883.30916596402
 20
1332.3464845868
 30
0.0
  0
POINT
  5
332
  8
3
 10
3889.87520085911
 20
1335.60776731569
 30
0.0
  0
POINT
  5
333
  8
3
 10
3895.8784042447
 20
1338.45733218254
 30
0.0
  0
POINT
  5
334
  8
3
 10
3901.70361330021
 20
1340.89472364776
 30
0.0
  0
POINT
  5
335
  8
3
 10
3904.66973157276
 20
1341.95871199865
 30
0.0
  0
POINT
  5
336
  8
3
 10
3907.73566520507
 20
1342.9194861718
 30
0.0
  0
POINT
  5
337
  8
3
 10
3910.94951884458
 20
1343.77698922475
 30
0.0
  0
POINT
  5
338
  8
3
 10
3914.35939713872
 20
1344.53116421507
 30
0.0
  0
POINT
  5
339
  8
3
 10
3918.0134047349
 20
1345.1819542003
 30
0.0
  0
POINT
  5
33A
  8
3
 10
3921.95964628056
 20
1345.729302238
 30
0.0
  0
POINT
  5
33B
  8
3
 10
3926.24622642312
 20
1346.17315138573
 30
0.0
  0
POINT
  5
33C
  8
2
 10
3930.92124981003
 20
1346.51344470103
 30
0.0
  0
POINT
  5
33D
  8
3
 10
3939.05118645068
 20
1346.83619340933
 30
0.0
  0
POINT
  5
33E
  8
3
 10
3943.56581997788
 20
1346.90407788979
 30
0.0
  0
POINT
  5
33F
  8
3
 10
3948.41012219668
 20
1346.90960040414
 30
0.0
  0
POINT
  5
340
  8
3
 10
3953.60651202235
 20
1346.85273441467
 30
0.0
  0
POINT
  5
341
  8
3
 10
3959.17740837014
 20
1346.73345338365
 30
0.0
  0
POINT
  5
342
  8
2
 10
3971.53239629319
 20
1346.30754004607
 30
0.0
  0
POINT
  5
343
  8
2
 10
3984.22883472493
 20
1345.94462822566
 30
0.0
  0
POINT
  5
344
  8
2
 10
3983.83188780105
 20
1314.4382167179
 30
0.0
  0
POINT
  5
345
  8
2
 10
3984.28072096458
 20
1295.12834188402
 30
0.0
  0
LINE
  5
346
  8
11
 10
3900.10749201934
 20
1153.94255828867
 30
0.0
 11
3900.10749201934
 21
1152.34255828867
 31
0.0
  0
LINE
  5
347
  8
11
 10
3983.83188780105
 20
1314.4382167179
 30
0.0
 11
3985.43188780105
 21
1314.4382167179
 31
0.0
  0
ENDBLK
  5
2CE
  8
1
  0
BLOCK
  8
1
  2
9
 70
    64
 10
0.0
 20
0.0
 30
0.0
  3
9
  1

  0
TEXT
  5
34A
  8
1
100
AcDbText
 10
4137.32450889038
 20
1080.05580639127
 30
0.0
 40
7.0
  1
Size: 34
100
AcDbText
  0
TEXT
  5
34B
  8
1
100
AcDbText
 10
4137.32450889038
 20
1087.05580639127
 30
0.0
 40
7.0
  1
Model: JEAN
100
AcDbText
  0
TEXT
  5
34C
  8
1
100
AcDbText
 10
4137.32450889038
 20
1094.05580639127
 30
0.0
 40
7.0
  1
Piece Name: BK-PKT-ZIG {SH 4 X 18%}
100
AcDbText
  0
TEXT
  5
34D
  8
1
100
AcDbText
 10
4137.32450889038
 20
1108.05580639127
 30
0.0
 40
7.0
  1
Quantity: 1,1
100
AcDbText
  0
TEXT
  5
34E
  8
1
100
AcDbText
 10
4137.32450889038
 20
1115.05580639127
 30
0.0
 40
7.0
  1
Material: SHEL
100
AcDbText
  0
POLYLINE
  5
34F
  8
1
100
AcDb2dPolyline
 66
     1
 10
0.0
 20
0.0
 30
0.0
 70
     1
  0
VERTEX
  5
350
  8
1
100
AcDbVertex
100
AcDb2dVertex
 10
4023.92673
 20
1094.06691473087
 30
0.0
 70
     0
 50
0.0
  0
VERTEX
  5
351
  8
1
100
AcDbVertex
100
AcDb2dVertex
 10
4044.84009876758
 20
1189.37508454142
 30
0.0
 70
     0
 50
0.0
  0
VERTEX
  5
352
  8
1
100
AcDbVertex
100
AcDb2dVertex
 10
4231.15544757822
 20
1217.58262178254
 30
0.0
 70
     0
 50
0.0
  0
VERTEX
  5
353
  8
1
100
AcDbVertex
100
AcDb2dVertex
 10
4250.72188238224
 20
1204.74348190039
 30
0.0
 70
     0
 50
0.0
  0
VERTEX
  5
354
  8
1
100
AcDbVertex
100
AcDb2dVertex
 10
4250.72228778076
 20
983.390180755288
 30
0.0
 70
     0
 50
0.0
  0
VERTEX
  5
355
  8
1
100
AcDbVertex
100
AcDb2dVertex
 10
4231.15294317326
 20
970.528991
 30
0.0
 70
     0
 50
0.0
  0
VERTEX
  5
356
  8
1
100
AcDbVertex
100
AcDb2dVertex
 10
4044.88533978565
 20
998.550389989175
 30
0.0
 70
     0
 50
0.0
  0
SEQEND
  5
357
  8
0
  0
POINT
  5
358
  8
2
 10
4023.92673
 20
1094.06691473087
 30
0.0
  0
POINT
  5
359
  8
2
 10
4044.84009876758
 20
1189.37508454142
 30
0.0
  0
POINT
  5
35A
  8
2
 10
4231.15544757822
 20
1217.58262178254
 30
0.0
  0
POINT
  5
35B
  8
2
 10
4250.72188238224
 20
1204.74348190039
 30
0.0
  0
POINT
  5
35C
  8
2
 10
4250.72228778076
 20
983.390180755288
 30
0.0
  0
POINT
  5
35D
  8
2
 10
4231.15294317326
 20
970.528991
 30
0.0
  0
POINT
  5
35E
  8
2
 10
4044.88533978565
 20
998.550389989175
 30
0.0
  0
ENDBLK
  5
349
  8
1
  0
BLOCK
  8
1
  2
10
 70
    64
 10
0.0
 20
0.0
 30
0.0
  3
10
  1

  0
TEXT
  5
361
  8
1
100
AcDbText
 10
4678.1898303833
 20
451.099658966065
 30
0.0
 40
7.0
  1
Size: 34
100
AcDbText
  0
TEXT
  5
362
  8
1
100
AcDbText
 10
4678.1898303833
 20
458.099658966065
 30
0.0
 40
7.0
  1
Model: JEAN
100
AcDbText
  0
TEXT
  5
363
  8
1
100
AcDbText
 10
4678.1898303833
 20
465.099658966065
 30
0.0
 40
7.0
  1
Piece Name: FLY
100
AcDbText
  0
TEXT
  5
364
  8
1
100
AcDbText
 10
4678.1898303833
 20
479.099658966065
 30
0.0
 40
7.0
  1
Quantity: 1,0
100
AcDbText
  0
TEXT
  5
365
  8
1
100
AcDbText
 10
4678.1898303833
 20
486.099658966065
 30
0.0
 40
7.0
  1
Material: SHEL
100
AcDbText
  0
POLYLINE
  5
366
  8
1
100
AcDb2dPolyline
 66
     1
 10
0.0
 20
0.0
 30
0.0
 70
     1
  0
VERTEX
  5
367
  8
1
100
AcDbVertex
100
AcDb2dVertex
 10
4797.2956607666
 20
495.199203491211
 30
0.0
 70
     0
 50
0.0
  0
VERTEX
  5
368
  8
1
100
AcDbVertex
100
AcDb2dVertex
 10
4796.81741217041
 20
435.000343322754
 30
0.0
 70
     0
 50
0.0
  0
VERTEX
  5
369
  8
1
100
AcDbVertex
100
AcDb2dVertex
 10
4559.084
 20
435.0
 30
0.0
 70
     0
 50
0.0
  0
VERTEX
  5
36A
  8
1
100
AcDbVertex
100
AcDb2dVertex
 10
4560.67755588347
 20
442.012551611776
 30
0.0
 70
     0
 50
0.0
  0
VERTEX
  5
36B
  8
1
100
AcDbVertex
100
AcDb2dVertex
 10
4562.18283166575
 20
448.185995174317
 30
0.0
 70
     0
 50
0.0
  0
VERTEX
  5
36C
  8
1
100
AcDbVertex
100
AcDb2dVertex
 10
4563.79192367983
 20
453.764900240745
 30
0.0
 70
     0
 50
0.0
  0
VERTEX
  5
36D
  8
1
100
AcDbVertex
100
AcDb2dVertex
 10
4565.69692825868
 20
458.993836364183
 30
0.0
 70
     0
 50
0.0
  0
VERTEX
  5
36E
  8
1
100
AcDbVertex
100
AcDb2dVertex
 10
4566.82042786396
 20
461.553494057632
 30
0.0
 70
     0
 50
0.0
  0
VERTEX
  5
36F
  8
1
100
AcDbVertex
100
AcDb2dVertex
 10
4568.0899417353
 20
464.117373097755
 30
0.0
 70
     0
 50
0.0
  0
VERTEX
  5
370
  8
1
100
AcDbVertex
100
AcDb2dVertex
 10
4569.52948191432
 20
466.716044678692
 30
0.0
 70
     0
 50
0.0
  0
VERTEX
  5
371
  8
1
100
AcDbVertex
100
AcDb2dVertex
 10
4571.16306044266
 20
469.380079994583
 30
0.0
 70
     0
 50
0.0
  0
VERTEX
  5
372
  8
1
100
AcDbVertex
100
AcDb2dVertex
 10
4573.01468936193
 20
472.140050239569
 30
0.0
 70
     0
 50
0.0
  0
VERTEX
  5
373
  8
1
100
AcDbVertex
100
AcDb2dVertex
 10
4575.10838071376
 20
475.02652660779
 30
0.0
 70
     0
 50
0.0
  0
VERTEX
  5
374
  8
1
100
AcDbVertex
100
AcDb2dVertex
 10
4577.46814653976
 20
478.070080293386
 30
0.0
 70
     0
 50
0.0
  0
VERTEX
  5
375
  8
1
100
AcDbVertex
100
AcDb2dVertex
 10
4580.11799888157
 20
481.301282490499
 30
0.0
 70
     0
 50
0.0
  0
VERTEX
  5
376
  8
1
100
AcDbVertex
100
AcDb2dVertex
 10
4582.5065622553
 20
483.819053855924
 30
0.0
 70
     0
 50
0.0
  0
VERTEX
  5
377
  8
1
100
AcDbVertex
100
AcDb2dVertex
 10
4585.21795339217
 20
486.039884097182
 30
0.0
 70
     0
 50
0.0
  0
VERTEX
  5
378
  8
1
100
AcDbVertex
100
AcDb2dVertex
 10
4588.19878942073
 20
487.851892892638
 30
0.0
 70
     0
 50
0.0
  0
VERTEX
  5
379
  8
1
100
AcDbVertex
100
AcDb2dVertex
 10
4591.39568746948
 20
489.143199920654
 30
0.0
 70
     0
 50
0.0
  0
VERTEX
  5
37A
  8
1
100
AcDbVertex
100
AcDb2dVertex
 10
4595.63898182948
 20
490.29603130004
 30
0.0
 70
     0
 50
0.0
  0
VERTEX
  5
37B
  8
1
100
AcDbVertex
100
AcDb2dVertex
 10
4599.93215613361
 20
491.2388375299
 30
0.0
 70
     0
 50
0.0
  0
VERTEX
  5
37C
  8
1
100
AcDbVertex
100
AcDb2dVertex
 10
4604.26369962553
 20
492.020085952434
 30
0.0
 70
     0
 50
0.0
  0
VERTEX
  5
37D
  8
1
100
AcDbVertex
100
AcDb2dVertex
 10
4608.6221015489
 20
492.688243909838
 30
0.0
 70
     0
 50
0.0
  0
VERTEX
  5
37E
  8
1
100
AcDbVertex
100
AcDb2dVertex
 10
4617.37343766466
 20
493.879157798053
 30
0.0
 70
     0
 50
0.0
  0
VERTEX
  5
37F
  8
1
100
AcDbVertex
100
AcDb2dVertex
 10
4626.09407843018
 20
495.199317932129
 30
0.0
 70
     0
 50
0.0
  0
SEQEND
  5
380
  8
0
  0
POINT
  5
381
  8
2
 10
4797.2956607666
 20
495.199203491211
 30
0.0
  0
POINT
  5
382
  8
2
 10
4796.81741217041
 20
435.000343322754
 30
0.0
  0
POINT
  5
383
  8
2
 10
4559.084
 20
435.0
 30
0.0
  0
POINT
  5
384
  8
3
 10
4560.67755588347
 20
442.012551611776
 30
0.0
  0
POINT
  5
385
  8
3
 10
4562.18283166575
 20
448.185995174317
 30
0.0
  0
POINT
  5
386
  8
3
 10
4563.79192367983
 20
453.764900240745
 30
0.0
  0
POINT
  5
387
  8
3
 10
4565.69692825868
 20
458.993836364183
 30
0.0
  0
POINT
  5
388
  8
3
 10
4566.82042786396
 20
461.553494057632
 30
0.0
  0
POINT
  5
389
  8
3
 10
4568.0899417353
 20
464.117373097755
 30
0.0
  0
POINT
  5
38A
  8
3
 10
4569.52948191432
 20
466.716044678692
 30
0.0
  0
POINT
  5
38B
  8
3
 10
4571.16306044266
 20
469.380079994583
 30
0.0
  0
POINT
  5
38C
  8
3
 10
4573.01468936193
 20
472.140050239569
 30
0.0
  0
POINT
  5
38D
  8
3
 10
4575.10838071376
 20
475.02652660779
 30
0.0
  0
POINT
  5
38E
  8
3
 10
4577.46814653976
 20
478.070080293386
 30
0.0
  0
POINT
  5
38F
  8
2
 10
4580.11799888157
 20
481.301282490499
 30
0.0
  0
POINT
  5
390
  8
3
 10
4582.5065622553
 20
483.819053855924
 30
0.0
  0
POINT
  5
391
  8
3
 10
4585.21795339217
 20
486.039884097182
 30
0.0
  0
POINT
  5
392
  8
3
 10
4588.19878942073
 20
487.851892892638
 30
0.0
  0
POINT
  5
393
  8
2
 10
4591.39568746948
 20
489.143199920654
 30
0.0
  0
POINT
  5
394
  8
3
 10
4595.63898182948
 20
490.29603130004
 30
0.0
  0
POINT
  5
395
  8
3
 10
4599.93215613361
 20
491.2388375299
 30
0.0
  0
POINT
  5
396
  8
3
 10
4604.26369962553
 20
492.020085952434
 30
0.0
  0
POINT
  5
397
  8
3
 10
4608.6221015489
 20
492.688243909838
 30
0.0
  0
POINT
  5
398
  8
3
 10
4617.37343766466
 20
493.879157798053
 30
0.0
  0
POINT
  5
399
  8
2
 10
4626.09407843018
 20
495.199317932129
 30
0.0
  0
ENDBLK
  5
360
  8
1
  0
BLOCK
  8
1
  2
11
 70
    64
 10
0.0
 20
0.0
 30
0.0
  3
11
  1

  0
TEXT
  5
39C
  8
1
100
AcDbText
 10
4530.61950341311
 20
1058.77370235771
 30
0.0
 40
7.0
  1
Size: 34
100
AcDbText
  0
TEXT
  5
39D
  8
1
100
AcDbText
 10
4530.61950341311
 20
1065.77370235771
 30
0.0
 40
7.0
  1
Model: JEAN
100
AcDbText
  0
TEXT
  5
39E
  8
1
100
AcDbText
 10
4530.61950341311
 20
1072.77370235771
 30
0.0
 40
7.0
  1
Piece Name: FLY-EXT
100
AcDbText
  0
TEXT
  5
39F
  8
1
100
AcDbText
 10
4530.61950341311
 20
1086.77370235771
 30
0.0
 40
7.0
  1
Quantity: 1,0
100
AcDbText
  0
TEXT
  5
3A0
  8
1
100
AcDbText
 10
4530.61950341311
 20
1093.77370235771
 30
0.0
 40
7.0
  1
Material: SHEL
100
AcDbText
  0
POLYLINE
  5
3A1
  8
1
100
AcDb2dPolyline
 66
     1
 10
0.0
 20
0.0
 30
0.0
 70
     1
  0
VERTEX
  5
3A2
  8
1
100
AcDbVertex
100
AcDb2dVertex
 10
4660.74201113892
 20
1017.097
 30
0.0
 70
     0
 50
0.0
  0
VERTEX
  5
3A3
  8
1
100
AcDbVertex
100
AcDb2dVertex
 10
4423.92000643921
 20
1017.09711444092
 30
0.0
 70
     0
 50
0.0
  0
VERTEX
  5
3A4
  8
1
100
AcDbVertex
100
AcDb2dVertex
 10
4420.06052783246
 20
1017.0001043969
 30
0.0
 70
     0
 50
0.0
  0
VERTEX
  5
3A5
  8
1
100
AcDbVertex
100
AcDb2dVertex
 10
4415.8289374096
 20
1016.87150151718
 30
0.0
 70
     0
 50
0.0
  0
VERTEX
  5
3A6
  8
1
100
AcDbVertex
100
AcDb2dVertex
 10
4411.55179784209
 20
1016.95512437319
 30
0.0
 70
     0
 50
0.0
  0
VERTEX
  5
3A7
  8
1
100
AcDbVertex
100
AcDb2dVertex
 10
4407.55567180137
 20
1017.49479153633
 30
0.0
 70
     0
 50
0.0
  0
VERTEX
  5
3A8
  8
1
100
AcDbVertex
100
AcDb2dVertex
 10
4405.76503968839
 20
1018.01183503665
 30
0.0
 70
     0
 50
0.0
  0
VERTEX
  5
3A9
  8
1
100
AcDbVertex
100
AcDb2dVertex
 10
4404.1671219589
 20
1018.73432157804
 30
0.0
 70
     0
 50
0.0
  0
VERTEX
  5
3AA
  8
1
100
AcDbVertex
100
AcDb2dVertex
 10
4402.80273894683
 20
1019.69272848192
 30
0.0
 70
     0
 50
0.0
  0
VERTEX
  5
3AB
  8
1
100
AcDbVertex
100
AcDb2dVertex
 10
4401.71271098612
 20
1020.91753306972
 30
0.0
 70
     0
 50
0.0
  0
VERTEX
  5
3AC
  8
1
100
AcDbVertex
100
AcDb2dVertex
 10
4400.93785841069
 20
1022.43921266288
 30
0.0
 70
     0
 50
0.0
  0
VERTEX
  5
3AD
  8
1
100
AcDbVertex
100
AcDb2dVertex
 10
4400.51900155448
 20
1024.28824458281
 30
0.0
 70
     0
 50
0.0
  0
VERTEX
  5
3AE
  8
1
100
AcDbVertex
100
AcDb2dVertex
 10
4400.49696075143
 20
1026.49510615095
 30
0.0
 70
     0
 50
0.0
  0
VERTEX
  5
3AF
  8
1
100
AcDbVertex
100
AcDb2dVertex
 10
4400.91255633545
 20
1029.09027468872
 30
0.0
 70
     0
 50
0.0
  0
VERTEX
  5
3B0
  8
1
100
AcDbVertex
100
AcDb2dVertex
 10
4401.51159119557
 20
1031.1843591588
 30
0.0
 70
     0
 50
0.0
  0
VERTEX
  5
3B1
  8
1
100
AcDbVertex
100
AcDb2dVertex
 10
4402.26350596219
 20
1033.23349814988
 30
0.0
 70
     0
 50
0.0
  0
VERTEX
  5
3B2
  8
1
100
AcDbVertex
100
AcDb2dVertex
 10
4403.8590634393
 20
1037.30480884463
 30
0.0
 70
     0
 50
0.0
  0
VERTEX
  5
3B3
  8
1
100
AcDbVertex
100
AcDb2dVertex
 10
4436.27706973267
 20
1128.67590319824
 30
0.0
 70
     0
 50
0.0
  0
VERTEX
  5
3B4
  8
1
100
AcDbVertex
100
AcDb2dVertex
 10
4660.7420460748
 20
1128.67563938052
 30
0.0
 70
     0
 50
0.0
  0
SEQEND
  5
3B5
  8
0
  0
POINT
  5
3B6
  8
2
 10
4660.74201113892
 20
1017.097
 30
0.0
  0
POINT
  5
3B7
  8
2
 10
4423.92000643921
 20
1017.09711444092
 30
0.0
  0
POINT
  5
3B8
  8
3
 10
4420.06052783246
 20
1017.0001043969
 30
0.0
  0
POINT
  5
3B9
  8
3
 10
4415.8289374096
 20
1016.87150151718
 30
0.0
  0
POINT
  5
3BA
  8
3
 10
4411.55179784209
 20
1016.95512437319
 30
0.0
  0
POINT
  5
3BB
  8
3
 10
4407.55567180137
 20
1017.49479153633
 30
0.0
  0
POINT
  5
3BC
  8
3
 10
4405.76503968839
 20
1018.01183503665
 30
0.0
  0
POINT
  5
3BD
  8
3
 10
4404.1671219589
 20
1018.73432157804
 30
0.0
  0
POINT
  5
3BE
  8
3
 10
4402.80273894683
 20
1019.69272848192
 30
0.0
  0
POINT
  5
3BF
  8
3
 10
4401.71271098612
 20
1020.91753306972
 30
0.0
  0
POINT
  5
3C0
  8
3
 10
4400.93785841069
 20
1022.43921266288
 30
0.0
  0
POINT
  5
3C1
  8
3
 10
4400.51900155448
 20
1024.28824458281
 30
0.0
  0
POINT
  5
3C2
  8
3
 10
4400.49696075143
 20
1026.49510615095
 30
0.0
  0
POINT
  5
3C3
  8
2
 10
4400.91255633545
 20
1029.09027468872
 30
0.0
  0
POINT
  5
3C4
  8
3
 10
4401.51159119557
 20
1031.1843591588
 30
0.0
  0
POINT
  5
3C5
  8
3
 10
4402.26350596219
 20
1033.23349814988
 30
0.0
  0
POINT
  5
3C6
  8
2
 10
4403.8590634393
 20
1037.30480884463
 30
0.0
  0
POINT
  5
3C7
  8
2
 10
4436.27706973267
 20
1128.67590319824
 30
0.0
  0
POINT
  5
3C8
  8
2
 10
4660.7420460748
 20
1128.67563938052
 30
0.0
  0
ENDBLK
  5
39B
  8
1
  0
BLOCK
  8
0
  2
*MODEL_SPACE
 70
     0
 10
0.0
 20
0.0
 30
0.0
  3
*MODEL_SPACE
  1

  0
ENDBLK
  5
3CA
  8
0
  0
BLOCK
  8
0
  2
*PAPER_SPACE
 70
     0
 10
0.0
 20
0.0
 30
0.0
  3
*PAPER_SPACE
  1

  0
ENDBLK
  5
3CC
  8
0
  0
ENDSEC
  0
SECTION
  2
ENTITIES
  0
INSERT
  5
3CD
  8
1
  2
0
 10
0.0
 20
0.0
 30
0.0
  0
INSERT
  5
3CF
  8
1
  2
1
 10
0.0
 20
0.0
 30
0.0
  0
INSERT
  5
3D1
  8
1
  2
2
 10
0.0
 20
0.0
 30
0.0
  0
INSERT
  5
3D3
  8
1
  2
3
 10
0.0
 20
0.0
 30
0.0
  0
INSERT
  5
3D5
  8
1
  2
4
 10
0.0
 20
0.0
 30
0.0
  0
INSERT
  5
3D7
  8
1
  2
5
 10
0.0
 20
0.0
 30
0.0
  0
INSERT
  5
3D9
  8
1
  2
6
 10
0.0
 20
0.0
 30
0.0
  0
INSERT
  5
3DB
  8
1
  2
7
 10
0.0
 20
0.0
 30
0.0
  0
INSERT
  5
3DD
  8
1
  2
8
 10
0.0
 20
0.0
 30
0.0
  0
INSERT
  5
3DF
  8
1
  2
9
 10
0.0
 20
0.0
 30
0.0
  0
INSERT
  5
3E1
  8
1
  2
10
 10
0.0
 20
0.0
 30
0.0
  0
INSERT
  5
3E3
  8
1
  2
11
 10
0.0
 20
0.0
 30
0.0
  0
TEXT
  5
3E5
  8
1
100
AcDbText
 10
0.0
 20
0.0
 30
0.0
 40
7.0
  1
Units: METRIC
100
AcDbText
  0
TEXT
  5
3E6
  8
1
100
AcDbText
 10
0.0
 20
0.0
 30
0.0
 40
7.0
  1
Creation Date: 1/9/2026
100
AcDbText
  0
TEXT
  5
3E7
  8
1
100
AcDbText
 10
0.0
 20
0.0
 30
0.0
 40
7.0
  1
Creation Time: 3:39 PM
100
AcDbText
  0
TEXT
  5
3E8
  8
1
100
AcDbText
 10
0.0
 20
0.0
 30
0.0
 40
7.0
  1
Author: Morgan Tecnica
100
AcDbText
  0
TEXT
  5
3E9
  8
1
100
AcDbText
 10
0.0
 20
0.0
 30
0.0
 40
7.0
  1
Version: 2Design - 2.12.0.0 - XENON
100
AcDbText
  0
TEXT
  5
3EA
  8
1
100
AcDbText
 10
0.0
 20
0.0
 30
0.0
 40
7.0
  1
SAMPLE SIZE: 34
100
AcDbText
  0
ENDSEC
  0
EOF
