  0
SECTION
  2
HEADER
  9
$ACADVER
  1
AC1009
  9
$INSBASE
 10
0.0
 20
0.0
 30
0.0
  9
$EXTMIN
 10
0.0
 20
0.0
 30
0.0
  9
$EXTMAX
 10
5102.68798729676
 20
1346.90960040414
 30
0.0
  9
$LIMMIN
 10
0.0
 20
0.0
  9
$LIMMAX
 10
12.0
 20
9.0
  9
$ORTHOMODE
 70
     0
  9
$REGENMODE
 70
     1
  9
$FILLMODE
 70
     1
  9
$QTEXTMODE
 70
     0
  9
$MIRRTEXT
 70
     0
  9
$DRAGMODE
 70
     2
  9
$LTSCALE
 40
1.0
  9
$OSMODE
 70
    37
  9
$ATTMODE
 70
     1
  9
$TEXTSIZE
 40
0.2
  9
$TRACEWID
 40
0.05
  9
$TEXTSTYLE
  7
STANDARD
  9
$CLAYER
  8
0
  9
$CELTYPE
  6
BYLAYER
  9
$CECOLOR
 62
   256
  9
$DIMSCALE
 40
1.0
  9
$DIMASZ
 40
0.18
  9
$DIMEXO
 40
0.0625
  9
$DIMDLI
 40
0.38
  9
$DIMRND
 40
0.0
  9
$DIMDLE
 40
0.0
  9
$DIMEXE
 40
0.18
  9
$DIMTP
 40
0.0
  9
$DIMTM
 40
0.0
  9
$DIMTXT
 40
0.18
  9
$DIMCEN
 40
0.09
  9
$DIMTSZ
 40
0.0
  9
$DIMTOL
 70
     0
  9
$DIMLIM
 70
     0
  9
$DIMTIH
 70
     1
  9
$DIMTOH
 70
     1
  9
$DIMSE1
 70
     0
  9
$DIMSE2
 70
     0
  9
$DIMTAD
 70
     0
  9
$DIMZIN
 70
     0
  9
$DIMBLK
  1

  9
$DIMASO
 70
     1
  9
$DIMSHO
 70
     1
  9
$DIMPOST
  1

  9
$DIMAPOST
  1

  9
$DIMALT
 70
     0
  9
$DIMALTD
 70
     2
  9
$DIMALTF
 40
25.4
  9
$DIMLFAC
 40
1.0
  9
$DIMTOFL
 70
     0
  9
$DIMTVP
 40
0.0
  9
$DIMTIX
 70
     0
  9
$DIMSOXD
 70
     0
  9
$DIMSAH
 70
     0
  9
$DIMBLK1
  1

  9
$DIMBLK2
  1

  9
$DIMSTYLE
  2
STANDARD
  9
$DIMCLRD
 70
     0
  9
$DIMCLRE
 70
     0
  9
$DIMCLRT
 70
     0
  9
$DIMTFAC
 40
1.0
  9
$DIMGAP
 40
0.09
  9
$LUNITS
 70
     2
  9
$LUPREC
 70
     4
  9
$SKETCHINC
 40
0.1
  9
$FILLETRAD
 40
0.0
  9
$AUNITS
 70
     0
  9
$AUPREC
 70
     0
  9
$MENU
  1
.
  9
$ELEVATION
 40
0.0
  9
$PELEVATION
 40
0.0
  9
$THICKNESS
 40
0.0
  9
$LIMCHECK
 70
     0
  9
$BLIPMODE
 70
     0
  9
$CHAMFERA
 40
0.0
  9
$CHAMFERB
 40
0.0
  9
$SKPOLY
 70
     0
  9
$TDCREATE
 40
2461050.65288393
  9
$TDUPDATE
 40
2461050.65288396
  9
$TDINDWG
 40
0.000000034724537
  9
$TDUSRTIMER
 40
0.000000034724537
  9
$USRTIMER
 70
     1
  9
$ANGBASE
 50
0.0
  9
$ANGDIR
 70
     0
  9
$PDMODE
 70
     0
  9
$PDSIZE
 40
0.0
  9
$PLINEWID
 40
0.0
  9
$COORDS
 70
     1
  9
$SPLFRAME
 70
     0
  9
$SPLINETYPE
 70
     6
  9
$SPLINESEGS
 70
     8
  9
$ATTDIA
 70
     1
  9
$ATTREQ
 70
     1
  9
$HANDLING
 70
     1
  9
$HANDSEED
  5
3D1
  9
$SURFTAB1
 70
     6
  9
$SURFTAB2
 70
     6
  9
$SURFTYPE
 70
     6
  9
$SURFU
 70
     6
  9
$SURFV
 70
     6
  9
$UCSNAME
  2

  9
$UCSORG
 10
0.0
 20
0.0
 30
0.0
  9
$UCSXDIR
 10
1.0
 20
0.0
 30
0.0
  9
$UCSYDIR
 10
0.0
 20
1.0
 30
0.0
  9
$PUCSNAME
  2

  9
$PUCSORG
 10
0.0
 20
0.0
 30
0.0
  9
$PUCSXDIR
 10
1.0
 20
0.0
 30
0.0
  9
$PUCSYDIR
 10
0.0
 20
1.0
 30
0.0
  9
$USERI1
 70
     0
  9
$USERI2
 70
     0
  9
$USERI3
 70
     0
  9
$USERI4
 70
     0
  9
$USERI5
 70
     0
  9
$USERR1
 40
0.0
  9
$USERR2
 40
0.0
  9
$USERR3
 40
0.0
  9
$USERR4
 40
0.0
  9
$USERR5
 40
0.0
  9
$WORLDVIEW
 70
     1
  9
$SHADEDGE
 70
     3
  9
$SHADEDIF
 70
    70
  9
$TILEMODE
 70
     1
  9
$MAXACTVP
 70
    64
  9
$PLIMCHECK
 70
     0
  9
$PEXTMIN
 10
100000000000000000000.0
 20
100000000000000000000.0
 30
100000000000000000000.0
  9
$PEXTMAX
 10
-100000000000000000000.0
 20
-100000000000000000000.0
 30
-100000000000000000000.0
  9
$PLIMMIN
 10
0.0
 20
0.0
  9
$PLIMMAX
 10
12.0
 20
9.0
  9
$UNITMODE
 70
     0
  9
$VISRETAIN
 70
     1
  9
$PLINEGEN
 70
     0
  9
$PSLTSCALE
 70
     1
  0
ENDSEC
  0
SECTION
  2
TABLES
  0
TABLE
  2
VPORT
  5
1
 70
     1
  0
VPORT
  5
2
100
AcDbSymbolTableRecord
  2
*ACTIVE
 70
     0
 10
0.0
 20
0.0
 11
1.0
 21
1.0
 12
0.0
 22
0.0
 13
0.0
 23
0.0
 14
1.0
 24
1.0
 15
1.0
 25
1.0
 16
0.0
 26
0.0
 36
1.0
 17
0.0
 27
0.0
 37
0.0
 40
1.0
 41
1.0
 42
50.0
 43
0.0
 44
0.0
 50
0.0
 51
0.0
 71
     0
 72
  1000
 73
     1
 74
     3
 75
     0
 76
     0
 77
     0
 78
     0
  0
ENDTAB
  0
TABLE
  2
LTYPE
  5
3
 70
     3
  0
LTYPE
  5
6
100
AcDbSymbolTableRecord
  2
BYBLOCK
 70
     0
  3

 72
    65
 73
     0
 40
0.0
  0
LTYPE
  5
4
100
AcDbSymbolTableRecord
  2
BYLAYER
 70
     0
  3

 72
    65
 73
     0
 40
0.0
  0
LTYPE
  5
5
100
AcDbSymbolTableRecord
  2
CONTINUOUS
 70
     0
  3

 72
    65
 73
     0
 40
0.0
  0
ENDTAB
  0
TABLE
  2
LAYER
  5
7
 70
     5
  0
LAYER
  5
8
100
AcDbSymbolTableRecord
  2
0
 70
     0
 62
     7
  6
CONTINUOUS
  0
LAYER
  5
9
100
AcDbSymbolTableRecord
  2
1
 70
     0
 62
     7
  6
CONTINUOUS
  0
LAYER
  5
C
100
AcDbSymbolTableRecord
  2
11
 70
     0
 62
     7
  6
CONTINUOUS
  0
LAYER
  5
A
100
AcDbSymbolTableRecord
  2
2
 70
     0
 62
     7
  6
CONTINUOUS
  0
LAYER
  5
B
100
AcDbSymbolTableRecord
  2
3
 70
     0
 62
     7
  6
CONTINUOUS
  0
ENDTAB
  0
TABLE
  2
STYLE
  5
D
 70
     2
  0
STYLE
  5
F
100
AcDbSymbolTableRecord
  2
ANNOTATIVE
 70
     0
 40
0.0
 41
1.0
 50
0.0
 71
     0
 42
0.2
  3
txt
  4

  0
STYLE
  5
E
100
AcDbSymbolTableRecord
  2
STANDARD
 70
     0
 40
0.0
 41
1.0
 50
0.0
 71
     0
 42
0.2
  3
txt
  4

  0
ENDTAB
  0
TABLE
  2
VIEW
  5
10
 70
     0
  0
ENDTAB
  0
TABLE
  2
UCS
  5
11
 70
     0
  0
ENDTAB
  0
TABLE
  2
APPID
  5
12
 70
     4
  0
APPID
  5
13
100
AcDbSymbolTableRecord
  2
ACAD
 70
     0
  0
APPID
  5
16
100
AcDbSymbolTableRecord
  2
ACAD_MLEADERVER
 70
     0
  0
APPID
  5
15
100
AcDbSymbolTableRecord
  2
ACAD_NAV_VCDISPLAY
 70
     0
  0
APPID
  5
14
100
AcDbSymbolTableRecord
  2
ACADANNOTATIVE
 70
     0
  0
ENDTAB
  0
TABLE
  2
DIMSTYLE
  5
17
 70
     2
  0
DIMSTYLE
105
19
100
AcDbSymbolTableRecord
  2
ANNOTATIVE
 70
     0
  3

  4

  5

  6

  7

 40
1.0
 41
0.18
 42
0.0625
 43
0.38
 44
0.18
 45
0.0
 46
0.0
 47
0.0
 48
0.0
 71
     0
 72
     0
 73
     1
 74
     1
 75
     0
 76
     0
 77
     0
 78
     0
140
0.18
141
0.09
142
0.0
143
25.4
144
1.0
145
0.0
146
1.0
147
0.09
170
     0
171
     2
172
     0
173
     0
174
     0
175
     0
176
     0
177
     0
178
     0
  0
DIMSTYLE
105
18
100
AcDbSymbolTableRecord
  2
STANDARD
 70
     0
  3

  4

  5

  6

  7

 40
1.0
 41
0.18
 42
0.0625
 43
0.38
 44
0.18
 45
0.0
 46
0.0
 47
0.0
 48
0.0
 71
     0
 72
     0
 73
     1
 74
     1
 75
     0
 76
     0
 77
     0
 78
     0
140
0.18
141
0.09
142
0.0
143
25.4
144
1.0
145
0.0
146
1.0
147
0.09
170
     0
171
     2
172
     0
173
     0
174
     0
175
     0
176
     0
177
     0
178
     0
  0
ENDTAB
  0
ENDSEC
  0
SECTION
  2
BLOCKS
  0
BLOCK
  8
1
  2
0
 70
    64
 10
0.0
 20
0.0
 30
0.0
  3
0
  1

  0
TEXT
  5
1E
  8
1
100
AcDbText
 10
3684.04778050665
 20
1114.49148922824
 30
0.0
 40
7.0
  1
Size: 30
100
AcDbText
  0
TEXT
  5
1F
  8
1
100
AcDbText
 10
3684.04778050665
 20
1121.49148922824
 30
0.0
 40
7.0
  1
Model: JEAN
100
AcDbText
  0
TEXT
  5
20
  8
1
100
AcDbText
 10
3684.04778050665
 20
1128.49148922824
 30
0.0
 40
7.0
  1
Piece Name: CN-PKT
100
AcDbText
  0
TEXT
  5
21
  8
1
100
AcDbText
 10
3684.04778050665
 20
1142.49148922824
 30
0.0
 40
7.0
  1
Quantity: 1,0
100
AcDbText
  0
TEXT
  5
22
  8
1
100
AcDbText
 10
3684.04778050665
 20
1149.49148922824
 30
0.0
 40
7.0
  1
Material: SHEL
100
AcDbText
  0
POLYLINE
  5
23
  8
1
100
AcDb2dPolyline
 66
     1
 10
0.0
 20
0.0
 30
0.0
 70
     1
  0
VERTEX
  5
24
  8
1
100
AcDbVertex
100
AcDb2dVertex
 10
3614.816376
 20
1188.98879770184
 30
0.0
 70
     0
 50
0.0
  0
VERTEX
  5
25
  8
1
100
AcDbVertex
100
AcDb2dVertex
 10
3731.05415286255
 20
1192.31825345648
 30
0.0
 70
     0
 50
0.0
  0
VERTEX
  5
26
  8
1
100
AcDbVertex
100
AcDb2dVertex
 10
3753.27918501329
 20
1176.3173692491
 30
0.0
 70
     0
 50
0.0
  0
VERTEX
  5
27
  8
1
100
AcDbVertex
100
AcDb2dVertex
 10
3753.27916955074
 20
1080.66792203391
 30
0.0
 70
     0
 50
0.0
  0
VERTEX
  5
28
  8
1
100
AcDbVertex
100
AcDb2dVertex
 10
3731.05424346161
 20
1064.664725
 30
0.0
 70
     0
 50
0.0
  0
VERTEX
  5
29
  8
1
100
AcDbVertex
100
AcDb2dVertex
 10
3636.45732655005
 20
1067.81530916058
 30
0.0
 70
     0
 50
0.0
  0
VERTEX
  5
2A
  8
1
100
AcDbVertex
100
AcDb2dVertex
 10
3632.08436714943
 20
1080.66090812468
 30
0.0
 70
     0
 50
0.0
  0
VERTEX
  5
2B
  8
1
100
AcDbVertex
100
AcDb2dVertex
 10
3628.1857158464
 20
1093.46142407619
 30
0.0
 70
     0
 50
0.0
  0
VERTEX
  5
2C
  8
1
100
AcDbVertex
100
AcDb2dVertex
 10
3625.30902169102
 20
1102.78464828107
 30
0.0
 70
     0
 50
0.0
  0
VERTEX
  5
2D
  8
1
100
AcDbVertex
100
AcDb2dVertex
 10
3623.27014768541
 20
1109.54700738429
 30
0.0
 70
     0
 50
0.0
  0
VERTEX
  5
2E
  8
1
100
AcDbVertex
100
AcDb2dVertex
 10
3621.88495683171
 20
1114.66492803081
 30
0.0
 70
     0
 50
0.0
  0
VERTEX
  5
2F
  8
1
100
AcDbVertex
100
AcDb2dVertex
 10
3620.96931213206
 20
1119.05483686559
 30
0.0
 70
     0
 50
0.0
  0
VERTEX
  5
30
  8
1
100
AcDbVertex
100
AcDb2dVertex
 10
3620.33907658857
 20
1123.6331605336
 30
0.0
 70
     0
 50
0.0
  0
VERTEX
  5
31
  8
1
100
AcDbVertex
100
AcDb2dVertex
 10
3619.81011320338
 20
1129.3163256798
 30
0.0
 70
     0
 50
0.0
  0
VERTEX
  5
32
  8
1
100
AcDbVertex
100
AcDb2dVertex
 10
3619.19828497863
 20
1137.02075894915
 30
0.0
 70
     0
 50
0.0
  0
VERTEX
  5
33
  8
1
100
AcDbVertex
100
AcDb2dVertex
 10
3617.87742179043
 20
1152.665205876
 30
0.0
 70
     0
 50
0.0
  0
VERTEX
  5
34
  8
1
100
AcDbVertex
100
AcDb2dVertex
 10
3616.87519615326
 20
1163.33715464557
 30
0.0
 70
     0
 50
0.0
  0
VERTEX
  5
35
  8
1
100
AcDbVertex
100
AcDb2dVertex
 10
3615.56448605017
 20
1176.31016468292
 30
0.0
 70
     0
 50
0.0
  0
SEQEND
  5
36
  8
0
  0
POINT
  5
37
  8
2
 10
3614.816376
 20
1188.98879770184
 30
0.0
  0
POINT
  5
38
  8
2
 10
3731.05415286255
 20
1192.31825345648
 30
0.0
  0
POINT
  5
39
  8
2
 10
3753.27918501329
 20
1176.3173692491
 30
0.0
  0
POINT
  5
3A
  8
2
 10
3753.27916955074
 20
1080.66792203391
 30
0.0
  0
POINT
  5
3B
  8
2
 10
3731.05424346161
 20
1064.664725
 30
0.0
  0
POINT
  5
3C
  8
2
 10
3636.45732655005
 20
1067.81530916058
 30
0.0
  0
POINT
  5
3D
  8
2
 10
3632.08436714943
 20
1080.66090812468
 30
0.0
  0
POINT
  5
3E
  8
3
 10
3628.1857158464
 20
1093.46142407619
 30
0.0
  0
POINT
  5
3F
  8
3
 10
3625.30902169102
 20
1102.78464828107
 30
0.0
  0
POINT
  5
40
  8
3
 10
3623.27014768541
 20
1109.54700738429
 30
0.0
  0
POINT
  5
41
  8
3
 10
3621.88495683171
 20
1114.66492803081
 30
0.0
  0
POINT
  5
42
  8
3
 10
3620.96931213206
 20
1119.05483686559
 30
0.0
  0
POINT
  5
43
  8
3
 10
3620.33907658857
 20
1123.6331605336
 30
0.0
  0
POINT
  5
44
  8
3
 10
3619.81011320338
 20
1129.3163256798
 30
0.0
  0
POINT
  5
45
  8
2
 10
3619.19828497863
 20
1137.02075894915
 30
0.0
  0
POINT
  5
46
  8
3
 10
3617.87742179043
 20
1152.665205876
 30
0.0
  0
POINT
  5
47
  8
3
 10
3616.87519615326
 20
1163.33715464557
 30
0.0
  0
POINT
  5
48
  8
2
 10
3615.56448605017
 20
1176.31016468292
 30
0.0
  0
LINE
  5
49
  8
11
 10
3731.05415286255
 20
1192.31825345648
 30
0.0
 11
3731.46826333471
 21
1193.86373477854
 31
0.0
  0
LINE
  5
4A
  8
11
 10
3731.05424346161
 20
1064.664725
 30
0.0
 11
3731.05424407319
 21
1063.064725
 31
0.0
  0
ENDBLK
  5
1D
  8
1
  0
BLOCK
  8
1
  2
1
 70
    64
 10
0.0
 20
0.0
 30
0.0
  3
1
  1

  0
TEXT
  5
4D
  8
1
100
AcDbText
 10
4754.92581090058
 20
159.319196538235
 30
0.0
 40
7.0
  1
Size: 30
100
AcDbText
  0
TEXT
  5
4E
  8
1
100
AcDbText
 10
4754.92581090058
 20
166.319196538235
 30
0.0
 40
7.0
  1
Model: JEAN
100
AcDbText
  0
TEXT
  5
4F
  8
1
100
AcDbText
 10
4754.92581090058
 20
173.319196538235
 30
0.0
 40
7.0
  1
Piece Name: BK-YK
100
AcDbText
  0
TEXT
  5
50
  8
1
100
AcDbText
 10
4754.92581090058
 20
187.319196538235
 30
0.0
 40
7.0
  1
Quantity: 1,1
100
AcDbText
  0
TEXT
  5
51
  8
1
100
AcDbText
 10
4754.92581090058
 20
194.319196538235
 30
0.0
 40
7.0
  1
Material: SHEL
100
AcDbText
  0
POLYLINE
  5
52
  8
1
100
AcDb2dPolyline
 66
     1
 10
0.0
 20
0.0
 30
0.0
 70
     1
  0
VERTEX
  5
53
  8
1
100
AcDbVertex
100
AcDb2dVertex
 10
4701.508662
 20
37.0858406409231
 30
0.0
 70
     0
 50
0.0
  0
VERTEX
  5
54
  8
1
100
AcDbVertex
100
AcDb2dVertex
 10
4718.54683830566
 20
320.61361607647
 30
0.0
 70
     0
 50
0.0
  0
VERTEX
  5
55
  8
1
100
AcDbVertex
100
AcDb2dVertex
 10
4738.86360493024
 20
311.664705549903
 30
0.0
 70
     0
 50
0.0
  0
VERTEX
  5
56
  8
1
100
AcDbVertex
100
AcDb2dVertex
 10
4752.37947471677
 20
305.748464951201
 30
0.0
 70
     0
 50
0.0
  0
VERTEX
  5
57
  8
1
100
AcDbVertex
100
AcDb2dVertex
 10
4761.19600302176
 20
301.886538490996
 30
0.0
 70
     0
 50
0.0
  0
VERTEX
  5
58
  8
1
100
AcDbVertex
100
AcDb2dVertex
 10
4767.41474520171
 20
299.100570379921
 30
0.0
 70
     0
 50
0.0
  0
VERTEX
  5
59
  8
1
100
AcDbVertex
100
AcDb2dVertex
 10
4773.13725661313
 20
296.41220482861
 30
0.0
 70
     0
 50
0.0
  0
VERTEX
  5
5A
  8
1
100
AcDbVertex
100
AcDb2dVertex
 10
4780.4650926125
 20
292.843086047693
 30
0.0
 70
     0
 50
0.0
  0
VERTEX
  5
5B
  8
1
100
AcDbVertex
100
AcDb2dVertex
 10
4808.34295980115
 20
279.149165639577
 30
0.0
 70
     0
 50
0.0
  0
VERTEX
  5
5C
  8
1
100
AcDbVertex
100
AcDb2dVertex
 10
4804.34846878717
 20
264.849719555281
 30
0.0
 70
     0
 50
0.0
  0
VERTEX
  5
5D
  8
1
100
AcDbVertex
100
AcDb2dVertex
 10
4800.26178988826
 20
250.573559987874
 30
0.0
 70
     0
 50
0.0
  0
VERTEX
  5
5E
  8
1
100
AcDbVertex
100
AcDb2dVertex
 10
4792.03311935948
 20
222.035212763194
 30
0.0
 70
     0
 50
0.0
  0
VERTEX
  5
5F
  8
1
100
AcDbVertex
100
AcDb2dVertex
 10
4788.00175319153
 20
207.745081285654
 30
0.0
 70
     0
 50
0.0
  0
VERTEX
  5
60
  8
1
100
AcDbVertex
100
AcDb2dVertex
 10
4784.09945006247
 20
193.422348684467
 30
0.0
 70
     0
 50
0.0
  0
VERTEX
  5
61
  8
1
100
AcDbVertex
100
AcDb2dVertex
 10
4782.21398236595
 20
186.24439074059
 30
0.0
 70
     0
 50
0.0
  0
VERTEX
  5
62
  8
1
100
AcDbVertex
100
AcDb2dVertex
 10
4780.38152270327
 20
179.053043049502
 30
0.0
 70
     0
 50
0.0
  0
VERTEX
  5
63
  8
1
100
AcDbVertex
100
AcDb2dVertex
 10
4778.60898516579
 20
171.846559122435
 30
0.0
 70
     0
 50
0.0
  0
VERTEX
  5
64
  8
1
100
AcDbVertex
100
AcDb2dVertex
 10
4776.90328384488
 20
164.623192470622
 30
0.0
 70
     0
 50
0.0
  0
VERTEX
  5
65
  8
1
100
AcDbVertex
100
AcDb2dVertex
 10
4775.03123751641
 20
155.69193760273
 30
0.0
 70
     0
 50
0.0
  0
VERTEX
  5
66
  8
1
100
AcDbVertex
100
AcDb2dVertex
 10
4772.32910461247
 20
141.743509876076
 30
0.0
 70
     0
 50
0.0
  0
VERTEX
  5
67
  8
1
100
AcDbVertex
100
AcDb2dVertex
 10
4769.02116987855
 20
124.087417567766
 30
0.0
 70
     0
 50
0.0
  0
VERTEX
  5
68
  8
1
100
AcDbVertex
100
AcDb2dVertex
 10
4765.33171806013
 20
104.033168954903
 30
0.0
 70
     0
 50
0.0
  0
VERTEX
  5
69
  8
1
100
AcDbVertex
100
AcDb2dVertex
 10
4761.48503390267
 20
82.8902723145906
 30
0.0
 70
     0
 50
0.0
  0
VERTEX
  5
6A
  8
1
100
AcDbVertex
100
AcDb2dVertex
 10
4757.70540215166
 20
61.9682359239335
 30
0.0
 70
     0
 50
0.0
  0
VERTEX
  5
6B
  8
1
100
AcDbVertex
100
AcDb2dVertex
 10
4751.24443485089
 20
26.024777
 30
0.0
 70
     0
 50
0.0
  0
VERTEX
  5
6C
  8
1
100
AcDbVertex
100
AcDb2dVertex
 10
4707.20156361133
 20
29.4726967200249
 30
0.0
 70
     0
 50
0.0
  0
SEQEND
  5
6D
  8
0
  0
POINT
  5
6E
  8
2
 10
4701.508662
 20
37.0858406409231
 30
0.0
  0
POINT
  5
6F
  8
2
 10
4718.54683830566
 20
320.61361607647
 30
0.0
  0
POINT
  5
70
  8
3
 10
4738.86360493024
 20
311.664705549903
 30
0.0
  0
POINT
  5
71
  8
3
 10
4752.37947471677
 20
305.748464951201
 30
0.0
  0
POINT
  5
72
  8
3
 10
4761.19600302176
 20
301.886538490996
 30
0.0
  0
POINT
  5
73
  8
3
 10
4767.41474520171
 20
299.100570379921
 30
0.0
  0
POINT
  5
74
  8
3
 10
4773.13725661313
 20
296.41220482861
 30
0.0
  0
POINT
  5
75
  8
3
 10
4780.4650926125
 20
292.843086047693
 30
0.0
  0
POINT
  5
76
  8
2
 10
4808.34295980115
 20
279.149165639577
 30
0.0
  0
POINT
  5
77
  8
3
 10
4804.34846878717
 20
264.849719555281
 30
0.0
  0
POINT
  5
78
  8
3
 10
4800.26178988826
 20
250.573559987874
 30
0.0
  0
POINT
  5
79
  8
3
 10
4792.03311935948
 20
222.035212763194
 30
0.0
  0
POINT
  5
7A
  8
3
 10
4788.00175319153
 20
207.745081285654
 30
0.0
  0
POINT
  5
7B
  8
3
 10
4784.09945006247
 20
193.422348684467
 30
0.0
  0
POINT
  5
7C
  8
3
 10
4782.21398236595
 20
186.24439074059
 30
0.0
  0
POINT
  5
7D
  8
3
 10
4780.38152270327
 20
179.053043049502
 30
0.0
  0
POINT
  5
7E
  8
3
 10
4778.60898516579
 20
171.846559122435
 30
0.0
  0
POINT
  5
7F
  8
2
 10
4776.90328384488
 20
164.623192470622
 30
0.0
  0
POINT
  5
80
  8
3
 10
4775.03123751641
 20
155.69193760273
 30
0.0
  0
POINT
  5
81
  8
3
 10
4772.32910461247
 20
141.743509876076
 30
0.0
  0
POINT
  5
82
  8
3
 10
4769.02116987855
 20
124.087417567766
 30
0.0
  0
POINT
  5
83
  8
3
 10
4765.33171806013
 20
104.033168954903
 30
0.0
  0
POINT
  5
84
  8
3
 10
4761.48503390267
 20
82.8902723145906
 30
0.0
  0
POINT
  5
85
  8
3
 10
4757.70540215166
 20
61.9682359239335
 30
0.0
  0
POINT
  5
86
  8
2
 10
4751.24443485089
 20
26.024777
 30
0.0
  0
POINT
  5
87
  8
2
 10
4707.20156361133
 20
29.4726967200249
 30
0.0
  0
ENDBLK
  5
4C
  8
1
  0
BLOCK
  8
1
  2
2
 70
    64
 10
0.0
 20
0.0
 30
0.0
  3
2
  1

  0
TEXT
  5
8A
  8
1
100
AcDbText
 10
4115.89563517422
 20
688.651040706055
 30
0.0
 40
7.0
  1
Size: 30
100
AcDbText
  0
TEXT
  5
8B
  8
1
100
AcDbText
 10
4115.89563517422
 20
695.651040706055
 30
0.0
 40
7.0
  1
Model: JEAN
100
AcDbText
  0
TEXT
  5
8C
  8
1
100
AcDbText
 10
4115.89563517422
 20
702.651040706055
 30
0.0
 40
7.0
  1
Piece Name: FT-30INSM
100
AcDbText
  0
TEXT
  5
8D
  8
1
100
AcDbText
 10
4115.89563517422
 20
716.651040706055
 30
0.0
 40
7.0
  1
Quantity: 1,1
100
AcDbText
  0
TEXT
  5
8E
  8
1
100
AcDbText
 10
4115.89563517422
 20
723.651040706055
 30
0.0
 40
7.0
  1
Material: SHEL
100
AcDbText
  0
POLYLINE
  5
8F
  8
1
100
AcDb2dPolyline
 66
     1
 10
0.0
 20
0.0
 30
0.0
 70
     1
  0
VERTEX
  5
90
  8
1
100
AcDbVertex
100
AcDb2dVertex
 10
3581.113
 20
766.12664284375
 30
0.0
 70
     0
 50
0.0
  0
VERTEX
  5
91
  8
1
100
AcDbVertex
100
AcDb2dVertex
 10
3606.51308544922
 20
764.322431625
 30
0.0
 70
     0
 50
0.0
  0
VERTEX
  5
92
  8
1
100
AcDbVertex
100
AcDb2dVertex
 10
3891.54994496155
 20
784.570233359375
 30
0.0
 70
     0
 50
0.0
  0
VERTEX
  5
93
  8
1
100
AcDbVertex
100
AcDb2dVertex
 10
4045.45625694446
 20
795.591709044433
 30
0.0
 70
     0
 50
0.0
  0
VERTEX
  5
94
  8
1
100
AcDbVertex
100
AcDb2dVertex
 10
4081.26787967739
 20
800.812697920187
 30
0.0
 70
     0
 50
0.0
  0
VERTEX
  5
95
  8
1
100
AcDbVertex
100
AcDb2dVertex
 10
4104.82178140067
 20
804.230100973394
 30
0.0
 70
     0
 50
0.0
  0
VERTEX
  5
96
  8
1
100
AcDbVertex
100
AcDb2dVertex
 10
4120.37015407449
 20
806.511895521164
 30
0.0
 70
     0
 50
0.0
  0
VERTEX
  5
97
  8
1
100
AcDbVertex
100
AcDb2dVertex
 10
4132.16518965904
 20
808.326058880608
 30
0.0
 70
     0
 50
0.0
  0
VERTEX
  5
98
  8
1
100
AcDbVertex
100
AcDb2dVertex
 10
4144.45908011449
 20
810.340568368837
 30
0.0
 70
     0
 50
0.0
  0
VERTEX
  5
99
  8
1
100
AcDbVertex
100
AcDb2dVertex
 10
4161.50401740105
 20
813.223401302962
 30
0.0
 70
     0
 50
0.0
  0
VERTEX
  5
9A
  8
1
100
AcDbVertex
100
AcDb2dVertex
 10
4187.5521934789
 20
817.642535000094
 30
0.0
 70
     0
 50
0.0
  0
VERTEX
  5
9B
  8
1
100
AcDbVertex
100
AcDb2dVertex
 10
4226.85580030823
 20
824.265946777343
 30
0.0
 70
     0
 50
0.0
  0
VERTEX
  5
9C
  8
1
100
AcDbVertex
100
AcDb2dVertex
 10
4249.49564550492
 20
829.235932287355
 30
0.0
 70
     0
 50
0.0
  0
VERTEX
  5
9D
  8
1
100
AcDbVertex
100
AcDb2dVertex
 10
4264.52462418198
 20
832.497136372195
 30
0.0
 70
     0
 50
0.0
  0
VERTEX
  5
9E
  8
1
100
AcDbVertex
100
AcDb2dVertex
 10
4274.34638186669
 20
834.636630597642
 30
0.0
 70
     0
 50
0.0
  0
VERTEX
  5
9F
  8
1
100
AcDbVertex
100
AcDb2dVertex
 10
4281.36456408635
 20
836.241486529474
 30
0.0
 70
     0
 50
0.0
  0
VERTEX
  5
A0
  8
1
100
AcDbVertex
100
AcDb2dVertex
 10
4287.98281636826
 20
837.898775733471
 30
0.0
 70
     0
 50
0.0
  0
VERTEX
  5
A1
  8
1
100
AcDbVertex
100
AcDb2dVertex
 10
4296.60478423972
 20
840.195569775409
 30
0.0
 70
     0
 50
0.0
  0
VERTEX
  5
A2
  8
1
100
AcDbVertex
100
AcDb2dVertex
 10
4329.47444886047
 20
849.05595863623
 30
0.0
 70
     0
 50
0.0
  0
VERTEX
  5
A3
  8
1
100
AcDbVertex
100
AcDb2dVertex
 10
4392.34757842639
 20
867.972081412109
 30
0.0
 70
     0
 50
0.0
  0
VERTEX
  5
A4
  8
1
100
AcDbVertex
100
AcDb2dVertex
 10
4397.35162995908
 20
855.822504680992
 30
0.0
 70
     0
 50
0.0
  0
VERTEX
  5
A5
  8
1
100
AcDbVertex
100
AcDb2dVertex
 10
4399.95461376921
 20
849.813139746746
 30
0.0
 70
     0
 50
0.0
  0
VERTEX
  5
A6
  8
1
100
AcDbVertex
100
AcDb2dVertex
 10
4402.76209288354
 20
843.933249745948
 30
0.0
 70
     0
 50
0.0
  0
VERTEX
  5
A7
  8
1
100
AcDbVertex
100
AcDb2dVertex
 10
4404.27467207237
 20
841.061981121978
 30
0.0
 70
     0
 50
0.0
  0
VERTEX
  5
A8
  8
1
100
AcDbVertex
100
AcDb2dVertex
 10
4405.87695975834
 20
838.247229163031
 30
0.0
 70
     0
 50
0.0
  0
VERTEX
  5
A9
  8
1
100
AcDbVertex
100
AcDb2dVertex
 10
4407.5818174985
 20
835.497043179662
 30
0.0
 70
     0
 50
0.0
  0
VERTEX
  5
AA
  8
1
100
AcDbVertex
100
AcDb2dVertex
 10
4409.40210684987
 20
832.819472482425
 30
0.0
 70
     0
 50
0.0
  0
VERTEX
  5
AB
  8
1
100
AcDbVertex
100
AcDb2dVertex
 10
4411.35068936949
 20
830.222566381873
 30
0.0
 70
     0
 50
0.0
  0
VERTEX
  5
AC
  8
1
100
AcDbVertex
100
AcDb2dVertex
 10
4413.4404266144
 20
827.714374188561
 30
0.0
 70
     0
 50
0.0
  0
VERTEX
  5
AD
  8
1
100
AcDbVertex
100
AcDb2dVertex
 10
4415.68418014161
 20
825.302945213041
 30
0.0
 70
     0
 50
0.0
  0
VERTEX
  5
AE
  8
1
100
AcDbVertex
100
AcDb2dVertex
 10
4418.09481150818
 20
822.996328765869
 30
0.0
 70
     0
 50
0.0
  0
VERTEX
  5
AF
  8
1
100
AcDbVertex
100
AcDb2dVertex
 10
4425.68472989435
 20
820.428640908284
 30
0.0
 70
     0
 50
0.0
  0
VERTEX
  5
B0
  8
1
100
AcDbVertex
100
AcDb2dVertex
 10
4429.27088159809
 20
819.374548492546
 30
0.0
 70
     0
 50
0.0
  0
VERTEX
  5
B1
  8
1
100
AcDbVertex
100
AcDb2dVertex
 10
4433.54028990867
 20
818.675940166655
 30
0.0
 70
     0
 50
0.0
  0
VERTEX
  5
B2
  8
1
100
AcDbVertex
100
AcDb2dVertex
 10
4443.17997811536
 20
817.174704578613
 30
0.0
 70
     0
 50
0.0
  0
VERTEX
  5
B3
  8
1
100
AcDbVertex
100
AcDb2dVertex
 10
4650.67827034845
 20
798.824757431457
 30
0.0
 70
     0
 50
0.0
  0
VERTEX
  5
B4
  8
1
100
AcDbVertex
100
AcDb2dVertex
 10
4649.49193630173
 20
784.340996643495
 30
0.0
 70
     0
 50
0.0
  0
VERTEX
  5
B5
  8
1
100
AcDbVertex
100
AcDb2dVertex
 10
4648.48517390037
 20
772.40625526156
 30
0.0
 70
     0
 50
0.0
  0
VERTEX
  5
B6
  8
1
100
AcDbVertex
100
AcDb2dVertex
 10
4646.94865019995
 20
754.828243350237
 30
0.0
 70
     0
 50
0.0
  0
VERTEX
  5
B7
  8
1
100
AcDbVertex
100
AcDb2dVertex
 10
4645.94527157972
 20
743.37954696643
 30
0.0
 70
     0
 50
0.0
  0
VERTEX
  5
B8
  8
1
100
AcDbVertex
100
AcDb2dVertex
 10
4645.35161037217
 20
735.34899137908
 30
0.0
 70
     0
 50
0.0
  0
VERTEX
  5
B9
  8
1
100
AcDbVertex
100
AcDb2dVertex
 10
4645.04423890982
 20
728.025401857126
 30
0.0
 70
     0
 50
0.0
  0
VERTEX
  5
BA
  8
1
100
AcDbVertex
100
AcDb2dVertex
 10
4644.89972952516
 20
718.697603669508
 30
0.0
 70
     0
 50
0.0
  0
VERTEX
  5
BB
  8
1
100
AcDbVertex
100
AcDb2dVertex
 10
4644.79465455071
 20
704.654422085168
 30
0.0
 70
     0
 50
0.0
  0
VERTEX
  5
BC
  8
1
100
AcDbVertex
100
AcDb2dVertex
 10
4644.60558631897
 20
683.184682373046
 30
0.0
 70
     0
 50
0.0
  0
VERTEX
  5
BD
  8
1
100
AcDbVertex
100
AcDb2dVertex
 10
4629.65119917841
 20
682.871086066022
 30
0.0
 70
     0
 50
0.0
  0
VERTEX
  5
BE
  8
1
100
AcDbVertex
100
AcDb2dVertex
 10
4619.46806154617
 20
682.464025580057
 30
0.0
 70
     0
 50
0.0
  0
VERTEX
  5
BF
  8
1
100
AcDbVertex
100
AcDb2dVertex
 10
4615.070259111
 20
682.164415359284
 30
0.0
 70
     0
 50
0.0
  0
VERTEX
  5
C0
  8
1
100
AcDbVertex
100
AcDb2dVertex
 10
4611.65696850939
 20
681.787984431536
 30
0.0
 70
     0
 50
0.0
  0
VERTEX
  5
C1
  8
1
100
AcDbVertex
100
AcDb2dVertex
 10
4607.68739515436
 20
681.312243955859
 30
0.0
 70
     0
 50
0.0
  0
VERTEX
  5
C2
  8
1
100
AcDbVertex
100
AcDb2dVertex
 10
4603.91773762523
 20
680.342699919618
 30
0.0
 70
     0
 50
0.0
  0
VERTEX
  5
C3
  8
1
100
AcDbVertex
100
AcDb2dVertex
 10
4600.32752189683
 20
678.905175139625
 30
0.0
 70
     0
 50
0.0
  0
VERTEX
  5
C4
  8
1
100
AcDbVertex
100
AcDb2dVertex
 10
4596.89627394402
 20
677.025492432695
 30
0.0
 70
     0
 50
0.0
  0
VERTEX
  5
C5
  8
1
100
AcDbVertex
100
AcDb2dVertex
 10
4593.60351974162
 20
674.729474615641
 30
0.0
 70
     0
 50
0.0
  0
VERTEX
  5
C6
  8
1
100
AcDbVertex
100
AcDb2dVertex
 10
4590.42878526449
 20
672.042944505277
 30
0.0
 70
     0
 50
0.0
  0
VERTEX
  5
C7
  8
1
100
AcDbVertex
100
AcDb2dVertex
 10
4587.35159648746
 20
668.991724918417
 30
0.0
 70
     0
 50
0.0
  0
VERTEX
  5
C8
  8
1
100
AcDbVertex
100
AcDb2dVertex
 10
4584.35147938538
 20
665.601638671875
 30
0.0
 70
     0
 50
0.0
  0
VERTEX
  5
C9
  8
1
100
AcDbVertex
100
AcDb2dVertex
 10
4581.84420199377
 20
659.797530040196
 30
0.0
 70
     0
 50
0.0
  0
VERTEX
  5
CA
  8
1
100
AcDbVertex
100
AcDb2dVertex
 10
4579.65132393572
 20
653.925144954925
 30
0.0
 70
     0
 50
0.0
  0
VERTEX
  5
CB
  8
1
100
AcDbVertex
100
AcDb2dVertex
 10
4577.73670351884
 20
647.979166129476
 30
0.0
 70
     0
 50
0.0
  0
VERTEX
  5
CC
  8
1
100
AcDbVertex
100
AcDb2dVertex
 10
4576.0641990507
 20
641.954276277263
 30
0.0
 70
     0
 50
0.0
  0
VERTEX
  5
CD
  8
1
100
AcDbVertex
100
AcDb2dVertex
 10
4574.54638730046
 20
635.574088137872
 30
0.0
 70
     0
 50
0.0
  0
VERTEX
  5
CE
  8
1
100
AcDbVertex
100
AcDb2dVertex
 10
4573.25579424959
 20
629.153742608596
 30
0.0
 70
     0
 50
0.0
  0
VERTEX
  5
CF
  8
1
100
AcDbVertex
100
AcDb2dVertex
 10
4572.16992826295
 20
622.697306869326
 30
0.0
 70
     0
 50
0.0
  0
VERTEX
  5
D0
  8
1
100
AcDbVertex
100
AcDb2dVertex
 10
4571.26629770543
 20
616.208848099954
 30
0.0
 70
     0
 50
0.0
  0
VERTEX
  5
D1
  8
1
100
AcDbVertex
100
AcDb2dVertex
 10
4570.52241094188
 20
609.692433480372
 30
0.0
 70
     0
 50
0.0
  0
VERTEX
  5
D2
  8
1
100
AcDbVertex
100
AcDb2dVertex
 10
4569.91577633717
 20
603.15213019047
 30
0.0
 70
     0
 50
0.0
  0
VERTEX
  5
D3
  8
1
100
AcDbVertex
100
AcDb2dVertex
 10
4569.42390225617
 20
596.592005410141
 30
0.0
 70
     0
 50
0.0
  0
VERTEX
  5
D4
  8
1
100
AcDbVertex
100
AcDb2dVertex
 10
4569.02429706376
 20
590.016126319275
 30
0.0
 70
     0
 50
0.0
  0
VERTEX
  5
D5
  8
1
100
AcDbVertex
100
AcDb2dVertex
 10
4568.69446912479
 20
583.428560097763
 30
0.0
 70
     0
 50
0.0
  0
VERTEX
  5
D6
  8
1
100
AcDbVertex
100
AcDb2dVertex
 10
4568.41192680414
 20
576.833373925498
 30
0.0
 70
     0
 50
0.0
  0
VERTEX
  5
D7
  8
1
100
AcDbVertex
100
AcDb2dVertex
 10
4567.89873247725
 20
563.636410448273
 30
0.0
 70
     0
 50
0.0
  0
VERTEX
  5
D8
  8
1
100
AcDbVertex
100
AcDb2dVertex
 10
4567.30478100205
 20
550.45777332673
 30
0.0
 70
     0
 50
0.0
  0
VERTEX
  5
D9
  8
1
100
AcDbVertex
100
AcDb2dVertex
 10
4566.92129224601
 20
543.885495099068
 30
0.0
 70
     0
 50
0.0
  0
VERTEX
  5
DA
  8
1
100
AcDbVertex
100
AcDb2dVertex
 10
4566.45013929749
 20
537.33
 30
0.0
 70
     0
 50
0.0
  0
VERTEX
  5
DB
  8
1
100
AcDbVertex
100
AcDb2dVertex
 10
4550.29357357892
 20
537.547903387952
 30
0.0
 70
     0
 50
0.0
  0
VERTEX
  5
DC
  8
1
100
AcDbVertex
100
AcDb2dVertex
 10
4534.13021564411
 20
537.740630722741
 30
0.0
 70
     0
 50
0.0
  0
VERTEX
  5
DD
  8
1
100
AcDbVertex
100
AcDb2dVertex
 10
4517.96267637079
 20
537.937525143866
 30
0.0
 70
     0
 50
0.0
  0
VERTEX
  5
DE
  8
1
100
AcDbVertex
100
AcDb2dVertex
 10
4501.79356663672
 20
538.167929790828
 30
0.0
 70
     0
 50
0.0
  0
VERTEX
  5
DF
  8
1
100
AcDbVertex
100
AcDb2dVertex
 10
4485.62549731963
 20
538.461187803129
 30
0.0
 70
     0
 50
0.0
  0
VERTEX
  5
E0
  8
1
100
AcDbVertex
100
AcDb2dVertex
 10
4469.46107929728
 20
538.846642320267
 30
0.0
 70
     0
 50
0.0
  0
VERTEX
  5
E1
  8
1
100
AcDbVertex
100
AcDb2dVertex
 10
4453.30292344741
 20
539.353636481745
 30
0.0
 70
     0
 50
0.0
  0
VERTEX
  5
E2
  8
1
100
AcDbVertex
100
AcDb2dVertex
 10
4445.22700973645
 20
539.661880660205
 30
0.0
 70
     0
 50
0.0
  0
VERTEX
  5
E3
  8
1
100
AcDbVertex
100
AcDb2dVertex
 10
4437.15364064777
 20
540.011513427062
 30
0.0
 70
     0
 50
0.0
  0
VERTEX
  5
E4
  8
1
100
AcDbVertex
100
AcDb2dVertex
 10
4331.63387800012
 20
548.757992273925
 30
0.0
 70
     0
 50
0.0
  0
VERTEX
  5
E5
  8
1
100
AcDbVertex
100
AcDb2dVertex
 10
4227.78684548938
 20
561.558964903808
 30
0.0
 70
     0
 50
0.0
  0
VERTEX
  5
E6
  8
1
100
AcDbVertex
100
AcDb2dVertex
 10
4187.53281733652
 20
566.45776810998
 30
0.0
 70
     0
 50
0.0
  0
VERTEX
  5
E7
  8
1
100
AcDbVertex
100
AcDb2dVertex
 10
4160.81222990816
 20
569.701309600127
 30
0.0
 70
     0
 50
0.0
  0
VERTEX
  5
E8
  8
1
100
AcDbVertex
100
AcDb2dVertex
 10
4130.89777569454
 20
573.350687602681
 30
0.0
 70
     0
 50
0.0
  0
VERTEX
  5
E9
  8
1
100
AcDbVertex
100
AcDb2dVertex
 10
4119.16710814409
 20
574.820564200254
 30
0.0
 70
     0
 50
0.0
  0
VERTEX
  5
EA
  8
1
100
AcDbVertex
100
AcDb2dVertex
 10
4103.89627978776
 20
576.763259252136
 30
0.0
 70
     0
 50
0.0
  0
VERTEX
  5
EB
  8
1
100
AcDbVertex
100
AcDb2dVertex
 10
4045.66053912708
 20
584.19518488916
 30
0.0
 70
     0
 50
0.0
  0
VERTEX
  5
EC
  8
1
100
AcDbVertex
100
AcDb2dVertex
 10
3891.91108235168
 20
593.082182961425
 30
0.0
 70
     0
 50
0.0
  0
VERTEX
  5
ED
  8
1
100
AcDbVertex
100
AcDb2dVertex
 10
3606.51334962689
 20
609.746547766301
 30
0.0
 70
     0
 50
0.0
  0
VERTEX
  5
EE
  8
1
100
AcDbVertex
100
AcDb2dVertex
 10
3581.1133528595
 20
608.262859023925
 30
0.0
 70
     0
 50
0.0
  0
SEQEND
  5
EF
  8
0
  0
POINT
  5
F0
  8
2
 10
3581.113
 20
766.12664284375
 30
0.0
  0
POINT
  5
F1
  8
2
 10
3606.51308544922
 20
764.322431625
 30
0.0
  0
POINT
  5
F2
  8
2
 10
3891.54994496155
 20
784.570233359375
 30
0.0
  0
POINT
  5
F3
  8
2
 10
4045.45625694446
 20
795.591709044433
 30
0.0
  0
POINT
  5
F4
  8
3
 10
4081.26787967739
 20
800.812697920187
 30
0.0
  0
POINT
  5
F5
  8
3
 10
4104.82178140067
 20
804.230100973394
 30
0.0
  0
POINT
  5
F6
  8
3
 10
4120.37015407449
 20
806.511895521164
 30
0.0
  0
POINT
  5
F7
  8
3
 10
4132.16518965904
 20
808.326058880608
 30
0.0
  0
POINT
  5
F8
  8
3
 10
4144.45908011449
 20
810.340568368837
 30
0.0
  0
POINT
  5
F9
  8
3
 10
4161.50401740105
 20
813.223401302962
 30
0.0
  0
POINT
  5
FA
  8
3
 10
4187.5521934789
 20
817.642535000094
 30
0.0
  0
POINT
  5
FB
  8
2
 10
4226.85580030823
 20
824.265946777343
 30
0.0
  0
POINT
  5
FC
  8
3
 10
4249.49564550492
 20
829.235932287355
 30
0.0
  0
POINT
  5
FD
  8
3
 10
4264.52462418198
 20
832.497136372195
 30
0.0
  0
POINT
  5
FE
  8
3
 10
4274.34638186669
 20
834.636630597642
 30
0.0
  0
POINT
  5
FF
  8
3
 10
4281.36456408635
 20
836.241486529474
 30
0.0
  0
POINT
  5
100
  8
3
 10
4287.98281636826
 20
837.898775733471
 30
0.0
  0
POINT
  5
101
  8
3
 10
4296.60478423972
 20
840.195569775409
 30
0.0
  0
POINT
  5
102
  8
2
 10
4329.47444886047
 20
849.05595863623
 30
0.0
  0
POINT
  5
103
  8
2
 10
4392.34757842639
 20
867.972081412109
 30
0.0
  0
POINT
  5
104
  8
3
 10
4397.35162995908
 20
855.822504680992
 30
0.0
  0
POINT
  5
105
  8
3
 10
4399.95461376921
 20
849.813139746746
 30
0.0
  0
POINT
  5
106
  8
3
 10
4402.76209288354
 20
843.933249745948
 30
0.0
  0
POINT
  5
107
  8
3
 10
4404.27467207237
 20
841.061981121978
 30
0.0
  0
POINT
  5
108
  8
3
 10
4405.87695975834
 20
838.247229163031
 30
0.0
  0
POINT
  5
109
  8
3
 10
4407.5818174985
 20
835.497043179662
 30
0.0
  0
POINT
  5
10A
  8
3
 10
4409.40210684987
 20
832.819472482425
 30
0.0
  0
POINT
  5
10B
  8
3
 10
4411.35068936949
 20
830.222566381873
 30
0.0
  0
POINT
  5
10C
  8
3
 10
4413.4404266144
 20
827.714374188561
 30
0.0
  0
POINT
  5
10D
  8
3
 10
4415.68418014161
 20
825.302945213041
 30
0.0
  0
POINT
  5
10E
  8
2
 10
4418.09481150818
 20
822.996328765869
 30
0.0
  0
POINT
  5
10F
  8
3
 10
4425.68472989435
 20
820.428640908284
 30
0.0
  0
POINT
  5
110
  8
3
 10
4429.27088159809
 20
819.374548492546
 30
0.0
  0
POINT
  5
111
  8
3
 10
4433.54028990867
 20
818.675940166655
 30
0.0
  0
POINT
  5
112
  8
2
 10
4443.17997811536
 20
817.174704578613
 30
0.0
  0
POINT
  5
113
  8
2
 10
4650.67827034845
 20
798.824757431457
 30
0.0
  0
POINT
  5
114
  8
3
 10
4649.49193630173
 20
784.340996643495
 30
0.0
  0
POINT
  5
115
  8
3
 10
4648.48517390037
 20
772.40625526156
 30
0.0
  0
POINT
  5
116
  8
3
 10
4646.94865019995
 20
754.828243350237
 30
0.0
  0
POINT
  5
117
  8
3
 10
4645.94527157972
 20
743.37954696643
 30
0.0
  0
POINT
  5
118
  8
3
 10
4645.35161037217
 20
735.34899137908
 30
0.0
  0
POINT
  5
119
  8
3
 10
4645.04423890982
 20
728.025401857126
 30
0.0
  0
POINT
  5
11A
  8
3
 10
4644.89972952516
 20
718.697603669508
 30
0.0
  0
POINT
  5
11B
  8
3
 10
4644.79465455071
 20
704.654422085168
 30
0.0
  0
POINT
  5
11C
  8
2
 10
4644.60558631897
 20
683.184682373046
 30
0.0
  0
POINT
  5
11D
  8
3
 10
4629.65119917841
 20
682.871086066022
 30
0.0
  0
POINT
  5
11E
  8
3
 10
4619.46806154617
 20
682.464025580057
 30
0.0
  0
POINT
  5
11F
  8
3
 10
4615.070259111
 20
682.164415359284
 30
0.0
  0
POINT
  5
120
  8
2
 10
4611.65696850939
 20
681.787984431536
 30
0.0
  0
POINT
  5
121
  8
3
 10
4607.68739515436
 20
681.312243955859
 30
0.0
  0
POINT
  5
122
  8
3
 10
4603.91773762523
 20
680.342699919618
 30
0.0
  0
POINT
  5
123
  8
3
 10
4600.32752189683
 20
678.905175139625
 30
0.0
  0
POINT
  5
124
  8
3
 10
4596.89627394402
 20
677.025492432695
 30
0.0
  0
POINT
  5
125
  8
3
 10
4593.60351974162
 20
674.729474615641
 30
0.0
  0
POINT
  5
126
  8
3
 10
4590.42878526449
 20
672.042944505277
 30
0.0
  0
POINT
  5
127
  8
3
 10
4587.35159648746
 20
668.991724918417
 30
0.0
  0
POINT
  5
128
  8
2
 10
4584.35147938538
 20
665.601638671875
 30
0.0
  0
POINT
  5
129
  8
3
 10
4581.84420199377
 20
659.797530040196
 30
0.0
  0
POINT
  5
12A
  8
3
 10
4579.65132393572
 20
653.925144954925
 30
0.0
  0
POINT
  5
12B
  8
3
 10
4577.73670351884
 20
647.979166129476
 30
0.0
  0
POINT
  5
12C
  8
2
 10
4576.0641990507
 20
641.954276277263
 30
0.0
  0
POINT
  5
12D
  8
3
 10
4574.54638730046
 20
635.574088137872
 30
0.0
  0
POINT
  5
12E
  8
3
 10
4573.25579424959
 20
629.153742608596
 30
0.0
  0
POINT
  5
12F
  8
3
 10
4572.16992826295
 20
622.697306869326
 30
0.0
  0
POINT
  5
130
  8
3
 10
4571.26629770543
 20
616.208848099954
 30
0.0
  0
POINT
  5
131
  8
3
 10
4570.52241094188
 20
609.692433480372
 30
0.0
  0
POINT
  5
132
  8
3
 10
4569.91577633717
 20
603.15213019047
 30
0.0
  0
POINT
  5
133
  8
3
 10
4569.42390225617
 20
596.592005410141
 30
0.0
  0
POINT
  5
134
  8
3
 10
4569.02429706376
 20
590.016126319275
 30
0.0
  0
POINT
  5
135
  8
3
 10
4568.69446912479
 20
583.428560097763
 30
0.0
  0
POINT
  5
136
  8
3
 10
4568.41192680414
 20
576.833373925498
 30
0.0
  0
POINT
  5
137
  8
3
 10
4567.89873247725
 20
563.636410448273
 30
0.0
  0
POINT
  5
138
  8
3
 10
4567.30478100205
 20
550.45777332673
 30
0.0
  0
POINT
  5
139
  8
3
 10
4566.92129224601
 20
543.885495099068
 30
0.0
  0
POINT
  5
13A
  8
2
 10
4566.45013929749
 20
537.33
 30
0.0
  0
POINT
  5
13B
  8
3
 10
4550.29357357892
 20
537.547903387952
 30
0.0
  0
POINT
  5
13C
  8
3
 10
4534.13021564411
 20
537.740630722741
 30
0.0
  0
POINT
  5
13D
  8
3
 10
4517.96267637079
 20
537.937525143866
 30
0.0
  0
POINT
  5
13E
  8
3
 10
4501.79356663672
 20
538.167929790828
 30
0.0
  0
POINT
  5
13F
  8
3
 10
4485.62549731963
 20
538.461187803129
 30
0.0
  0
POINT
  5
140
  8
3
 10
4469.46107929728
 20
538.846642320267
 30
0.0
  0
POINT
  5
141
  8
3
 10
4453.30292344741
 20
539.353636481745
 30
0.0
  0
POINT
  5
142
  8
3
 10
4445.22700973645
 20
539.661880660205
 30
0.0
  0
POINT
  5
143
  8
2
 10
4437.15364064777
 20
540.011513427062
 30
0.0
  0
POINT
  5
144
  8
2
 10
4331.63387800012
 20
548.757992273925
 30
0.0
  0
POINT
  5
145
  8
2
 10
4227.78684548938
 20
561.558964903808
 30
0.0
  0
POINT
  5
146
  8
3
 10
4187.53281733652
 20
566.45776810998
 30
0.0
  0
POINT
  5
147
  8
3
 10
4160.81222990816
 20
569.701309600127
 30
0.0
  0
POINT
  5
148
  8
3
 10
4130.89777569454
 20
573.350687602681
 30
0.0
  0
POINT
  5
149
  8
3
 10
4119.16710814409
 20
574.820564200254
 30
0.0
  0
POINT
  5
14A
  8
3
 10
4103.89627978776
 20
576.763259252136
 30
0.0
  0
POINT
  5
14B
  8
2
 10
4045.66053912708
 20
584.19518488916
 30
0.0
  0
POINT
  5
14C
  8
2
 10
3891.91108235168
 20
593.082182961425
 30
0.0
  0
POINT
  5
14D
  8
2
 10
3606.51334962689
 20
609.746547766301
 30
0.0
  0
POINT
  5
14E
  8
2
 10
3581.1133528595
 20
608.262859023925
 30
0.0
  0
LINE
  5
14F
  8
11
 10
3891.54994496155
 20
784.570233359375
 30
0.0
 11
3891.54994434996
 21
786.170233359375
 31
0.0
  0
LINE
  5
150
  8
11
 10
4226.85580030823
 20
824.265946777343
 30
0.0
 11
4226.71635111983
 21
825.85985829429
 31
0.0
  0
LINE
  5
151
  8
11
 10
4443.17997811536
 20
817.174704578613
 30
0.0
 11
4443.17997872694
 21
815.574704578613
 31
0.0
  0
LINE
  5
152
  8
11
 10
4227.78684548938
 20
561.558964903808
 30
0.0
 11
4227.78684610096
 21
559.958964903808
 31
0.0
  0
LINE
  5
153
  8
11
 10
3891.91108235168
 20
593.082182961425
 30
0.0
 11
3891.91108296327
 21
591.482182961425
 31
0.0
  0
ENDBLK
  5
89
  8
1
  0
BLOCK
  8
1
  2
3
 70
    64
 10
0.0
 20
0.0
 30
0.0
  3
3
  1

  0
TEXT
  5
156
  8
1
100
AcDbText
 10
3894.51193328623
 20
1028.75834550897
 30
0.0
 40
7.0
  1
Size: 30
100
AcDbText
  0
TEXT
  5
157
  8
1
100
AcDbText
 10
3894.51193328623
 20
1035.75834550897
 30
0.0
 40
7.0
  1
Model: JEAN
100
AcDbText
  0
TEXT
  5
158
  8
1
100
AcDbText
 10
3894.51193328623
 20
1042.75834550897
 30
0.0
 40
7.0
  1
Piece Name: FT-PKT-FC-RT
100
AcDbText
  0
TEXT
  5
159
  8
1
100
AcDbText
 10
3894.51193328623
 20
1056.75834550897
 30
0.0
 40
7.0
  1
Quantity: 1,0
100
AcDbText
  0
TEXT
  5
15A
  8
1
100
AcDbText
 10
3894.51193328623
 20
1063.75834550897
 30
0.0
 40
7.0
  1
Material: SHEL
100
AcDbText
  0
POLYLINE
  5
15B
  8
1
100
AcDb2dPolyline
 66
     1
 10
0.0
 20
0.0
 30
0.0
 70
     1
  0
VERTEX
  5
15C
  8
1
100
AcDbVertex
100
AcDb2dVertex
 10
3968.74468492351
 20
1114.82094862141
 30
0.0
 70
     0
 50
0.0
  0
VERTEX
  5
15D
  8
1
100
AcDbVertex
100
AcDb2dVertex
 10
3966.93234678467
 20
1094.20215007823
 30
0.0
 70
     0
 50
0.0
  0
VERTEX
  5
15E
  8
1
100
AcDbVertex
100
AcDb2dVertex
 10
3965.37335594912
 20
1077.03812932197
 30
0.0
 70
     0
 50
0.0
  0
VERTEX
  5
15F
  8
1
100
AcDbVertex
100
AcDb2dVertex
 10
3964.04691266524
 20
1062.9424381444
 30
0.0
 70
     0
 50
0.0
  0
VERTEX
  5
160
  8
1
100
AcDbVertex
100
AcDb2dVertex
 10
3962.9322171814
 20
1051.52862833728
 30
0.0
 70
     0
 50
0.0
  0
VERTEX
  5
161
  8
1
100
AcDbVertex
100
AcDb2dVertex
 10
3961.25487060743
 20
1035.2008600015
 30
0.0
 70
     0
 50
0.0
  0
VERTEX
  5
162
  8
1
100
AcDbVertex
100
AcDb2dVertex
 10
3960.1749182143
 20
1024.96323864879
 30
0.0
 70
     0
 50
0.0
  0
VERTEX
  5
163
  8
1
100
AcDbVertex
100
AcDb2dVertex
 10
3959.52596198907
 20
1017.72417861329
 30
0.0
 70
     0
 50
0.0
  0
VERTEX
  5
164
  8
1
100
AcDbVertex
100
AcDb2dVertex
 10
3959.14160391885
 20
1010.39209422916
 30
0.0
 70
     0
 50
0.0
  0
VERTEX
  5
165
  8
1
100
AcDbVertex
100
AcDb2dVertex
 10
3958.8554459907
 20
999.875399830562
 30
0.0
 70
     0
 50
0.0
  0
VERTEX
  5
166
  8
1
100
AcDbVertex
100
AcDb2dVertex
 10
3958.50109019171
 20
983.082509751646
 30
0.0
 70
     0
 50
0.0
  0
VERTEX
  5
167
  8
1
100
AcDbVertex
100
AcDb2dVertex
 10
3958.88874196609
 20
951.629639625707
 30
0.0
 70
     0
 50
0.0
  0
VERTEX
  5
168
  8
1
100
AcDbVertex
100
AcDb2dVertex
 10
3946.19238076401
 20
951.25745834732
 30
0.0
 70
     0
 50
0.0
  0
VERTEX
  5
169
  8
1
100
AcDbVertex
100
AcDb2dVertex
 10
3932.09375401151
 20
950.762565041403
 30
0.0
 70
     0
 50
0.0
  0
VERTEX
  5
16A
  8
1
100
AcDbVertex
100
AcDb2dVertex
 10
3923.91824503299
 20
950.53190089551
 30
0.0
 70
     0
 50
0.0
  0
VERTEX
  5
16B
  8
1
100
AcDbVertex
100
AcDb2dVertex
 10
3915.43963457908
 20
950.430281832639
 30
0.0
 70
     0
 50
0.0
  0
VERTEX
  5
16C
  8
1
100
AcDbVertex
100
AcDb2dVertex
 10
3906.99369434438
 20
950.546100411525
 30
0.0
 70
     0
 50
0.0
  0
VERTEX
  5
16D
  8
1
100
AcDbVertex
100
AcDb2dVertex
 10
3902.88790421379
 20
950.71317149123
 30
0.0
 70
     0
 50
0.0
  0
VERTEX
  5
16E
  8
1
100
AcDbVertex
100
AcDb2dVertex
 10
3898.91619602347
 20
950.967749190899
 30
0.0
 70
     0
 50
0.0
  0
VERTEX
  5
16F
  8
1
100
AcDbVertex
100
AcDb2dVertex
 10
3895.12054123525
 20
951.320882580374
 30
0.0
 70
     0
 50
0.0
  0
VERTEX
  5
170
  8
1
100
AcDbVertex
100
AcDb2dVertex
 10
3891.54291131095
 20
951.783620729497
 30
0.0
 70
     0
 50
0.0
  0
VERTEX
  5
171
  8
1
100
AcDbVertex
100
AcDb2dVertex
 10
3888.22527771239
 20
952.367012708109
 30
0.0
 70
     0
 50
0.0
  0
VERTEX
  5
172
  8
1
100
AcDbVertex
100
AcDb2dVertex
 10
3885.2096119014
 20
953.082107586052
 30
0.0
 70
     0
 50
0.0
  0
VERTEX
  5
173
  8
1
100
AcDbVertex
100
AcDb2dVertex
 10
3880.76670187526
 20
954.372284184301
 30
0.0
 70
     0
 50
0.0
  0
VERTEX
  5
174
  8
1
100
AcDbVertex
100
AcDb2dVertex
 10
3876.56799210804
 20
955.747110640514
 30
0.0
 70
     0
 50
0.0
  0
VERTEX
  5
175
  8
1
100
AcDbVertex
100
AcDb2dVertex
 10
3872.50555232074
 20
957.262250402339
 30
0.0
 70
     0
 50
0.0
  0
VERTEX
  5
176
  8
1
100
AcDbVertex
100
AcDb2dVertex
 10
3868.47145223436
 20
958.973366917421
 30
0.0
 70
     0
 50
0.0
  0
VERTEX
  5
177
  8
1
100
AcDbVertex
100
AcDb2dVertex
 10
3864.35776156989
 20
960.936123633407
 30
0.0
 70
     0
 50
0.0
  0
VERTEX
  5
178
  8
1
100
AcDbVertex
100
AcDb2dVertex
 10
3860.05655004834
 20
963.206183997944
 30
0.0
 70
     0
 50
0.0
  0
VERTEX
  5
179
  8
1
100
AcDbVertex
100
AcDb2dVertex
 10
3855.45988739071
 20
965.839211458679
 30
0.0
 70
     0
 50
0.0
  0
VERTEX
  5
17A
  8
1
100
AcDbVertex
100
AcDb2dVertex
 10
3850.45984331799
 20
968.890869463257
 30
0.0
 70
     0
 50
0.0
  0
VERTEX
  5
17B
  8
1
100
AcDbVertex
100
AcDb2dVertex
 10
3848.20673412475
 20
971.636542960404
 30
0.0
 70
     0
 50
0.0
  0
VERTEX
  5
17C
  8
1
100
AcDbVertex
100
AcDb2dVertex
 10
3845.69388501052
 20
975.042921030069
 30
0.0
 70
     0
 50
0.0
  0
VERTEX
  5
17D
  8
1
100
AcDbVertex
100
AcDb2dVertex
 10
3843.02795350772
 20
978.970560587409
 30
0.0
 70
     0
 50
0.0
  0
VERTEX
  5
17E
  8
1
100
AcDbVertex
100
AcDb2dVertex
 10
3840.31559714874
 20
983.280018547581
 30
0.0
 70
     0
 50
0.0
  0
VERTEX
  5
17F
  8
1
100
AcDbVertex
100
AcDb2dVertex
 10
3837.66347346596
 20
987.831851825742
 30
0.0
 70
     0
 50
0.0
  0
VERTEX
  5
180
  8
1
100
AcDbVertex
100
AcDb2dVertex
 10
3835.17823999179
 20
992.486617337048
 30
0.0
 70
     0
 50
0.0
  0
VERTEX
  5
181
  8
1
100
AcDbVertex
100
AcDb2dVertex
 10
3832.96655425861
 20
997.104871996657
 30
0.0
 70
     0
 50
0.0
  0
VERTEX
  5
182
  8
1
100
AcDbVertex
100
AcDb2dVertex
 10
3831.13507379883
 20
1001.54717271973
 30
0.0
 70
     0
 50
0.0
  0
VERTEX
  5
183
  8
1
100
AcDbVertex
100
AcDb2dVertex
 10
3829.9954519272
 20
1006.2384119788
 30
0.0
 70
     0
 50
0.0
  0
VERTEX
  5
184
  8
1
100
AcDbVertex
100
AcDb2dVertex
 10
3828.79464087282
 20
1010.91801206517
 30
0.0
 70
     0
 50
0.0
  0
VERTEX
  5
185
  8
1
100
AcDbVertex
100
AcDb2dVertex
 10
3826.35630525439
 20
1020.27022873429
 30
0.0
 70
     0
 50
0.0
  0
VERTEX
  5
186
  8
1
100
AcDbVertex
100
AcDb2dVertex
 10
3825.19220770966
 20
1024.95681232428
 30
0.0
 70
     0
 50
0.0
  0
VERTEX
  5
187
  8
1
100
AcDbVertex
100
AcDb2dVertex
 10
3824.1137750208
 20
1029.65969075605
 30
0.0
 70
     0
 50
0.0
  0
VERTEX
  5
188
  8
1
100
AcDbVertex
100
AcDb2dVertex
 10
3823.15772069746
 20
1034.38584753322
 30
0.0
 70
     0
 50
0.0
  0
VERTEX
  5
189
  8
1
100
AcDbVertex
100
AcDb2dVertex
 10
3822.36075824931
 20
1039.1422661594
 30
0.0
 70
     0
 50
0.0
  0
VERTEX
  5
18A
  8
1
100
AcDbVertex
100
AcDb2dVertex
 10
3821.89114624936
 20
1042.62732107876
 30
0.0
 70
     0
 50
0.0
  0
VERTEX
  5
18B
  8
1
100
AcDbVertex
100
AcDb2dVertex
 10
3821.49490778613
 20
1046.19479832737
 30
0.0
 70
     0
 50
0.0
  0
VERTEX
  5
18C
  8
1
100
AcDbVertex
100
AcDb2dVertex
 10
3820.89964261139
 20
1053.53373832603
 30
0.0
 70
     0
 50
0.0
  0
VERTEX
  5
18D
  8
1
100
AcDbVertex
100
AcDb2dVertex
 10
3820.52914500819
 20
1061.07252318277
 30
0.0
 70
     0
 50
0.0
  0
VERTEX
  5
18E
  8
1
100
AcDbVertex
100
AcDb2dVertex
 10
3820.33759725967
 20
1068.724589925
 30
0.0
 70
     0
 50
0.0
  0
VERTEX
  5
18F
  8
1
100
AcDbVertex
100
AcDb2dVertex
 10
3820.27918164895
 20
1076.40337558011
 30
0.0
 70
     0
 50
0.0
  0
VERTEX
  5
190
  8
1
100
AcDbVertex
100
AcDb2dVertex
 10
3820.30808045916
 20
1084.02231717548
 30
0.0
 70
     0
 50
0.0
  0
VERTEX
  5
191
  8
1
100
AcDbVertex
100
AcDb2dVertex
 10
3820.44455047485
 20
1098.73441629663
 30
0.0
 70
     0
 50
0.0
  0
VERTEX
  5
192
  8
1
100
AcDbVertex
100
AcDb2dVertex
 10
3821.18448598828
 20
1122.38994748535
 30
0.0
 70
     0
 50
0.0
  0
VERTEX
  5
193
  8
1
100
AcDbVertex
100
AcDb2dVertex
 10
3821.65900004321
 20
1135.0864091853
 30
0.0
 70
     0
 50
0.0
  0
VERTEX
  5
194
  8
1
100
AcDbVertex
100
AcDb2dVertex
 10
3874.7419620752
 20
1131.56464511621
 30
0.0
 70
     0
 50
0.0
  0
VERTEX
  5
195
  8
1
100
AcDbVertex
100
AcDb2dVertex
 10
3912.40889317113
 20
1126.64153889293
 30
0.0
 70
     0
 50
0.0
  0
SEQEND
  5
196
  8
0
  0
POINT
  5
197
  8
2
 10
3968.74468492351
 20
1114.82094862141
 30
0.0
  0
POINT
  5
198
  8
3
 10
3966.93234678467
 20
1094.20215007823
 30
0.0
  0
POINT
  5
199
  8
3
 10
3965.37335594912
 20
1077.03812932197
 30
0.0
  0
POINT
  5
19A
  8
3
 10
3964.04691266524
 20
1062.9424381444
 30
0.0
  0
POINT
  5
19B
  8
3
 10
3962.9322171814
 20
1051.52862833728
 30
0.0
  0
POINT
  5
19C
  8
3
 10
3961.25487060743
 20
1035.2008600015
 30
0.0
  0
POINT
  5
19D
  8
3
 10
3960.1749182143
 20
1024.96323864879
 30
0.0
  0
POINT
  5
19E
  8
3
 10
3959.52596198907
 20
1017.72417861329
 30
0.0
  0
POINT
  5
19F
  8
3
 10
3959.14160391885
 20
1010.39209422916
 30
0.0
  0
POINT
  5
1A0
  8
3
 10
3958.8554459907
 20
999.875399830562
 30
0.0
  0
POINT
  5
1A1
  8
2
 10
3958.50109019171
 20
983.082509751646
 30
0.0
  0
POINT
  5
1A2
  8
2
 10
3958.88874196609
 20
951.629639625707
 30
0.0
  0
POINT
  5
1A3
  8
2
 10
3946.19238076401
 20
951.25745834732
 30
0.0
  0
POINT
  5
1A4
  8
3
 10
3932.09375401151
 20
950.762565041403
 30
0.0
  0
POINT
  5
1A5
  8
3
 10
3923.91824503299
 20
950.53190089551
 30
0.0
  0
POINT
  5
1A6
  8
3
 10
3915.43963457908
 20
950.430281832639
 30
0.0
  0
POINT
  5
1A7
  8
3
 10
3906.99369434438
 20
950.546100411525
 30
0.0
  0
POINT
  5
1A8
  8
3
 10
3902.88790421379
 20
950.71317149123
 30
0.0
  0
POINT
  5
1A9
  8
3
 10
3898.91619602347
 20
950.967749190899
 30
0.0
  0
POINT
  5
1AA
  8
3
 10
3895.12054123525
 20
951.320882580374
 30
0.0
  0
POINT
  5
1AB
  8
3
 10
3891.54291131095
 20
951.783620729497
 30
0.0
  0
POINT
  5
1AC
  8
3
 10
3888.22527771239
 20
952.367012708109
 30
0.0
  0
POINT
  5
1AD
  8
2
 10
3885.2096119014
 20
953.082107586052
 30
0.0
  0
POINT
  5
1AE
  8
3
 10
3880.76670187526
 20
954.372284184301
 30
0.0
  0
POINT
  5
1AF
  8
3
 10
3876.56799210804
 20
955.747110640514
 30
0.0
  0
POINT
  5
1B0
  8
3
 10
3872.50555232074
 20
957.262250402339
 30
0.0
  0
POINT
  5
1B1
  8
3
 10
3868.47145223436
 20
958.973366917421
 30
0.0
  0
POINT
  5
1B2
  8
3
 10
3864.35776156989
 20
960.936123633407
 30
0.0
  0
POINT
  5
1B3
  8
3
 10
3860.05655004834
 20
963.206183997944
 30
0.0
  0
POINT
  5
1B4
  8
3
 10
3855.45988739071
 20
965.839211458679
 30
0.0
  0
POINT
  5
1B5
  8
2
 10
3850.45984331799
 20
968.890869463257
 30
0.0
  0
POINT
  5
1B6
  8
3
 10
3848.20673412475
 20
971.636542960404
 30
0.0
  0
POINT
  5
1B7
  8
3
 10
3845.69388501052
 20
975.042921030069
 30
0.0
  0
POINT
  5
1B8
  8
3
 10
3843.02795350772
 20
978.970560587409
 30
0.0
  0
POINT
  5
1B9
  8
3
 10
3840.31559714874
 20
983.280018547581
 30
0.0
  0
POINT
  5
1BA
  8
3
 10
3837.66347346596
 20
987.831851825742
 30
0.0
  0
POINT
  5
1BB
  8
3
 10
3835.17823999179
 20
992.486617337048
 30
0.0
  0
POINT
  5
1BC
  8
3
 10
3832.96655425861
 20
997.104871996657
 30
0.0
  0
POINT
  5
1BD
  8
2
 10
3831.13507379883
 20
1001.54717271973
 30
0.0
  0
POINT
  5
1BE
  8
3
 10
3829.9954519272
 20
1006.2384119788
 30
0.0
  0
POINT
  5
1BF
  8
3
 10
3828.79464087282
 20
1010.91801206517
 30
0.0
  0
POINT
  5
1C0
  8
3
 10
3826.35630525439
 20
1020.27022873429
 30
0.0
  0
POINT
  5
1C1
  8
3
 10
3825.19220770966
 20
1024.95681232428
 30
0.0
  0
POINT
  5
1C2
  8
3
 10
3824.1137750208
 20
1029.65969075605
 30
0.0
  0
POINT
  5
1C3
  8
3
 10
3823.15772069746
 20
1034.38584753322
 30
0.0
  0
POINT
  5
1C4
  8
2
 10
3822.36075824931
 20
1039.1422661594
 30
0.0
  0
POINT
  5
1C5
  8
3
 10
3821.89114624936
 20
1042.62732107876
 30
0.0
  0
POINT
  5
1C6
  8
3
 10
3821.49490778613
 20
1046.19479832737
 30
0.0
  0
POINT
  5
1C7
  8
3
 10
3820.89964261139
 20
1053.53373832603
 30
0.0
  0
POINT
  5
1C8
  8
3
 10
3820.52914500819
 20
1061.07252318277
 30
0.0
  0
POINT
  5
1C9
  8
3
 10
3820.33759725967
 20
1068.724589925
 30
0.0
  0
POINT
  5
1CA
  8
3
 10
3820.27918164895
 20
1076.40337558011
 30
0.0
  0
POINT
  5
1CB
  8
3
 10
3820.30808045916
 20
1084.02231717548
 30
0.0
  0
POINT
  5
1CC
  8
2
 10
3820.44455047485
 20
1098.73441629663
 30
0.0
  0
POINT
  5
1CD
  8
2
 10
3821.18448598828
 20
1122.38994748535
 30
0.0
  0
POINT
  5
1CE
  8
2
 10
3821.65900004321
 20
1135.0864091853
 30
0.0
  0
POINT
  5
1CF
  8
2
 10
3874.7419620752
 20
1131.56464511621
 30
0.0
  0
POINT
  5
1D0
  8
2
 10
3912.40889317113
 20
1126.64153889293
 30
0.0
  0
LINE
  5
1D1
  8
11
 10
3958.50109019171
 20
983.082509751646
 30
0.0
 11
3960.10109019171
 21
983.082509751646
 31
0.0
  0
LINE
  5
1D2
  8
11
 10
3831.13507379883
 20
1001.54717271973
 30
0.0
 11
3831.13507318724
 21
1003.14717271973
 31
0.0
  0
LINE
  5
1D3
  8
11
 10
3820.44455047485
 20
1098.73441629663
 30
0.0
 11
3820.44454986327
 21
1100.33441629663
 31
0.0
  0
LINE
  5
1D4
  8
11
 10
3874.7419620752
 20
1131.56464511621
 30
0.0
 11
3874.74196146361
 21
1133.16464511621
 31
0.0
  0
LINE
  5
1D5
  8
11
 10
3831.13507379883
 20
1001.54717271973
 30
0.0
 11
3831.13507318724
 21
1003.14717271973
 31
0.0
  0
LINE
  5
1D6
  8
11
 10
3820.44455047485
 20
1098.73441629663
 30
0.0
 11
3820.44454986327
 21
1100.33441629663
 31
0.0
  0
ENDBLK
  5
155
  8
1
  0
BLOCK
  8
1
  2
4
 70
    64
 10
0.0
 20
0.0
 30
0.0
  3
4
  1

  0
TEXT
  5
1D9
  8
1
100
AcDbText
 10
4785.18799364838
 20
861.831597164303
 30
0.0
 40
7.0
  1
Size: 30
100
AcDbText
  0
TEXT
  5
1DA
  8
1
100
AcDbText
 10
4785.18799364838
 20
868.831597164303
 30
0.0
 40
7.0
  1
Model: JEAN
100
AcDbText
  0
TEXT
  5
1DB
  8
1
100
AcDbText
 10
4785.18799364838
 20
875.831597164303
 30
0.0
 40
7.0
  1
Piece Name: LOOP
100
AcDbText
  0
TEXT
  5
1DC
  8
1
100
AcDbText
 10
4785.18799364838
 20
889.831597164303
 30
0.0
 40
7.0
  1
Quantity: 1,0
100
AcDbText
  0
TEXT
  5
1DD
  8
1
100
AcDbText
 10
4785.18799364838
 20
896.831597164303
 30
0.0
 40
7.0
  1
Material: SHEL
100
AcDbText
  0
POLYLINE
  5
1DE
  8
1
100
AcDb2dPolyline
 66
     1
 10
0.0
 20
0.0
 30
0.0
 70
     1
  0
VERTEX
  5
1DF
  8
1
100
AcDbVertex
100
AcDb2dVertex
 10
4467.688
 20
863.068
 30
0.0
 70
     0
 50
0.0
  0
VERTEX
  5
1E0
  8
1
100
AcDbVertex
100
AcDb2dVertex
 10
4467.68830200928
 20
888.595194328606
 30
0.0
 70
     0
 50
0.0
  0
VERTEX
  5
1E1
  8
1
100
AcDbVertex
100
AcDb2dVertex
 10
5064.58811978149
 20
888.595057647705
 30
0.0
 70
     0
 50
0.0
  0
VERTEX
  5
1E2
  8
1
100
AcDbVertex
100
AcDb2dVertex
 10
5102.68798729676
 20
882.245010841668
 30
0.0
 70
     0
 50
0.0
  0
VERTEX
  5
1E3
  8
1
100
AcDbVertex
100
AcDb2dVertex
 10
5102.68784428287
 20
869.418482255221
 30
0.0
 70
     0
 50
0.0
  0
VERTEX
  5
1E4
  8
1
100
AcDbVertex
100
AcDb2dVertex
 10
5064.58811665225
 20
863.068327378512
 30
0.0
 70
     0
 50
0.0
  0
SEQEND
  5
1E5
  8
0
  0
POINT
  5
1E6
  8
2
 10
4467.688
 20
863.068
 30
0.0
  0
POINT
  5
1E7
  8
2
 10
4467.68830200928
 20
888.595194328606
 30
0.0
  0
POINT
  5
1E8
  8
2
 10
5064.58811978149
 20
888.595057647705
 30
0.0
  0
POINT
  5
1E9
  8
2
 10
5102.68798729676
 20
882.245010841668
 30
0.0
  0
POINT
  5
1EA
  8
2
 10
5102.68784428287
 20
869.418482255221
 30
0.0
  0
POINT
  5
1EB
  8
2
 10
5064.58811665225
 20
863.068327378512
 30
0.0
  0
ENDBLK
  5
1D8
  8
1
  0
BLOCK
  8
1
  2
5
 70
    64
 10
0.0
 20
0.0
 30
0.0
  3
5
  1

  0
TEXT
  5
1EE
  8
1
100
AcDbText
 10
3368.4260308094
 20
640.543985198975
 30
0.0
 40
7.0
  1
Size: 30
100
AcDbText
  0
TEXT
  5
1EF
  8
1
100
AcDbText
 10
3368.4260308094
 20
647.543985198975
 30
0.0
 40
7.0
  1
Model: JEAN
100
AcDbText
  0
TEXT
  5
1F0
  8
1
100
AcDbText
 10
3368.4260308094
 20
654.543985198975
 30
0.0
 40
7.0
  1
Piece Name: WBD
100
AcDbText
  0
TEXT
  5
1F1
  8
1
100
AcDbText
 10
3368.4260308094
 20
668.543985198975
 30
0.0
 40
7.0
  1
Quantity: 1,0
100
AcDbText
  0
TEXT
  5
1F2
  8
1
100
AcDbText
 10
3368.4260308094
 20
675.543985198975
 30
0.0
 40
7.0
  1
Material: SHEL
100
AcDbText
  0
POLYLINE
  5
1F3
  8
1
100
AcDb2dPolyline
 66
     1
 10
0.0
 20
0.0
 30
0.0
 70
     1
  0
VERTEX
  5
1F4
  8
1
100
AcDbVertex
100
AcDb2dVertex
 10
3313.65721219254
 20
683.118795227051
 30
0.0
 70
     0
 50
0.0
  0
VERTEX
  5
1F5
  8
1
100
AcDbVertex
100
AcDb2dVertex
 10
3313.65713589859
 20
917.706705632324
 30
0.0
 70
     0
 50
0.0
  0
VERTEX
  5
1F6
  8
1
100
AcDbVertex
100
AcDb2dVertex
 10
3313.657
 20
1153.61944170865
 30
0.0
 70
     0
 50
0.0
  0
VERTEX
  5
1F7
  8
1
100
AcDbVertex
100
AcDb2dVertex
 10
3423.1946420021
 20
1153.61945839795
 30
0.0
 70
     0
 50
0.0
  0
VERTEX
  5
1F8
  8
1
100
AcDbVertex
100
AcDb2dVertex
 10
3423.19454588962
 20
447.564008697939
 30
0.0
 70
     0
 50
0.0
  0
VERTEX
  5
1F9
  8
1
100
AcDbVertex
100
AcDb2dVertex
 10
3423.19506161881
 20
155.468512
 30
0.0
 70
     0
 50
0.0
  0
VERTEX
  5
1FA
  8
1
100
AcDbVertex
100
AcDb2dVertex
 10
3313.65736478043
 20
155.468855322754
 30
0.0
 70
     0
 50
0.0
  0
SEQEND
  5
1FB
  8
0
  0
POINT
  5
1FC
  8
2
 10
3313.65721219254
 20
683.118795227051
 30
0.0
  0
POINT
  5
1FD
  8
2
 10
3313.65713589859
 20
917.706705632324
 30
0.0
  0
POINT
  5
1FE
  8
2
 10
3313.657
 20
1153.61944170865
 30
0.0
  0
POINT
  5
1FF
  8
2
 10
3423.1946420021
 20
1153.61945839795
 30
0.0
  0
POINT
  5
200
  8
2
 10
3423.19454588962
 20
447.564008697939
 30
0.0
  0
POINT
  5
201
  8
2
 10
3423.19506161881
 20
155.468512
 30
0.0
  0
POINT
  5
202
  8
2
 10
3313.65736478043
 20
155.468855322754
 30
0.0
  0
ENDBLK
  5
1ED
  8
1
  0
BLOCK
  8
1
  2
6
 70
    64
 10
0.0
 20
0.0
 30
0.0
  3
6
  1

  0
TEXT
  5
205
  8
1
100
AcDbText
 10
4126.46869363501
 20
251.521178964111
 30
0.0
 40
7.0
  1
Size: 30
100
AcDbText
  0
TEXT
  5
206
  8
1
100
AcDbText
 10
4126.46869363501
 20
258.521178964111
 30
0.0
 40
7.0
  1
Model: JEAN
100
AcDbText
  0
TEXT
  5
207
  8
1
100
AcDbText
 10
4126.46869363501
 20
265.521178964111
 30
0.0
 40
7.0
  1
Piece Name: BK-30INSM
100
AcDbText
  0
TEXT
  5
208
  8
1
100
AcDbText
 10
4126.46869363501
 20
279.521178964111
 30
0.0
 40
7.0
  1
Quantity: 1,1
100
AcDbText
  0
TEXT
  5
209
  8
1
100
AcDbText
 10
4126.46869363501
 20
286.521178964111
 30
0.0
 40
7.0
  1
Material: SHEL
100
AcDbText
  0
POLYLINE
  5
20A
  8
1
100
AcDb2dPolyline
 66
     1
 10
0.0
 20
0.0
 30
0.0
 70
     1
  0
VERTEX
  5
20B
  8
1
100
AcDbVertex
100
AcDb2dVertex
 10
4643.87875025147
 20
42.587581
 30
0.0
 70
     0
 50
0.0
  0
VERTEX
  5
20C
  8
1
100
AcDbVertex
100
AcDb2dVertex
 10
4568.26981391601
 20
50.7599721479501
 30
0.0
 70
     0
 50
0.0
  0
VERTEX
  5
20D
  8
1
100
AcDbVertex
100
AcDb2dVertex
 10
4446.85737890039
 20
66.765119730957
 30
0.0
 70
     0
 50
0.0
  0
VERTEX
  5
20E
  8
1
100
AcDbVertex
100
AcDb2dVertex
 10
4342.15677113965
 20
84.4886972211921
 30
0.0
 70
     0
 50
0.0
  0
VERTEX
  5
20F
  8
1
100
AcDbVertex
100
AcDb2dVertex
 10
4239.20882170286
 20
102.46315448415
 30
0.0
 70
     0
 50
0.0
  0
VERTEX
  5
210
  8
1
100
AcDbVertex
100
AcDb2dVertex
 10
4216.59206813197
 20
106.273253354531
 30
0.0
 70
     0
 50
0.0
  0
VERTEX
  5
211
  8
1
100
AcDbVertex
100
AcDb2dVertex
 10
4193.96584365022
 20
110.047667247469
 30
0.0
 70
     0
 50
0.0
  0
VERTEX
  5
212
  8
1
100
AcDbVertex
100
AcDb2dVertex
 10
4148.70696184856
 20
117.591468105064
 30
0.0
 70
     0
 50
0.0
  0
VERTEX
  5
213
  8
1
100
AcDbVertex
100
AcDb2dVertex
 10
4126.08529447582
 20
121.411869071746
 30
0.0
 70
     0
 50
0.0
  0
VERTEX
  5
214
  8
1
100
AcDbVertex
100
AcDb2dVertex
 10
4103.4761360866
 20
125.298613065035
 30
0.0
 70
     0
 50
0.0
  0
VERTEX
  5
215
  8
1
100
AcDbVertex
100
AcDb2dVertex
 10
4080.8849816545
 20
129.277207085943
 30
0.0
 70
     0
 50
0.0
  0
VERTEX
  5
216
  8
1
100
AcDbVertex
100
AcDb2dVertex
 10
4069.59787310161
 20
131.30891879457
 30
0.0
 70
     0
 50
0.0
  0
VERTEX
  5
217
  8
1
100
AcDbVertex
100
AcDb2dVertex
 10
4058.31732615309
 20
133.373158135482
 30
0.0
 70
     0
 50
0.0
  0
VERTEX
  5
218
  8
1
100
AcDbVertex
100
AcDb2dVertex
 10
3904.92256872559
 20
142.236859230957
 30
0.0
 70
     0
 50
0.0
  0
VERTEX
  5
219
  8
1
100
AcDbVertex
100
AcDb2dVertex
 10
3619.52400915527
 20
158.901440529786
 30
0.0
 70
     0
 50
0.0
  0
VERTEX
  5
21A
  8
1
100
AcDbVertex
100
AcDb2dVertex
 10
3594.124
 20
157.418045351075
 30
0.0
 70
     0
 50
0.0
  0
VERTEX
  5
21B
  8
1
100
AcDbVertex
100
AcDb2dVertex
 10
3594.12476293945
 20
364.318655258301
 30
0.0
 70
     0
 50
0.0
  0
VERTEX
  5
21C
  8
1
100
AcDbVertex
100
AcDb2dVertex
 10
3619.52477209473
 20
362.524996604004
 30
0.0
 70
     0
 50
0.0
  0
VERTEX
  5
21D
  8
1
100
AcDbVertex
100
AcDb2dVertex
 10
3904.56265484289
 20
382.652824305062
 30
0.0
 70
     0
 50
0.0
  0
VERTEX
  5
21E
  8
1
100
AcDbVertex
100
AcDb2dVertex
 10
4058.49039020801
 20
393.679092312989
 30
0.0
 70
     0
 50
0.0
  0
VERTEX
  5
21F
  8
1
100
AcDbVertex
100
AcDb2dVertex
 10
4069.88345030926
 20
395.396689742251
 30
0.0
 70
     0
 50
0.0
  0
VERTEX
  5
220
  8
1
100
AcDbVertex
100
AcDb2dVertex
 10
4081.21700050486
 20
397.285093193299
 30
0.0
 70
     0
 50
0.0
  0
VERTEX
  5
221
  8
1
100
AcDbVertex
100
AcDb2dVertex
 10
4092.49685369155
 20
399.332574233327
 30
0.0
 70
     0
 50
0.0
  0
VERTEX
  5
222
  8
1
100
AcDbVertex
100
AcDb2dVertex
 10
4103.72882276608
 20
401.527404429532
 30
0.0
 70
     0
 50
0.0
  0
VERTEX
  5
223
  8
1
100
AcDbVertex
100
AcDb2dVertex
 10
4114.91872062521
 20
403.857855349107
 30
0.0
 70
     0
 50
0.0
  0
VERTEX
  5
224
  8
1
100
AcDbVertex
100
AcDb2dVertex
 10
4126.07236016569
 20
406.312198559249
 30
0.0
 70
     0
 50
0.0
  0
VERTEX
  5
225
  8
1
100
AcDbVertex
100
AcDb2dVertex
 10
4137.19555428428
 20
408.878705627154
 30
0.0
 70
     0
 50
0.0
  0
VERTEX
  5
226
  8
1
100
AcDbVertex
100
AcDb2dVertex
 10
4148.29411587772
 20
411.545648120015
 30
0.0
 70
     0
 50
0.0
  0
VERTEX
  5
227
  8
1
100
AcDbVertex
100
AcDb2dVertex
 10
4159.37385784278
 20
414.301297605029
 30
0.0
 70
     0
 50
0.0
  0
VERTEX
  5
228
  8
1
100
AcDbVertex
100
AcDb2dVertex
 10
4170.4405930762
 20
417.133925649391
 30
0.0
 70
     0
 50
0.0
  0
VERTEX
  5
229
  8
1
100
AcDbVertex
100
AcDb2dVertex
 10
4181.50013447474
 20
420.031803820296
 30
0.0
 70
     0
 50
0.0
  0
VERTEX
  5
22A
  8
1
100
AcDbVertex
100
AcDb2dVertex
 10
4192.55829493515
 20
422.983203684939
 30
0.0
 70
     0
 50
0.0
  0
VERTEX
  5
22B
  8
1
100
AcDbVertex
100
AcDb2dVertex
 10
4203.62088735419
 20
425.976396810517
 30
0.0
 70
     0
 50
0.0
  0
VERTEX
  5
22C
  8
1
100
AcDbVertex
100
AcDb2dVertex
 10
4214.6937246286
 20
428.999654764223
 30
0.0
 70
     0
 50
0.0
  0
VERTEX
  5
22D
  8
1
100
AcDbVertex
100
AcDb2dVertex
 10
4236.89338533057
 20
435.089451424805
 30
0.0
 70
     0
 50
0.0
  0
VERTEX
  5
22E
  8
1
100
AcDbVertex
100
AcDb2dVertex
 10
4338.45088653552
 20
467.090748321415
 30
0.0
 70
     0
 50
0.0
  0
VERTEX
  5
22F
  8
1
100
AcDbVertex
100
AcDb2dVertex
 10
4401.5172711748
 20
488.454776928223
 30
0.0
 70
     0
 50
0.0
  0
VERTEX
  5
230
  8
1
100
AcDbVertex
100
AcDb2dVertex
 10
4404.49639752507
 20
479.202616469754
 30
0.0
 70
     0
 50
0.0
  0
VERTEX
  5
231
  8
1
100
AcDbVertex
100
AcDb2dVertex
 10
4407.38522889222
 20
470.097739978573
 30
0.0
 70
     0
 50
0.0
  0
VERTEX
  5
232
  8
1
100
AcDbVertex
100
AcDb2dVertex
 10
4410.29564284212
 20
461.131954706593
 30
0.0
 70
     0
 50
0.0
  0
VERTEX
  5
233
  8
1
100
AcDbVertex
100
AcDb2dVertex
 10
4413.33951694062
 20
452.297067905727
 30
0.0
 70
     0
 50
0.0
  0
VERTEX
  5
234
  8
1
100
AcDbVertex
100
AcDb2dVertex
 10
4414.94646328492
 20
447.926151198185
 30
0.0
 70
     0
 50
0.0
  0
VERTEX
  5
235
  8
1
100
AcDbVertex
100
AcDb2dVertex
 10
4416.62872875357
 20
443.584886827888
 30
0.0
 70
     0
 50
0.0
  0
VERTEX
  5
236
  8
1
100
AcDbVertex
100
AcDb2dVertex
 10
4418.40029804229
 20
439.272250701326
 30
0.0
 70
     0
 50
0.0
  0
VERTEX
  5
237
  8
1
100
AcDbVertex
100
AcDb2dVertex
 10
4420.27515584683
 20
434.987218724989
 30
0.0
 70
     0
 50
0.0
  0
VERTEX
  5
238
  8
1
100
AcDbVertex
100
AcDb2dVertex
 10
4422.26728686291
 20
430.728766805364
 30
0.0
 70
     0
 50
0.0
  0
VERTEX
  5
239
  8
1
100
AcDbVertex
100
AcDb2dVertex
 10
4424.39067578625
 20
426.495870848942
 30
0.0
 70
     0
 50
0.0
  0
VERTEX
  5
23A
  8
1
100
AcDbVertex
100
AcDb2dVertex
 10
4426.65930731261
 20
422.287506762211
 30
0.0
 70
     0
 50
0.0
  0
VERTEX
  5
23B
  8
1
100
AcDbVertex
100
AcDb2dVertex
 10
4429.0871661377
 20
418.102650451661
 30
0.0
 70
     0
 50
0.0
  0
VERTEX
  5
23C
  8
1
100
AcDbVertex
100
AcDb2dVertex
 10
4431.86265362549
 20
415.634432349583
 30
0.0
 70
     0
 50
0.0
  0
VERTEX
  5
23D
  8
1
100
AcDbVertex
100
AcDb2dVertex
 10
4434.72323975934
 20
413.274165274283
 30
0.0
 70
     0
 50
0.0
  0
VERTEX
  5
23E
  8
1
100
AcDbVertex
100
AcDb2dVertex
 10
4437.66471479374
 20
411.017606748469
 30
0.0
 70
     0
 50
0.0
  0
VERTEX
  5
23F
  8
1
100
AcDbVertex
100
AcDb2dVertex
 10
4440.68286898314
 20
408.860514294845
 30
0.0
 70
     0
 50
0.0
  0
VERTEX
  5
240
  8
1
100
AcDbVertex
100
AcDb2dVertex
 10
4443.77349258204
 20
406.798645436119
 30
0.0
 70
     0
 50
0.0
  0
VERTEX
  5
241
  8
1
100
AcDbVertex
100
AcDb2dVertex
 10
4446.9323758449
 20
404.827757694995
 30
0.0
 70
     0
 50
0.0
  0
VERTEX
  5
242
  8
1
100
AcDbVertex
100
AcDb2dVertex
 10
4450.15530902621
 20
402.943608594181
 30
0.0
 70
     0
 50
0.0
  0
VERTEX
  5
243
  8
1
100
AcDbVertex
100
AcDb2dVertex
 10
4453.43808238043
 20
401.141955656381
 30
0.0
 70
     0
 50
0.0
  0
VERTEX
  5
244
  8
1
100
AcDbVertex
100
AcDb2dVertex
 10
4456.77648616206
 20
399.418556404303
 30
0.0
 70
     0
 50
0.0
  0
VERTEX
  5
245
  8
1
100
AcDbVertex
100
AcDb2dVertex
 10
4460.16631062555
 20
397.769168360652
 30
0.0
 70
     0
 50
0.0
  0
VERTEX
  5
246
  8
1
100
AcDbVertex
100
AcDb2dVertex
 10
4463.60334602539
 20
396.189549048134
 30
0.0
 70
     0
 50
0.0
  0
VERTEX
  5
247
  8
1
100
AcDbVertex
100
AcDb2dVertex
 10
4467.08338261606
 20
394.675455989454
 30
0.0
 70
     0
 50
0.0
  0
VERTEX
  5
248
  8
1
100
AcDbVertex
100
AcDb2dVertex
 10
4474.15562038778
 20
391.826878724438
 30
0.0
 70
     0
 50
0.0
  0
VERTEX
  5
249
  8
1
100
AcDbVertex
100
AcDb2dVertex
 10
4481.34934597652
 20
389.18949674725
 30
0.0
 70
     0
 50
0.0
  0
VERTEX
  5
24A
  8
1
100
AcDbVertex
100
AcDb2dVertex
 10
4488.63088141809
 20
386.729370239539
 30
0.0
 70
     0
 50
0.0
  0
VERTEX
  5
24B
  8
1
100
AcDbVertex
100
AcDb2dVertex
 10
4495.9665487483
 20
384.412559382953
 30
0.0
 70
     0
 50
0.0
  0
VERTEX
  5
24C
  8
1
100
AcDbVertex
100
AcDb2dVertex
 10
4503.32267000296
 20
382.20512435914
 30
0.0
 70
     0
 50
0.0
  0
VERTEX
  5
24D
  8
1
100
AcDbVertex
100
AcDb2dVertex
 10
4510.66556721789
 20
380.073125349748
 30
0.0
 70
     0
 50
0.0
  0
VERTEX
  5
24E
  8
1
100
AcDbVertex
100
AcDb2dVertex
 10
4525.17697767179
 20
375.899676100821
 30
0.0
 70
     0
 50
0.0
  0
VERTEX
  5
24F
  8
1
100
AcDbVertex
100
AcDb2dVertex
 10
4532.27813498238
 20
373.790346224581
 30
0.0
 70
     0
 50
0.0
  0
VERTEX
  5
250
  8
1
100
AcDbVertex
100
AcDb2dVertex
 10
4539.23135639648
 20
371.620693089356
 30
0.0
 70
     0
 50
0.0
  0
VERTEX
  5
251
  8
1
100
AcDbVertex
100
AcDb2dVertex
 10
4658.81338727001
 20
322.820886301766
 30
0.0
 70
     0
 50
0.0
  0
SEQEND
  5
252
  8
0
  0
POINT
  5
253
  8
2
 10
4643.87875025147
 20
42.587581
 30
0.0
  0
POINT
  5
254
  8
2
 10
4568.26981391601
 20
50.7599721479501
 30
0.0
  0
POINT
  5
255
  8
2
 10
4446.85737890039
 20
66.765119730957
 30
0.0
  0
POINT
  5
256
  8
2
 10
4342.15677113965
 20
84.4886972211921
 30
0.0
  0
POINT
  5
257
  8
2
 10
4239.20882170286
 20
102.46315448415
 30
0.0
  0
POINT
  5
258
  8
3
 10
4216.59206813197
 20
106.273253354531
 30
0.0
  0
POINT
  5
259
  8
3
 10
4193.96584365022
 20
110.047667247469
 30
0.0
  0
POINT
  5
25A
  8
3
 10
4148.70696184856
 20
117.591468105064
 30
0.0
  0
POINT
  5
25B
  8
3
 10
4126.08529447582
 20
121.411869071746
 30
0.0
  0
POINT
  5
25C
  8
3
 10
4103.4761360866
 20
125.298613065035
 30
0.0
  0
POINT
  5
25D
  8
3
 10
4080.8849816545
 20
129.277207085943
 30
0.0
  0
POINT
  5
25E
  8
3
 10
4069.59787310161
 20
131.30891879457
 30
0.0
  0
POINT
  5
25F
  8
2
 10
4058.31732615309
 20
133.373158135482
 30
0.0
  0
POINT
  5
260
  8
2
 10
3904.92256872559
 20
142.236859230957
 30
0.0
  0
POINT
  5
261
  8
2
 10
3619.52400915527
 20
158.901440529786
 30
0.0
  0
POINT
  5
262
  8
2
 10
3594.124
 20
157.418045351075
 30
0.0
  0
POINT
  5
263
  8
2
 10
3594.12476293945
 20
364.318655258301
 30
0.0
  0
POINT
  5
264
  8
2
 10
3619.52477209473
 20
362.524996604004
 30
0.0
  0
POINT
  5
265
  8
2
 10
3904.56265484289
 20
382.652824305062
 30
0.0
  0
POINT
  5
266
  8
2
 10
4058.49039020801
 20
393.679092312989
 30
0.0
  0
POINT
  5
267
  8
3
 10
4069.88345030926
 20
395.396689742251
 30
0.0
  0
POINT
  5
268
  8
3
 10
4081.21700050486
 20
397.285093193299
 30
0.0
  0
POINT
  5
269
  8
3
 10
4092.49685369155
 20
399.332574233327
 30
0.0
  0
POINT
  5
26A
  8
3
 10
4103.72882276608
 20
401.527404429532
 30
0.0
  0
POINT
  5
26B
  8
3
 10
4114.91872062521
 20
403.857855349107
 30
0.0
  0
POINT
  5
26C
  8
3
 10
4126.07236016569
 20
406.312198559249
 30
0.0
  0
POINT
  5
26D
  8
3
 10
4137.19555428428
 20
408.878705627154
 30
0.0
  0
POINT
  5
26E
  8
3
 10
4148.29411587772
 20
411.545648120015
 30
0.0
  0
POINT
  5
26F
  8
3
 10
4159.37385784278
 20
414.301297605029
 30
0.0
  0
POINT
  5
270
  8
3
 10
4170.4405930762
 20
417.133925649391
 30
0.0
  0
POINT
  5
271
  8
3
 10
4181.50013447474
 20
420.031803820296
 30
0.0
  0
POINT
  5
272
  8
3
 10
4192.55829493515
 20
422.983203684939
 30
0.0
  0
POINT
  5
273
  8
3
 10
4203.62088735419
 20
425.976396810517
 30
0.0
  0
POINT
  5
274
  8
3
 10
4214.6937246286
 20
428.999654764223
 30
0.0
  0
POINT
  5
275
  8
2
 10
4236.89338533057
 20
435.089451424805
 30
0.0
  0
POINT
  5
276
  8
2
 10
4338.45088653552
 20
467.090748321415
 30
0.0
  0
POINT
  5
277
  8
2
 10
4401.5172711748
 20
488.454776928223
 30
0.0
  0
POINT
  5
278
  8
3
 10
4404.49639752507
 20
479.202616469754
 30
0.0
  0
POINT
  5
279
  8
3
 10
4407.38522889222
 20
470.097739978573
 30
0.0
  0
POINT
  5
27A
  8
3
 10
4410.29564284212
 20
461.131954706593
 30
0.0
  0
POINT
  5
27B
  8
3
 10
4413.33951694062
 20
452.297067905727
 30
0.0
  0
POINT
  5
27C
  8
3
 10
4414.94646328492
 20
447.926151198185
 30
0.0
  0
POINT
  5
27D
  8
3
 10
4416.62872875357
 20
443.584886827888
 30
0.0
  0
POINT
  5
27E
  8
3
 10
4418.40029804229
 20
439.272250701326
 30
0.0
  0
POINT
  5
27F
  8
3
 10
4420.27515584683
 20
434.987218724989
 30
0.0
  0
POINT
  5
280
  8
3
 10
4422.26728686291
 20
430.728766805364
 30
0.0
  0
POINT
  5
281
  8
3
 10
4424.39067578625
 20
426.495870848942
 30
0.0
  0
POINT
  5
282
  8
3
 10
4426.65930731261
 20
422.287506762211
 30
0.0
  0
POINT
  5
283
  8
2
 10
4429.0871661377
 20
418.102650451661
 30
0.0
  0
POINT
  5
284
  8
3
 10
4431.86265362549
 20
415.634432349583
 30
0.0
  0
POINT
  5
285
  8
3
 10
4434.72323975934
 20
413.274165274283
 30
0.0
  0
POINT
  5
286
  8
3
 10
4437.66471479374
 20
411.017606748469
 30
0.0
  0
POINT
  5
287
  8
3
 10
4440.68286898314
 20
408.860514294845
 30
0.0
  0
POINT
  5
288
  8
3
 10
4443.77349258204
 20
406.798645436119
 30
0.0
  0
POINT
  5
289
  8
3
 10
4446.9323758449
 20
404.827757694995
 30
0.0
  0
POINT
  5
28A
  8
3
 10
4450.15530902621
 20
402.943608594181
 30
0.0
  0
POINT
  5
28B
  8
3
 10
4453.43808238043
 20
401.141955656381
 30
0.0
  0
POINT
  5
28C
  8
3
 10
4456.77648616206
 20
399.418556404303
 30
0.0
  0
POINT
  5
28D
  8
3
 10
4460.16631062555
 20
397.769168360652
 30
0.0
  0
POINT
  5
28E
  8
3
 10
4463.60334602539
 20
396.189549048134
 30
0.0
  0
POINT
  5
28F
  8
3
 10
4467.08338261606
 20
394.675455989454
 30
0.0
  0
POINT
  5
290
  8
3
 10
4474.15562038778
 20
391.826878724438
 30
0.0
  0
POINT
  5
291
  8
3
 10
4481.34934597652
 20
389.18949674725
 30
0.0
  0
POINT
  5
292
  8
3
 10
4488.63088141809
 20
386.729370239539
 30
0.0
  0
POINT
  5
293
  8
3
 10
4495.9665487483
 20
384.412559382953
 30
0.0
  0
POINT
  5
294
  8
3
 10
4503.32267000296
 20
382.20512435914
 30
0.0
  0
POINT
  5
295
  8
3
 10
4510.66556721789
 20
380.073125349748
 30
0.0
  0
POINT
  5
296
  8
3
 10
4525.17697767179
 20
375.899676100821
 30
0.0
  0
POINT
  5
297
  8
3
 10
4532.27813498238
 20
373.790346224581
 30
0.0
  0
POINT
  5
298
  8
2
 10
4539.23135639648
 20
371.620693089356
 30
0.0
  0
POINT
  5
299
  8
2
 10
4658.81338727001
 20
322.820886301766
 30
0.0
  0
LINE
  5
29A
  8
11
 10
4239.20882170286
 20
102.46315448415
 30
0.0
 11
4239.20882231444
 21
100.86315448415
 31
0.0
  0
LINE
  5
29B
  8
11
 10
3904.92256872559
 20
142.236859230957
 30
0.0
 11
3904.92256933717
 21
140.636859230957
 31
0.0
  0
LINE
  5
29C
  8
11
 10
3904.56265484289
 20
382.652824305062
 30
0.0
 11
3904.5626542313
 21
384.252824305062
 31
0.0
  0
LINE
  5
29D
  8
11
 10
4236.89338533057
 20
435.089451424805
 30
0.0
 11
4236.75393614217
 21
436.683362941752
 31
0.0
  0
ENDBLK
  5
204
  8
1
  0
BLOCK
  8
1
  2
7
 70
    64
 10
0.0
 20
0.0
 30
0.0
  3
7
  1

  0
TEXT
  5
2A0
  8
1
100
AcDbText
 10
3801.07901525879
 20
864.647671875
 30
0.0
 40
7.0
  1
Size: 30
100
AcDbText
  0
TEXT
  5
2A1
  8
1
100
AcDbText
 10
3801.07901525879
 20
871.647671875
 30
0.0
 40
7.0
  1
Model: JEAN
100
AcDbText
  0
TEXT
  5
2A2
  8
1
100
AcDbText
 10
3801.07901525879
 20
878.647671875
 30
0.0
 40
7.0
  1
Piece Name: LOOP-1
100
AcDbText
  0
TEXT
  5
2A3
  8
1
100
AcDbText
 10
3801.07901525879
 20
892.647671875
 30
0.0
 40
7.0
  1
Quantity: 1,0
100
AcDbText
  0
TEXT
  5
2A4
  8
1
100
AcDbText
 10
3801.07901525879
 20
899.647671875
 30
0.0
 40
7.0
  1
Material: SHEL
100
AcDbText
  0
POLYLINE
  5
2A5
  8
1
100
AcDb2dPolyline
 66
     1
 10
0.0
 20
0.0
 30
0.0
 70
     1
  0
VERTEX
  5
2A6
  8
1
100
AcDbVertex
100
AcDb2dVertex
 10
3547.07915258789
 20
865.884
 30
0.0
 70
     0
 50
0.0
  0
VERTEX
  5
2A7
  8
1
100
AcDbVertex
100
AcDb2dVertex
 10
3547.079
 20
891.411267456055
 30
0.0
 70
     0
 50
0.0
  0
VERTEX
  5
2A8
  8
1
100
AcDbVertex
100
AcDb2dVertex
 10
4016.97913122559
 20
891.41134375
 30
0.0
 70
     0
 50
0.0
  0
VERTEX
  5
2A9
  8
1
100
AcDbVertex
100
AcDb2dVertex
 10
4055.07903051758
 20
885.061322387696
 30
0.0
 70
     0
 50
0.0
  0
VERTEX
  5
2AA
  8
1
100
AcDbVertex
100
AcDb2dVertex
 10
4055.07895422363
 20
872.23409765625
 30
0.0
 70
     0
 50
0.0
  0
VERTEX
  5
2AB
  8
1
100
AcDbVertex
100
AcDb2dVertex
 10
4016.97890234375
 20
865.884076293946
 30
0.0
 70
     0
 50
0.0
  0
SEQEND
  5
2AC
  8
0
  0
POINT
  5
2AD
  8
2
 10
3547.07915258789
 20
865.884
 30
0.0
  0
POINT
  5
2AE
  8
2
 10
3547.079
 20
891.411267456055
 30
0.0
  0
POINT
  5
2AF
  8
2
 10
4016.97913122559
 20
891.41134375
 30
0.0
  0
POINT
  5
2B0
  8
2
 10
4055.07903051758
 20
885.061322387696
 30
0.0
  0
POINT
  5
2B1
  8
2
 10
4055.07895422363
 20
872.23409765625
 30
0.0
  0
POINT
  5
2B2
  8
2
 10
4016.97890234375
 20
865.884076293946
 30
0.0
  0
ENDBLK
  5
29F
  8
1
  0
BLOCK
  8
1
  2
8
 70
    64
 10
0.0
 20
0.0
 30
0.0
  3
8
  1

  0
TEXT
  5
2B5
  8
1
100
AcDbText
 10
3919.80341770237
 20
1240.69391820207
 30
0.0
 40
7.0
  1
Size: 30
100
AcDbText
  0
TEXT
  5
2B6
  8
1
100
AcDbText
 10
3919.80341770237
 20
1247.69391820207
 30
0.0
 40
7.0
  1
Model: JEAN
100
AcDbText
  0
TEXT
  5
2B7
  8
1
100
AcDbText
 10
3919.80341770237
 20
1254.69391820207
 30
0.0
 40
7.0
  1
Piece Name: FT-PKT-FC-LT
100
AcDbText
  0
TEXT
  5
2B8
  8
1
100
AcDbText
 10
3919.80341770237
 20
1268.69391820207
 30
0.0
 40
7.0
  1
Quantity: 1,0
100
AcDbText
  0
TEXT
  5
2B9
  8
1
100
AcDbText
 10
3919.80341770237
 20
1275.69391820207
 30
0.0
 40
7.0
  1
Material: SHEL
100
AcDbText
  0
POLYLINE
  5
2BA
  8
1
100
AcDb2dPolyline
 66
     1
 10
0.0
 20
0.0
 30
0.0
 70
     1
  0
VERTEX
  5
2BB
  8
1
100
AcDbVertex
100
AcDb2dVertex
 10
3994.03971863067
 20
1182.74086101913
 30
0.0
 70
     0
 50
0.0
  0
VERTEX
  5
2BC
  8
1
100
AcDbVertex
100
AcDb2dVertex
 10
3982.28406455338
 20
1180.23014500524
 30
0.0
 70
     0
 50
0.0
  0
VERTEX
  5
2BD
  8
1
100
AcDbVertex
100
AcDb2dVertex
 10
3972.59953482014
 20
1178.1326840484
 30
0.0
 70
     0
 50
0.0
  0
VERTEX
  5
2BE
  8
1
100
AcDbVertex
100
AcDb2dVertex
 10
3958.34062448107
 20
1174.99065906046
 30
0.0
 70
     0
 50
0.0
  0
VERTEX
  5
2BF
  8
1
100
AcDbVertex
100
AcDb2dVertex
 10
3949.05653980403
 20
1172.94104956456
 30
0.0
 70
     0
 50
0.0
  0
VERTEX
  5
2C0
  8
1
100
AcDbVertex
100
AcDb2dVertex
 10
3942.54083297959
 20
1171.61011906992
 30
0.0
 70
     0
 50
0.0
  0
VERTEX
  5
2C1
  8
1
100
AcDbVertex
100
AcDb2dVertex
 10
3936.58705619833
 20
1170.62413108578
 30
0.0
 70
     0
 50
0.0
  0
VERTEX
  5
2C2
  8
1
100
AcDbVertex
100
AcDb2dVertex
 10
3928.98876165082
 20
1169.60934912137
 30
0.0
 70
     0
 50
0.0
  0
VERTEX
  5
2C3
  8
1
100
AcDbVertex
100
AcDb2dVertex
 10
3900.03282801934
 20
1165.99845728867
 30
0.0
 70
     0
 50
0.0
  0
VERTEX
  5
2C4
  8
1
100
AcDbVertex
100
AcDb2dVertex
 10
3846.97324157559
 20
1162.478236
 30
0.0
 70
     0
 50
0.0
  0
VERTEX
  5
2C5
  8
1
100
AcDbVertex
100
AcDb2dVertex
 10
3846.47504595433
 20
1175.1731084279
 30
0.0
 70
     0
 50
0.0
  0
VERTEX
  5
2C6
  8
1
100
AcDbVertex
100
AcDb2dVertex
 10
3845.768267
 20
1196.19063973574
 30
0.0
 70
     0
 50
0.0
  0
VERTEX
  5
2C7
  8
1
100
AcDbVertex
100
AcDb2dVertex
 10
3845.60845425005
 20
1211.81207862472
 30
0.0
 70
     0
 50
0.0
  0
VERTEX
  5
2C8
  8
1
100
AcDbVertex
100
AcDb2dVertex
 10
3845.56711677407
 20
1219.68705729283
 30
0.0
 70
     0
 50
0.0
  0
VERTEX
  5
2C9
  8
1
100
AcDbVertex
100
AcDb2dVertex
 10
3845.61720027686
 20
1227.57600528281
 30
0.0
 70
     0
 50
0.0
  0
VERTEX
  5
2CA
  8
1
100
AcDbVertex
100
AcDb2dVertex
 10
3845.80798604301
 20
1235.45726997426
 30
0.0
 70
     0
 50
0.0
  0
VERTEX
  5
2CB
  8
1
100
AcDbVertex
100
AcDb2dVertex
 10
3846.1887553571
 20
1243.30919874677
 30
0.0
 70
     0
 50
0.0
  0
VERTEX
  5
2CC
  8
1
100
AcDbVertex
100
AcDb2dVertex
 10
3846.80878950372
 20
1251.11013897993
 30
0.0
 70
     0
 50
0.0
  0
VERTEX
  5
2CD
  8
1
100
AcDbVertex
100
AcDb2dVertex
 10
3847.22393129066
 20
1254.98472195038
 30
0.0
 70
     0
 50
0.0
  0
VERTEX
  5
2CE
  8
1
100
AcDbVertex
100
AcDb2dVertex
 10
3847.71736976745
 20
1258.83843805333
 30
0.0
 70
     0
 50
0.0
  0
VERTEX
  5
2CF
  8
1
100
AcDbVertex
100
AcDb2dVertex
 10
3848.39940679181
 20
1263.13922864169
 30
0.0
 70
     0
 50
0.0
  0
VERTEX
  5
2D0
  8
1
100
AcDbVertex
100
AcDb2dVertex
 10
3849.22278463647
 20
1267.41446844767
 30
0.0
 70
     0
 50
0.0
  0
VERTEX
  5
2D1
  8
1
100
AcDbVertex
100
AcDb2dVertex
 10
3850.15488618904
 20
1271.67005380566
 30
0.0
 70
     0
 50
0.0
  0
VERTEX
  5
2D2
  8
1
100
AcDbVertex
100
AcDb2dVertex
 10
3851.16309433715
 20
1275.91188105006
 30
0.0
 70
     0
 50
0.0
  0
VERTEX
  5
2D3
  8
1
100
AcDbVertex
100
AcDb2dVertex
 10
3853.27736197049
 20
1284.37784653568
 30
0.0
 70
     0
 50
0.0
  0
VERTEX
  5
2D4
  8
1
100
AcDbVertex
100
AcDb2dVertex
 10
3855.30465063751
 20
1292.85953557968
 30
0.0
 70
     0
 50
0.0
  0
VERTEX
  5
2D5
  8
1
100
AcDbVertex
100
AcDb2dVertex
 10
3857.87906090965
 20
1299.1740424793
 30
0.0
 70
     0
 50
0.0
  0
VERTEX
  5
2D6
  8
1
100
AcDbVertex
100
AcDb2dVertex
 10
3859.73209776403
 20
1303.85689338635
 30
0.0
 70
     0
 50
0.0
  0
VERTEX
  5
2D7
  8
1
100
AcDbVertex
100
AcDb2dVertex
 10
3862.08412224924
 20
1309.73770262126
 30
0.0
 70
     0
 50
0.0
  0
VERTEX
  5
2D8
  8
1
100
AcDbVertex
100
AcDb2dVertex
 10
3862.98814539493
 20
1311.64069864839
 30
0.0
 70
     0
 50
0.0
  0
VERTEX
  5
2D9
  8
1
100
AcDbVertex
100
AcDb2dVertex
 10
3863.98086615259
 20
1313.32211408146
 30
0.0
 70
     0
 50
0.0
  0
VERTEX
  5
2DA
  8
1
100
AcDbVertex
100
AcDb2dVertex
 10
3865.26480227966
 20
1315.13446777013
 30
0.0
 70
     0
 50
0.0
  0
VERTEX
  5
2DB
  8
1
100
AcDbVertex
100
AcDb2dVertex
 10
3867.04247153358
 20
1317.43027856401
 30
0.0
 70
     0
 50
0.0
  0
VERTEX
  5
2DC
  8
1
100
AcDbVertex
100
AcDb2dVertex
 10
3875.79546238001
 20
1328.67393953542
 30
0.0
 70
     0
 50
0.0
  0
VERTEX
  5
2DD
  8
1
100
AcDbVertex
100
AcDb2dVertex
 10
3883.30916596402
 20
1332.3464845868
 30
0.0
 70
     0
 50
0.0
  0
VERTEX
  5
2DE
  8
1
100
AcDbVertex
100
AcDb2dVertex
 10
3889.87520085911
 20
1335.60776731569
 30
0.0
 70
     0
 50
0.0
  0
VERTEX
  5
2DF
  8
1
100
AcDbVertex
100
AcDb2dVertex
 10
3895.8784042447
 20
1338.45733218254
 30
0.0
 70
     0
 50
0.0
  0
VERTEX
  5
2E0
  8
1
100
AcDbVertex
100
AcDb2dVertex
 10
3901.70361330021
 20
1340.89472364776
 30
0.0
 70
     0
 50
0.0
  0
VERTEX
  5
2E1
  8
1
100
AcDbVertex
100
AcDb2dVertex
 10
3904.66973157276
 20
1341.95871199865
 30
0.0
 70
     0
 50
0.0
  0
VERTEX
  5
2E2
  8
1
100
AcDbVertex
100
AcDb2dVertex
 10
3907.73566520507
 20
1342.9194861718
 30
0.0
 70
     0
 50
0.0
  0
VERTEX
  5
2E3
  8
1
100
AcDbVertex
100
AcDb2dVertex
 10
3910.94951884458
 20
1343.77698922475
 30
0.0
 70
     0
 50
0.0
  0
VERTEX
  5
2E4
  8
1
100
AcDbVertex
100
AcDb2dVertex
 10
3914.35939713872
 20
1344.53116421507
 30
0.0
 70
     0
 50
0.0
  0
VERTEX
  5
2E5
  8
1
100
AcDbVertex
100
AcDb2dVertex
 10
3918.0134047349
 20
1345.1819542003
 30
0.0
 70
     0
 50
0.0
  0
VERTEX
  5
2E6
  8
1
100
AcDbVertex
100
AcDb2dVertex
 10
3921.95964628056
 20
1345.729302238
 30
0.0
 70
     0
 50
0.0
  0
VERTEX
  5
2E7
  8
1
100
AcDbVertex
100
AcDb2dVertex
 10
3926.24622642312
 20
1346.17315138573
 30
0.0
 70
     0
 50
0.0
  0
VERTEX
  5
2E8
  8
1
100
AcDbVertex
100
AcDb2dVertex
 10
3930.92124981003
 20
1346.51344470103
 30
0.0
 70
     0
 50
0.0
  0
VERTEX
  5
2E9
  8
1
100
AcDbVertex
100
AcDb2dVertex
 10
3939.05118645068
 20
1346.83619340933
 30
0.0
 70
     0
 50
0.0
  0
VERTEX
  5
2EA
  8
1
100
AcDbVertex
100
AcDb2dVertex
 10
3943.56581997788
 20
1346.90407788979
 30
0.0
 70
     0
 50
0.0
  0
VERTEX
  5
2EB
  8
1
100
AcDbVertex
100
AcDb2dVertex
 10
3948.41012219668
 20
1346.90960040414
 30
0.0
 70
     0
 50
0.0
  0
VERTEX
  5
2EC
  8
1
100
AcDbVertex
100
AcDb2dVertex
 10
3953.60651202235
 20
1346.85273441467
 30
0.0
 70
     0
 50
0.0
  0
VERTEX
  5
2ED
  8
1
100
AcDbVertex
100
AcDb2dVertex
 10
3959.17740837014
 20
1346.73345338365
 30
0.0
 70
     0
 50
0.0
  0
VERTEX
  5
2EE
  8
1
100
AcDbVertex
100
AcDb2dVertex
 10
3971.53239629319
 20
1346.30754004607
 30
0.0
 70
     0
 50
0.0
  0
VERTEX
  5
2EF
  8
1
100
AcDbVertex
100
AcDb2dVertex
 10
3984.22883472493
 20
1345.94462822566
 30
0.0
 70
     0
 50
0.0
  0
VERTEX
  5
2F0
  8
1
100
AcDbVertex
100
AcDb2dVertex
 10
3983.83188780105
 20
1314.4786517179
 30
0.0
 70
     0
 50
0.0
  0
VERTEX
  5
2F1
  8
1
100
AcDbVertex
100
AcDb2dVertex
 10
3984.29134883124
 20
1296.69966928349
 30
0.0
 70
     0
 50
0.0
  0
SEQEND
  5
2F2
  8
0
  0
POINT
  5
2F3
  8
2
 10
3994.03971863067
 20
1182.74086101913
 30
0.0
  0
POINT
  5
2F4
  8
3
 10
3982.28406455338
 20
1180.23014500524
 30
0.0
  0
POINT
  5
2F5
  8
3
 10
3972.59953482014
 20
1178.1326840484
 30
0.0
  0
POINT
  5
2F6
  8
3
 10
3958.34062448107
 20
1174.99065906046
 30
0.0
  0
POINT
  5
2F7
  8
3
 10
3949.05653980403
 20
1172.94104956456
 30
0.0
  0
POINT
  5
2F8
  8
3
 10
3942.54083297959
 20
1171.61011906992
 30
0.0
  0
POINT
  5
2F9
  8
3
 10
3936.58705619833
 20
1170.62413108578
 30
0.0
  0
POINT
  5
2FA
  8
3
 10
3928.98876165082
 20
1169.60934912137
 30
0.0
  0
POINT
  5
2FB
  8
2
 10
3900.03282801934
 20
1165.99845728867
 30
0.0
  0
POINT
  5
2FC
  8
2
 10
3846.97324157559
 20
1162.478236
 30
0.0
  0
POINT
  5
2FD
  8
2
 10
3846.47504595433
 20
1175.1731084279
 30
0.0
  0
POINT
  5
2FE
  8
2
 10
3845.768267
 20
1196.19063973574
 30
0.0
  0
POINT
  5
2FF
  8
3
 10
3845.60845425005
 20
1211.81207862472
 30
0.0
  0
POINT
  5
300
  8
3
 10
3845.56711677407
 20
1219.68705729283
 30
0.0
  0
POINT
  5
301
  8
3
 10
3845.61720027686
 20
1227.57600528281
 30
0.0
  0
POINT
  5
302
  8
3
 10
3845.80798604301
 20
1235.45726997426
 30
0.0
  0
POINT
  5
303
  8
3
 10
3846.1887553571
 20
1243.30919874677
 30
0.0
  0
POINT
  5
304
  8
3
 10
3846.80878950372
 20
1251.11013897993
 30
0.0
  0
POINT
  5
305
  8
3
 10
3847.22393129066
 20
1254.98472195038
 30
0.0
  0
POINT
  5
306
  8
2
 10
3847.71736976745
 20
1258.83843805333
 30
0.0
  0
POINT
  5
307
  8
3
 10
3848.39940679181
 20
1263.13922864169
 30
0.0
  0
POINT
  5
308
  8
3
 10
3849.22278463647
 20
1267.41446844767
 30
0.0
  0
POINT
  5
309
  8
3
 10
3850.15488618904
 20
1271.67005380566
 30
0.0
  0
POINT
  5
30A
  8
3
 10
3851.16309433715
 20
1275.91188105006
 30
0.0
  0
POINT
  5
30B
  8
3
 10
3853.27736197049
 20
1284.37784653568
 30
0.0
  0
POINT
  5
30C
  8
2
 10
3855.30465063751
 20
1292.85953557968
 30
0.0
  0
POINT
  5
30D
  8
3
 10
3857.87906090965
 20
1299.1740424793
 30
0.0
  0
POINT
  5
30E
  8
3
 10
3859.73209776403
 20
1303.85689338635
 30
0.0
  0
POINT
  5
30F
  8
3
 10
3862.08412224924
 20
1309.73770262126
 30
0.0
  0
POINT
  5
310
  8
3
 10
3862.98814539493
 20
1311.64069864839
 30
0.0
  0
POINT
  5
311
  8
3
 10
3863.98086615259
 20
1313.32211408146
 30
0.0
  0
POINT
  5
312
  8
3
 10
3865.26480227966
 20
1315.13446777013
 30
0.0
  0
POINT
  5
313
  8
2
 10
3867.04247153358
 20
1317.43027856401
 30
0.0
  0
POINT
  5
314
  8
2
 10
3875.79546238001
 20
1328.67393953542
 30
0.0
  0
POINT
  5
315
  8
3
 10
3883.30916596402
 20
1332.3464845868
 30
0.0
  0
POINT
  5
316
  8
3
 10
3889.87520085911
 20
1335.60776731569
 30
0.0
  0
POINT
  5
317
  8
3
 10
3895.8784042447
 20
1338.45733218254
 30
0.0
  0
POINT
  5
318
  8
3
 10
3901.70361330021
 20
1340.89472364776
 30
0.0
  0
POINT
  5
319
  8
3
 10
3904.66973157276
 20
1341.95871199865
 30
0.0
  0
POINT
  5
31A
  8
3
 10
3907.73566520507
 20
1342.9194861718
 30
0.0
  0
POINT
  5
31B
  8
3
 10
3910.94951884458
 20
1343.77698922475
 30
0.0
  0
POINT
  5
31C
  8
3
 10
3914.35939713872
 20
1344.53116421507
 30
0.0
  0
POINT
  5
31D
  8
3
 10
3918.0134047349
 20
1345.1819542003
 30
0.0
  0
POINT
  5
31E
  8
3
 10
3921.95964628056
 20
1345.729302238
 30
0.0
  0
POINT
  5
31F
  8
3
 10
3926.24622642312
 20
1346.17315138573
 30
0.0
  0
POINT
  5
320
  8
2
 10
3930.92124981003
 20
1346.51344470103
 30
0.0
  0
POINT
  5
321
  8
3
 10
3939.05118645068
 20
1346.83619340933
 30
0.0
  0
POINT
  5
322
  8
3
 10
3943.56581997788
 20
1346.90407788979
 30
0.0
  0
POINT
  5
323
  8
3
 10
3948.41012219668
 20
1346.90960040414
 30
0.0
  0
POINT
  5
324
  8
3
 10
3953.60651202235
 20
1346.85273441467
 30
0.0
  0
POINT
  5
325
  8
3
 10
3959.17740837014
 20
1346.73345338365
 30
0.0
  0
POINT
  5
326
  8
2
 10
3971.53239629319
 20
1346.30754004607
 30
0.0
  0
POINT
  5
327
  8
2
 10
3984.22883472493
 20
1345.94462822566
 30
0.0
  0
POINT
  5
328
  8
2
 10
3983.83188780105
 20
1314.4786517179
 30
0.0
  0
POINT
  5
329
  8
2
 10
3984.29134883124
 20
1296.69966928349
 30
0.0
  0
LINE
  5
32A
  8
11
 10
3900.03282801934
 20
1165.99845728867
 30
0.0
 11
3900.03282801934
 21
1164.39845728867
 31
0.0
  0
LINE
  5
32B
  8
11
 10
3983.83188780105
 20
1314.4786517179
 30
0.0
 11
3985.43188780105
 21
1314.4786517179
 31
0.0
  0
ENDBLK
  5
2B4
  8
1
  0
BLOCK
  8
1
  2
9
 70
    64
 10
0.0
 20
0.0
 30
0.0
  3
9
  1

  0
TEXT
  5
32E
  8
1
100
AcDbText
 10
4142.24821689038
 20
1080.05580639127
 30
0.0
 40
7.0
  1
Size: 30
100
AcDbText
  0
TEXT
  5
32F
  8
1
100
AcDbText
 10
4142.24821689038
 20
1087.05580639127
 30
0.0
 40
7.0
  1
Model: JEAN
100
AcDbText
  0
TEXT
  5
330
  8
1
100
AcDbText
 10
4142.24821689038
 20
1094.05580639127
 30
0.0
 40
7.0
  1
Piece Name: BK-PKT-ZIG {SH 4 X 18%}
100
AcDbText
  0
TEXT
  5
331
  8
1
100
AcDbText
 10
4142.24821689038
 20
1108.05580639127
 30
0.0
 40
7.0
  1
Quantity: 1,1
100
AcDbText
  0
TEXT
  5
332
  8
1
100
AcDbText
 10
4142.24821689038
 20
1115.05580639127
 30
0.0
 40
7.0
  1
Material: SHEL
100
AcDbText
  0
POLYLINE
  5
333
  8
1
100
AcDb2dPolyline
 66
     1
 10
0.0
 20
0.0
 30
0.0
 70
     1
  0
VERTEX
  5
334
  8
1
100
AcDbVertex
100
AcDb2dVertex
 10
4033.774146
 20
1094.06691473087
 30
0.0
 70
     0
 50
0.0
  0
VERTEX
  5
335
  8
1
100
AcDbVertex
100
AcDb2dVertex
 10
4054.90341376758
 20
1183.62750754142
 30
0.0
 70
     0
 50
0.0
  0
VERTEX
  5
336
  8
1
100
AcDbVertex
100
AcDb2dVertex
 10
4231.15544757822
 20
1211.91111778254
 30
0.0
 70
     0
 50
0.0
  0
VERTEX
  5
337
  8
1
100
AcDbVertex
100
AcDb2dVertex
 10
4250.72188238224
 20
1199.07197790039
 30
0.0
 70
     0
 50
0.0
  0
VERTEX
  5
338
  8
1
100
AcDbVertex
100
AcDb2dVertex
 10
4250.72228778076
 20
989.061684755288
 30
0.0
 70
     0
 50
0.0
  0
VERTEX
  5
339
  8
1
100
AcDbVertex
100
AcDb2dVertex
 10
4231.15294317326
 20
976.200495
 30
0.0
 70
     0
 50
0.0
  0
VERTEX
  5
33A
  8
1
100
AcDbVertex
100
AcDb2dVertex
 10
4054.95407378565
 20
1004.28953898917
 30
0.0
 70
     0
 50
0.0
  0
SEQEND
  5
33B
  8
0
  0
POINT
  5
33C
  8
2
 10
4033.774146
 20
1094.06691473087
 30
0.0
  0
POINT
  5
33D
  8
2
 10
4054.90341376758
 20
1183.62750754142
 30
0.0
  0
POINT
  5
33E
  8
2
 10
4231.15544757822
 20
1211.91111778254
 30
0.0
  0
POINT
  5
33F
  8
2
 10
4250.72188238224
 20
1199.07197790039
 30
0.0
  0
POINT
  5
340
  8
2
 10
4250.72228778076
 20
989.061684755288
 30
0.0
  0
POINT
  5
341
  8
2
 10
4231.15294317326
 20
976.200495
 30
0.0
  0
POINT
  5
342
  8
2
 10
4054.95407378565
 20
1004.28953898917
 30
0.0
  0
ENDBLK
  5
32D
  8
1
  0
BLOCK
  8
1
  2
10
 70
    64
 10
0.0
 20
0.0
 30
0.0
  3
10
  1

  0
TEXT
  5
345
  8
1
100
AcDbText
 10
4684.5398303833
 20
451.099658966065
 30
0.0
 40
7.0
  1
Size: 30
100
AcDbText
  0
TEXT
  5
346
  8
1
100
AcDbText
 10
4684.5398303833
 20
458.099658966065
 30
0.0
 40
7.0
  1
Model: JEAN
100
AcDbText
  0
TEXT
  5
347
  8
1
100
AcDbText
 10
4684.5398303833
 20
465.099658966065
 30
0.0
 40
7.0
  1
Piece Name: FLY
100
AcDbText
  0
TEXT
  5
348
  8
1
100
AcDbText
 10
4684.5398303833
 20
479.099658966065
 30
0.0
 40
7.0
  1
Quantity: 1,0
100
AcDbText
  0
TEXT
  5
349
  8
1
100
AcDbText
 10
4684.5398303833
 20
486.099658966065
 30
0.0
 40
7.0
  1
Material: SHEL
100
AcDbText
  0
POLYLINE
  5
34A
  8
1
100
AcDb2dPolyline
 66
     1
 10
0.0
 20
0.0
 30
0.0
 70
     1
  0
VERTEX
  5
34B
  8
1
100
AcDbVertex
100
AcDb2dVertex
 10
4797.2956607666
 20
495.199203491211
 30
0.0
 70
     0
 50
0.0
  0
VERTEX
  5
34C
  8
1
100
AcDbVertex
100
AcDb2dVertex
 10
4796.81741217041
 20
435.000343322754
 30
0.0
 70
     0
 50
0.0
  0
VERTEX
  5
34D
  8
1
100
AcDbVertex
100
AcDb2dVertex
 10
4571.784
 20
435.0
 30
0.0
 70
     0
 50
0.0
  0
VERTEX
  5
34E
  8
1
100
AcDbVertex
100
AcDb2dVertex
 10
4573.37755588347
 20
442.012551611776
 30
0.0
 70
     0
 50
0.0
  0
VERTEX
  5
34F
  8
1
100
AcDbVertex
100
AcDb2dVertex
 10
4574.88283166575
 20
448.185995174317
 30
0.0
 70
     0
 50
0.0
  0
VERTEX
  5
350
  8
1
100
AcDbVertex
100
AcDb2dVertex
 10
4576.49192367983
 20
453.764900240745
 30
0.0
 70
     0
 50
0.0
  0
VERTEX
  5
351
  8
1
100
AcDbVertex
100
AcDb2dVertex
 10
4578.39692825868
 20
458.993836364183
 30
0.0
 70
     0
 50
0.0
  0
VERTEX
  5
352
  8
1
100
AcDbVertex
100
AcDb2dVertex
 10
4579.52042786396
 20
461.553494057632
 30
0.0
 70
     0
 50
0.0
  0
VERTEX
  5
353
  8
1
100
AcDbVertex
100
AcDb2dVertex
 10
4580.7899417353
 20
464.117373097755
 30
0.0
 70
     0
 50
0.0
  0
VERTEX
  5
354
  8
1
100
AcDbVertex
100
AcDb2dVertex
 10
4582.22948191432
 20
466.716044678692
 30
0.0
 70
     0
 50
0.0
  0
VERTEX
  5
355
  8
1
100
AcDbVertex
100
AcDb2dVertex
 10
4583.86306044266
 20
469.380079994583
 30
0.0
 70
     0
 50
0.0
  0
VERTEX
  5
356
  8
1
100
AcDbVertex
100
AcDb2dVertex
 10
4585.71468936193
 20
472.140050239569
 30
0.0
 70
     0
 50
0.0
  0
VERTEX
  5
357
  8
1
100
AcDbVertex
100
AcDb2dVertex
 10
4587.80838071376
 20
475.02652660779
 30
0.0
 70
     0
 50
0.0
  0
VERTEX
  5
358
  8
1
100
AcDbVertex
100
AcDb2dVertex
 10
4590.16814653976
 20
478.070080293386
 30
0.0
 70
     0
 50
0.0
  0
VERTEX
  5
359
  8
1
100
AcDbVertex
100
AcDb2dVertex
 10
4592.81799888157
 20
481.301282490499
 30
0.0
 70
     0
 50
0.0
  0
VERTEX
  5
35A
  8
1
100
AcDbVertex
100
AcDb2dVertex
 10
4595.2065622553
 20
483.819053855924
 30
0.0
 70
     0
 50
0.0
  0
VERTEX
  5
35B
  8
1
100
AcDbVertex
100
AcDb2dVertex
 10
4597.91795339217
 20
486.039884097182
 30
0.0
 70
     0
 50
0.0
  0
VERTEX
  5
35C
  8
1
100
AcDbVertex
100
AcDb2dVertex
 10
4600.89878942073
 20
487.851892892638
 30
0.0
 70
     0
 50
0.0
  0
VERTEX
  5
35D
  8
1
100
AcDbVertex
100
AcDb2dVertex
 10
4604.09568746948
 20
489.143199920654
 30
0.0
 70
     0
 50
0.0
  0
VERTEX
  5
35E
  8
1
100
AcDbVertex
100
AcDb2dVertex
 10
4608.33898182948
 20
490.29603130004
 30
0.0
 70
     0
 50
0.0
  0
VERTEX
  5
35F
  8
1
100
AcDbVertex
100
AcDb2dVertex
 10
4612.63215613361
 20
491.2388375299
 30
0.0
 70
     0
 50
0.0
  0
VERTEX
  5
360
  8
1
100
AcDbVertex
100
AcDb2dVertex
 10
4616.96369962553
 20
492.020085952434
 30
0.0
 70
     0
 50
0.0
  0
VERTEX
  5
361
  8
1
100
AcDbVertex
100
AcDb2dVertex
 10
4621.3221015489
 20
492.688243909838
 30
0.0
 70
     0
 50
0.0
  0
VERTEX
  5
362
  8
1
100
AcDbVertex
100
AcDb2dVertex
 10
4630.07343766466
 20
493.879157798053
 30
0.0
 70
     0
 50
0.0
  0
VERTEX
  5
363
  8
1
100
AcDbVertex
100
AcDb2dVertex
 10
4638.79407843018
 20
495.199317932129
 30
0.0
 70
     0
 50
0.0
  0
SEQEND
  5
364
  8
0
  0
POINT
  5
365
  8
2
 10
4797.2956607666
 20
495.199203491211
 30
0.0
  0
POINT
  5
366
  8
2
 10
4796.81741217041
 20
435.000343322754
 30
0.0
  0
POINT
  5
367
  8
2
 10
4571.784
 20
435.0
 30
0.0
  0
POINT
  5
368
  8
3
 10
4573.37755588347
 20
442.012551611776
 30
0.0
  0
POINT
  5
369
  8
3
 10
4574.88283166575
 20
448.185995174317
 30
0.0
  0
POINT
  5
36A
  8
3
 10
4576.49192367983
 20
453.764900240745
 30
0.0
  0
POINT
  5
36B
  8
3
 10
4578.39692825868
 20
458.993836364183
 30
0.0
  0
POINT
  5
36C
  8
3
 10
4579.52042786396
 20
461.553494057632
 30
0.0
  0
POINT
  5
36D
  8
3
 10
4580.7899417353
 20
464.117373097755
 30
0.0
  0
POINT
  5
36E
  8
3
 10
4582.22948191432
 20
466.716044678692
 30
0.0
  0
POINT
  5
36F
  8
3
 10
4583.86306044266
 20
469.380079994583
 30
0.0
  0
POINT
  5
370
  8
3
 10
4585.71468936193
 20
472.140050239569
 30
0.0
  0
POINT
  5
371
  8
3
 10
4587.80838071376
 20
475.02652660779
 30
0.0
  0
POINT
  5
372
  8
3
 10
4590.16814653976
 20
478.070080293386
 30
0.0
  0
POINT
  5
373
  8
2
 10
4592.81799888157
 20
481.301282490499
 30
0.0
  0
POINT
  5
374
  8
3
 10
4595.2065622553
 20
483.819053855924
 30
0.0
  0
POINT
  5
375
  8
3
 10
4597.91795339217
 20
486.039884097182
 30
0.0
  0
POINT
  5
376
  8
3
 10
4600.89878942073
 20
487.851892892638
 30
0.0
  0
POINT
  5
377
  8
2
 10
4604.09568746948
 20
489.143199920654
 30
0.0
  0
POINT
  5
378
  8
3
 10
4608.33898182948
 20
490.29603130004
 30
0.0
  0
POINT
  5
379
  8
3
 10
4612.63215613361
 20
491.2388375299
 30
0.0
  0
POINT
  5
37A
  8
3
 10
4616.96369962553
 20
492.020085952434
 30
0.0
  0
POINT
  5
37B
  8
3
 10
4621.3221015489
 20
492.688243909838
 30
0.0
  0
POINT
  5
37C
  8
3
 10
4630.07343766466
 20
493.879157798053
 30
0.0
  0
POINT
  5
37D
  8
2
 10
4638.79407843018
 20
495.199317932129
 30
0.0
  0
ENDBLK
  5
344
  8
1
  0
BLOCK
  8
1
  2
11
 70
    64
 10
0.0
 20
0.0
 30
0.0
  3
11
  1

  0
TEXT
  5
380
  8
1
100
AcDbText
 10
4536.96950341311
 20
1058.77370235771
 30
0.0
 40
7.0
  1
Size: 30
100
AcDbText
  0
TEXT
  5
381
  8
1
100
AcDbText
 10
4536.96950341311
 20
1065.77370235771
 30
0.0
 40
7.0
  1
Model: JEAN
100
AcDbText
  0
TEXT
  5
382
  8
1
100
AcDbText
 10
4536.96950341311
 20
1072.77370235771
 30
0.0
 40
7.0
  1
Piece Name: FLY-EXT
100
AcDbText
  0
TEXT
  5
383
  8
1
100
AcDbText
 10
4536.96950341311
 20
1086.77370235771
 30
0.0
 40
7.0
  1
Quantity: 1,0
100
AcDbText
  0
TEXT
  5
384
  8
1
100
AcDbText
 10
4536.96950341311
 20
1093.77370235771
 30
0.0
 40
7.0
  1
Material: SHEL
100
AcDbText
  0
POLYLINE
  5
385
  8
1
100
AcDb2dPolyline
 66
     1
 10
0.0
 20
0.0
 30
0.0
 70
     1
  0
VERTEX
  5
386
  8
1
100
AcDbVertex
100
AcDb2dVertex
 10
4660.74201113892
 20
1017.097
 30
0.0
 70
     0
 50
0.0
  0
VERTEX
  5
387
  8
1
100
AcDbVertex
100
AcDb2dVertex
 10
4436.62000643921
 20
1017.09711444092
 30
0.0
 70
     0
 50
0.0
  0
VERTEX
  5
388
  8
1
100
AcDbVertex
100
AcDb2dVertex
 10
4432.76052783246
 20
1017.0001043969
 30
0.0
 70
     0
 50
0.0
  0
VERTEX
  5
389
  8
1
100
AcDbVertex
100
AcDb2dVertex
 10
4428.5289374096
 20
1016.87150151718
 30
0.0
 70
     0
 50
0.0
  0
VERTEX
  5
38A
  8
1
100
AcDbVertex
100
AcDb2dVertex
 10
4424.25179784209
 20
1016.95512437319
 30
0.0
 70
     0
 50
0.0
  0
VERTEX
  5
38B
  8
1
100
AcDbVertex
100
AcDb2dVertex
 10
4420.25567180137
 20
1017.49479153633
 30
0.0
 70
     0
 50
0.0
  0
VERTEX
  5
38C
  8
1
100
AcDbVertex
100
AcDb2dVertex
 10
4418.46503968839
 20
1018.01183503665
 30
0.0
 70
     0
 50
0.0
  0
VERTEX
  5
38D
  8
1
100
AcDbVertex
100
AcDb2dVertex
 10
4416.8671219589
 20
1018.73432157804
 30
0.0
 70
     0
 50
0.0
  0
VERTEX
  5
38E
  8
1
100
AcDbVertex
100
AcDb2dVertex
 10
4415.50273894683
 20
1019.69272848192
 30
0.0
 70
     0
 50
0.0
  0
VERTEX
  5
38F
  8
1
100
AcDbVertex
100
AcDb2dVertex
 10
4414.41271098612
 20
1020.91753306972
 30
0.0
 70
     0
 50
0.0
  0
VERTEX
  5
390
  8
1
100
AcDbVertex
100
AcDb2dVertex
 10
4413.63785841069
 20
1022.43921266288
 30
0.0
 70
     0
 50
0.0
  0
VERTEX
  5
391
  8
1
100
AcDbVertex
100
AcDb2dVertex
 10
4413.21900155448
 20
1024.28824458281
 30
0.0
 70
     0
 50
0.0
  0
VERTEX
  5
392
  8
1
100
AcDbVertex
100
AcDb2dVertex
 10
4413.19696075143
 20
1026.49510615095
 30
0.0
 70
     0
 50
0.0
  0
VERTEX
  5
393
  8
1
100
AcDbVertex
100
AcDb2dVertex
 10
4413.61255633545
 20
1029.09027468872
 30
0.0
 70
     0
 50
0.0
  0
VERTEX
  5
394
  8
1
100
AcDbVertex
100
AcDb2dVertex
 10
4414.21159119557
 20
1031.1843591588
 30
0.0
 70
     0
 50
0.0
  0
VERTEX
  5
395
  8
1
100
AcDbVertex
100
AcDb2dVertex
 10
4414.96350596219
 20
1033.23349814988
 30
0.0
 70
     0
 50
0.0
  0
VERTEX
  5
396
  8
1
100
AcDbVertex
100
AcDb2dVertex
 10
4416.5590634393
 20
1037.30480884463
 30
0.0
 70
     0
 50
0.0
  0
VERTEX
  5
397
  8
1
100
AcDbVertex
100
AcDb2dVertex
 10
4448.97706973267
 20
1128.67590319824
 30
0.0
 70
     0
 50
0.0
  0
VERTEX
  5
398
  8
1
100
AcDbVertex
100
AcDb2dVertex
 10
4660.7420460748
 20
1128.67563938052
 30
0.0
 70
     0
 50
0.0
  0
SEQEND
  5
399
  8
0
  0
POINT
  5
39A
  8
2
 10
4660.74201113892
 20
1017.097
 30
0.0
  0
POINT
  5
39B
  8
2
 10
4436.62000643921
 20
1017.09711444092
 30
0.0
  0
POINT
  5
39C
  8
3
 10
4432.76052783246
 20
1017.0001043969
 30
0.0
  0
POINT
  5
39D
  8
3
 10
4428.5289374096
 20
1016.87150151718
 30
0.0
  0
POINT
  5
39E
  8
3
 10
4424.25179784209
 20
1016.95512437319
 30
0.0
  0
POINT
  5
39F
  8
3
 10
4420.25567180137
 20
1017.49479153633
 30
0.0
  0
POINT
  5
3A0
  8
3
 10
4418.46503968839
 20
1018.01183503665
 30
0.0
  0
POINT
  5
3A1
  8
3
 10
4416.8671219589
 20
1018.73432157804
 30
0.0
  0
POINT
  5
3A2
  8
3
 10
4415.50273894683
 20
1019.69272848192
 30
0.0
  0
POINT
  5
3A3
  8
3
 10
4414.41271098612
 20
1020.91753306972
 30
0.0
  0
POINT
  5
3A4
  8
3
 10
4413.63785841069
 20
1022.43921266288
 30
0.0
  0
POINT
  5
3A5
  8
3
 10
4413.21900155448
 20
1024.28824458281
 30
0.0
  0
POINT
  5
3A6
  8
3
 10
4413.19696075143
 20
1026.49510615095
 30
0.0
  0
POINT
  5
3A7
  8
2
 10
4413.61255633545
 20
1029.09027468872
 30
0.0
  0
POINT
  5
3A8
  8
3
 10
4414.21159119557
 20
1031.1843591588
 30
0.0
  0
POINT
  5
3A9
  8
3
 10
4414.96350596219
 20
1033.23349814988
 30
0.0
  0
POINT
  5
3AA
  8
2
 10
4416.5590634393
 20
1037.30480884463
 30
0.0
  0
POINT
  5
3AB
  8
2
 10
4448.97706973267
 20
1128.67590319824
 30
0.0
  0
POINT
  5
3AC
  8
2
 10
4660.7420460748
 20
1128.67563938052
 30
0.0
  0
ENDBLK
  5
37F
  8
1
  0
BLOCK
  8
0
  2
*MODEL_SPACE
 70
     0
 10
0.0
 20
0.0
 30
0.0
  3
*MODEL_SPACE
  1

  0
ENDBLK
  5
3AE
  8
0
  0
BLOCK
  8
0
  2
*PAPER_SPACE
 70
     0
 10
0.0
 20
0.0
 30
0.0
  3
*PAPER_SPACE
  1

  0
ENDBLK
  5
3B0
  8
0
  0
ENDSEC
  0
SECTION
  2
ENTITIES
  0
INSERT
  5
3B1
  8
1
  2
0
 10
0.0
 20
0.0
 30
0.0
  0
INSERT
  5
3B3
  8
1
  2
1
 10
0.0
 20
0.0
 30
0.0
  0
INSERT
  5
3B5
  8
1
  2
2
 10
0.0
 20
0.0
 30
0.0
  0
INSERT
  5
3B7
  8
1
  2
3
 10
0.0
 20
0.0
 30
0.0
  0
INSERT
  5
3B9
  8
1
  2
4
 10
0.0
 20
0.0
 30
0.0
  0
INSERT
  5
3BB
  8
1
  2
5
 10
0.0
 20
0.0
 30
0.0
  0
INSERT
  5
3BD
  8
1
  2
6
 10
0.0
 20
0.0
 30
0.0
  0
INSERT
  5
3BF
  8
1
  2
7
 10
0.0
 20
0.0
 30
0.0
  0
INSERT
  5
3C1
  8
1
  2
8
 10
0.0
 20
0.0
 30
0.0
  0
INSERT
  5
3C3
  8
1
  2
9
 10
0.0
 20
0.0
 30
0.0
  0
INSERT
  5
3C5
  8
1
  2
10
 10
0.0
 20
0.0
 30
0.0
  0
INSERT
  5
3C7
  8
1
  2
11
 10
0.0
 20
0.0
 30
0.0
  0
TEXT
  5
3C9
  8
1
100
AcDbText
 10
0.0
 20
0.0
 30
0.0
 40
7.0
  1
Units: METRIC
100
AcDbText
  0
TEXT
  5
3CA
  8
1
100
AcDbText
 10
0.0
 20
0.0
 30
0.0
 40
7.0
  1
Creation Date: 1/9/2026
100
AcDbText
  0
TEXT
  5
3CB
  8
1
100
AcDbText
 10
0.0
 20
0.0
 30
0.0
 40
7.0
  1
Creation Time: 3:40 PM
100
AcDbText
  0
TEXT
  5
3CC
  8
1
100
AcDbText
 10
0.0
 20
0.0
 30
0.0
 40
7.0
  1
Author: Morgan Tecnica
100
AcDbText
  0
TEXT
  5
3CD
  8
1
100
AcDbText
 10
0.0
 20
0.0
 30
0.0
 40
7.0
  1
Version: 2Design - 2.12.0.0 - XENON
100
AcDbText
  0
TEXT
  5
3CE
  8
1
100
AcDbText
 10
0.0
 20
0.0
 30
0.0
 40
7.0
  1
SAMPLE SIZE: 30
100
AcDbText
  0
ENDSEC
  0
EOF
