  0
SECTION
  2
HEADER
  9
$ACADVER
  1
AC1009
  9
$INSBASE
 10
0.0
 20
0.0
 30
0.0
  9
$EXTMIN
 10
0.0
 20
0.0
 30
0.0
  9
$EXTMAX
 10
5102.68798729676
 20
1346.91308751138
 30
0.0
  9
$LIMMIN
 10
0.0
 20
0.0
  9
$LIMMAX
 10
12.0
 20
9.0
  9
$ORTHOMODE
 70
     0
  9
$REGENMODE
 70
     1
  9
$FILLMODE
 70
     1
  9
$QTEXTMODE
 70
     0
  9
$MIRRTEXT
 70
     0
  9
$DRAGMODE
 70
     2
  9
$LTSCALE
 40
1.0
  9
$OSMODE
 70
    37
  9
$ATTMODE
 70
     1
  9
$TEXTSIZE
 40
0.2
  9
$TRACEWID
 40
0.05
  9
$TEXTSTYLE
  7
STANDARD
  9
$CLAYER
  8
0
  9
$CELTYPE
  6
BYLAYER
  9
$CECOLOR
 62
   256
  9
$DIMSCALE
 40
1.0
  9
$DIMASZ
 40
0.18
  9
$DIMEXO
 40
0.0625
  9
$DIMDLI
 40
0.38
  9
$DIMRND
 40
0.0
  9
$DIMDLE
 40
0.0
  9
$DIMEXE
 40
0.18
  9
$DIMTP
 40
0.0
  9
$DIMTM
 40
0.0
  9
$DIMTXT
 40
0.18
  9
$DIMCEN
 40
0.09
  9
$DIMTSZ
 40
0.0
  9
$DIMTOL
 70
     0
  9
$DIMLIM
 70
     0
  9
$DIMTIH
 70
     1
  9
$DIMTOH
 70
     1
  9
$DIMSE1
 70
     0
  9
$DIMSE2
 70
     0
  9
$DIMTAD
 70
     0
  9
$DIMZIN
 70
     0
  9
$DIMBLK
  1

  9
$DIMASO
 70
     1
  9
$DIMSHO
 70
     1
  9
$DIMPOST
  1

  9
$DIMAPOST
  1

  9
$DIMALT
 70
     0
  9
$DIMALTD
 70
     2
  9
$DIMALTF
 40
25.4
  9
$DIMLFAC
 40
1.0
  9
$DIMTOFL
 70
     0
  9
$DIMTVP
 40
0.0
  9
$DIMTIX
 70
     0
  9
$DIMSOXD
 70
     0
  9
$DIMSAH
 70
     0
  9
$DIMBLK1
  1

  9
$DIMBLK2
  1

  9
$DIMSTYLE
  2
STANDARD
  9
$DIMCLRD
 70
     0
  9
$DIMCLRE
 70
     0
  9
$DIMCLRT
 70
     0
  9
$DIMTFAC
 40
1.0
  9
$DIMGAP
 40
0.09
  9
$LUNITS
 70
     2
  9
$LUPREC
 70
     4
  9
$SKETCHINC
 40
0.1
  9
$FILLETRAD
 40
0.0
  9
$AUNITS
 70
     0
  9
$AUPREC
 70
     0
  9
$MENU
  1
.
  9
$ELEVATION
 40
0.0
  9
$PELEVATION
 40
0.0
  9
$THICKNESS
 40
0.0
  9
$LIMCHECK
 70
     0
  9
$BLIPMODE
 70
     0
  9
$CHAMFERA
 40
0.0
  9
$CHAMFERB
 40
0.0
  9
$SKPOLY
 70
     0
  9
$TDCREATE
 40
2461050.65251732
  9
$TDUPDATE
 40
2461050.65251735
  9
$TDINDWG
 40
0.000000034708333
  9
$TDUSRTIMER
 40
0.000000034708333
  9
$USRTIMER
 70
     1
  9
$ANGBASE
 50
0.0
  9
$ANGDIR
 70
     0
  9
$PDMODE
 70
     0
  9
$PDSIZE
 40
0.0
  9
$PLINEWID
 40
0.0
  9
$COORDS
 70
     1
  9
$SPLFRAME
 70
     0
  9
$SPLINETYPE
 70
     6
  9
$SPLINESEGS
 70
     8
  9
$ATTDIA
 70
     1
  9
$ATTREQ
 70
     1
  9
$HANDLING
 70
     1
  9
$HANDSEED
  5
3DB
  9
$SURFTAB1
 70
     6
  9
$SURFTAB2
 70
     6
  9
$SURFTYPE
 70
     6
  9
$SURFU
 70
     6
  9
$SURFV
 70
     6
  9
$UCSNAME
  2

  9
$UCSORG
 10
0.0
 20
0.0
 30
0.0
  9
$UCSXDIR
 10
1.0
 20
0.0
 30
0.0
  9
$UCSYDIR
 10
0.0
 20
1.0
 30
0.0
  9
$PUCSNAME
  2

  9
$PUCSORG
 10
0.0
 20
0.0
 30
0.0
  9
$PUCSXDIR
 10
1.0
 20
0.0
 30
0.0
  9
$PUCSYDIR
 10
0.0
 20
1.0
 30
0.0
  9
$USERI1
 70
     0
  9
$USERI2
 70
     0
  9
$USERI3
 70
     0
  9
$USERI4
 70
     0
  9
$USERI5
 70
     0
  9
$USERR1
 40
0.0
  9
$USERR2
 40
0.0
  9
$USERR3
 40
0.0
  9
$USERR4
 40
0.0
  9
$USERR5
 40
0.0
  9
$WORLDVIEW
 70
     1
  9
$SHADEDGE
 70
     3
  9
$SHADEDIF
 70
    70
  9
$TILEMODE
 70
     1
  9
$MAXACTVP
 70
    64
  9
$PLIMCHECK
 70
     0
  9
$PEXTMIN
 10
100000000000000000000.0
 20
100000000000000000000.0
 30
100000000000000000000.0
  9
$PEXTMAX
 10
-100000000000000000000.0
 20
-100000000000000000000.0
 30
-100000000000000000000.0
  9
$PLIMMIN
 10
0.0
 20
0.0
  9
$PLIMMAX
 10
12.0
 20
9.0
  9
$UNITMODE
 70
     0
  9
$VISRETAIN
 70
     1
  9
$PLINEGEN
 70
     0
  9
$PSLTSCALE
 70
     1
  0
ENDSEC
  0
SECTION
  2
TABLES
  0
TABLE
  2
VPORT
  5
1
 70
     1
  0
VPORT
  5
2
100
AcDbSymbolTableRecord
  2
*ACTIVE
 70
     0
 10
0.0
 20
0.0
 11
1.0
 21
1.0
 12
0.0
 22
0.0
 13
0.0
 23
0.0
 14
1.0
 24
1.0
 15
1.0
 25
1.0
 16
0.0
 26
0.0
 36
1.0
 17
0.0
 27
0.0
 37
0.0
 40
1.0
 41
1.0
 42
50.0
 43
0.0
 44
0.0
 50
0.0
 51
0.0
 71
     0
 72
  1000
 73
     1
 74
     3
 75
     0
 76
     0
 77
     0
 78
     0
  0
ENDTAB
  0
TABLE
  2
LTYPE
  5
3
 70
     3
  0
LTYPE
  5
6
100
AcDbSymbolTableRecord
  2
BYBLOCK
 70
     0
  3

 72
    65
 73
     0
 40
0.0
  0
LTYPE
  5
4
100
AcDbSymbolTableRecord
  2
BYLAYER
 70
     0
  3

 72
    65
 73
     0
 40
0.0
  0
LTYPE
  5
5
100
AcDbSymbolTableRecord
  2
CONTINUOUS
 70
     0
  3

 72
    65
 73
     0
 40
0.0
  0
ENDTAB
  0
TABLE
  2
LAYER
  5
7
 70
     5
  0
LAYER
  5
8
100
AcDbSymbolTableRecord
  2
0
 70
     0
 62
     7
  6
CONTINUOUS
  0
LAYER
  5
9
100
AcDbSymbolTableRecord
  2
1
 70
     0
 62
     7
  6
CONTINUOUS
  0
LAYER
  5
C
100
AcDbSymbolTableRecord
  2
11
 70
     0
 62
     7
  6
CONTINUOUS
  0
LAYER
  5
A
100
AcDbSymbolTableRecord
  2
2
 70
     0
 62
     7
  6
CONTINUOUS
  0
LAYER
  5
B
100
AcDbSymbolTableRecord
  2
3
 70
     0
 62
     7
  6
CONTINUOUS
  0
ENDTAB
  0
TABLE
  2
STYLE
  5
D
 70
     2
  0
STYLE
  5
F
100
AcDbSymbolTableRecord
  2
ANNOTATIVE
 70
     0
 40
0.0
 41
1.0
 50
0.0
 71
     0
 42
0.2
  3
txt
  4

  0
STYLE
  5
E
100
AcDbSymbolTableRecord
  2
STANDARD
 70
     0
 40
0.0
 41
1.0
 50
0.0
 71
     0
 42
0.2
  3
txt
  4

  0
ENDTAB
  0
TABLE
  2
VIEW
  5
10
 70
     0
  0
ENDTAB
  0
TABLE
  2
UCS
  5
11
 70
     0
  0
ENDTAB
  0
TABLE
  2
APPID
  5
12
 70
     4
  0
APPID
  5
13
100
AcDbSymbolTableRecord
  2
ACAD
 70
     0
  0
APPID
  5
16
100
AcDbSymbolTableRecord
  2
ACAD_MLEADERVER
 70
     0
  0
APPID
  5
15
100
AcDbSymbolTableRecord
  2
ACAD_NAV_VCDISPLAY
 70
     0
  0
APPID
  5
14
100
AcDbSymbolTableRecord
  2
ACADANNOTATIVE
 70
     0
  0
ENDTAB
  0
TABLE
  2
DIMSTYLE
  5
17
 70
     2
  0
DIMSTYLE
105
19
100
AcDbSymbolTableRecord
  2
ANNOTATIVE
 70
     0
  3

  4

  5

  6

  7

 40
1.0
 41
0.18
 42
0.0625
 43
0.38
 44
0.18
 45
0.0
 46
0.0
 47
0.0
 48
0.0
 71
     0
 72
     0
 73
     1
 74
     1
 75
     0
 76
     0
 77
     0
 78
     0
140
0.18
141
0.09
142
0.0
143
25.4
144
1.0
145
0.0
146
1.0
147
0.09
170
     0
171
     2
172
     0
173
     0
174
     0
175
     0
176
     0
177
     0
178
     0
  0
DIMSTYLE
105
18
100
AcDbSymbolTableRecord
  2
STANDARD
 70
     0
  3

  4

  5

  6

  7

 40
1.0
 41
0.18
 42
0.0625
 43
0.38
 44
0.18
 45
0.0
 46
0.0
 47
0.0
 48
0.0
 71
     0
 72
     0
 73
     1
 74
     1
 75
     0
 76
     0
 77
     0
 78
     0
140
0.18
141
0.09
142
0.0
143
25.4
144
1.0
145
0.0
146
1.0
147
0.09
170
     0
171
     2
172
     0
173
     0
174
     0
175
     0
176
     0
177
     0
178
     0
  0
ENDTAB
  0
ENDSEC
  0
SECTION
  2
BLOCKS
  0
BLOCK
  8
1
  2
0
 70
    64
 10
0.0
 20
0.0
 30
0.0
  3
0
  1

  0
TEXT
  5
1E
  8
1
100
AcDbText
 10
3684.03219500665
 20
1114.49148322824
 30
0.0
 40
7.0
  1
Size: 32
100
AcDbText
  0
TEXT
  5
1F
  8
1
100
AcDbText
 10
3684.03219500665
 20
1121.49148322824
 30
0.0
 40
7.0
  1
Model: JEAN
100
AcDbText
  0
TEXT
  5
20
  8
1
100
AcDbText
 10
3684.03219500665
 20
1128.49148322824
 30
0.0
 40
7.0
  1
Piece Name: CN-PKT
100
AcDbText
  0
TEXT
  5
21
  8
1
100
AcDbText
 10
3684.03219500665
 20
1142.49148322824
 30
0.0
 40
7.0
  1
Quantity: 1,0
100
AcDbText
  0
TEXT
  5
22
  8
1
100
AcDbText
 10
3684.03219500665
 20
1149.49148322824
 30
0.0
 40
7.0
  1
Material: SHEL
100
AcDbText
  0
POLYLINE
  5
23
  8
1
100
AcDb2dPolyline
 66
     1
 10
0.0
 20
0.0
 30
0.0
 70
     1
  0
VERTEX
  5
24
  8
1
100
AcDbVertex
100
AcDb2dVertex
 10
3614.785205
 20
1188.99188670184
 30
0.0
 70
     0
 50
0.0
  0
VERTEX
  5
25
  8
1
100
AcDbVertex
100
AcDb2dVertex
 10
3731.05415286255
 20
1192.31824145648
 30
0.0
 70
     0
 50
0.0
  0
VERTEX
  5
26
  8
1
100
AcDbVertex
100
AcDb2dVertex
 10
3753.27918501329
 20
1176.3167802491
 30
0.0
 70
     0
 50
0.0
  0
VERTEX
  5
27
  8
1
100
AcDbVertex
100
AcDb2dVertex
 10
3753.27916955074
 20
1080.66792203391
 30
0.0
 70
     0
 50
0.0
  0
VERTEX
  5
28
  8
1
100
AcDbVertex
100
AcDb2dVertex
 10
3731.05424346161
 20
1064.664725
 30
0.0
 70
     0
 50
0.0
  0
VERTEX
  5
29
  8
1
100
AcDbVertex
100
AcDb2dVertex
 10
3636.42263555005
 20
1067.81537616058
 30
0.0
 70
     0
 50
0.0
  0
VERTEX
  5
2A
  8
1
100
AcDbVertex
100
AcDb2dVertex
 10
3632.05015914943
 20
1080.66090812468
 30
0.0
 70
     0
 50
0.0
  0
VERTEX
  5
2B
  8
1
100
AcDbVertex
100
AcDb2dVertex
 10
3628.15181526602
 20
1093.46188800029
 30
0.0
 70
     0
 50
0.0
  0
VERTEX
  5
2C
  8
1
100
AcDbVertex
100
AcDb2dVertex
 10
3625.27534403628
 20
1102.78545129396
 30
0.0
 70
     0
 50
0.0
  0
VERTEX
  5
2D
  8
1
100
AcDbVertex
100
AcDb2dVertex
 10
3623.23663298572
 20
1109.54805481751
 30
0.0
 70
     0
 50
0.0
  0
VERTEX
  5
2E
  8
1
100
AcDbVertex
100
AcDb2dVertex
 10
3621.85156963988
 20
1114.66615538279
 30
0.0
 70
     0
 50
0.0
  0
VERTEX
  5
2F
  8
1
100
AcDbVertex
100
AcDb2dVertex
 10
3620.93604152427
 20
1119.05620980163
 30
0.0
 70
     0
 50
0.0
  0
VERTEX
  5
30
  8
1
100
AcDbVertex
100
AcDb2dVertex
 10
3620.30593616442
 20
1123.63467488589
 30
0.0
 70
     0
 50
0.0
  0
VERTEX
  5
31
  8
1
100
AcDbVertex
100
AcDb2dVertex
 10
3619.77714108584
 20
1129.31800744739
 30
0.0
 70
     0
 50
0.0
  0
VERTEX
  5
32
  8
1
100
AcDbVertex
100
AcDb2dVertex
 10
3619.16554381407
 20
1137.02266429797
 30
0.0
 70
     0
 50
0.0
  0
VERTEX
  5
33
  8
1
100
AcDbVertex
100
AcDb2dVertex
 10
3617.8451475157
 20
1152.66756774194
 30
0.0
 70
     0
 50
0.0
  0
VERTEX
  5
34
  8
1
100
AcDbVertex
100
AcDb2dVertex
 10
3616.84323769133
 20
1163.33983117337
 30
0.0
 70
     0
 50
0.0
  0
VERTEX
  5
35
  8
1
100
AcDbVertex
100
AcDb2dVertex
 10
3615.53290905017
 20
1176.31322668292
 30
0.0
 70
     0
 50
0.0
  0
SEQEND
  5
36
  8
0
  0
POINT
  5
37
  8
2
 10
3614.785205
 20
1188.99188670184
 30
0.0
  0
POINT
  5
38
  8
2
 10
3731.05415286255
 20
1192.31824145648
 30
0.0
  0
POINT
  5
39
  8
2
 10
3753.27918501329
 20
1176.3167802491
 30
0.0
  0
POINT
  5
3A
  8
2
 10
3753.27916955074
 20
1080.66792203391
 30
0.0
  0
POINT
  5
3B
  8
2
 10
3731.05424346161
 20
1064.664725
 30
0.0
  0
POINT
  5
3C
  8
2
 10
3636.42263555005
 20
1067.81537616058
 30
0.0
  0
POINT
  5
3D
  8
2
 10
3632.05015914943
 20
1080.66090812468
 30
0.0
  0
POINT
  5
3E
  8
3
 10
3628.15181526602
 20
1093.46188800029
 30
0.0
  0
POINT
  5
3F
  8
3
 10
3625.27534403628
 20
1102.78545129396
 30
0.0
  0
POINT
  5
40
  8
3
 10
3623.23663298572
 20
1109.54805481751
 30
0.0
  0
POINT
  5
41
  8
3
 10
3621.85156963988
 20
1114.66615538279
 30
0.0
  0
POINT
  5
42
  8
3
 10
3620.93604152427
 20
1119.05620980163
 30
0.0
  0
POINT
  5
43
  8
3
 10
3620.30593616442
 20
1123.63467488589
 30
0.0
  0
POINT
  5
44
  8
3
 10
3619.77714108584
 20
1129.31800744739
 30
0.0
  0
POINT
  5
45
  8
2
 10
3619.16554381407
 20
1137.02266429797
 30
0.0
  0
POINT
  5
46
  8
3
 10
3617.8451475157
 20
1152.66756774194
 30
0.0
  0
POINT
  5
47
  8
3
 10
3616.84323769133
 20
1163.33983117337
 30
0.0
  0
POINT
  5
48
  8
2
 10
3615.53290905017
 20
1176.31322668292
 30
0.0
  0
LINE
  5
49
  8
11
 10
3731.05415286255
 20
1192.31824145648
 30
0.0
 11
3731.46826333471
 21
1193.86372277854
 31
0.0
  0
LINE
  5
4A
  8
11
 10
3731.05424346161
 20
1064.664725
 30
0.0
 11
3731.05424407319
 21
1063.064725
 31
0.0
  0
ENDBLK
  5
1D
  8
1
  0
BLOCK
  8
1
  2
1
 70
    64
 10
0.0
 20
0.0
 30
0.0
  3
1
  1

  0
TEXT
  5
4D
  8
1
100
AcDbText
 10
4755.36864190058
 20
159.132331038235
 30
0.0
 40
7.0
  1
Size: 32
100
AcDbText
  0
TEXT
  5
4E
  8
1
100
AcDbText
 10
4755.36864190058
 20
166.132331038235
 30
0.0
 40
7.0
  1
Model: JEAN
100
AcDbText
  0
TEXT
  5
4F
  8
1
100
AcDbText
 10
4755.36864190058
 20
173.132331038235
 30
0.0
 40
7.0
  1
Piece Name: BK-YK
100
AcDbText
  0
TEXT
  5
50
  8
1
100
AcDbText
 10
4755.36864190058
 20
187.132331038235
 30
0.0
 40
7.0
  1
Quantity: 1,1
100
AcDbText
  0
TEXT
  5
51
  8
1
100
AcDbText
 10
4755.36864190058
 20
194.132331038235
 30
0.0
 40
7.0
  1
Material: SHEL
100
AcDbText
  0
POLYLINE
  5
52
  8
1
100
AcDb2dPolyline
 66
     1
 10
0.0
 20
0.0
 30
0.0
 70
     1
  0
VERTEX
  5
53
  8
1
100
AcDbVertex
100
AcDb2dVertex
 10
4699.469324
 20
25.8495416409231
 30
0.0
 70
     0
 50
0.0
  0
VERTEX
  5
54
  8
1
100
AcDbVertex
100
AcDb2dVertex
 10
4721.71901130566
 20
331.47636107647
 30
0.0
 70
     0
 50
0.0
  0
VERTEX
  5
55
  8
1
100
AcDbVertex
100
AcDb2dVertex
 10
4741.97989318733
 20
322.549866032665
 30
0.0
 70
     0
 50
0.0
  0
VERTEX
  5
56
  8
1
100
AcDbVertex
100
AcDb2dVertex
 10
4755.45858862457
 20
316.64843696431
 30
0.0
 70
     0
 50
0.0
  0
VERTEX
  5
57
  8
1
100
AcDbVertex
100
AcDb2dVertex
 10
4764.25086750822
 20
312.79617954285
 30
0.0
 70
     0
 50
0.0
  0
VERTEX
  5
58
  8
1
100
AcDbVertex
100
AcDb2dVertex
 10
4770.45249972908
 20
310.01719943973
 30
0.0
 70
     0
 50
0.0
  0
VERTEX
  5
59
  8
1
100
AcDbVertex
100
AcDb2dVertex
 10
4776.15925517799
 20
307.335602326398
 30
0.0
 70
     0
 50
0.0
  0
VERTEX
  5
5A
  8
1
100
AcDbVertex
100
AcDb2dVertex
 10
4783.46690374576
 20
303.775493874298
 30
0.0
 70
     0
 50
0.0
  0
VERTEX
  5
5B
  8
1
100
AcDbVertex
100
AcDb2dVertex
 10
4811.26795980115
 20
290.116165639577
 30
0.0
 70
     0
 50
0.0
  0
VERTEX
  5
5C
  8
1
100
AcDbVertex
100
AcDb2dVertex
 10
4806.92545165475
 20
274.562254739686
 30
0.0
 70
     0
 50
0.0
  0
VERTEX
  5
5D
  8
1
100
AcDbVertex
100
AcDb2dVertex
 10
4802.48266853113
 20
259.033657796197
 30
0.0
 70
     0
 50
0.0
  0
VERTEX
  5
5E
  8
1
100
AcDbVertex
100
AcDb2dVertex
 10
4793.53693729755
 20
227.99165228306
 30
0.0
 70
     0
 50
0.0
  0
VERTEX
  5
5F
  8
1
100
AcDbVertex
100
AcDb2dVertex
 10
4789.15431916026
 20
212.44786696573
 30
0.0
 70
     0
 50
0.0
  0
VERTEX
  5
60
  8
1
100
AcDbVertex
100
AcDb2dVertex
 10
4787.01189414301
 20
204.663633753318
 30
0.0
 70
     0
 50
0.0
  0
VERTEX
  5
61
  8
1
100
AcDbVertex
100
AcDb2dVertex
 10
4784.91208599107
 20
196.868642109436
 30
0.0
 70
     0
 50
0.0
  0
VERTEX
  5
62
  8
1
100
AcDbVertex
100
AcDb2dVertex
 10
4782.86241532774
 20
189.060993487352
 30
0.0
 70
     0
 50
0.0
  0
VERTEX
  5
63
  8
1
100
AcDbVertex
100
AcDb2dVertex
 10
4780.87040277631
 20
181.238789340337
 30
0.0
 70
     0
 50
0.0
  0
VERTEX
  5
64
  8
1
100
AcDbVertex
100
AcDb2dVertex
 10
4778.94356896007
 20
173.400131121661
 30
0.0
 70
     0
 50
0.0
  0
VERTEX
  5
65
  8
1
100
AcDbVertex
100
AcDb2dVertex
 10
4777.08943450232
 20
165.543120284593
 30
0.0
 70
     0
 50
0.0
  0
VERTEX
  5
66
  8
1
100
AcDbVertex
100
AcDb2dVertex
 10
4776.2000585639
 20
161.456970851151
 30
0.0
 70
     0
 50
0.0
  0
VERTEX
  5
67
  8
1
100
AcDbVertex
100
AcDb2dVertex
 10
4775.0547028004
 20
155.82847352561
 30
0.0
 70
     0
 50
0.0
  0
VERTEX
  5
68
  8
1
100
AcDbVertex
100
AcDb2dVertex
 10
4772.11792011508
 20
140.656616046105
 30
0.0
 70
     0
 50
0.0
  0
VERTEX
  5
69
  8
1
100
AcDbVertex
100
AcDb2dVertex
 10
4768.52282308027
 20
121.451909541827
 30
0.0
 70
     0
 50
0.0
  0
VERTEX
  5
6A
  8
1
100
AcDbVertex
100
AcDb2dVertex
 10
4764.51314832989
 20
99.6387157085229
 30
0.0
 70
     0
 50
0.0
  0
VERTEX
  5
6B
  8
1
100
AcDbVertex
100
AcDb2dVertex
 10
4760.33263249784
 20
76.6413962419406
 30
0.0
 70
     0
 50
0.0
  0
VERTEX
  5
6C
  8
1
100
AcDbVertex
100
AcDb2dVertex
 10
4756.22501221805
 20
53.8843128378275
 30
0.0
 70
     0
 50
0.0
  0
VERTEX
  5
6D
  8
1
100
AcDbVertex
100
AcDb2dVertex
 10
4749.20340485088
 20
14.788301
 30
0.0
 70
     0
 50
0.0
  0
VERTEX
  5
6E
  8
1
100
AcDbVertex
100
AcDb2dVertex
 10
4705.16222561133
 20
18.2363977200249
 30
0.0
 70
     0
 50
0.0
  0
SEQEND
  5
6F
  8
0
  0
POINT
  5
70
  8
2
 10
4699.469324
 20
25.8495416409231
 30
0.0
  0
POINT
  5
71
  8
2
 10
4721.71901130566
 20
331.47636107647
 30
0.0
  0
POINT
  5
72
  8
3
 10
4741.97989318733
 20
322.549866032665
 30
0.0
  0
POINT
  5
73
  8
3
 10
4755.45858862457
 20
316.64843696431
 30
0.0
  0
POINT
  5
74
  8
3
 10
4764.25086750822
 20
312.79617954285
 30
0.0
  0
POINT
  5
75
  8
3
 10
4770.45249972908
 20
310.01719943973
 30
0.0
  0
POINT
  5
76
  8
3
 10
4776.15925517799
 20
307.335602326398
 30
0.0
  0
POINT
  5
77
  8
3
 10
4783.46690374576
 20
303.775493874298
 30
0.0
  0
POINT
  5
78
  8
2
 10
4811.26795980115
 20
290.116165639577
 30
0.0
  0
POINT
  5
79
  8
3
 10
4806.92545165475
 20
274.562254739686
 30
0.0
  0
POINT
  5
7A
  8
3
 10
4802.48266853113
 20
259.033657796197
 30
0.0
  0
POINT
  5
7B
  8
3
 10
4793.53693729755
 20
227.99165228306
 30
0.0
  0
POINT
  5
7C
  8
3
 10
4789.15431916026
 20
212.44786696573
 30
0.0
  0
POINT
  5
7D
  8
3
 10
4787.01189414301
 20
204.663633753318
 30
0.0
  0
POINT
  5
7E
  8
3
 10
4784.91208599107
 20
196.868642109436
 30
0.0
  0
POINT
  5
7F
  8
3
 10
4782.86241532774
 20
189.060993487352
 30
0.0
  0
POINT
  5
80
  8
3
 10
4780.87040277631
 20
181.238789340337
 30
0.0
  0
POINT
  5
81
  8
3
 10
4778.94356896007
 20
173.400131121661
 30
0.0
  0
POINT
  5
82
  8
2
 10
4777.08943450232
 20
165.543120284593
 30
0.0
  0
POINT
  5
83
  8
3
 10
4776.2000585639
 20
161.456970851151
 30
0.0
  0
POINT
  5
84
  8
3
 10
4775.0547028004
 20
155.82847352561
 30
0.0
  0
POINT
  5
85
  8
3
 10
4772.11792011508
 20
140.656616046105
 30
0.0
  0
POINT
  5
86
  8
3
 10
4768.52282308027
 20
121.451909541827
 30
0.0
  0
POINT
  5
87
  8
3
 10
4764.51314832989
 20
99.6387157085229
 30
0.0
  0
POINT
  5
88
  8
3
 10
4760.33263249784
 20
76.6413962419406
 30
0.0
  0
POINT
  5
89
  8
3
 10
4756.22501221805
 20
53.8843128378275
 30
0.0
  0
POINT
  5
8A
  8
2
 10
4749.20340485088
 20
14.788301
 30
0.0
  0
POINT
  5
8B
  8
2
 10
4705.16222561133
 20
18.2363977200249
 30
0.0
  0
ENDBLK
  5
4C
  8
1
  0
BLOCK
  8
1
  2
2
 70
    64
 10
0.0
 20
0.0
 30
0.0
  3
2
  1

  0
TEXT
  5
8E
  8
1
100
AcDbText
 10
4120.71539617422
 20
688.575431706055
 30
0.0
 40
7.0
  1
Size: 32
100
AcDbText
  0
TEXT
  5
8F
  8
1
100
AcDbText
 10
4120.71539617422
 20
695.575431706055
 30
0.0
 40
7.0
  1
Model: JEAN
100
AcDbText
  0
TEXT
  5
90
  8
1
100
AcDbText
 10
4120.71539617422
 20
702.575431706055
 30
0.0
 40
7.0
  1
Piece Name: FT-30INSM
100
AcDbText
  0
TEXT
  5
91
  8
1
100
AcDbText
 10
4120.71539617422
 20
716.575431706055
 30
0.0
 40
7.0
  1
Quantity: 1,1
100
AcDbText
  0
TEXT
  5
92
  8
1
100
AcDbText
 10
4120.71539617422
 20
723.575431706055
 30
0.0
 40
7.0
  1
Material: SHEL
100
AcDbText
  0
POLYLINE
  5
93
  8
1
100
AcDb2dPolyline
 66
     1
 10
0.0
 20
0.0
 30
0.0
 70
     1
  0
VERTEX
  5
94
  8
1
100
AcDbVertex
100
AcDb2dVertex
 10
3581.113
 20
770.04126684375
 30
0.0
 70
     0
 50
0.0
  0
VERTEX
  5
95
  8
1
100
AcDbVertex
100
AcDb2dVertex
 10
3606.51308544922
 20
768.182100625
 30
0.0
 70
     0
 50
0.0
  0
VERTEX
  5
96
  8
1
100
AcDbVertex
100
AcDb2dVertex
 10
3891.52286796155
 20
789.044543359375
 30
0.0
 70
     0
 50
0.0
  0
VERTEX
  5
97
  8
1
100
AcDbVertex
100
AcDb2dVertex
 10
4045.21127694446
 20
800.379478044433
 30
0.0
 70
     0
 50
0.0
  0
VERTEX
  5
98
  8
1
100
AcDbVertex
100
AcDb2dVertex
 10
4080.86031856784
 20
806.914378910438
 30
0.0
 70
     0
 50
0.0
  0
VERTEX
  5
99
  8
1
100
AcDbVertex
100
AcDb2dVertex
 10
4104.30789249456
 20
811.195950705315
 30
0.0
 70
     0
 50
0.0
  0
VERTEX
  5
9A
  8
1
100
AcDbVertex
100
AcDb2dVertex
 10
4119.78512882968
 20
814.048219782571
 30
0.0
 70
     0
 50
0.0
  0
VERTEX
  5
9B
  8
1
100
AcDbVertex
100
AcDb2dVertex
 10
4131.52315767825
 20
816.295212495715
 30
0.0
 70
     0
 50
0.0
  0
VERTEX
  5
9C
  8
1
100
AcDbVertex
100
AcDb2dVertex
 10
4143.75310914533
 20
818.760955198257
 30
0.0
 70
     0
 50
0.0
  0
VERTEX
  5
9D
  8
1
100
AcDbVertex
100
AcDb2dVertex
 10
4160.70611333598
 20
822.269474243703
 30
0.0
 70
     0
 50
0.0
  0
VERTEX
  5
9E
  8
1
100
AcDbVertex
100
AcDb2dVertex
 10
4186.61330035526
 20
827.644795985562
 30
0.0
 70
     0
 50
0.0
  0
VERTEX
  5
9F
  8
1
100
AcDbVertex
100
AcDb2dVertex
 10
4225.70580030823
 20
835.710946777343
 30
0.0
 70
     0
 50
0.0
  0
VERTEX
  5
A0
  8
1
100
AcDbVertex
100
AcDb2dVertex
 10
4248.31142400213
 20
841.106257275265
 30
0.0
 70
     0
 50
0.0
  0
VERTEX
  5
A1
  8
1
100
AcDbVertex
100
AcDb2dVertex
 10
4263.31837883305
 20
844.649709538484
 30
0.0
 70
     0
 50
0.0
  0
VERTEX
  5
A2
  8
1
100
AcDbVertex
100
AcDb2dVertex
 10
4273.12559339322
 20
846.973679467843
 30
0.0
 70
     0
 50
0.0
  0
VERTEX
  5
A3
  8
1
100
AcDbVertex
100
AcDb2dVertex
 10
4280.13199627486
 20
848.710542964184
 30
0.0
 70
     0
 50
0.0
  0
VERTEX
  5
A4
  8
1
100
AcDbVertex
100
AcDb2dVertex
 10
4286.73651607018
 20
850.492675928351
 30
0.0
 70
     0
 50
0.0
  0
VERTEX
  5
A5
  8
1
100
AcDbVertex
100
AcDb2dVertex
 10
4295.33808137141
 20
852.952454261185
 30
0.0
 70
     0
 50
0.0
  0
VERTEX
  5
A6
  8
1
100
AcDbVertex
100
AcDb2dVertex
 10
4328.12806286047
 20
862.43445063623
 30
0.0
 70
     0
 50
0.0
  0
VERTEX
  5
A7
  8
1
100
AcDbVertex
100
AcDb2dVertex
 10
4391.35243442639
 20
881.458863412109
 30
0.0
 70
     0
 50
0.0
  0
VERTEX
  5
A8
  8
1
100
AcDbVertex
100
AcDb2dVertex
 10
4393.92060354774
 20
874.869101373372
 30
0.0
 70
     0
 50
0.0
  0
VERTEX
  5
A9
  8
1
100
AcDbVertex
100
AcDb2dVertex
 10
4396.48739891193
 20
868.280104169575
 30
0.0
 70
     0
 50
0.0
  0
VERTEX
  5
AA
  8
1
100
AcDbVertex
100
AcDb2dVertex
 10
4399.1648828281
 20
861.759052984385
 30
0.0
 70
     0
 50
0.0
  0
VERTEX
  5
AB
  8
1
100
AcDbVertex
100
AcDb2dVertex
 10
4402.06511760538
 20
855.373129001469
 30
0.0
 70
     0
 50
0.0
  0
VERTEX
  5
AC
  8
1
100
AcDbVertex
100
AcDb2dVertex
 10
4403.63378603853
 20
852.251833830759
 30
0.0
 70
     0
 50
0.0
  0
VERTEX
  5
AD
  8
1
100
AcDbVertex
100
AcDb2dVertex
 10
4405.30016555289
 20
849.189513404493
 30
0.0
 70
     0
 50
0.0
  0
VERTEX
  5
AE
  8
1
100
AcDbVertex
100
AcDb2dVertex
 10
4407.07826393709
 20
846.194565370628
 30
0.0
 70
     0
 50
0.0
  0
VERTEX
  5
AF
  8
1
100
AcDbVertex
100
AcDb2dVertex
 10
4408.98208897978
 20
843.275387377123
 30
0.0
 70
     0
 50
0.0
  0
VERTEX
  5
B0
  8
1
100
AcDbVertex
100
AcDb2dVertex
 10
4411.02564846959
 20
840.440377071937
 30
0.0
 70
     0
 50
0.0
  0
VERTEX
  5
B1
  8
1
100
AcDbVertex
100
AcDb2dVertex
 10
4413.22295019516
 20
837.697932103026
 30
0.0
 70
     0
 50
0.0
  0
VERTEX
  5
B2
  8
1
100
AcDbVertex
100
AcDb2dVertex
 10
4415.58800194515
 20
835.056450118351
 30
0.0
 70
     0
 50
0.0
  0
VERTEX
  5
B3
  8
1
100
AcDbVertex
100
AcDb2dVertex
 10
4418.13481150818
 20
832.524328765869
 30
0.0
 70
     0
 50
0.0
  0
VERTEX
  5
B4
  8
1
100
AcDbVertex
100
AcDb2dVertex
 10
4426.64856929651
 20
829.834480655224
 30
0.0
 70
     0
 50
0.0
  0
VERTEX
  5
B5
  8
1
100
AcDbVertex
100
AcDb2dVertex
 10
4430.66764368772
 20
828.740824312227
 30
0.0
 70
     0
 50
0.0
  0
VERTEX
  5
B6
  8
1
100
AcDbVertex
100
AcDb2dVertex
 10
4435.43993689096
 20
828.058592649237
 30
0.0
 70
     0
 50
0.0
  0
VERTEX
  5
B7
  8
1
100
AcDbVertex
100
AcDb2dVertex
 10
4446.21335111536
 20
826.603018578613
 30
0.0
 70
     0
 50
0.0
  0
VERTEX
  5
B8
  8
1
100
AcDbVertex
100
AcDb2dVertex
 10
4660.31779234845
 20
808.430127431457
 30
0.0
 70
     0
 50
0.0
  0
VERTEX
  5
B9
  8
1
100
AcDbVertex
100
AcDb2dVertex
 10
4659.3540691036
 20
794.982058017368
 30
0.0
 70
     0
 50
0.0
  0
VERTEX
  5
BA
  8
1
100
AcDbVertex
100
AcDb2dVertex
 10
4658.49838935635
 20
783.343128428349
 30
0.0
 70
     0
 50
0.0
  0
VERTEX
  5
BB
  8
1
100
AcDbVertex
100
AcDb2dVertex
 10
4657.08603704917
 20
764.78704440854
 30
0.0
 70
     0
 50
0.0
  0
VERTEX
  5
BC
  8
1
100
AcDbVertex
100
AcDb2dVertex
 10
4655.28149804562
 20
741.622466782949
 30
0.0
 70
     0
 50
0.0
  0
VERTEX
  5
BD
  8
1
100
AcDbVertex
100
AcDb2dVertex
 10
4654.78881812732
 20
734.191395909234
 30
0.0
 70
     0
 50
0.0
  0
VERTEX
  5
BE
  8
1
100
AcDbVertex
100
AcDb2dVertex
 10
4654.50220245002
 20
727.64608548295
 30
0.0
 70
     0
 50
0.0
  0
VERTEX
  5
BF
  8
1
100
AcDbVertex
100
AcDb2dVertex
 10
4654.37140440277
 20
720.575246870131
 30
0.0
 70
     0
 50
0.0
  0
VERTEX
  5
C0
  8
1
100
AcDbVertex
100
AcDb2dVertex
 10
4654.34617737459
 20
711.567591436809
 30
0.0
 70
     0
 50
0.0
  0
VERTEX
  5
C1
  8
1
100
AcDbVertex
100
AcDb2dVertex
 10
4654.38785638826
 20
694.927256499959
 30
0.0
 70
     0
 50
0.0
  0
VERTEX
  5
C2
  8
1
100
AcDbVertex
100
AcDb2dVertex
 10
4654.41458631897
 20
669.809682373046
 30
0.0
 70
     0
 50
0.0
  0
VERTEX
  5
C3
  8
1
100
AcDbVertex
100
AcDb2dVertex
 10
4639.44330351321
 20
669.504829723773
 30
0.0
 70
     0
 50
0.0
  0
VERTEX
  5
C4
  8
1
100
AcDbVertex
100
AcDb2dVertex
 10
4629.24854315582
 20
669.103507029364
 30
0.0
 70
     0
 50
0.0
  0
VERTEX
  5
C5
  8
1
100
AcDbVertex
100
AcDb2dVertex
 10
4624.84564590994
 20
668.806236488503
 30
0.0
 70
     0
 50
0.0
  0
VERTEX
  5
C6
  8
1
100
AcDbVertex
100
AcDb2dVertex
 10
4621.42831354171
 20
668.431460732361
 30
0.0
 70
     0
 50
0.0
  0
VERTEX
  5
C7
  8
1
100
AcDbVertex
100
AcDb2dVertex
 10
4617.4540166268
 20
667.957602776489
 30
0.0
 70
     0
 50
0.0
  0
VERTEX
  5
C8
  8
1
100
AcDbVertex
100
AcDb2dVertex
 10
4613.67955856739
 20
666.989268079837
 30
0.0
 70
     0
 50
0.0
  0
VERTEX
  5
C9
  8
1
100
AcDbVertex
100
AcDb2dVertex
 10
4610.08445817077
 20
665.55232075541
 30
0.0
 70
     0
 50
0.0
  0
VERTEX
  5
CA
  8
1
100
AcDbVertex
100
AcDb2dVertex
 10
4606.64823424425
 20
663.672624916215
 30
0.0
 70
     0
 50
0.0
  0
VERTEX
  5
CB
  8
1
100
AcDbVertex
100
AcDb2dVertex
 10
4603.35040559515
 20
661.376044675258
 30
0.0
 70
     0
 50
0.0
  0
VERTEX
  5
CC
  8
1
100
AcDbVertex
100
AcDb2dVertex
 10
4600.17049103076
 20
658.688444145545
 30
0.0
 70
     0
 50
0.0
  0
VERTEX
  5
CD
  8
1
100
AcDbVertex
100
AcDb2dVertex
 10
4597.0880093584
 20
655.635687440082
 30
0.0
 70
     0
 50
0.0
  0
VERTEX
  5
CE
  8
1
100
AcDbVertex
100
AcDb2dVertex
 10
4594.08247938538
 20
652.243638671875
 30
0.0
 70
     0
 50
0.0
  0
VERTEX
  5
CF
  8
1
100
AcDbVertex
100
AcDb2dVertex
 10
4591.5719914031
 20
646.426236456311
 30
0.0
 70
     0
 50
0.0
  0
VERTEX
  5
D0
  8
1
100
AcDbVertex
100
AcDb2dVertex
 10
4589.37659801673
 20
640.540527837545
 30
0.0
 70
     0
 50
0.0
  0
VERTEX
  5
D1
  8
1
100
AcDbVertex
100
AcDb2dVertex
 10
4587.46008245051
 20
634.581170907742
 30
0.0
 70
     0
 50
0.0
  0
VERTEX
  5
D2
  8
1
100
AcDbVertex
100
AcDb2dVertex
 10
4585.78622792866
 20
628.542823759067
 30
0.0
 70
     0
 50
0.0
  0
VERTEX
  5
D3
  8
1
100
AcDbVertex
100
AcDb2dVertex
 10
4584.26752648345
 20
622.148477854673
 30
0.0
 70
     0
 50
0.0
  0
VERTEX
  5
D4
  8
1
100
AcDbVertex
100
AcDb2dVertex
 10
4582.97654283147
 20
615.713972497178
 30
0.0
 70
     0
 50
0.0
  0
VERTEX
  5
D5
  8
1
100
AcDbVertex
100
AcDb2dVertex
 10
4581.89073590005
 20
609.243375267089
 30
0.0
 70
     0
 50
0.0
  0
VERTEX
  5
D6
  8
1
100
AcDbVertex
100
AcDb2dVertex
 10
4580.98756461652
 20
602.740753744911
 30
0.0
 70
     0
 50
0.0
  0
VERTEX
  5
D7
  8
1
100
AcDbVertex
100
AcDb2dVertex
 10
4580.2444879082
 20
596.210175511151
 30
0.0
 70
     0
 50
0.0
  0
VERTEX
  5
D8
  8
1
100
AcDbVertex
100
AcDb2dVertex
 10
4579.63896470243
 20
589.655708146313
 30
0.0
 70
     0
 50
0.0
  0
VERTEX
  5
D9
  8
1
100
AcDbVertex
100
AcDb2dVertex
 10
4579.14845392653
 20
583.081419230904
 30
0.0
 70
     0
 50
0.0
  0
VERTEX
  5
DA
  8
1
100
AcDbVertex
100
AcDb2dVertex
 10
4578.75041450785
 20
576.49137634543
 30
0.0
 70
     0
 50
0.0
  0
VERTEX
  5
DB
  8
1
100
AcDbVertex
100
AcDb2dVertex
 10
4578.4223053737
 20
569.889647070397
 30
0.0
 70
     0
 50
0.0
  0
VERTEX
  5
DC
  8
1
100
AcDbVertex
100
AcDb2dVertex
 10
4578.14158545142
 20
563.280298986311
 30
0.0
 70
     0
 50
0.0
  0
VERTEX
  5
DD
  8
1
100
AcDbVertex
100
AcDb2dVertex
 10
4577.63214895179
 20
550.055016713001
 30
0.0
 70
     0
 50
0.0
  0
VERTEX
  5
DE
  8
1
100
AcDbVertex
100
AcDb2dVertex
 10
4577.0417764276
 20
536.848070169549
 30
0.0
 70
     0
 50
0.0
  0
VERTEX
  5
DF
  8
1
100
AcDbVertex
100
AcDb2dVertex
 10
4576.65988647461
 20
530.261641747783
 30
0.0
 70
     0
 50
0.0
  0
VERTEX
  5
E0
  8
1
100
AcDbVertex
100
AcDb2dVertex
 10
4576.19013929749
 20
523.692
 30
0.0
 70
     0
 50
0.0
  0
VERTEX
  5
E1
  8
1
100
AcDbVertex
100
AcDb2dVertex
 10
4560.02464977628
 20
523.853097292987
 30
0.0
 70
     0
 50
0.0
  0
VERTEX
  5
E2
  8
1
100
AcDbVertex
100
AcDb2dVertex
 10
4543.85245329977
 20
523.988981895892
 30
0.0
 70
     0
 50
0.0
  0
VERTEX
  5
E3
  8
1
100
AcDbVertex
100
AcDb2dVertex
 10
4527.67605869419
 20
524.129020958813
 30
0.0
 70
     0
 50
0.0
  0
VERTEX
  5
E4
  8
1
100
AcDbVertex
100
AcDb2dVertex
 10
4511.49797478575
 20
524.302581631848
 30
0.0
 70
     0
 50
0.0
  0
VERTEX
  5
E5
  8
1
100
AcDbVertex
100
AcDb2dVertex
 10
4495.32071040067
 20
524.539031065093
 30
0.0
 70
     0
 50
0.0
  0
VERTEX
  5
E6
  8
1
100
AcDbVertex
100
AcDb2dVertex
 10
4479.14677436516
 20
524.867736408646
 30
0.0
 70
     0
 50
0.0
  0
VERTEX
  5
E7
  8
1
100
AcDbVertex
100
AcDb2dVertex
 10
4462.97867550545
 20
525.318064812603
 30
0.0
 70
     0
 50
0.0
  0
VERTEX
  5
E8
  8
1
100
AcDbVertex
100
AcDb2dVertex
 10
4454.89759902472
 20
525.598014896639
 30
0.0
 70
     0
 50
0.0
  0
VERTEX
  5
E9
  8
1
100
AcDbVertex
100
AcDb2dVertex
 10
4446.81892264777
 20
525.919383427062
 30
0.0
 70
     0
 50
0.0
  0
VERTEX
  5
EA
  8
1
100
AcDbVertex
100
AcDb2dVertex
 10
4330.29162100012
 20
535.355952273925
 30
0.0
 70
     0
 50
0.0
  0
VERTEX
  5
EB
  8
1
100
AcDbVertex
100
AcDb2dVertex
 10
4226.60226948938
 20
550.094175903808
 30
0.0
 70
     0
 50
0.0
  0
VERTEX
  5
EC
  8
1
100
AcDbVertex
100
AcDb2dVertex
 10
4186.55170781686
 20
556.468072328861
 30
0.0
 70
     0
 50
0.0
  0
VERTEX
  5
ED
  8
1
100
AcDbVertex
100
AcDb2dVertex
 10
4159.96587725884
 20
560.690784216267
 30
0.0
 70
     0
 50
0.0
  0
VERTEX
  5
EE
  8
1
100
AcDbVertex
100
AcDb2dVertex
 10
4130.20295325856
 20
565.436360566644
 30
0.0
 70
     0
 50
0.0
  0
VERTEX
  5
EF
  8
1
100
AcDbVertex
100
AcDb2dVertex
 10
4118.53313170245
 20
567.336078123865
 30
0.0
 70
     0
 50
0.0
  0
VERTEX
  5
F0
  8
1
100
AcDbVertex
100
AcDb2dVertex
 10
4103.34258503312
 20
569.838317331941
 30
0.0
 70
     0
 50
0.0
  0
VERTEX
  5
F1
  8
1
100
AcDbVertex
100
AcDb2dVertex
 10
4045.41386012708
 20
579.40406688916
 30
0.0
 70
     0
 50
0.0
  0
VERTEX
  5
F2
  8
1
100
AcDbVertex
100
AcDb2dVertex
 10
3891.88389335168
 20
588.607104961425
 30
0.0
 70
     0
 50
0.0
  0
VERTEX
  5
F3
  8
1
100
AcDbVertex
100
AcDb2dVertex
 10
3606.51334962689
 20
605.887222766301
 30
0.0
 70
     0
 50
0.0
  0
VERTEX
  5
F4
  8
1
100
AcDbVertex
100
AcDb2dVertex
 10
3581.1133528595
 20
604.348593023925
 30
0.0
 70
     0
 50
0.0
  0
SEQEND
  5
F5
  8
0
  0
POINT
  5
F6
  8
2
 10
3581.113
 20
770.04126684375
 30
0.0
  0
POINT
  5
F7
  8
2
 10
3606.51308544922
 20
768.182100625
 30
0.0
  0
POINT
  5
F8
  8
2
 10
3891.52286796155
 20
789.044543359375
 30
0.0
  0
POINT
  5
F9
  8
2
 10
4045.21127694446
 20
800.379478044433
 30
0.0
  0
POINT
  5
FA
  8
3
 10
4080.86031856784
 20
806.914378910438
 30
0.0
  0
POINT
  5
FB
  8
3
 10
4104.30789249456
 20
811.195950705315
 30
0.0
  0
POINT
  5
FC
  8
3
 10
4119.78512882968
 20
814.048219782571
 30
0.0
  0
POINT
  5
FD
  8
3
 10
4131.52315767825
 20
816.295212495715
 30
0.0
  0
POINT
  5
FE
  8
3
 10
4143.75310914533
 20
818.760955198257
 30
0.0
  0
POINT
  5
FF
  8
3
 10
4160.70611333598
 20
822.269474243703
 30
0.0
  0
POINT
  5
100
  8
3
 10
4186.61330035526
 20
827.644795985562
 30
0.0
  0
POINT
  5
101
  8
2
 10
4225.70580030823
 20
835.710946777343
 30
0.0
  0
POINT
  5
102
  8
3
 10
4248.31142400213
 20
841.106257275265
 30
0.0
  0
POINT
  5
103
  8
3
 10
4263.31837883305
 20
844.649709538484
 30
0.0
  0
POINT
  5
104
  8
3
 10
4273.12559339322
 20
846.973679467843
 30
0.0
  0
POINT
  5
105
  8
3
 10
4280.13199627486
 20
848.710542964184
 30
0.0
  0
POINT
  5
106
  8
3
 10
4286.73651607018
 20
850.492675928351
 30
0.0
  0
POINT
  5
107
  8
3
 10
4295.33808137141
 20
852.952454261185
 30
0.0
  0
POINT
  5
108
  8
2
 10
4328.12806286047
 20
862.43445063623
 30
0.0
  0
POINT
  5
109
  8
2
 10
4391.35243442639
 20
881.458863412109
 30
0.0
  0
POINT
  5
10A
  8
3
 10
4393.92060354774
 20
874.869101373372
 30
0.0
  0
POINT
  5
10B
  8
3
 10
4396.48739891193
 20
868.280104169575
 30
0.0
  0
POINT
  5
10C
  8
3
 10
4399.1648828281
 20
861.759052984385
 30
0.0
  0
POINT
  5
10D
  8
3
 10
4402.06511760538
 20
855.373129001469
 30
0.0
  0
POINT
  5
10E
  8
3
 10
4403.63378603853
 20
852.251833830759
 30
0.0
  0
POINT
  5
10F
  8
3
 10
4405.30016555289
 20
849.189513404493
 30
0.0
  0
POINT
  5
110
  8
3
 10
4407.07826393709
 20
846.194565370628
 30
0.0
  0
POINT
  5
111
  8
3
 10
4408.98208897978
 20
843.275387377123
 30
0.0
  0
POINT
  5
112
  8
3
 10
4411.02564846959
 20
840.440377071937
 30
0.0
  0
POINT
  5
113
  8
3
 10
4413.22295019516
 20
837.697932103026
 30
0.0
  0
POINT
  5
114
  8
3
 10
4415.58800194515
 20
835.056450118351
 30
0.0
  0
POINT
  5
115
  8
2
 10
4418.13481150818
 20
832.524328765869
 30
0.0
  0
POINT
  5
116
  8
3
 10
4426.64856929651
 20
829.834480655224
 30
0.0
  0
POINT
  5
117
  8
3
 10
4430.66764368772
 20
828.740824312227
 30
0.0
  0
POINT
  5
118
  8
3
 10
4435.43993689096
 20
828.058592649237
 30
0.0
  0
POINT
  5
119
  8
2
 10
4446.21335111536
 20
826.603018578613
 30
0.0
  0
POINT
  5
11A
  8
2
 10
4660.31779234845
 20
808.430127431457
 30
0.0
  0
POINT
  5
11B
  8
3
 10
4659.3540691036
 20
794.982058017368
 30
0.0
  0
POINT
  5
11C
  8
3
 10
4658.49838935635
 20
783.343128428349
 30
0.0
  0
POINT
  5
11D
  8
3
 10
4657.08603704917
 20
764.78704440854
 30
0.0
  0
POINT
  5
11E
  8
3
 10
4655.28149804562
 20
741.622466782949
 30
0.0
  0
POINT
  5
11F
  8
3
 10
4654.78881812732
 20
734.191395909234
 30
0.0
  0
POINT
  5
120
  8
3
 10
4654.50220245002
 20
727.64608548295
 30
0.0
  0
POINT
  5
121
  8
3
 10
4654.37140440277
 20
720.575246870131
 30
0.0
  0
POINT
  5
122
  8
2
 10
4654.34617737459
 20
711.567591436809
 30
0.0
  0
POINT
  5
123
  8
3
 10
4654.38785638826
 20
694.927256499959
 30
0.0
  0
POINT
  5
124
  8
2
 10
4654.41458631897
 20
669.809682373046
 30
0.0
  0
POINT
  5
125
  8
3
 10
4639.44330351321
 20
669.504829723773
 30
0.0
  0
POINT
  5
126
  8
3
 10
4629.24854315582
 20
669.103507029364
 30
0.0
  0
POINT
  5
127
  8
3
 10
4624.84564590994
 20
668.806236488503
 30
0.0
  0
POINT
  5
128
  8
2
 10
4621.42831354171
 20
668.431460732361
 30
0.0
  0
POINT
  5
129
  8
3
 10
4617.4540166268
 20
667.957602776489
 30
0.0
  0
POINT
  5
12A
  8
3
 10
4613.67955856739
 20
666.989268079837
 30
0.0
  0
POINT
  5
12B
  8
3
 10
4610.08445817077
 20
665.55232075541
 30
0.0
  0
POINT
  5
12C
  8
3
 10
4606.64823424425
 20
663.672624916215
 30
0.0
  0
POINT
  5
12D
  8
3
 10
4603.35040559515
 20
661.376044675258
 30
0.0
  0
POINT
  5
12E
  8
3
 10
4600.17049103076
 20
658.688444145545
 30
0.0
  0
POINT
  5
12F
  8
3
 10
4597.0880093584
 20
655.635687440082
 30
0.0
  0
POINT
  5
130
  8
2
 10
4594.08247938538
 20
652.243638671875
 30
0.0
  0
POINT
  5
131
  8
3
 10
4591.5719914031
 20
646.426236456311
 30
0.0
  0
POINT
  5
132
  8
3
 10
4589.37659801673
 20
640.540527837545
 30
0.0
  0
POINT
  5
133
  8
3
 10
4587.46008245051
 20
634.581170907742
 30
0.0
  0
POINT
  5
134
  8
2
 10
4585.78622792866
 20
628.542823759067
 30
0.0
  0
POINT
  5
135
  8
3
 10
4584.26752648345
 20
622.148477854673
 30
0.0
  0
POINT
  5
136
  8
3
 10
4582.97654283147
 20
615.713972497178
 30
0.0
  0
POINT
  5
137
  8
3
 10
4581.89073590005
 20
609.243375267089
 30
0.0
  0
POINT
  5
138
  8
3
 10
4580.98756461652
 20
602.740753744911
 30
0.0
  0
POINT
  5
139
  8
3
 10
4580.2444879082
 20
596.210175511151
 30
0.0
  0
POINT
  5
13A
  8
3
 10
4579.63896470243
 20
589.655708146313
 30
0.0
  0
POINT
  5
13B
  8
3
 10
4579.14845392653
 20
583.081419230904
 30
0.0
  0
POINT
  5
13C
  8
3
 10
4578.75041450785
 20
576.49137634543
 30
0.0
  0
POINT
  5
13D
  8
3
 10
4578.4223053737
 20
569.889647070397
 30
0.0
  0
POINT
  5
13E
  8
3
 10
4578.14158545142
 20
563.280298986311
 30
0.0
  0
POINT
  5
13F
  8
3
 10
4577.63214895179
 20
550.055016713001
 30
0.0
  0
POINT
  5
140
  8
3
 10
4577.0417764276
 20
536.848070169549
 30
0.0
  0
POINT
  5
141
  8
3
 10
4576.65988647461
 20
530.261641747783
 30
0.0
  0
POINT
  5
142
  8
2
 10
4576.19013929749
 20
523.692
 30
0.0
  0
POINT
  5
143
  8
3
 10
4560.02464977628
 20
523.853097292987
 30
0.0
  0
POINT
  5
144
  8
3
 10
4543.85245329977
 20
523.988981895892
 30
0.0
  0
POINT
  5
145
  8
3
 10
4527.67605869419
 20
524.129020958813
 30
0.0
  0
POINT
  5
146
  8
3
 10
4511.49797478575
 20
524.302581631848
 30
0.0
  0
POINT
  5
147
  8
3
 10
4495.32071040067
 20
524.539031065093
 30
0.0
  0
POINT
  5
148
  8
3
 10
4479.14677436516
 20
524.867736408646
 30
0.0
  0
POINT
  5
149
  8
3
 10
4462.97867550545
 20
525.318064812603
 30
0.0
  0
POINT
  5
14A
  8
3
 10
4454.89759902472
 20
525.598014896639
 30
0.0
  0
POINT
  5
14B
  8
2
 10
4446.81892264777
 20
525.919383427062
 30
0.0
  0
POINT
  5
14C
  8
2
 10
4330.29162100012
 20
535.355952273925
 30
0.0
  0
POINT
  5
14D
  8
2
 10
4226.60226948938
 20
550.094175903808
 30
0.0
  0
POINT
  5
14E
  8
3
 10
4186.55170781686
 20
556.468072328861
 30
0.0
  0
POINT
  5
14F
  8
3
 10
4159.96587725884
 20
560.690784216267
 30
0.0
  0
POINT
  5
150
  8
3
 10
4130.20295325856
 20
565.436360566644
 30
0.0
  0
POINT
  5
151
  8
3
 10
4118.53313170245
 20
567.336078123865
 30
0.0
  0
POINT
  5
152
  8
3
 10
4103.34258503312
 20
569.838317331941
 30
0.0
  0
POINT
  5
153
  8
2
 10
4045.41386012708
 20
579.40406688916
 30
0.0
  0
POINT
  5
154
  8
2
 10
3891.88389335168
 20
588.607104961425
 30
0.0
  0
POINT
  5
155
  8
2
 10
3606.51334962689
 20
605.887222766301
 30
0.0
  0
POINT
  5
156
  8
2
 10
3581.1133528595
 20
604.348593023925
 30
0.0
  0
LINE
  5
157
  8
11
 10
3891.52286796155
 20
789.044543359375
 30
0.0
 11
3891.52286734996
 21
790.644543359375
 31
0.0
  0
LINE
  5
158
  8
11
 10
4225.70580030823
 20
835.710946777343
 30
0.0
 11
4225.56635111983
 21
837.30485829429
 31
0.0
  0
LINE
  5
159
  8
11
 10
4446.21335111536
 20
826.603018578613
 30
0.0
 11
4446.21335172694
 21
825.003018578613
 31
0.0
  0
LINE
  5
15A
  8
11
 10
4226.60226948938
 20
550.094175903808
 30
0.0
 11
4226.60227010096
 21
548.494175903808
 31
0.0
  0
LINE
  5
15B
  8
11
 10
3891.88389335168
 20
588.607104961425
 30
0.0
 11
3891.88389396327
 21
587.007104961425
 31
0.0
  0
ENDBLK
  5
8D
  8
1
  0
BLOCK
  8
1
  2
3
 70
    64
 10
0.0
 20
0.0
 30
0.0
  3
3
  1

  0
TEXT
  5
15E
  8
1
100
AcDbText
 10
3894.49741663676
 20
1028.96425185081
 30
0.0
 40
7.0
  1
Size: 32
100
AcDbText
  0
TEXT
  5
15F
  8
1
100
AcDbText
 10
3894.49741663676
 20
1035.96425185081
 30
0.0
 40
7.0
  1
Model: JEAN
100
AcDbText
  0
TEXT
  5
160
  8
1
100
AcDbText
 10
3894.49741663676
 20
1042.96425185081
 30
0.0
 40
7.0
  1
Piece Name: FT-PKT-FC-RT
100
AcDbText
  0
TEXT
  5
161
  8
1
100
AcDbText
 10
3894.49741663676
 20
1056.96425185081
 30
0.0
 40
7.0
  1
Quantity: 1,0
100
AcDbText
  0
TEXT
  5
162
  8
1
100
AcDbText
 10
3894.49741663676
 20
1063.96425185081
 30
0.0
 40
7.0
  1
Material: SHEL
100
AcDbText
  0
POLYLINE
  5
163
  8
1
100
AcDb2dPolyline
 66
     1
 10
0.0
 20
0.0
 30
0.0
 70
     1
  0
VERTEX
  5
164
  8
1
100
AcDbVertex
100
AcDb2dVertex
 10
3968.74068492351
 20
1114.78194862141
 30
0.0
 70
     0
 50
0.0
  0
VERTEX
  5
165
  8
1
100
AcDbVertex
100
AcDb2dVertex
 10
3966.92903485249
 20
1094.16925256499
 30
0.0
 70
     0
 50
0.0
  0
VERTEX
  5
166
  8
1
100
AcDbVertex
100
AcDb2dVertex
 10
3965.37063172065
 20
1077.01031142748
 30
0.0
 70
     0
 50
0.0
  0
VERTEX
  5
167
  8
1
100
AcDbVertex
100
AcDb2dVertex
 10
3964.04468476675
 20
1062.91879147276
 30
0.0
 70
     0
 50
0.0
  0
VERTEX
  5
168
  8
1
100
AcDbVertex
100
AcDb2dVertex
 10
3962.93040322953
 20
1051.50835896467
 30
0.0
 70
     0
 50
0.0
  0
VERTEX
  5
169
  8
1
100
AcDbVertex
100
AcDb2dVertex
 10
3961.25367336017
 20
1035.18542134388
 30
0.0
 70
     0
 50
0.0
  0
VERTEX
  5
16A
  8
1
100
AcDbVertex
100
AcDb2dVertex
 10
3960.17411602264
 20
1024.950828676
 30
0.0
 70
     0
 50
0.0
  0
VERTEX
  5
16B
  8
1
100
AcDbVertex
100
AcDb2dVertex
 10
3959.52540512698
 20
1017.71391107194
 30
0.0
 70
     0
 50
0.0
  0
VERTEX
  5
16C
  8
1
100
AcDbVertex
100
AcDb2dVertex
 10
3959.14121458324
 20
1010.3839986426
 30
0.0
 70
     0
 50
0.0
  0
VERTEX
  5
16D
  8
1
100
AcDbVertex
100
AcDb2dVertex
 10
3958.85521830147
 20
999.870421498864
 30
0.0
 70
     0
 50
0.0
  0
VERTEX
  5
16E
  8
1
100
AcDbVertex
100
AcDb2dVertex
 10
3958.50109019171
 20
983.082509751646
 30
0.0
 70
     0
 50
0.0
  0
VERTEX
  5
16F
  8
1
100
AcDbVertex
100
AcDb2dVertex
 10
3958.88874196609
 20
951.629639625707
 30
0.0
 70
     0
 50
0.0
  0
VERTEX
  5
170
  8
1
100
AcDbVertex
100
AcDb2dVertex
 10
3946.19238076401
 20
951.25745834732
 30
0.0
 70
     0
 50
0.0
  0
VERTEX
  5
171
  8
1
100
AcDbVertex
100
AcDb2dVertex
 10
3932.09422255213
 20
950.760442288022
 30
0.0
 70
     0
 50
0.0
  0
VERTEX
  5
172
  8
1
100
AcDbVertex
100
AcDb2dVertex
 10
3923.91897673672
 20
950.528545628369
 30
0.0
 70
     0
 50
0.0
  0
VERTEX
  5
173
  8
1
100
AcDbVertex
100
AcDb2dVertex
 10
3915.44061835049
 20
950.425644516311
 30
0.0
 70
     0
 50
0.0
  0
VERTEX
  5
174
  8
1
100
AcDbVertex
100
AcDb2dVertex
 10
3906.99489632007
 20
950.540179927547
 30
0.0
 70
     0
 50
0.0
  0
VERTEX
  5
175
  8
1
100
AcDbVertex
100
AcDb2dVertex
 10
3902.88919547786
 20
950.706624134306
 30
0.0
 70
     0
 50
0.0
  0
VERTEX
  5
176
  8
1
100
AcDbVertex
100
AcDb2dVertex
 10
3898.91755957209
 20
950.960592837775
 30
0.0
 70
     0
 50
0.0
  0
VERTEX
  5
177
  8
1
100
AcDbVertex
100
AcDb2dVertex
 10
3895.12195721858
 20
951.313141159916
 30
0.0
 70
     0
 50
0.0
  0
VERTEX
  5
178
  8
1
100
AcDbVertex
100
AcDb2dVertex
 10
3891.54435703317
 20
951.775324222692
 30
0.0
 70
     0
 50
0.0
  0
VERTEX
  5
179
  8
1
100
AcDbVertex
100
AcDb2dVertex
 10
3888.22672763168
 20
952.358197148065
 30
0.0
 70
     0
 50
0.0
  0
VERTEX
  5
17A
  8
1
100
AcDbVertex
100
AcDb2dVertex
 10
3885.21103762993
 20
953.072815057998
 30
0.0
 70
     0
 50
0.0
  0
VERTEX
  5
17B
  8
1
100
AcDbVertex
100
AcDb2dVertex
 10
3880.76806099331
 20
954.362245331055
 30
0.0
 70
     0
 50
0.0
  0
VERTEX
  5
17C
  8
1
100
AcDbVertex
100
AcDb2dVertex
 10
3876.56926355271
 20
955.736361635785
 30
0.0
 70
     0
 50
0.0
  0
VERTEX
  5
17D
  8
1
100
AcDbVertex
100
AcDb2dVertex
 10
3872.50670954551
 20
957.250808531724
 30
0.0
 70
     0
 50
0.0
  0
VERTEX
  5
17E
  8
1
100
AcDbVertex
100
AcDb2dVertex
 10
3868.47246320907
 20
958.961230578406
 30
0.0
 70
     0
 50
0.0
  0
VERTEX
  5
17F
  8
1
100
AcDbVertex
100
AcDb2dVertex
 10
3864.35858878073
 20
960.923272335365
 30
0.0
 70
     0
 50
0.0
  0
VERTEX
  5
180
  8
1
100
AcDbVertex
100
AcDb2dVertex
 10
3860.05715049787
 20
963.192578362137
 30
0.0
 70
     0
 50
0.0
  0
VERTEX
  5
181
  8
1
100
AcDbVertex
100
AcDb2dVertex
 10
3855.46021259784
 20
965.824793218256
 30
0.0
 70
     0
 50
0.0
  0
VERTEX
  5
182
  8
1
100
AcDbVertex
100
AcDb2dVertex
 10
3850.45983931799
 20
968.875561463257
 30
0.0
 70
     0
 50
0.0
  0
VERTEX
  5
183
  8
1
100
AcDbVertex
100
AcDb2dVertex
 10
3848.20295450841
 20
971.62815397067
 30
0.0
 70
     0
 50
0.0
  0
VERTEX
  5
184
  8
1
100
AcDbVertex
100
AcDb2dVertex
 10
3845.68603701271
 20
975.042999077072
 30
0.0
 70
     0
 50
0.0
  0
VERTEX
  5
185
  8
1
100
AcDbVertex
100
AcDb2dVertex
 10
3843.0159191732
 20
978.980305522204
 30
0.0
 70
     0
 50
0.0
  0
VERTEX
  5
186
  8
1
100
AcDbVertex
100
AcDb2dVertex
 10
3840.29943333217
 20
983.300282045807
 30
0.0
 70
     0
 50
0.0
  0
VERTEX
  5
187
  8
1
100
AcDbVertex
100
AcDb2dVertex
 10
3837.64341183192
 20
987.86313738762
 30
0.0
 70
     0
 50
0.0
  0
VERTEX
  5
188
  8
1
100
AcDbVertex
100
AcDb2dVertex
 10
3835.15468701475
 20
992.529080287384
 30
0.0
 70
     0
 50
0.0
  0
VERTEX
  5
189
  8
1
100
AcDbVertex
100
AcDb2dVertex
 10
3832.94009122295
 20
997.158319484839
 30
0.0
 70
     0
 50
0.0
  0
VERTEX
  5
18A
  8
1
100
AcDbVertex
100
AcDb2dVertex
 10
3831.10645679883
 20
1001.61106371973
 30
0.0
 70
     0
 50
0.0
  0
VERTEX
  5
18B
  8
1
100
AcDbVertex
100
AcDb2dVertex
 10
3829.96699370824
 20
1006.30264167975
 30
0.0
 70
     0
 50
0.0
  0
VERTEX
  5
18C
  8
1
100
AcDbVertex
100
AcDb2dVertex
 10
3828.76633717361
 20
1010.98258273295
 30
0.0
 70
     0
 50
0.0
  0
VERTEX
  5
18D
  8
1
100
AcDbVertex
100
AcDb2dVertex
 10
3826.32830803792
 20
1020.33548269524
 30
0.0
 70
     0
 50
0.0
  0
VERTEX
  5
18E
  8
1
100
AcDbVertex
100
AcDb2dVertex
 10
3825.16436756972
 20
1025.02240589253
 30
0.0
 70
     0
 50
0.0
  0
VERTEX
  5
18F
  8
1
100
AcDbVertex
100
AcDb2dVertex
 10
3824.08609792317
 20
1029.72562075939
 30
0.0
 70
     0
 50
0.0
  0
VERTEX
  5
190
  8
1
100
AcDbVertex
100
AcDb2dVertex
 10
3823.13021516471
 20
1034.45210943991
 30
0.0
 70
     0
 50
0.0
  0
VERTEX
  5
191
  8
1
100
AcDbVertex
100
AcDb2dVertex
 10
3822.33343536075
 20
1039.2088540782
 30
0.0
 70
     0
 50
0.0
  0
VERTEX
  5
192
  8
1
100
AcDbVertex
100
AcDb2dVertex
 10
3821.86402191775
 20
1042.69413696701
 30
0.0
 70
     0
 50
0.0
  0
VERTEX
  5
193
  8
1
100
AcDbVertex
100
AcDb2dVertex
 10
3821.46799149794
 20
1046.26184211792
 30
0.0
 70
     0
 50
0.0
  0
VERTEX
  5
194
  8
1
100
AcDbVertex
100
AcDb2dVertex
 10
3820.87316677378
 20
1053.60123674564
 30
0.0
 70
     0
 50
0.0
  0
VERTEX
  5
195
  8
1
100
AcDbVertex
100
AcDb2dVertex
 10
3820.50313527994
 20
1061.14047304061
 30
0.0
 70
     0
 50
0.0
  0
VERTEX
  5
196
  8
1
100
AcDbVertex
100
AcDb2dVertex
 10
3820.31207110812
 20
1068.79298608202
 30
0.0
 70
     0
 50
0.0
  0
VERTEX
  5
197
  8
1
100
AcDbVertex
100
AcDb2dVertex
 10
3820.25414835002
 20
1076.47221094911
 30
0.0
 70
     0
 50
0.0
  0
VERTEX
  5
198
  8
1
100
AcDbVertex
100
AcDb2dVertex
 10
3820.28354109731
 20
1084.09158272109
 30
0.0
 70
     0
 50
0.0
  0
VERTEX
  5
199
  8
1
100
AcDbVertex
100
AcDb2dVertex
 10
3820.42096947485
 20
1098.80450729663
 30
0.0
 70
     0
 50
0.0
  0
VERTEX
  5
19A
  8
1
100
AcDbVertex
100
AcDb2dVertex
 10
3821.19513898828
 20
1122.80632848535
 30
0.0
 70
     0
 50
0.0
  0
VERTEX
  5
19B
  8
1
100
AcDbVertex
100
AcDb2dVertex
 10
3821.68203904321
 20
1135.5028591853
 30
0.0
 70
     0
 50
0.0
  0
VERTEX
  5
19C
  8
1
100
AcDbVertex
100
AcDb2dVertex
 10
3874.7791980752
 20
1131.85205511621
 30
0.0
 70
     0
 50
0.0
  0
VERTEX
  5
19D
  8
1
100
AcDbVertex
100
AcDb2dVertex
 10
3912.4297380603
 20
1126.79920249447
 30
0.0
 70
     0
 50
0.0
  0
SEQEND
  5
19E
  8
0
  0
POINT
  5
19F
  8
2
 10
3968.74068492351
 20
1114.78194862141
 30
0.0
  0
POINT
  5
1A0
  8
3
 10
3966.92903485249
 20
1094.16925256499
 30
0.0
  0
POINT
  5
1A1
  8
3
 10
3965.37063172065
 20
1077.01031142748
 30
0.0
  0
POINT
  5
1A2
  8
3
 10
3964.04468476675
 20
1062.91879147276
 30
0.0
  0
POINT
  5
1A3
  8
3
 10
3962.93040322953
 20
1051.50835896467
 30
0.0
  0
POINT
  5
1A4
  8
3
 10
3961.25367336017
 20
1035.18542134388
 30
0.0
  0
POINT
  5
1A5
  8
3
 10
3960.17411602264
 20
1024.950828676
 30
0.0
  0
POINT
  5
1A6
  8
3
 10
3959.52540512698
 20
1017.71391107194
 30
0.0
  0
POINT
  5
1A7
  8
3
 10
3959.14121458324
 20
1010.3839986426
 30
0.0
  0
POINT
  5
1A8
  8
3
 10
3958.85521830147
 20
999.870421498864
 30
0.0
  0
POINT
  5
1A9
  8
2
 10
3958.50109019171
 20
983.082509751646
 30
0.0
  0
POINT
  5
1AA
  8
2
 10
3958.88874196609
 20
951.629639625707
 30
0.0
  0
POINT
  5
1AB
  8
2
 10
3946.19238076401
 20
951.25745834732
 30
0.0
  0
POINT
  5
1AC
  8
3
 10
3932.09422255213
 20
950.760442288022
 30
0.0
  0
POINT
  5
1AD
  8
3
 10
3923.91897673672
 20
950.528545628369
 30
0.0
  0
POINT
  5
1AE
  8
3
 10
3915.44061835049
 20
950.425644516311
 30
0.0
  0
POINT
  5
1AF
  8
3
 10
3906.99489632007
 20
950.540179927547
 30
0.0
  0
POINT
  5
1B0
  8
3
 10
3902.88919547786
 20
950.706624134306
 30
0.0
  0
POINT
  5
1B1
  8
3
 10
3898.91755957209
 20
950.960592837775
 30
0.0
  0
POINT
  5
1B2
  8
3
 10
3895.12195721858
 20
951.313141159916
 30
0.0
  0
POINT
  5
1B3
  8
3
 10
3891.54435703317
 20
951.775324222692
 30
0.0
  0
POINT
  5
1B4
  8
3
 10
3888.22672763168
 20
952.358197148065
 30
0.0
  0
POINT
  5
1B5
  8
2
 10
3885.21103762993
 20
953.072815057998
 30
0.0
  0
POINT
  5
1B6
  8
3
 10
3880.76806099331
 20
954.362245331055
 30
0.0
  0
POINT
  5
1B7
  8
3
 10
3876.56926355271
 20
955.736361635785
 30
0.0
  0
POINT
  5
1B8
  8
3
 10
3872.50670954551
 20
957.250808531724
 30
0.0
  0
POINT
  5
1B9
  8
3
 10
3868.47246320907
 20
958.961230578406
 30
0.0
  0
POINT
  5
1BA
  8
3
 10
3864.35858878073
 20
960.923272335365
 30
0.0
  0
POINT
  5
1BB
  8
3
 10
3860.05715049787
 20
963.192578362137
 30
0.0
  0
POINT
  5
1BC
  8
3
 10
3855.46021259784
 20
965.824793218256
 30
0.0
  0
POINT
  5
1BD
  8
2
 10
3850.45983931799
 20
968.875561463257
 30
0.0
  0
POINT
  5
1BE
  8
3
 10
3848.20295450841
 20
971.62815397067
 30
0.0
  0
POINT
  5
1BF
  8
3
 10
3845.68603701271
 20
975.042999077072
 30
0.0
  0
POINT
  5
1C0
  8
3
 10
3843.0159191732
 20
978.980305522204
 30
0.0
  0
POINT
  5
1C1
  8
3
 10
3840.29943333217
 20
983.300282045807
 30
0.0
  0
POINT
  5
1C2
  8
3
 10
3837.64341183192
 20
987.86313738762
 30
0.0
  0
POINT
  5
1C3
  8
3
 10
3835.15468701475
 20
992.529080287384
 30
0.0
  0
POINT
  5
1C4
  8
3
 10
3832.94009122295
 20
997.158319484839
 30
0.0
  0
POINT
  5
1C5
  8
2
 10
3831.10645679883
 20
1001.61106371973
 30
0.0
  0
POINT
  5
1C6
  8
3
 10
3829.96699370824
 20
1006.30264167975
 30
0.0
  0
POINT
  5
1C7
  8
3
 10
3828.76633717361
 20
1010.98258273295
 30
0.0
  0
POINT
  5
1C8
  8
3
 10
3826.32830803792
 20
1020.33548269524
 30
0.0
  0
POINT
  5
1C9
  8
3
 10
3825.16436756972
 20
1025.02240589253
 30
0.0
  0
POINT
  5
1CA
  8
3
 10
3824.08609792317
 20
1029.72562075939
 30
0.0
  0
POINT
  5
1CB
  8
3
 10
3823.13021516471
 20
1034.45210943991
 30
0.0
  0
POINT
  5
1CC
  8
2
 10
3822.33343536075
 20
1039.2088540782
 30
0.0
  0
POINT
  5
1CD
  8
3
 10
3821.86402191775
 20
1042.69413696701
 30
0.0
  0
POINT
  5
1CE
  8
3
 10
3821.46799149794
 20
1046.26184211792
 30
0.0
  0
POINT
  5
1CF
  8
3
 10
3820.87316677378
 20
1053.60123674564
 30
0.0
  0
POINT
  5
1D0
  8
3
 10
3820.50313527994
 20
1061.14047304061
 30
0.0
  0
POINT
  5
1D1
  8
3
 10
3820.31207110812
 20
1068.79298608202
 30
0.0
  0
POINT
  5
1D2
  8
3
 10
3820.25414835002
 20
1076.47221094911
 30
0.0
  0
POINT
  5
1D3
  8
3
 10
3820.28354109731
 20
1084.09158272109
 30
0.0
  0
POINT
  5
1D4
  8
2
 10
3820.42096947485
 20
1098.80450729663
 30
0.0
  0
POINT
  5
1D5
  8
2
 10
3821.19513898828
 20
1122.80632848535
 30
0.0
  0
POINT
  5
1D6
  8
2
 10
3821.68203904321
 20
1135.5028591853
 30
0.0
  0
POINT
  5
1D7
  8
2
 10
3874.7791980752
 20
1131.85205511621
 30
0.0
  0
POINT
  5
1D8
  8
2
 10
3912.4297380603
 20
1126.79920249447
 30
0.0
  0
LINE
  5
1D9
  8
11
 10
3958.50109019171
 20
983.082509751646
 30
0.0
 11
3960.10109019171
 21
983.082509751646
 31
0.0
  0
LINE
  5
1DA
  8
11
 10
3831.10645679883
 20
1001.61106371973
 30
0.0
 11
3831.10645618724
 21
1003.21106371973
 31
0.0
  0
LINE
  5
1DB
  8
11
 10
3820.42096947485
 20
1098.80450729663
 30
0.0
 11
3820.42096886327
 21
1100.40450729663
 31
0.0
  0
LINE
  5
1DC
  8
11
 10
3874.7791980752
 20
1131.85205511621
 30
0.0
 11
3874.77919746361
 21
1133.45205511621
 31
0.0
  0
LINE
  5
1DD
  8
11
 10
3831.10645679883
 20
1001.61106371973
 30
0.0
 11
3831.10645618724
 21
1003.21106371973
 31
0.0
  0
LINE
  5
1DE
  8
11
 10
3820.42096947485
 20
1098.80450729663
 30
0.0
 11
3820.42096886327
 21
1100.40450729663
 31
0.0
  0
ENDBLK
  5
15D
  8
1
  0
BLOCK
  8
1
  2
4
 70
    64
 10
0.0
 20
0.0
 30
0.0
  3
4
  1

  0
TEXT
  5
1E1
  8
1
100
AcDbText
 10
4785.18799364838
 20
861.831597164303
 30
0.0
 40
7.0
  1
Size: 32
100
AcDbText
  0
TEXT
  5
1E2
  8
1
100
AcDbText
 10
4785.18799364838
 20
868.831597164303
 30
0.0
 40
7.0
  1
Model: JEAN
100
AcDbText
  0
TEXT
  5
1E3
  8
1
100
AcDbText
 10
4785.18799364838
 20
875.831597164303
 30
0.0
 40
7.0
  1
Piece Name: LOOP
100
AcDbText
  0
TEXT
  5
1E4
  8
1
100
AcDbText
 10
4785.18799364838
 20
889.831597164303
 30
0.0
 40
7.0
  1
Quantity: 1,0
100
AcDbText
  0
TEXT
  5
1E5
  8
1
100
AcDbText
 10
4785.18799364838
 20
896.831597164303
 30
0.0
 40
7.0
  1
Material: SHEL
100
AcDbText
  0
POLYLINE
  5
1E6
  8
1
100
AcDb2dPolyline
 66
     1
 10
0.0
 20
0.0
 30
0.0
 70
     1
  0
VERTEX
  5
1E7
  8
1
100
AcDbVertex
100
AcDb2dVertex
 10
4467.688
 20
863.068
 30
0.0
 70
     0
 50
0.0
  0
VERTEX
  5
1E8
  8
1
100
AcDbVertex
100
AcDb2dVertex
 10
4467.68830200928
 20
888.595194328606
 30
0.0
 70
     0
 50
0.0
  0
VERTEX
  5
1E9
  8
1
100
AcDbVertex
100
AcDb2dVertex
 10
5064.58811978149
 20
888.595057647705
 30
0.0
 70
     0
 50
0.0
  0
VERTEX
  5
1EA
  8
1
100
AcDbVertex
100
AcDb2dVertex
 10
5102.68798729676
 20
882.245010841668
 30
0.0
 70
     0
 50
0.0
  0
VERTEX
  5
1EB
  8
1
100
AcDbVertex
100
AcDb2dVertex
 10
5102.68784428287
 20
869.418482255221
 30
0.0
 70
     0
 50
0.0
  0
VERTEX
  5
1EC
  8
1
100
AcDbVertex
100
AcDb2dVertex
 10
5064.58811665225
 20
863.068327378512
 30
0.0
 70
     0
 50
0.0
  0
SEQEND
  5
1ED
  8
0
  0
POINT
  5
1EE
  8
2
 10
4467.688
 20
863.068
 30
0.0
  0
POINT
  5
1EF
  8
2
 10
4467.68830200928
 20
888.595194328606
 30
0.0
  0
POINT
  5
1F0
  8
2
 10
5064.58811978149
 20
888.595057647705
 30
0.0
  0
POINT
  5
1F1
  8
2
 10
5102.68798729676
 20
882.245010841668
 30
0.0
  0
POINT
  5
1F2
  8
2
 10
5102.68784428287
 20
869.418482255221
 30
0.0
  0
POINT
  5
1F3
  8
2
 10
5064.58811665225
 20
863.068327378512
 30
0.0
  0
ENDBLK
  5
1E0
  8
1
  0
BLOCK
  8
1
  2
5
 70
    64
 10
0.0
 20
0.0
 30
0.0
  3
5
  1

  0
TEXT
  5
1F6
  8
1
100
AcDbText
 10
3368.4260308094
 20
640.543985198975
 30
0.0
 40
7.0
  1
Size: 32
100
AcDbText
  0
TEXT
  5
1F7
  8
1
100
AcDbText
 10
3368.4260308094
 20
647.543985198975
 30
0.0
 40
7.0
  1
Model: JEAN
100
AcDbText
  0
TEXT
  5
1F8
  8
1
100
AcDbText
 10
3368.4260308094
 20
654.543985198975
 30
0.0
 40
7.0
  1
Piece Name: WBD
100
AcDbText
  0
TEXT
  5
1F9
  8
1
100
AcDbText
 10
3368.4260308094
 20
668.543985198975
 30
0.0
 40
7.0
  1
Quantity: 1,0
100
AcDbText
  0
TEXT
  5
1FA
  8
1
100
AcDbText
 10
3368.4260308094
 20
675.543985198975
 30
0.0
 40
7.0
  1
Material: SHEL
100
AcDbText
  0
POLYLINE
  5
1FB
  8
1
100
AcDb2dPolyline
 66
     1
 10
0.0
 20
0.0
 30
0.0
 70
     1
  0
VERTEX
  5
1FC
  8
1
100
AcDbVertex
100
AcDb2dVertex
 10
3313.65721219254
 20
683.118795227051
 30
0.0
 70
     0
 50
0.0
  0
VERTEX
  5
1FD
  8
1
100
AcDbVertex
100
AcDb2dVertex
 10
3313.65713589859
 20
939.924909632324
 30
0.0
 70
     0
 50
0.0
  0
VERTEX
  5
1FE
  8
1
100
AcDbVertex
100
AcDb2dVertex
 10
3313.657
 20
1198.05584870865
 30
0.0
 70
     0
 50
0.0
  0
VERTEX
  5
1FF
  8
1
100
AcDbVertex
100
AcDb2dVertex
 10
3423.1946420021
 20
1198.05586539795
 30
0.0
 70
     0
 50
0.0
  0
VERTEX
  5
200
  8
1
100
AcDbVertex
100
AcDb2dVertex
 10
3423.19454588962
 20
424.378244697939
 30
0.0
 70
     0
 50
0.0
  0
VERTEX
  5
201
  8
1
100
AcDbVertex
100
AcDb2dVertex
 10
3423.19506161881
 20
111.032105
 30
0.0
 70
     0
 50
0.0
  0
VERTEX
  5
202
  8
1
100
AcDbVertex
100
AcDb2dVertex
 10
3313.65736478043
 20
111.032448322754
 30
0.0
 70
     0
 50
0.0
  0
SEQEND
  5
203
  8
0
  0
POINT
  5
204
  8
2
 10
3313.65721219254
 20
683.118795227051
 30
0.0
  0
POINT
  5
205
  8
2
 10
3313.65713589859
 20
939.924909632324
 30
0.0
  0
POINT
  5
206
  8
2
 10
3313.657
 20
1198.05584870865
 30
0.0
  0
POINT
  5
207
  8
2
 10
3423.1946420021
 20
1198.05586539795
 30
0.0
  0
POINT
  5
208
  8
2
 10
3423.19454588962
 20
424.378244697939
 30
0.0
  0
POINT
  5
209
  8
2
 10
3423.19506161881
 20
111.032105
 30
0.0
  0
POINT
  5
20A
  8
2
 10
3313.65736478043
 20
111.032448322754
 30
0.0
  0
ENDBLK
  5
1F5
  8
1
  0
BLOCK
  8
1
  2
6
 70
    64
 10
0.0
 20
0.0
 30
0.0
  3
6
  1

  0
TEXT
  5
20D
  8
1
100
AcDbText
 10
4134.79920663501
 20
251.611963464111
 30
0.0
 40
7.0
  1
Size: 32
100
AcDbText
  0
TEXT
  5
20E
  8
1
100
AcDbText
 10
4134.79920663501
 20
258.611963464111
 30
0.0
 40
7.0
  1
Model: JEAN
100
AcDbText
  0
TEXT
  5
20F
  8
1
100
AcDbText
 10
4134.79920663501
 20
265.611963464111
 30
0.0
 40
7.0
  1
Piece Name: BK-30INSM
100
AcDbText
  0
TEXT
  5
210
  8
1
100
AcDbText
 10
4134.79920663501
 20
279.611963464111
 30
0.0
 40
7.0
  1
Quantity: 1,1
100
AcDbText
  0
TEXT
  5
211
  8
1
100
AcDbText
 10
4134.79920663501
 20
286.611963464111
 30
0.0
 40
7.0
  1
Material: SHEL
100
AcDbText
  0
POLYLINE
  5
212
  8
1
100
AcDb2dPolyline
 66
     1
 10
0.0
 20
0.0
 30
0.0
 70
     1
  0
VERTEX
  5
213
  8
1
100
AcDbVertex
100
AcDb2dVertex
 10
4652.53048925147
 20
29.364731
 30
0.0
 70
     0
 50
0.0
  0
VERTEX
  5
214
  8
1
100
AcDbVertex
100
AcDb2dVertex
 10
4577.26384791602
 20
36.6915621479501
 30
0.0
 70
     0
 50
0.0
  0
VERTEX
  5
215
  8
1
100
AcDbVertex
100
AcDb2dVertex
 10
4456.03469990039
 20
51.026362730957
 30
0.0
 70
     0
 50
0.0
  0
VERTEX
  5
216
  8
1
100
AcDbVertex
100
AcDb2dVertex
 10
4340.44820513965
 20
71.1002182211921
 30
0.0
 70
     0
 50
0.0
  0
VERTEX
  5
217
  8
1
100
AcDbVertex
100
AcDb2dVertex
 10
4237.75475370286
 20
91.0221914841501
 30
0.0
 70
     0
 50
0.0
  0
VERTEX
  5
218
  8
1
100
AcDbVertex
100
AcDb2dVertex
 10
4215.28677425611
 20
95.6638417068103
 30
0.0
 70
     0
 50
0.0
  0
VERTEX
  5
219
  8
1
100
AcDbVertex
100
AcDb2dVertex
 10
4192.80801315928
 20
100.270169095245
 30
0.0
 70
     0
 50
0.0
  0
VERTEX
  5
21A
  8
1
100
AcDbVertex
100
AcDb2dVertex
 10
4147.84387538869
 20
109.478035742892
 30
0.0
 70
     0
 50
0.0
  0
VERTEX
  5
21B
  8
1
100
AcDbVertex
100
AcDb2dVertex
 10
4125.3713634016
 20
114.130165188832
 30
0.0
 70
     0
 50
0.0
  0
VERTEX
  5
21C
  8
1
100
AcDbVertex
100
AcDb2dVertex
 10
4102.91379913774
 20
118.848152174001
 30
0.0
 70
     0
 50
0.0
  0
VERTEX
  5
21D
  8
1
100
AcDbVertex
100
AcDb2dVertex
 10
4080.47761494047
 20
123.657291791763
 30
0.0
 70
     0
 50
0.0
  0
VERTEX
  5
21E
  8
1
100
AcDbVertex
100
AcDb2dVertex
 10
4069.26955047408
 20
126.103948554543
 30
0.0
 70
     0
 50
0.0
  0
VERTEX
  5
21F
  8
1
100
AcDbVertex
100
AcDb2dVertex
 10
4058.06924315309
 20
128.582879135482
 30
0.0
 70
     0
 50
0.0
  0
VERTEX
  5
220
  8
1
100
AcDbVertex
100
AcDb2dVertex
 10
3904.89537972559
 20
137.761780230957
 30
0.0
 70
     0
 50
0.0
  0
VERTEX
  5
221
  8
1
100
AcDbVertex
100
AcDb2dVertex
 10
3619.52400915527
 20
155.042115529786
 30
0.0
 70
     0
 50
0.0
  0
VERTEX
  5
222
  8
1
100
AcDbVertex
100
AcDb2dVertex
 10
3594.124
 20
153.503765351075
 30
0.0
 70
     0
 50
0.0
  0
VERTEX
  5
223
  8
1
100
AcDbVertex
100
AcDb2dVertex
 10
3594.12476293945
 20
368.233254258301
 30
0.0
 70
     0
 50
0.0
  0
VERTEX
  5
224
  8
1
100
AcDbVertex
100
AcDb2dVertex
 10
3619.52477209473
 20
366.384654604004
 30
0.0
 70
     0
 50
0.0
  0
VERTEX
  5
225
  8
1
100
AcDbVertex
100
AcDb2dVertex
 10
3904.53557684289
 20
387.127137305062
 30
0.0
 70
     0
 50
0.0
  0
VERTEX
  5
226
  8
1
100
AcDbVertex
100
AcDb2dVertex
 10
4058.24469820801
 20
398.466853312989
 30
0.0
 70
     0
 50
0.0
  0
VERTEX
  5
227
  8
1
100
AcDbVertex
100
AcDb2dVertex
 10
4069.58933558122
 20
400.605968099154
 30
0.0
 70
     0
 50
0.0
  0
VERTEX
  5
228
  8
1
100
AcDbVertex
100
AcDb2dVertex
 10
4080.86809979342
 20
402.913920529823
 30
0.0
 70
     0
 50
0.0
  0
VERTEX
  5
229
  8
1
100
AcDbVertex
100
AcDb2dVertex
 10
4092.08724291688
 20
405.379180874984
 30
0.0
 70
     0
 50
0.0
  0
VERTEX
  5
22A
  8
1
100
AcDbVertex
100
AcDb2dVertex
 10
4103.25301702388
 20
407.990219404624
 30
0.0
 70
     0
 50
0.0
  0
VERTEX
  5
22B
  8
1
100
AcDbVertex
100
AcDb2dVertex
 10
4114.37167418668
 20
410.735506388729
 30
0.0
 70
     0
 50
0.0
  0
VERTEX
  5
22C
  8
1
100
AcDbVertex
100
AcDb2dVertex
 10
4125.44946647756
 20
413.603512097285
 30
0.0
 70
     0
 50
0.0
  0
VERTEX
  5
22D
  8
1
100
AcDbVertex
100
AcDb2dVertex
 10
4136.49264596879
 20
416.582706800281
 30
0.0
 70
     0
 50
0.0
  0
VERTEX
  5
22E
  8
1
100
AcDbVertex
100
AcDb2dVertex
 10
4147.50746473265
 20
419.661560767702
 30
0.0
 70
     0
 50
0.0
  0
VERTEX
  5
22F
  8
1
100
AcDbVertex
100
AcDb2dVertex
 10
4158.5001748414
 20
422.828544269536
 30
0.0
 70
     0
 50
0.0
  0
VERTEX
  5
230
  8
1
100
AcDbVertex
100
AcDb2dVertex
 10
4169.47702836732
 20
426.072127575769
 30
0.0
 70
     0
 50
0.0
  0
VERTEX
  5
231
  8
1
100
AcDbVertex
100
AcDb2dVertex
 10
4180.44427738267
 20
429.380780956387
 30
0.0
 70
     0
 50
0.0
  0
VERTEX
  5
232
  8
1
100
AcDbVertex
100
AcDb2dVertex
 10
4191.40817395974
 20
432.742974681379
 30
0.0
 70
     0
 50
0.0
  0
VERTEX
  5
233
  8
1
100
AcDbVertex
100
AcDb2dVertex
 10
4202.37497017079
 20
436.147179020729
 30
0.0
 70
     0
 50
0.0
  0
VERTEX
  5
234
  8
1
100
AcDbVertex
100
AcDb2dVertex
 10
4213.3509180881
 20
439.581864244426
 30
0.0
 70
     0
 50
0.0
  0
VERTEX
  5
235
  8
1
100
AcDbVertex
100
AcDb2dVertex
 10
4235.35527733057
 20
446.496558424805
 30
0.0
 70
     0
 50
0.0
  0
VERTEX
  5
236
  8
1
100
AcDbVertex
100
AcDb2dVertex
 10
4336.63013553552
 20
480.463417321415
 30
0.0
 70
     0
 50
0.0
  0
VERTEX
  5
237
  8
1
100
AcDbVertex
100
AcDb2dVertex
 10
4399.7901551748
 20
501.859195928223
 30
0.0
 70
     0
 50
0.0
  0
VERTEX
  5
238
  8
1
100
AcDbVertex
100
AcDb2dVertex
 10
4402.95105605659
 20
492.111224904012
 30
0.0
 70
     0
 50
0.0
  0
VERTEX
  5
239
  8
1
100
AcDbVertex
100
AcDb2dVertex
 10
4406.0164410183
 20
482.518337695582
 30
0.0
 70
     0
 50
0.0
  0
VERTEX
  5
23A
  8
1
100
AcDbVertex
100
AcDb2dVertex
 10
4409.10427880404
 20
473.072139229277
 30
0.0
 70
     0
 50
0.0
  0
VERTEX
  5
23B
  8
1
100
AcDbVertex
100
AcDb2dVertex
 10
4412.33253815795
 20
463.76423443144
 30
0.0
 70
     0
 50
0.0
  0
VERTEX
  5
23C
  8
1
100
AcDbVertex
100
AcDb2dVertex
 10
4414.0361911555
 20
459.159518697681
 30
0.0
 70
     0
 50
0.0
  0
VERTEX
  5
23D
  8
1
100
AcDbVertex
100
AcDb2dVertex
 10
4415.81918782415
 20
454.586228228417
 30
0.0
 70
     0
 50
0.0
  0
VERTEX
  5
23E
  8
1
100
AcDbVertex
100
AcDb2dVertex
 10
4417.69627425689
 20
450.043313639442
 30
0.0
 70
     0
 50
0.0
  0
VERTEX
  5
23F
  8
1
100
AcDbVertex
100
AcDb2dVertex
 10
4419.68219654675
 20
445.52972554655
 30
0.0
 70
     0
 50
0.0
  0
VERTEX
  5
240
  8
1
100
AcDbVertex
100
AcDb2dVertex
 10
4421.79170078675
 20
441.044414565532
 30
0.0
 70
     0
 50
0.0
  0
VERTEX
  5
241
  8
1
100
AcDbVertex
100
AcDb2dVertex
 10
4424.03953306989
 20
436.586331312183
 30
0.0
 70
     0
 50
0.0
  0
VERTEX
  5
242
  8
1
100
AcDbVertex
100
AcDb2dVertex
 10
4426.4404394892
 20
432.154426402295
 30
0.0
 70
     0
 50
0.0
  0
VERTEX
  5
243
  8
1
100
AcDbVertex
100
AcDb2dVertex
 10
4429.0091661377
 20
427.747650451661
 30
0.0
 70
     0
 50
0.0
  0
VERTEX
  5
244
  8
1
100
AcDbVertex
100
AcDb2dVertex
 10
4432.21778744703
 20
425.007487725263
 30
0.0
 70
     0
 50
0.0
  0
VERTEX
  5
245
  8
1
100
AcDbVertex
100
AcDb2dVertex
 10
4435.52060417218
 20
422.391874166841
 30
0.0
 70
     0
 50
0.0
  0
VERTEX
  5
246
  8
1
100
AcDbVertex
100
AcDb2dVertex
 10
4438.91293155027
 20
419.895895276913
 30
0.0
 70
     0
 50
0.0
  0
VERTEX
  5
247
  8
1
100
AcDbVertex
100
AcDb2dVertex
 10
4442.39008481841
 20
417.514636555996
 30
0.0
 70
     0
 50
0.0
  0
VERTEX
  5
248
  8
1
100
AcDbVertex
100
AcDb2dVertex
 10
4445.94737921373
 20
415.243183504608
 30
0.0
 70
     0
 50
0.0
  0
VERTEX
  5
249
  8
1
100
AcDbVertex
100
AcDb2dVertex
 10
4449.58012997335
 20
413.076621623265
 30
0.0
 70
     0
 50
0.0
  0
VERTEX
  5
24A
  8
1
100
AcDbVertex
100
AcDb2dVertex
 10
4453.28365233438
 20
411.010036412486
 30
0.0
 70
     0
 50
0.0
  0
VERTEX
  5
24B
  8
1
100
AcDbVertex
100
AcDb2dVertex
 10
4457.05326153395
 20
409.038513372788
 30
0.0
 70
     0
 50
0.0
  0
VERTEX
  5
24C
  8
1
100
AcDbVertex
100
AcDb2dVertex
 10
4460.88427280917
 20
407.157138004688
 30
0.0
 70
     0
 50
0.0
  0
VERTEX
  5
24D
  8
1
100
AcDbVertex
100
AcDb2dVertex
 10
4464.77200139717
 20
405.360995808703
 30
0.0
 70
     0
 50
0.0
  0
VERTEX
  5
24E
  8
1
100
AcDbVertex
100
AcDb2dVertex
 10
4468.71176253507
 20
403.64517228535
 30
0.0
 70
     0
 50
0.0
  0
VERTEX
  5
24F
  8
1
100
AcDbVertex
100
AcDb2dVertex
 10
4472.69887145998
 20
402.004752935148
 30
0.0
 70
     0
 50
0.0
  0
VERTEX
  5
250
  8
1
100
AcDbVertex
100
AcDb2dVertex
 10
4476.72864340903
 20
400.434823258613
 30
0.0
 70
     0
 50
0.0
  0
VERTEX
  5
251
  8
1
100
AcDbVertex
100
AcDb2dVertex
 10
4480.79639361933
 20
398.930468756264
 30
0.0
 70
     0
 50
0.0
  0
VERTEX
  5
252
  8
1
100
AcDbVertex
100
AcDb2dVertex
 10
4489.02708977219
 20
396.098827276188
 30
0.0
 70
     0
 50
0.0
  0
VERTEX
  5
253
  8
1
100
AcDbVertex
100
AcDb2dVertex
 10
4497.35348181552
 20
393.470512499059
 30
0.0
 70
     0
 50
0.0
  0
VERTEX
  5
254
  8
1
100
AcDbVertex
100
AcDb2dVertex
 10
4505.73809164627
 20
391.006208429017
 30
0.0
 70
     0
 50
0.0
  0
VERTEX
  5
255
  8
1
100
AcDbVertex
100
AcDb2dVertex
 10
4514.1434411614
 20
388.6665990702
 30
0.0
 70
     0
 50
0.0
  0
VERTEX
  5
256
  8
1
100
AcDbVertex
100
AcDb2dVertex
 10
4522.53205225788
 20
386.412368426748
 30
0.0
 70
     0
 50
0.0
  0
VERTEX
  5
257
  8
1
100
AcDbVertex
100
AcDb2dVertex
 10
4539.10914678273
 20
382.00277930249
 30
0.0
 70
     0
 50
0.0
  0
VERTEX
  5
258
  8
1
100
AcDbVertex
100
AcDb2dVertex
 10
4547.22267400501
 20
379.768788829963
 30
0.0
 70
     0
 50
0.0
  0
VERTEX
  5
259
  8
1
100
AcDbVertex
100
AcDb2dVertex
 10
4555.16955039648
 20
377.462913089356
 30
0.0
 70
     0
 50
0.0
  0
VERTEX
  5
25A
  8
1
100
AcDbVertex
100
AcDb2dVertex
 10
4675.47441327001
 20
331.595543301766
 30
0.0
 70
     0
 50
0.0
  0
SEQEND
  5
25B
  8
0
  0
POINT
  5
25C
  8
2
 10
4652.53048925147
 20
29.364731
 30
0.0
  0
POINT
  5
25D
  8
2
 10
4577.26384791602
 20
36.6915621479501
 30
0.0
  0
POINT
  5
25E
  8
2
 10
4456.03469990039
 20
51.026362730957
 30
0.0
  0
POINT
  5
25F
  8
2
 10
4340.44820513965
 20
71.1002182211921
 30
0.0
  0
POINT
  5
260
  8
2
 10
4237.75475370286
 20
91.0221914841501
 30
0.0
  0
POINT
  5
261
  8
3
 10
4215.28677425611
 20
95.6638417068103
 30
0.0
  0
POINT
  5
262
  8
3
 10
4192.80801315928
 20
100.270169095245
 30
0.0
  0
POINT
  5
263
  8
3
 10
4147.84387538869
 20
109.478035742892
 30
0.0
  0
POINT
  5
264
  8
3
 10
4125.3713634016
 20
114.130165188832
 30
0.0
  0
POINT
  5
265
  8
3
 10
4102.91379913774
 20
118.848152174001
 30
0.0
  0
POINT
  5
266
  8
3
 10
4080.47761494047
 20
123.657291791763
 30
0.0
  0
POINT
  5
267
  8
3
 10
4069.26955047408
 20
126.103948554543
 30
0.0
  0
POINT
  5
268
  8
2
 10
4058.06924315309
 20
128.582879135482
 30
0.0
  0
POINT
  5
269
  8
2
 10
3904.89537972559
 20
137.761780230957
 30
0.0
  0
POINT
  5
26A
  8
2
 10
3619.52400915527
 20
155.042115529786
 30
0.0
  0
POINT
  5
26B
  8
2
 10
3594.124
 20
153.503765351075
 30
0.0
  0
POINT
  5
26C
  8
2
 10
3594.12476293945
 20
368.233254258301
 30
0.0
  0
POINT
  5
26D
  8
2
 10
3619.52477209473
 20
366.384654604004
 30
0.0
  0
POINT
  5
26E
  8
2
 10
3904.53557684289
 20
387.127137305062
 30
0.0
  0
POINT
  5
26F
  8
2
 10
4058.24469820801
 20
398.466853312989
 30
0.0
  0
POINT
  5
270
  8
3
 10
4069.58933558122
 20
400.605968099154
 30
0.0
  0
POINT
  5
271
  8
3
 10
4080.86809979342
 20
402.913920529823
 30
0.0
  0
POINT
  5
272
  8
3
 10
4092.08724291688
 20
405.379180874984
 30
0.0
  0
POINT
  5
273
  8
3
 10
4103.25301702388
 20
407.990219404624
 30
0.0
  0
POINT
  5
274
  8
3
 10
4114.37167418668
 20
410.735506388729
 30
0.0
  0
POINT
  5
275
  8
3
 10
4125.44946647756
 20
413.603512097285
 30
0.0
  0
POINT
  5
276
  8
3
 10
4136.49264596879
 20
416.582706800281
 30
0.0
  0
POINT
  5
277
  8
3
 10
4147.50746473265
 20
419.661560767702
 30
0.0
  0
POINT
  5
278
  8
3
 10
4158.5001748414
 20
422.828544269536
 30
0.0
  0
POINT
  5
279
  8
3
 10
4169.47702836732
 20
426.072127575769
 30
0.0
  0
POINT
  5
27A
  8
3
 10
4180.44427738267
 20
429.380780956387
 30
0.0
  0
POINT
  5
27B
  8
3
 10
4191.40817395974
 20
432.742974681379
 30
0.0
  0
POINT
  5
27C
  8
3
 10
4202.37497017079
 20
436.147179020729
 30
0.0
  0
POINT
  5
27D
  8
3
 10
4213.3509180881
 20
439.581864244426
 30
0.0
  0
POINT
  5
27E
  8
2
 10
4235.35527733057
 20
446.496558424805
 30
0.0
  0
POINT
  5
27F
  8
2
 10
4336.63013553552
 20
480.463417321415
 30
0.0
  0
POINT
  5
280
  8
2
 10
4399.7901551748
 20
501.859195928223
 30
0.0
  0
POINT
  5
281
  8
3
 10
4402.95105605659
 20
492.111224904012
 30
0.0
  0
POINT
  5
282
  8
3
 10
4406.0164410183
 20
482.518337695582
 30
0.0
  0
POINT
  5
283
  8
3
 10
4409.10427880404
 20
473.072139229277
 30
0.0
  0
POINT
  5
284
  8
3
 10
4412.33253815795
 20
463.76423443144
 30
0.0
  0
POINT
  5
285
  8
3
 10
4414.0361911555
 20
459.159518697681
 30
0.0
  0
POINT
  5
286
  8
3
 10
4415.81918782415
 20
454.586228228417
 30
0.0
  0
POINT
  5
287
  8
3
 10
4417.69627425689
 20
450.043313639442
 30
0.0
  0
POINT
  5
288
  8
3
 10
4419.68219654675
 20
445.52972554655
 30
0.0
  0
POINT
  5
289
  8
3
 10
4421.79170078675
 20
441.044414565532
 30
0.0
  0
POINT
  5
28A
  8
3
 10
4424.03953306989
 20
436.586331312183
 30
0.0
  0
POINT
  5
28B
  8
3
 10
4426.4404394892
 20
432.154426402295
 30
0.0
  0
POINT
  5
28C
  8
2
 10
4429.0091661377
 20
427.747650451661
 30
0.0
  0
POINT
  5
28D
  8
3
 10
4432.21778744703
 20
425.007487725263
 30
0.0
  0
POINT
  5
28E
  8
3
 10
4435.52060417218
 20
422.391874166841
 30
0.0
  0
POINT
  5
28F
  8
3
 10
4438.91293155027
 20
419.895895276913
 30
0.0
  0
POINT
  5
290
  8
3
 10
4442.39008481841
 20
417.514636555996
 30
0.0
  0
POINT
  5
291
  8
3
 10
4445.94737921373
 20
415.243183504608
 30
0.0
  0
POINT
  5
292
  8
3
 10
4449.58012997335
 20
413.076621623265
 30
0.0
  0
POINT
  5
293
  8
3
 10
4453.28365233438
 20
411.010036412486
 30
0.0
  0
POINT
  5
294
  8
3
 10
4457.05326153395
 20
409.038513372788
 30
0.0
  0
POINT
  5
295
  8
3
 10
4460.88427280917
 20
407.157138004688
 30
0.0
  0
POINT
  5
296
  8
3
 10
4464.77200139717
 20
405.360995808703
 30
0.0
  0
POINT
  5
297
  8
3
 10
4468.71176253507
 20
403.64517228535
 30
0.0
  0
POINT
  5
298
  8
3
 10
4472.69887145998
 20
402.004752935148
 30
0.0
  0
POINT
  5
299
  8
3
 10
4476.72864340903
 20
400.434823258613
 30
0.0
  0
POINT
  5
29A
  8
3
 10
4480.79639361933
 20
398.930468756264
 30
0.0
  0
POINT
  5
29B
  8
3
 10
4489.02708977219
 20
396.098827276188
 30
0.0
  0
POINT
  5
29C
  8
3
 10
4497.35348181552
 20
393.470512499059
 30
0.0
  0
POINT
  5
29D
  8
3
 10
4505.73809164627
 20
391.006208429017
 30
0.0
  0
POINT
  5
29E
  8
3
 10
4514.1434411614
 20
388.6665990702
 30
0.0
  0
POINT
  5
29F
  8
3
 10
4522.53205225788
 20
386.412368426748
 30
0.0
  0
POINT
  5
2A0
  8
3
 10
4539.10914678273
 20
382.00277930249
 30
0.0
  0
POINT
  5
2A1
  8
3
 10
4547.22267400501
 20
379.768788829963
 30
0.0
  0
POINT
  5
2A2
  8
2
 10
4555.16955039648
 20
377.462913089356
 30
0.0
  0
POINT
  5
2A3
  8
2
 10
4675.47441327001
 20
331.595543301766
 30
0.0
  0
LINE
  5
2A4
  8
11
 10
4237.75475370286
 20
91.0221914841501
 30
0.0
 11
4237.75475431444
 21
89.4221914841502
 31
0.0
  0
LINE
  5
2A5
  8
11
 10
3904.89537972559
 20
137.761780230957
 30
0.0
 11
3904.89538033717
 21
136.161780230957
 31
0.0
  0
LINE
  5
2A6
  8
11
 10
3904.53557684289
 20
387.127137305062
 30
0.0
 11
3904.5355762313
 21
388.727137305062
 31
0.0
  0
LINE
  5
2A7
  8
11
 10
4235.35527733057
 20
446.496558424805
 30
0.0
 11
4235.21582814217
 21
448.090469941752
 31
0.0
  0
ENDBLK
  5
20C
  8
1
  0
BLOCK
  8
1
  2
7
 70
    64
 10
0.0
 20
0.0
 30
0.0
  3
7
  1

  0
TEXT
  5
2AA
  8
1
100
AcDbText
 10
3801.07901525879
 20
864.647671875
 30
0.0
 40
7.0
  1
Size: 32
100
AcDbText
  0
TEXT
  5
2AB
  8
1
100
AcDbText
 10
3801.07901525879
 20
871.647671875
 30
0.0
 40
7.0
  1
Model: JEAN
100
AcDbText
  0
TEXT
  5
2AC
  8
1
100
AcDbText
 10
3801.07901525879
 20
878.647671875
 30
0.0
 40
7.0
  1
Piece Name: LOOP-1
100
AcDbText
  0
TEXT
  5
2AD
  8
1
100
AcDbText
 10
3801.07901525879
 20
892.647671875
 30
0.0
 40
7.0
  1
Quantity: 1,0
100
AcDbText
  0
TEXT
  5
2AE
  8
1
100
AcDbText
 10
3801.07901525879
 20
899.647671875
 30
0.0
 40
7.0
  1
Material: SHEL
100
AcDbText
  0
POLYLINE
  5
2AF
  8
1
100
AcDb2dPolyline
 66
     1
 10
0.0
 20
0.0
 30
0.0
 70
     1
  0
VERTEX
  5
2B0
  8
1
100
AcDbVertex
100
AcDb2dVertex
 10
3547.07915258789
 20
865.884
 30
0.0
 70
     0
 50
0.0
  0
VERTEX
  5
2B1
  8
1
100
AcDbVertex
100
AcDb2dVertex
 10
3547.079
 20
891.411267456055
 30
0.0
 70
     0
 50
0.0
  0
VERTEX
  5
2B2
  8
1
100
AcDbVertex
100
AcDb2dVertex
 10
4016.97913122559
 20
891.41134375
 30
0.0
 70
     0
 50
0.0
  0
VERTEX
  5
2B3
  8
1
100
AcDbVertex
100
AcDb2dVertex
 10
4055.07903051758
 20
885.061322387696
 30
0.0
 70
     0
 50
0.0
  0
VERTEX
  5
2B4
  8
1
100
AcDbVertex
100
AcDb2dVertex
 10
4055.07895422363
 20
872.23409765625
 30
0.0
 70
     0
 50
0.0
  0
VERTEX
  5
2B5
  8
1
100
AcDbVertex
100
AcDb2dVertex
 10
4016.97890234375
 20
865.884076293946
 30
0.0
 70
     0
 50
0.0
  0
SEQEND
  5
2B6
  8
0
  0
POINT
  5
2B7
  8
2
 10
3547.07915258789
 20
865.884
 30
0.0
  0
POINT
  5
2B8
  8
2
 10
3547.079
 20
891.411267456055
 30
0.0
  0
POINT
  5
2B9
  8
2
 10
4016.97913122559
 20
891.41134375
 30
0.0
  0
POINT
  5
2BA
  8
2
 10
4055.07903051758
 20
885.061322387696
 30
0.0
  0
POINT
  5
2BB
  8
2
 10
4055.07895422363
 20
872.23409765625
 30
0.0
  0
POINT
  5
2BC
  8
2
 10
4016.97890234375
 20
865.884076293946
 30
0.0
  0
ENDBLK
  5
2A9
  8
1
  0
BLOCK
  8
1
  2
8
 70
    64
 10
0.0
 20
0.0
 30
0.0
  3
8
  1

  0
TEXT
  5
2BF
  8
1
100
AcDbText
 10
3919.78842949895
 20
1240.48748125569
 30
0.0
 40
7.0
  1
Size: 32
100
AcDbText
  0
TEXT
  5
2C0
  8
1
100
AcDbText
 10
3919.78842949895
 20
1247.48748125569
 30
0.0
 40
7.0
  1
Model: JEAN
100
AcDbText
  0
TEXT
  5
2C1
  8
1
100
AcDbText
 10
3919.78842949895
 20
1254.48748125569
 30
0.0
 40
7.0
  1
Piece Name: FT-PKT-FC-LT
100
AcDbText
  0
TEXT
  5
2C2
  8
1
100
AcDbText
 10
3919.78842949895
 20
1268.48748125569
 30
0.0
 40
7.0
  1
Quantity: 1,0
100
AcDbText
  0
TEXT
  5
2C3
  8
1
100
AcDbText
 10
3919.78842949895
 20
1275.48748125569
 30
0.0
 40
7.0
  1
Material: SHEL
100
AcDbText
  0
POLYLINE
  5
2C4
  8
1
100
AcDb2dPolyline
 66
     1
 10
0.0
 20
0.0
 30
0.0
 70
     1
  0
VERTEX
  5
2C5
  8
1
100
AcDbVertex
100
AcDb2dVertex
 10
3994.03471863067
 20
1182.77986101913
 30
0.0
 70
     0
 50
0.0
  0
VERTEX
  5
2C6
  8
1
100
AcDbVertex
100
AcDb2dVertex
 10
3982.28577058508
 20
1180.22825810846
 30
0.0
 70
     0
 50
0.0
  0
VERTEX
  5
2C7
  8
1
100
AcDbVertex
100
AcDb2dVertex
 10
3972.60686554516
 20
1178.09710895929
 30
0.0
 70
     0
 50
0.0
  0
VERTEX
  5
2C8
  8
1
100
AcDbVertex
100
AcDb2dVertex
 10
3958.35642206403
 20
1174.90547465586
 30
0.0
 70
     0
 50
0.0
  0
VERTEX
  5
2C9
  8
1
100
AcDbVertex
100
AcDb2dVertex
 10
3949.07786335069
 20
1172.82356352972
 30
0.0
 70
     0
 50
0.0
  0
VERTEX
  5
2CA
  8
1
100
AcDbVertex
100
AcDb2dVertex
 10
3942.56566456852
 20
1171.46998100174
 30
0.0
 70
     0
 50
0.0
  0
VERTEX
  5
2CB
  8
1
100
AcDbVertex
100
AcDb2dVertex
 10
3936.61430088091
 20
1170.46333249277
 30
0.0
 70
     0
 50
0.0
  0
VERTEX
  5
2CC
  8
1
100
AcDbVertex
100
AcDb2dVertex
 10
3929.01824745125
 20
1169.42222342369
 30
0.0
 70
     0
 50
0.0
  0
VERTEX
  5
2CD
  8
1
100
AcDbVertex
100
AcDb2dVertex
 10
3900.06997201934
 20
1165.71104528867
 30
0.0
 70
     0
 50
0.0
  0
VERTEX
  5
2CE
  8
1
100
AcDbVertex
100
AcDb2dVertex
 10
3846.99667257559
 20
1162.061875
 30
0.0
 70
     0
 50
0.0
  0
VERTEX
  5
2CF
  8
1
100
AcDbVertex
100
AcDb2dVertex
 10
3846.48557195433
 20
1174.7567244279
 30
0.0
 70
     0
 50
0.0
  0
VERTEX
  5
2D0
  8
1
100
AcDbVertex
100
AcDb2dVertex
 10
3845.744664
 20
1196.12054873574
 30
0.0
 70
     0
 50
0.0
  0
VERTEX
  5
2D1
  8
1
100
AcDbVertex
100
AcDb2dVertex
 10
3845.58393665895
 20
1211.74287121831
 30
0.0
 70
     0
 50
0.0
  0
VERTEX
  5
2D2
  8
1
100
AcDbVertex
100
AcDb2dVertex
 10
3845.54214036723
 20
1219.61829759156
 30
0.0
 70
     0
 50
0.0
  0
VERTEX
  5
2D3
  8
1
100
AcDbVertex
100
AcDb2dVertex
 10
3845.59176946983
 20
1227.5076993841
 30
0.0
 70
     0
 50
0.0
  0
VERTEX
  5
2D4
  8
1
100
AcDbVertex
100
AcDb2dVertex
 10
3845.78210932309
 20
1235.3894255944
 30
0.0
 70
     0
 50
0.0
  0
VERTEX
  5
2D5
  8
1
100
AcDbVertex
100
AcDb2dVertex
 10
3846.16244528335
 20
1243.24182522095
 30
0.0
 70
     0
 50
0.0
  0
VERTEX
  5
2D6
  8
1
100
AcDbVertex
100
AcDb2dVertex
 10
3846.78206270695
 20
1251.04324726224
 30
0.0
 70
     0
 50
0.0
  0
VERTEX
  5
2D7
  8
1
100
AcDbVertex
100
AcDb2dVertex
 10
3847.19700364135
 20
1254.91807575043
 30
0.0
 70
     0
 50
0.0
  0
VERTEX
  5
2D8
  8
1
100
AcDbVertex
100
AcDb2dVertex
 10
3847.69024695022
 20
1258.77204071674
 30
0.0
 70
     0
 50
0.0
  0
VERTEX
  5
2D9
  8
1
100
AcDbVertex
100
AcDb2dVertex
 10
3848.37203131635
 20
1263.07311565106
 30
0.0
 70
     0
 50
0.0
  0
VERTEX
  5
2DA
  8
1
100
AcDbVertex
100
AcDb2dVertex
 10
3849.1951660593
 20
1267.34864793257
 30
0.0
 70
     0
 50
0.0
  0
VERTEX
  5
2DB
  8
1
100
AcDbVertex
100
AcDb2dVertex
 10
3850.12703186135
 20
1271.60453201961
 30
0.0
 70
     0
 50
0.0
  0
VERTEX
  5
2DC
  8
1
100
AcDbVertex
100
AcDb2dVertex
 10
3851.13500940476
 20
1275.84666237052
 30
0.0
 70
     0
 50
0.0
  0
VERTEX
  5
2DD
  8
1
100
AcDbVertex
100
AcDb2dVertex
 10
3853.24882244477
 20
1284.31323969731
 30
0.0
 70
     0
 50
0.0
  0
VERTEX
  5
2DE
  8
1
100
AcDbVertex
100
AcDb2dVertex
 10
3855.27565063751
 20
1292.79553557968
 30
0.0
 70
     0
 50
0.0
  0
VERTEX
  5
2DF
  8
1
100
AcDbVertex
100
AcDb2dVertex
 10
3857.85308595519
 20
1299.12361729089
 30
0.0
 70
     0
 50
0.0
  0
VERTEX
  5
2E0
  8
1
100
AcDbVertex
100
AcDb2dVertex
 10
3859.70825327797
 20
1303.81651617138
 30
0.0
 70
     0
 50
0.0
  0
VERTEX
  5
2E1
  8
1
100
AcDbVertex
100
AcDb2dVertex
 10
3862.06300340917
 20
1309.70995233481
 30
0.0
 70
     0
 50
0.0
  0
VERTEX
  5
2E2
  8
1
100
AcDbVertex
100
AcDb2dVertex
 10
3862.9681959528
 20
1311.61708306505
 30
0.0
 70
     0
 50
0.0
  0
VERTEX
  5
2E3
  8
1
100
AcDbVertex
100
AcDb2dVertex
 10
3863.9623399719
 20
1313.30221785919
 30
0.0
 70
     0
 50
0.0
  0
VERTEX
  5
2E4
  8
1
100
AcDbVertex
100
AcDb2dVertex
 10
3865.24824033408
 20
1315.11865344087
 30
0.0
 70
     0
 50
0.0
  0
VERTEX
  5
2E5
  8
1
100
AcDbVertex
100
AcDb2dVertex
 10
3867.02870190693
 20
1317.41968653375
 30
0.0
 70
     0
 50
0.0
  0
VERTEX
  5
2E6
  8
1
100
AcDbVertex
100
AcDb2dVertex
 10
3875.79546238001
 20
1328.68893953542
 30
0.0
 70
     0
 50
0.0
  0
VERTEX
  5
2E7
  8
1
100
AcDbVertex
100
AcDb2dVertex
 10
3883.30951277633
 20
1332.36024346596
 30
0.0
 70
     0
 50
0.0
  0
VERTEX
  5
2E8
  8
1
100
AcDbVertex
100
AcDb2dVertex
 10
3889.87585861261
 20
1335.62044016116
 30
0.0
 70
     0
 50
0.0
  0
VERTEX
  5
2E9
  8
1
100
AcDbVertex
100
AcDb2dVertex
 10
3895.87932625784
 20
1338.46901577657
 30
0.0
 70
     0
 50
0.0
  0
VERTEX
  5
2EA
  8
1
100
AcDbVertex
100
AcDb2dVertex
 10
3901.70474208102
 20
1340.90545646772
 30
0.0
 70
     0
 50
0.0
  0
VERTEX
  5
2EB
  8
1
100
AcDbVertex
100
AcDb2dVertex
 10
3904.67093879964
 20
1341.96896564032
 30
0.0
 70
     0
 50
0.0
  0
VERTEX
  5
2EC
  8
1
100
AcDbVertex
100
AcDb2dVertex
 10
3907.73693245112
 20
1342.92924839018
 30
0.0
 70
     0
 50
0.0
  0
VERTEX
  5
2ED
  8
1
100
AcDbVertex
100
AcDb2dVertex
 10
3910.95082633158
 20
1343.78624048675
 30
0.0
 70
     0
 50
0.0
  0
VERTEX
  5
2EE
  8
1
100
AcDbVertex
100
AcDb2dVertex
 10
3914.36072373714
 20
1344.53987769947
 30
0.0
 70
     0
 50
0.0
  0
VERTEX
  5
2EF
  8
1
100
AcDbVertex
100
AcDb2dVertex
 10
3918.01472796393
 20
1345.19009579779
 30
0.0
 70
     0
 50
0.0
  0
VERTEX
  5
2F0
  8
1
100
AcDbVertex
100
AcDb2dVertex
 10
3921.96094230806
 20
1345.73683055115
 30
0.0
 70
     0
 50
0.0
  0
VERTEX
  5
2F1
  8
1
100
AcDbVertex
100
AcDb2dVertex
 10
3926.24747006567
 20
1346.180017729
 30
0.0
 70
     0
 50
0.0
  0
VERTEX
  5
2F2
  8
1
100
AcDbVertex
100
AcDb2dVertex
 10
3930.92241453288
 20
1346.51959310077
 30
0.0
 70
     0
 50
0.0
  0
VERTEX
  5
2F3
  8
1
100
AcDbVertex
100
AcDb2dVertex
 10
3939.05217316314
 20
1346.84110080333
 30
0.0
 70
     0
 50
0.0
  0
VERTEX
  5
2F4
  8
1
100
AcDbVertex
100
AcDb2dVertex
 10
3943.56669096699
 20
1346.90829924882
 30
0.0
 70
     0
 50
0.0
  0
VERTEX
  5
2F5
  8
1
100
AcDbVertex
100
AcDb2dVertex
 10
3948.41085881064
 20
1346.91308751138
 30
0.0
 70
     0
 50
0.0
  0
VERTEX
  5
2F6
  8
1
100
AcDbVertex
100
AcDb2dVertex
 10
3953.60709497958
 20
1346.85543565669
 30
0.0
 70
     0
 50
0.0
  0
VERTEX
  5
2F7
  8
1
100
AcDbVertex
100
AcDb2dVertex
 10
3959.17781775933
 20
1346.73531375045
 30
0.0
 70
     0
 50
0.0
  0
VERTEX
  5
2F8
  8
1
100
AcDbVertex
100
AcDb2dVertex
 10
3971.53239629319
 20
1346.30754004607
 30
0.0
 70
     0
 50
0.0
  0
VERTEX
  5
2F9
  8
1
100
AcDbVertex
100
AcDb2dVertex
 10
3984.22883472493
 20
1345.94462822566
 30
0.0
 70
     0
 50
0.0
  0
VERTEX
  5
2FA
  8
1
100
AcDbVertex
100
AcDb2dVertex
 10
3983.83188780105
 20
1314.4786517179
 30
0.0
 70
     0
 50
0.0
  0
VERTEX
  5
2FB
  8
1
100
AcDbVertex
100
AcDb2dVertex
 10
3984.29067618146
 20
1296.70491595184
 30
0.0
 70
     0
 50
0.0
  0
SEQEND
  5
2FC
  8
0
  0
POINT
  5
2FD
  8
2
 10
3994.03471863067
 20
1182.77986101913
 30
0.0
  0
POINT
  5
2FE
  8
3
 10
3982.28577058508
 20
1180.22825810846
 30
0.0
  0
POINT
  5
2FF
  8
3
 10
3972.60686554516
 20
1178.09710895929
 30
0.0
  0
POINT
  5
300
  8
3
 10
3958.35642206403
 20
1174.90547465586
 30
0.0
  0
POINT
  5
301
  8
3
 10
3949.07786335069
 20
1172.82356352972
 30
0.0
  0
POINT
  5
302
  8
3
 10
3942.56566456852
 20
1171.46998100174
 30
0.0
  0
POINT
  5
303
  8
3
 10
3936.61430088091
 20
1170.46333249277
 30
0.0
  0
POINT
  5
304
  8
3
 10
3929.01824745125
 20
1169.42222342369
 30
0.0
  0
POINT
  5
305
  8
2
 10
3900.06997201934
 20
1165.71104528867
 30
0.0
  0
POINT
  5
306
  8
2
 10
3846.99667257559
 20
1162.061875
 30
0.0
  0
POINT
  5
307
  8
2
 10
3846.48557195433
 20
1174.7567244279
 30
0.0
  0
POINT
  5
308
  8
2
 10
3845.744664
 20
1196.12054873574
 30
0.0
  0
POINT
  5
309
  8
3
 10
3845.58393665895
 20
1211.74287121831
 30
0.0
  0
POINT
  5
30A
  8
3
 10
3845.54214036723
 20
1219.61829759156
 30
0.0
  0
POINT
  5
30B
  8
3
 10
3845.59176946983
 20
1227.5076993841
 30
0.0
  0
POINT
  5
30C
  8
3
 10
3845.78210932309
 20
1235.3894255944
 30
0.0
  0
POINT
  5
30D
  8
3
 10
3846.16244528335
 20
1243.24182522095
 30
0.0
  0
POINT
  5
30E
  8
3
 10
3846.78206270695
 20
1251.04324726224
 30
0.0
  0
POINT
  5
30F
  8
3
 10
3847.19700364135
 20
1254.91807575043
 30
0.0
  0
POINT
  5
310
  8
2
 10
3847.69024695022
 20
1258.77204071674
 30
0.0
  0
POINT
  5
311
  8
3
 10
3848.37203131635
 20
1263.07311565106
 30
0.0
  0
POINT
  5
312
  8
3
 10
3849.1951660593
 20
1267.34864793257
 30
0.0
  0
POINT
  5
313
  8
3
 10
3850.12703186135
 20
1271.60453201961
 30
0.0
  0
POINT
  5
314
  8
3
 10
3851.13500940476
 20
1275.84666237052
 30
0.0
  0
POINT
  5
315
  8
3
 10
3853.24882244477
 20
1284.31323969731
 30
0.0
  0
POINT
  5
316
  8
2
 10
3855.27565063751
 20
1292.79553557968
 30
0.0
  0
POINT
  5
317
  8
3
 10
3857.85308595519
 20
1299.12361729089
 30
0.0
  0
POINT
  5
318
  8
3
 10
3859.70825327797
 20
1303.81651617138
 30
0.0
  0
POINT
  5
319
  8
3
 10
3862.06300340917
 20
1309.70995233481
 30
0.0
  0
POINT
  5
31A
  8
3
 10
3862.9681959528
 20
1311.61708306505
 30
0.0
  0
POINT
  5
31B
  8
3
 10
3863.9623399719
 20
1313.30221785919
 30
0.0
  0
POINT
  5
31C
  8
3
 10
3865.24824033408
 20
1315.11865344087
 30
0.0
  0
POINT
  5
31D
  8
2
 10
3867.02870190693
 20
1317.41968653375
 30
0.0
  0
POINT
  5
31E
  8
2
 10
3875.79546238001
 20
1328.68893953542
 30
0.0
  0
POINT
  5
31F
  8
3
 10
3883.30951277633
 20
1332.36024346596
 30
0.0
  0
POINT
  5
320
  8
3
 10
3889.87585861261
 20
1335.62044016116
 30
0.0
  0
POINT
  5
321
  8
3
 10
3895.87932625784
 20
1338.46901577657
 30
0.0
  0
POINT
  5
322
  8
3
 10
3901.70474208102
 20
1340.90545646772
 30
0.0
  0
POINT
  5
323
  8
3
 10
3904.67093879964
 20
1341.96896564032
 30
0.0
  0
POINT
  5
324
  8
3
 10
3907.73693245112
 20
1342.92924839018
 30
0.0
  0
POINT
  5
325
  8
3
 10
3910.95082633158
 20
1343.78624048675
 30
0.0
  0
POINT
  5
326
  8
3
 10
3914.36072373714
 20
1344.53987769947
 30
0.0
  0
POINT
  5
327
  8
3
 10
3918.01472796393
 20
1345.19009579779
 30
0.0
  0
POINT
  5
328
  8
3
 10
3921.96094230806
 20
1345.73683055115
 30
0.0
  0
POINT
  5
329
  8
3
 10
3926.24747006567
 20
1346.180017729
 30
0.0
  0
POINT
  5
32A
  8
2
 10
3930.92241453288
 20
1346.51959310077
 30
0.0
  0
POINT
  5
32B
  8
3
 10
3939.05217316314
 20
1346.84110080333
 30
0.0
  0
POINT
  5
32C
  8
3
 10
3943.56669096699
 20
1346.90829924882
 30
0.0
  0
POINT
  5
32D
  8
3
 10
3948.41085881064
 20
1346.91308751138
 30
0.0
  0
POINT
  5
32E
  8
3
 10
3953.60709497958
 20
1346.85543565669
 30
0.0
  0
POINT
  5
32F
  8
3
 10
3959.17781775933
 20
1346.73531375045
 30
0.0
  0
POINT
  5
330
  8
2
 10
3971.53239629319
 20
1346.30754004607
 30
0.0
  0
POINT
  5
331
  8
2
 10
3984.22883472493
 20
1345.94462822566
 30
0.0
  0
POINT
  5
332
  8
2
 10
3983.83188780105
 20
1314.4786517179
 30
0.0
  0
POINT
  5
333
  8
2
 10
3984.29067618146
 20
1296.70491595184
 30
0.0
  0
LINE
  5
334
  8
11
 10
3900.06997201934
 20
1165.71104528867
 30
0.0
 11
3900.06997201934
 21
1164.11104528867
 31
0.0
  0
LINE
  5
335
  8
11
 10
3983.83188780105
 20
1314.4786517179
 30
0.0
 11
3985.43188780105
 21
1314.4786517179
 31
0.0
  0
ENDBLK
  5
2BE
  8
1
  0
BLOCK
  8
1
  2
9
 70
    64
 10
0.0
 20
0.0
 30
0.0
  3
9
  1

  0
TEXT
  5
338
  8
1
100
AcDbText
 10
4137.32450889038
 20
1080.05580639127
 30
0.0
 40
7.0
  1
Size: 32
100
AcDbText
  0
TEXT
  5
339
  8
1
100
AcDbText
 10
4137.32450889038
 20
1087.05580639127
 30
0.0
 40
7.0
  1
Model: JEAN
100
AcDbText
  0
TEXT
  5
33A
  8
1
100
AcDbText
 10
4137.32450889038
 20
1094.05580639127
 30
0.0
 40
7.0
  1
Piece Name: BK-PKT-ZIG {SH 4 X 18%}
100
AcDbText
  0
TEXT
  5
33B
  8
1
100
AcDbText
 10
4137.32450889038
 20
1108.05580639127
 30
0.0
 40
7.0
  1
Quantity: 1,1
100
AcDbText
  0
TEXT
  5
33C
  8
1
100
AcDbText
 10
4137.32450889038
 20
1115.05580639127
 30
0.0
 40
7.0
  1
Material: SHEL
100
AcDbText
  0
POLYLINE
  5
33D
  8
1
100
AcDb2dPolyline
 66
     1
 10
0.0
 20
0.0
 30
0.0
 70
     1
  0
VERTEX
  5
33E
  8
1
100
AcDbVertex
100
AcDb2dVertex
 10
4023.92673
 20
1094.06691473087
 30
0.0
 70
     0
 50
0.0
  0
VERTEX
  5
33F
  8
1
100
AcDbVertex
100
AcDb2dVertex
 10
4044.84009876758
 20
1189.37508454142
 30
0.0
 70
     0
 50
0.0
  0
VERTEX
  5
340
  8
1
100
AcDbVertex
100
AcDb2dVertex
 10
4231.15544757822
 20
1217.58262178254
 30
0.0
 70
     0
 50
0.0
  0
VERTEX
  5
341
  8
1
100
AcDbVertex
100
AcDb2dVertex
 10
4250.72188238224
 20
1204.74348190039
 30
0.0
 70
     0
 50
0.0
  0
VERTEX
  5
342
  8
1
100
AcDbVertex
100
AcDb2dVertex
 10
4250.72228778076
 20
983.390180755288
 30
0.0
 70
     0
 50
0.0
  0
VERTEX
  5
343
  8
1
100
AcDbVertex
100
AcDb2dVertex
 10
4231.15294317326
 20
970.528991
 30
0.0
 70
     0
 50
0.0
  0
VERTEX
  5
344
  8
1
100
AcDbVertex
100
AcDb2dVertex
 10
4044.88533978565
 20
998.550389989175
 30
0.0
 70
     0
 50
0.0
  0
SEQEND
  5
345
  8
0
  0
POINT
  5
346
  8
2
 10
4023.92673
 20
1094.06691473087
 30
0.0
  0
POINT
  5
347
  8
2
 10
4044.84009876758
 20
1189.37508454142
 30
0.0
  0
POINT
  5
348
  8
2
 10
4231.15544757822
 20
1217.58262178254
 30
0.0
  0
POINT
  5
349
  8
2
 10
4250.72188238224
 20
1204.74348190039
 30
0.0
  0
POINT
  5
34A
  8
2
 10
4250.72228778076
 20
983.390180755288
 30
0.0
  0
POINT
  5
34B
  8
2
 10
4231.15294317326
 20
970.528991
 30
0.0
  0
POINT
  5
34C
  8
2
 10
4044.88533978565
 20
998.550389989175
 30
0.0
  0
ENDBLK
  5
337
  8
1
  0
BLOCK
  8
1
  2
10
 70
    64
 10
0.0
 20
0.0
 30
0.0
  3
10
  1

  0
TEXT
  5
34F
  8
1
100
AcDbText
 10
4681.3648303833
 20
451.099658966065
 30
0.0
 40
7.0
  1
Size: 32
100
AcDbText
  0
TEXT
  5
350
  8
1
100
AcDbText
 10
4681.3648303833
 20
458.099658966065
 30
0.0
 40
7.0
  1
Model: JEAN
100
AcDbText
  0
TEXT
  5
351
  8
1
100
AcDbText
 10
4681.3648303833
 20
465.099658966065
 30
0.0
 40
7.0
  1
Piece Name: FLY
100
AcDbText
  0
TEXT
  5
352
  8
1
100
AcDbText
 10
4681.3648303833
 20
479.099658966065
 30
0.0
 40
7.0
  1
Quantity: 1,0
100
AcDbText
  0
TEXT
  5
353
  8
1
100
AcDbText
 10
4681.3648303833
 20
486.099658966065
 30
0.0
 40
7.0
  1
Material: SHEL
100
AcDbText
  0
POLYLINE
  5
354
  8
1
100
AcDb2dPolyline
 66
     1
 10
0.0
 20
0.0
 30
0.0
 70
     1
  0
VERTEX
  5
355
  8
1
100
AcDbVertex
100
AcDb2dVertex
 10
4797.2956607666
 20
495.199203491211
 30
0.0
 70
     0
 50
0.0
  0
VERTEX
  5
356
  8
1
100
AcDbVertex
100
AcDb2dVertex
 10
4796.81741217041
 20
435.000343322754
 30
0.0
 70
     0
 50
0.0
  0
VERTEX
  5
357
  8
1
100
AcDbVertex
100
AcDb2dVertex
 10
4565.434
 20
435.0
 30
0.0
 70
     0
 50
0.0
  0
VERTEX
  5
358
  8
1
100
AcDbVertex
100
AcDb2dVertex
 10
4567.02755588347
 20
442.012551611776
 30
0.0
 70
     0
 50
0.0
  0
VERTEX
  5
359
  8
1
100
AcDbVertex
100
AcDb2dVertex
 10
4568.53283166575
 20
448.185995174317
 30
0.0
 70
     0
 50
0.0
  0
VERTEX
  5
35A
  8
1
100
AcDbVertex
100
AcDb2dVertex
 10
4570.14192367983
 20
453.764900240745
 30
0.0
 70
     0
 50
0.0
  0
VERTEX
  5
35B
  8
1
100
AcDbVertex
100
AcDb2dVertex
 10
4572.04692825868
 20
458.993836364183
 30
0.0
 70
     0
 50
0.0
  0
VERTEX
  5
35C
  8
1
100
AcDbVertex
100
AcDb2dVertex
 10
4573.17042786396
 20
461.553494057632
 30
0.0
 70
     0
 50
0.0
  0
VERTEX
  5
35D
  8
1
100
AcDbVertex
100
AcDb2dVertex
 10
4574.4399417353
 20
464.117373097755
 30
0.0
 70
     0
 50
0.0
  0
VERTEX
  5
35E
  8
1
100
AcDbVertex
100
AcDb2dVertex
 10
4575.87948191432
 20
466.716044678692
 30
0.0
 70
     0
 50
0.0
  0
VERTEX
  5
35F
  8
1
100
AcDbVertex
100
AcDb2dVertex
 10
4577.51306044266
 20
469.380079994583
 30
0.0
 70
     0
 50
0.0
  0
VERTEX
  5
360
  8
1
100
AcDbVertex
100
AcDb2dVertex
 10
4579.36468936193
 20
472.140050239569
 30
0.0
 70
     0
 50
0.0
  0
VERTEX
  5
361
  8
1
100
AcDbVertex
100
AcDb2dVertex
 10
4581.45838071376
 20
475.02652660779
 30
0.0
 70
     0
 50
0.0
  0
VERTEX
  5
362
  8
1
100
AcDbVertex
100
AcDb2dVertex
 10
4583.81814653976
 20
478.070080293386
 30
0.0
 70
     0
 50
0.0
  0
VERTEX
  5
363
  8
1
100
AcDbVertex
100
AcDb2dVertex
 10
4586.46799888157
 20
481.301282490499
 30
0.0
 70
     0
 50
0.0
  0
VERTEX
  5
364
  8
1
100
AcDbVertex
100
AcDb2dVertex
 10
4588.8565622553
 20
483.819053855924
 30
0.0
 70
     0
 50
0.0
  0
VERTEX
  5
365
  8
1
100
AcDbVertex
100
AcDb2dVertex
 10
4591.56795339217
 20
486.039884097182
 30
0.0
 70
     0
 50
0.0
  0
VERTEX
  5
366
  8
1
100
AcDbVertex
100
AcDb2dVertex
 10
4594.54878942073
 20
487.851892892638
 30
0.0
 70
     0
 50
0.0
  0
VERTEX
  5
367
  8
1
100
AcDbVertex
100
AcDb2dVertex
 10
4597.74568746948
 20
489.143199920654
 30
0.0
 70
     0
 50
0.0
  0
VERTEX
  5
368
  8
1
100
AcDbVertex
100
AcDb2dVertex
 10
4601.98898182949
 20
490.29603130004
 30
0.0
 70
     0
 50
0.0
  0
VERTEX
  5
369
  8
1
100
AcDbVertex
100
AcDb2dVertex
 10
4606.28215613361
 20
491.2388375299
 30
0.0
 70
     0
 50
0.0
  0
VERTEX
  5
36A
  8
1
100
AcDbVertex
100
AcDb2dVertex
 10
4610.61369962553
 20
492.020085952434
 30
0.0
 70
     0
 50
0.0
  0
VERTEX
  5
36B
  8
1
100
AcDbVertex
100
AcDb2dVertex
 10
4614.9721015489
 20
492.688243909838
 30
0.0
 70
     0
 50
0.0
  0
VERTEX
  5
36C
  8
1
100
AcDbVertex
100
AcDb2dVertex
 10
4623.72343766466
 20
493.879157798053
 30
0.0
 70
     0
 50
0.0
  0
VERTEX
  5
36D
  8
1
100
AcDbVertex
100
AcDb2dVertex
 10
4632.44407843018
 20
495.199317932129
 30
0.0
 70
     0
 50
0.0
  0
SEQEND
  5
36E
  8
0
  0
POINT
  5
36F
  8
2
 10
4797.2956607666
 20
495.199203491211
 30
0.0
  0
POINT
  5
370
  8
2
 10
4796.81741217041
 20
435.000343322754
 30
0.0
  0
POINT
  5
371
  8
2
 10
4565.434
 20
435.0
 30
0.0
  0
POINT
  5
372
  8
3
 10
4567.02755588347
 20
442.012551611776
 30
0.0
  0
POINT
  5
373
  8
3
 10
4568.53283166575
 20
448.185995174317
 30
0.0
  0
POINT
  5
374
  8
3
 10
4570.14192367983
 20
453.764900240745
 30
0.0
  0
POINT
  5
375
  8
3
 10
4572.04692825868
 20
458.993836364183
 30
0.0
  0
POINT
  5
376
  8
3
 10
4573.17042786396
 20
461.553494057632
 30
0.0
  0
POINT
  5
377
  8
3
 10
4574.4399417353
 20
464.117373097755
 30
0.0
  0
POINT
  5
378
  8
3
 10
4575.87948191432
 20
466.716044678692
 30
0.0
  0
POINT
  5
379
  8
3
 10
4577.51306044266
 20
469.380079994583
 30
0.0
  0
POINT
  5
37A
  8
3
 10
4579.36468936193
 20
472.140050239569
 30
0.0
  0
POINT
  5
37B
  8
3
 10
4581.45838071376
 20
475.02652660779
 30
0.0
  0
POINT
  5
37C
  8
3
 10
4583.81814653976
 20
478.070080293386
 30
0.0
  0
POINT
  5
37D
  8
2
 10
4586.46799888157
 20
481.301282490499
 30
0.0
  0
POINT
  5
37E
  8
3
 10
4588.8565622553
 20
483.819053855924
 30
0.0
  0
POINT
  5
37F
  8
3
 10
4591.56795339217
 20
486.039884097182
 30
0.0
  0
POINT
  5
380
  8
3
 10
4594.54878942073
 20
487.851892892638
 30
0.0
  0
POINT
  5
381
  8
2
 10
4597.74568746948
 20
489.143199920654
 30
0.0
  0
POINT
  5
382
  8
3
 10
4601.98898182949
 20
490.29603130004
 30
0.0
  0
POINT
  5
383
  8
3
 10
4606.28215613361
 20
491.2388375299
 30
0.0
  0
POINT
  5
384
  8
3
 10
4610.61369962553
 20
492.020085952434
 30
0.0
  0
POINT
  5
385
  8
3
 10
4614.9721015489
 20
492.688243909838
 30
0.0
  0
POINT
  5
386
  8
3
 10
4623.72343766466
 20
493.879157798053
 30
0.0
  0
POINT
  5
387
  8
2
 10
4632.44407843018
 20
495.199317932129
 30
0.0
  0
ENDBLK
  5
34E
  8
1
  0
BLOCK
  8
1
  2
11
 70
    64
 10
0.0
 20
0.0
 30
0.0
  3
11
  1

  0
TEXT
  5
38A
  8
1
100
AcDbText
 10
4533.79450341311
 20
1058.77370235771
 30
0.0
 40
7.0
  1
Size: 32
100
AcDbText
  0
TEXT
  5
38B
  8
1
100
AcDbText
 10
4533.79450341311
 20
1065.77370235771
 30
0.0
 40
7.0
  1
Model: JEAN
100
AcDbText
  0
TEXT
  5
38C
  8
1
100
AcDbText
 10
4533.79450341311
 20
1072.77370235771
 30
0.0
 40
7.0
  1
Piece Name: FLY-EXT
100
AcDbText
  0
TEXT
  5
38D
  8
1
100
AcDbText
 10
4533.79450341311
 20
1086.77370235771
 30
0.0
 40
7.0
  1
Quantity: 1,0
100
AcDbText
  0
TEXT
  5
38E
  8
1
100
AcDbText
 10
4533.79450341311
 20
1093.77370235771
 30
0.0
 40
7.0
  1
Material: SHEL
100
AcDbText
  0
POLYLINE
  5
38F
  8
1
100
AcDb2dPolyline
 66
     1
 10
0.0
 20
0.0
 30
0.0
 70
     1
  0
VERTEX
  5
390
  8
1
100
AcDbVertex
100
AcDb2dVertex
 10
4660.74201113892
 20
1017.097
 30
0.0
 70
     0
 50
0.0
  0
VERTEX
  5
391
  8
1
100
AcDbVertex
100
AcDb2dVertex
 10
4430.27000643921
 20
1017.09711444092
 30
0.0
 70
     0
 50
0.0
  0
VERTEX
  5
392
  8
1
100
AcDbVertex
100
AcDb2dVertex
 10
4426.41052783246
 20
1017.0001043969
 30
0.0
 70
     0
 50
0.0
  0
VERTEX
  5
393
  8
1
100
AcDbVertex
100
AcDb2dVertex
 10
4422.1789374096
 20
1016.87150151718
 30
0.0
 70
     0
 50
0.0
  0
VERTEX
  5
394
  8
1
100
AcDbVertex
100
AcDb2dVertex
 10
4417.90179784209
 20
1016.95512437319
 30
0.0
 70
     0
 50
0.0
  0
VERTEX
  5
395
  8
1
100
AcDbVertex
100
AcDb2dVertex
 10
4413.90567180137
 20
1017.49479153633
 30
0.0
 70
     0
 50
0.0
  0
VERTEX
  5
396
  8
1
100
AcDbVertex
100
AcDb2dVertex
 10
4412.11503968839
 20
1018.01183503665
 30
0.0
 70
     0
 50
0.0
  0
VERTEX
  5
397
  8
1
100
AcDbVertex
100
AcDb2dVertex
 10
4410.5171219589
 20
1018.73432157804
 30
0.0
 70
     0
 50
0.0
  0
VERTEX
  5
398
  8
1
100
AcDbVertex
100
AcDb2dVertex
 10
4409.15273894683
 20
1019.69272848192
 30
0.0
 70
     0
 50
0.0
  0
VERTEX
  5
399
  8
1
100
AcDbVertex
100
AcDb2dVertex
 10
4408.06271098612
 20
1020.91753306972
 30
0.0
 70
     0
 50
0.0
  0
VERTEX
  5
39A
  8
1
100
AcDbVertex
100
AcDb2dVertex
 10
4407.28785841069
 20
1022.43921266288
 30
0.0
 70
     0
 50
0.0
  0
VERTEX
  5
39B
  8
1
100
AcDbVertex
100
AcDb2dVertex
 10
4406.86900155448
 20
1024.28824458281
 30
0.0
 70
     0
 50
0.0
  0
VERTEX
  5
39C
  8
1
100
AcDbVertex
100
AcDb2dVertex
 10
4406.84696075143
 20
1026.49510615095
 30
0.0
 70
     0
 50
0.0
  0
VERTEX
  5
39D
  8
1
100
AcDbVertex
100
AcDb2dVertex
 10
4407.26255633545
 20
1029.09027468872
 30
0.0
 70
     0
 50
0.0
  0
VERTEX
  5
39E
  8
1
100
AcDbVertex
100
AcDb2dVertex
 10
4407.86159119557
 20
1031.1843591588
 30
0.0
 70
     0
 50
0.0
  0
VERTEX
  5
39F
  8
1
100
AcDbVertex
100
AcDb2dVertex
 10
4408.61350596219
 20
1033.23349814988
 30
0.0
 70
     0
 50
0.0
  0
VERTEX
  5
3A0
  8
1
100
AcDbVertex
100
AcDb2dVertex
 10
4410.2090634393
 20
1037.30480884463
 30
0.0
 70
     0
 50
0.0
  0
VERTEX
  5
3A1
  8
1
100
AcDbVertex
100
AcDb2dVertex
 10
4442.62706973267
 20
1128.67590319824
 30
0.0
 70
     0
 50
0.0
  0
VERTEX
  5
3A2
  8
1
100
AcDbVertex
100
AcDb2dVertex
 10
4660.7420460748
 20
1128.67563938052
 30
0.0
 70
     0
 50
0.0
  0
SEQEND
  5
3A3
  8
0
  0
POINT
  5
3A4
  8
2
 10
4660.74201113892
 20
1017.097
 30
0.0
  0
POINT
  5
3A5
  8
2
 10
4430.27000643921
 20
1017.09711444092
 30
0.0
  0
POINT
  5
3A6
  8
3
 10
4426.41052783246
 20
1017.0001043969
 30
0.0
  0
POINT
  5
3A7
  8
3
 10
4422.1789374096
 20
1016.87150151718
 30
0.0
  0
POINT
  5
3A8
  8
3
 10
4417.90179784209
 20
1016.95512437319
 30
0.0
  0
POINT
  5
3A9
  8
3
 10
4413.90567180137
 20
1017.49479153633
 30
0.0
  0
POINT
  5
3AA
  8
3
 10
4412.11503968839
 20
1018.01183503665
 30
0.0
  0
POINT
  5
3AB
  8
3
 10
4410.5171219589
 20
1018.73432157804
 30
0.0
  0
POINT
  5
3AC
  8
3
 10
4409.15273894683
 20
1019.69272848192
 30
0.0
  0
POINT
  5
3AD
  8
3
 10
4408.06271098612
 20
1020.91753306972
 30
0.0
  0
POINT
  5
3AE
  8
3
 10
4407.28785841069
 20
1022.43921266288
 30
0.0
  0
POINT
  5
3AF
  8
3
 10
4406.86900155448
 20
1024.28824458281
 30
0.0
  0
POINT
  5
3B0
  8
3
 10
4406.84696075143
 20
1026.49510615095
 30
0.0
  0
POINT
  5
3B1
  8
2
 10
4407.26255633545
 20
1029.09027468872
 30
0.0
  0
POINT
  5
3B2
  8
3
 10
4407.86159119557
 20
1031.1843591588
 30
0.0
  0
POINT
  5
3B3
  8
3
 10
4408.61350596219
 20
1033.23349814988
 30
0.0
  0
POINT
  5
3B4
  8
2
 10
4410.2090634393
 20
1037.30480884463
 30
0.0
  0
POINT
  5
3B5
  8
2
 10
4442.62706973267
 20
1128.67590319824
 30
0.0
  0
POINT
  5
3B6
  8
2
 10
4660.7420460748
 20
1128.67563938052
 30
0.0
  0
ENDBLK
  5
389
  8
1
  0
BLOCK
  8
0
  2
*MODEL_SPACE
 70
     0
 10
0.0
 20
0.0
 30
0.0
  3
*MODEL_SPACE
  1

  0
ENDBLK
  5
3B8
  8
0
  0
BLOCK
  8
0
  2
*PAPER_SPACE
 70
     0
 10
0.0
 20
0.0
 30
0.0
  3
*PAPER_SPACE
  1

  0
ENDBLK
  5
3BA
  8
0
  0
ENDSEC
  0
SECTION
  2
ENTITIES
  0
INSERT
  5
3BB
  8
1
  2
0
 10
0.0
 20
0.0
 30
0.0
  0
INSERT
  5
3BD
  8
1
  2
1
 10
0.0
 20
0.0
 30
0.0
  0
INSERT
  5
3BF
  8
1
  2
2
 10
0.0
 20
0.0
 30
0.0
  0
INSERT
  5
3C1
  8
1
  2
3
 10
0.0
 20
0.0
 30
0.0
  0
INSERT
  5
3C3
  8
1
  2
4
 10
0.0
 20
0.0
 30
0.0
  0
INSERT
  5
3C5
  8
1
  2
5
 10
0.0
 20
0.0
 30
0.0
  0
INSERT
  5
3C7
  8
1
  2
6
 10
0.0
 20
0.0
 30
0.0
  0
INSERT
  5
3C9
  8
1
  2
7
 10
0.0
 20
0.0
 30
0.0
  0
INSERT
  5
3CB
  8
1
  2
8
 10
0.0
 20
0.0
 30
0.0
  0
INSERT
  5
3CD
  8
1
  2
9
 10
0.0
 20
0.0
 30
0.0
  0
INSERT
  5
3CF
  8
1
  2
10
 10
0.0
 20
0.0
 30
0.0
  0
INSERT
  5
3D1
  8
1
  2
11
 10
0.0
 20
0.0
 30
0.0
  0
TEXT
  5
3D3
  8
1
100
AcDbText
 10
0.0
 20
0.0
 30
0.0
 40
7.0
  1
Units: METRIC
100
AcDbText
  0
TEXT
  5
3D4
  8
1
100
AcDbText
 10
0.0
 20
0.0
 30
0.0
 40
7.0
  1
Creation Date: 1/9/2026
100
AcDbText
  0
TEXT
  5
3D5
  8
1
100
AcDbText
 10
0.0
 20
0.0
 30
0.0
 40
7.0
  1
Creation Time: 3:39 PM
100
AcDbText
  0
TEXT
  5
3D6
  8
1
100
AcDbText
 10
0.0
 20
0.0
 30
0.0
 40
7.0
  1
Author: Morgan Tecnica
100
AcDbText
  0
TEXT
  5
3D7
  8
1
100
AcDbText
 10
0.0
 20
0.0
 30
0.0
 40
7.0
  1
Version: 2Design - 2.12.0.0 - XENON
100
AcDbText
  0
TEXT
  5
3D8
  8
1
100
AcDbText
 10
0.0
 20
0.0
 30
0.0
 40
7.0
  1
SAMPLE SIZE: 32
100
AcDbText
  0
ENDSEC
  0
EOF
